<svg width="426" height="271" viewBox="0 0 426 271" fill="none" xmlns="http://www.w3.org/2000/svg">
<path fill-rule="evenodd" clip-rule="evenodd" d="M0 135.5V271H213H426V135.5V0H213H0V135.5ZM115.961 12.936C115.776 13.4159 15.9526 188.608 14.4936 191.012C13.8681 192.043 13.8475 189.253 13.8464 102.246L13.845 12.4149H65.003C109.856 12.4149 116.136 12.4791 115.961 12.936ZM182.115 70.5877V128.76H146.045C115.671 128.76 110.003 128.684 110.16 128.275C110.395 127.665 177.467 13.462 177.946 12.8583C178.149 12.6022 179.103 12.4149 180.206 12.4149H182.115V70.5877ZM311.512 12.6572C300.446 14.0686 285.9 18.943 280.253 23.1322C268.861 31.5828 261.296 42.5786 257.887 55.6401C250.97 82.14 263.53 109.625 288.211 121.997C297.742 126.774 310.069 129.006 319.855 127.725C322.033 127.44 321.796 127.264 318.435 126.667C313.273 125.751 306.966 121.597 303.909 117.098C300.144 111.556 296.632 102.59 295.337 95.2157C294.468 90.2639 294.296 81.6427 294.977 77.1499C296.941 64.194 302.472 53.2253 311.695 43.9949C329.236 26.4402 356.251 22.0429 378.448 33.129C380.508 34.1577 383.458 35.8639 385.003 36.9202C389.035 39.6763 389.196 39.6944 386.417 37.0784C377.469 28.6533 365.832 21.4257 354.765 17.4185C350.035 15.7059 343.846 14.0831 338.492 13.1517L334.587 12.4724L373.549 12.4437L412.51 12.4149L412.484 47.088L412.458 81.7611L411.459 78.3481C408.682 68.8588 405.876 62.928 401.728 57.7744C392.199 45.9363 378.706 38.3848 363.752 36.5204C358.958 35.9224 349.464 36.2672 345.137 37.1962C327.24 41.0384 312.303 52.6219 304.595 68.6368C300.84 76.4373 299.253 82.8884 298.994 91.3909C298.898 94.541 298.946 98.3719 299.1 99.9039L299.381 102.689L299.785 100.206C300.896 93.3822 304.162 87.9427 309.364 84.2512C312.183 82.251 317.901 79.3916 322.17 77.8476C329.619 75.1535 339.832 73.934 347.545 74.8183C373.374 77.7795 393.176 95.8102 398.736 121.431C399.407 124.52 399.519 126.128 399.519 132.662C399.519 139.25 399.409 140.796 398.715 144.013C397.053 151.721 393.967 159.041 389.668 165.473L387.297 169.02L389.821 166.36C399.639 156.012 407.218 142.853 411.271 129.117L412.475 125.036L412.493 159.177L412.51 193.318L377.276 193.29C357.898 193.275 342.202 193.197 342.397 193.117C342.593 193.037 344.772 192.42 347.24 191.746C356.106 189.326 362.859 186.424 367.266 183.14C380.731 173.107 389.062 158.164 390.55 141.375C391.449 131.219 389.446 120.636 384.838 111.202C374.767 90.586 352.963 77.6919 330.193 78.8865C325.102 79.1536 323.7 79.5917 326.875 79.9234C333.881 80.6551 340.71 85.5448 344.626 92.6352C348.208 99.1211 350.832 106.836 351.784 113.685C352.282 117.269 352.298 125.981 351.813 129.47C350.832 136.527 347.829 145.176 344.344 150.986C341.462 155.791 338.867 159.104 334.941 162.99C321.074 176.716 301.457 182.51 282.24 178.554C275.169 177.099 266.4 173.308 260.57 169.187L257.552 167.054L260.306 169.699C271.272 180.232 286.284 188.486 301.395 192.292L304.767 193.141L268.755 193.231C248.947 193.281 232.612 193.192 232.454 193.034C232.296 192.876 232.208 175.038 232.257 153.394L232.347 114.04L233.18 118.801C235.248 130.638 239.303 141.506 243.976 147.736C252.66 159.314 266.024 167.472 280.309 169.914C285.103 170.734 293.306 170.89 298.022 170.251C322.176 166.98 341.714 148.704 346.849 124.579C347.705 120.56 348.134 112.035 347.719 107.288L347.441 104.108L346.961 106.874C345.971 112.576 343.24 117.624 339.201 121.221C333.773 126.055 321.578 130.82 311.68 131.972C306.734 132.549 298.409 132.206 293.762 131.235C273.288 126.956 256.612 112.308 250.118 92.8973C247.717 85.7169 247.309 83.0392 247.293 74.3122C247.281 67.5106 247.381 66.0406 248.075 62.8646C249.815 54.9069 252.799 47.8145 257.14 41.324L259.513 37.7768L257 40.4372C244.553 53.6161 236.312 70.0333 233.229 87.7912C232.822 90.1323 232.431 92.2074 232.358 92.4025C232.285 92.5976 232.213 74.68 232.198 52.5861L232.17 12.4149L272.374 12.4681C294.486 12.4972 312.098 12.5823 311.512 12.6572ZM399.963 16.1085C395.928 17.5937 394.571 22.62 397.352 25.7844C399.996 28.7927 404.082 28.7895 406.729 25.7769C410.791 21.1547 405.765 13.9732 399.963 16.1085ZM404.577 17.9161C405.747 18.682 406.827 20.5265 406.829 21.7612C406.831 23.2684 405.786 25.1817 404.551 25.9344C400.369 28.4823 395.358 23.5007 398.051 19.473C399.602 17.1528 402.394 16.487 404.577 17.9161ZM399.375 21.8148C399.375 24.948 399.425 25.1846 400.085 25.1846C400.66 25.1846 400.795 24.948 400.795 23.9431C400.795 22.9346 400.93 22.7016 401.511 22.7016C401.979 22.7016 402.431 23.1304 402.819 23.9431C403.254 24.8554 403.639 25.1846 404.268 25.1846H405.125L404.38 23.9228C403.491 22.4164 403.481 22.3469 404.175 22.3469C405.009 22.3469 405.603 20.746 405.143 19.7369C404.726 18.8239 403.491 18.445 400.928 18.445H399.375V21.8148ZM403.478 20.0412C404.16 20.568 404.16 20.5786 403.478 21.1054C403.099 21.398 402.341 21.6374 401.792 21.6374C400.921 21.6374 400.795 21.503 400.795 20.5733C400.795 19.6436 400.921 19.5092 401.792 19.5092C402.341 19.5092 403.099 19.7486 403.478 20.0412ZM318.719 83.9068C311.805 85.5821 306.073 91.111 304.028 98.0779C303.148 101.077 303.223 106.222 304.19 109.251C306.903 117.746 314.613 123.44 323.405 123.44C328.89 123.44 333.552 121.502 337.418 117.615C341.543 113.469 343.401 109.053 343.401 103.399C343.401 97.8363 341.542 93.3382 337.605 89.3729C332.651 84.3835 325.406 82.2865 318.719 83.9068ZM182.115 186.046V193.318H127.09C96.8262 193.318 72.065 193.231 72.065 193.124C72.065 193.018 73.938 189.746 76.2274 185.853L80.3901 178.775H131.252H182.115V186.046ZM412.51 232.514V259.65L213.089 259.561L13.6675 259.472L13.5756 232.868C13.5251 218.237 13.5603 206.066 13.6533 205.822C13.7886 205.468 54.0186 205.378 213.166 205.378H412.51V232.514ZM374.702 213.56C364.196 214.178 358.911 216.481 356.405 221.533C355.562 223.232 355.529 223.581 355.421 231.931C355.319 239.784 355.374 240.785 356.028 242.935C358.266 250.298 365.371 252.561 384.781 252.096C395.596 251.837 399.371 250.927 402.936 247.718C404.981 245.878 405.809 243.884 406.035 240.258L406.22 237.302H398.183H390.145V238.819C390.145 240.584 389.49 241.67 387.905 242.536C386.965 243.05 385.835 243.155 381.27 243.155C375.376 243.154 373.767 242.841 372.447 241.437C371.307 240.224 370.879 237.112 371.05 231.272C371.218 225.512 371.608 224.248 373.519 223.261C376.024 221.967 385.789 221.958 388.285 223.247C389.39 223.818 390.145 225.139 390.145 226.5V227.37H398.174H406.203L405.964 224.976C405.627 221.599 404.811 219.338 403.349 217.719C400.789 214.888 397.484 213.95 388.548 213.516C381.478 213.173 381.268 213.174 374.702 213.56ZM37.8398 213.84C37.6478 214.15 21.9749 248.607 21.0742 250.699L20.5747 251.859L28.6197 251.764L36.6648 251.668L37.9648 248.653L39.2648 245.638L49.749 245.544L60.2336 245.45L61.6912 248.648L63.1488 251.846H71.0089C75.3321 251.846 78.816 251.712 78.7507 251.549C78.6857 251.385 74.7286 242.766 69.9567 232.394L61.2812 213.537H49.6538C43.2592 213.537 37.9428 213.673 37.8398 213.84ZM75.97 217.968V222.404H83.2475H90.525V237.125V251.846H98.335H106.145V237.125V222.404H113.966H121.787L121.687 218.059L121.587 213.714L98.7787 213.623L75.97 213.531V217.968ZM124.605 232.691V251.846H144.307H164.01V247.412V242.978H151.94H139.87V228.257V213.537H132.237H124.605V232.691ZM181.787 214.196C181.487 214.756 165.374 250.113 164.828 251.409C164.678 251.766 166.293 251.84 172.687 251.764L180.735 251.668L182.074 248.653L183.413 245.638L193.876 245.544L204.34 245.45L205.802 248.648L207.264 251.846H215.114C222.47 251.846 222.946 251.807 222.661 251.225C222.493 250.884 218.535 242.264 213.864 232.07L205.372 213.537H193.756C182.796 213.537 182.12 213.574 181.787 214.196ZM224.715 232.691V251.846H232.347H239.98L239.972 250.693C239.968 250.059 239.816 245.39 239.636 240.317C239.154 226.769 239.112 222.766 239.451 222.724C239.619 222.703 243.384 229.207 247.819 237.177L255.883 251.668L269.054 251.761L282.225 251.854V232.695V213.537H274.538H266.851L267.08 220.365C267.684 238.413 267.761 242.977 267.458 242.971C267.282 242.967 263.407 236.342 258.847 228.25L250.557 213.537H237.636H224.715V232.691ZM284.947 213.773C284.816 213.903 284.71 215.898 284.71 218.207V222.404H292.165H299.62V237.125V251.846H307.43H315.24V237.125V222.404H322.872H330.505V217.971V213.537H307.844C295.381 213.537 285.077 213.643 284.947 213.773ZM334.055 232.691V251.846H341.687H349.32V232.691V213.537H341.687H334.055V232.691ZM53.5642 229.721C55.3438 233.842 56.8 237.394 56.8 237.613C56.8 237.894 54.7623 238.012 49.8775 238.012C45.8458 238.012 42.955 237.874 42.955 237.682C42.955 237.5 44.3285 234.109 46.0073 230.144C47.6861 226.18 49.2151 222.537 49.405 222.05C49.8345 220.946 49.5417 220.406 53.5642 229.721ZM197.527 229.409C199.399 233.75 200.93 237.461 200.93 237.656C200.93 237.882 198.397 238.012 194.007 238.012C189.508 238.012 187.085 237.884 187.085 237.647C187.085 237.341 188.213 234.612 193.367 222.455C193.644 221.8 193.928 221.321 193.998 221.391C194.067 221.461 195.656 225.069 197.527 229.409Z" fill="black"/>
</svg>
