<svg width="450" height="459" viewBox="0 0 450 459" fill="none" xmlns="http://www.w3.org/2000/svg">
<path fill-rule="evenodd" clip-rule="evenodd" d="M0 229.5V459H225H450L449.467 229.5L448.935 0H224.467H0V229.5ZM434.554 229.5V444.592H224.485H14.4165V230.873C14.4165 113.326 15.0343 16.5343 15.7902 15.781C16.5439 15.0256 111.075 14.4081 225.859 14.4081H434.554V229.5ZM198.741 42.4873C190.812 44.1607 176.447 49.2962 166.819 53.9006C152.44 60.7753 146.183 65.4373 131.781 80.0183C104.011 108.135 92.1213 136.459 91.9359 174.955C91.8288 197.102 94.7286 211.323 103.21 230.212C116.485 259.78 139.459 283.658 167.907 297.455C189.684 308.018 206.891 311.375 233.753 310.307C269.788 308.872 297.054 297.315 322.406 272.724C335.616 259.913 348.73 241.52 346.84 238.462C344.494 234.67 340.598 237.105 335.105 245.793C326.434 259.512 303.454 280.035 287.287 288.501C267.778 298.718 250.017 303.043 227.574 303.043C191.239 303.043 163.479 291.274 136.911 264.608C117.593 245.219 107.162 226.25 102.083 201.285C96.0158 171.46 99.3892 146.079 113.105 118.352C127.742 88.764 154.232 65.3241 186.022 53.8286C198.916 49.1645 204.084 48.4749 226.545 48.4255C248.301 48.3782 254.642 49.1398 267.479 53.3428C294.984 62.3458 323.069 84.5816 337.049 108.423C341.992 116.854 346.453 119.521 348.924 115.524C349.536 114.534 346.486 108.283 342.144 101.63C311.079 54.0241 254.543 30.7057 198.741 42.4873ZM211.098 53.5774C161.949 60.0961 119.346 98.9444 107.885 147.697C103.477 166.442 105.006 197.985 111.174 215.551C120.895 243.231 143.374 269.478 168.798 282.83C186.259 292 210.534 298.453 227.574 298.453C252.698 298.453 282.466 287.875 304.346 271.172C314.654 263.303 335.702 238.028 335.62 233.617C335.599 232.485 324.34 225.221 310.599 217.475C288.282 204.897 285.403 203.773 283.624 206.951C279.111 215.012 267.288 226.007 257.033 231.686C247.208 237.126 244.246 237.731 227.574 237.719C212.456 237.706 207.476 236.871 200.562 233.186C181.341 222.942 170.866 209.802 165.625 189.351C158.402 161.179 173.377 130.619 200.887 117.383C213.098 111.508 237.549 110.364 249.199 115.12C261.949 120.328 273.783 129.644 280.714 139.927L287.469 149.953L310.801 136.889C323.633 129.706 335.051 122.909 336.176 121.785C341.66 116.304 309.341 80.4897 287.934 68.3272C266.491 56.1421 235.957 50.2801 211.098 53.5774ZM254.465 64.0521C259.499 65.318 263.616 67.2445 263.616 68.3313C263.616 69.5416 261.014 69.6466 256.922 68.601C248.497 66.4521 206.823 66.3636 199.256 68.4774C195.823 69.4366 193.593 69.2575 193.593 68.0226C193.593 62.3478 236.558 59.5445 254.465 64.0521ZM252.764 75.9614C255.291 76.6345 257.285 78.1123 257.192 79.2444C257.099 80.3765 255.958 80.9795 254.657 80.5864C244.994 77.6657 225.568 76.6057 213.366 78.3326C205.55 79.4399 198.678 79.866 198.091 79.2814C192.616 73.8105 235.019 71.2356 252.764 75.9614ZM243.097 86.4628C249.113 87.6031 254.49 88.9925 255.048 89.5503C257.598 92.0985 253.102 92.296 240.405 90.1945C230.233 88.5088 223.602 88.5294 214.929 90.2707C203.748 92.5142 199.551 92.1581 202.494 89.2148C206.615 85.0961 228.178 83.6347 243.097 86.4628ZM249.85 100.684C253.442 104.273 250.779 104.71 239.227 102.419C231.768 100.939 224.615 100.891 217.003 102.271C204.52 104.531 199.95 102.18 210.509 98.9299C218.696 96.4106 246.829 97.6641 249.85 100.684ZM206.743 120.651C187.943 127.314 172.219 147.907 169.723 169.13C164.611 212.601 210.118 245.962 250.719 228.506C260.343 224.369 280.092 206.746 280.092 202.296C280.092 201.388 278.084 199.391 275.629 197.86C271.512 195.289 270.618 195.734 264.067 203.619C239.651 232.991 193.317 224.105 183.233 188.114C172.497 149.79 212.688 116.623 248.734 134.063C256.58 137.858 267.957 149.895 270.28 156.859C270.904 158.73 277.849 156.556 281.784 153.259C283.434 151.878 271.378 135.755 264.39 129.998C249.671 117.872 225.595 113.97 206.743 120.651ZM223.334 173.094C222.566 174.336 223.206 176.616 224.757 178.166C228.328 181.735 233.815 178.707 232.058 174.134C230.61 170.363 225.406 169.744 223.334 173.094ZM251.259 249.42C251.259 251.748 228.882 253.778 217.746 252.458C198.795 250.215 203.703 248.025 227.677 248.025C240.646 248.025 251.259 248.652 251.259 249.42ZM233.753 260.735C241.682 260.154 249.79 259.043 251.773 258.263C253.831 257.454 255.378 257.783 255.378 259.028C255.378 266.553 204.897 267.531 202.409 260.055C201.822 258.291 203.911 258.209 210.476 259.734C215.349 260.864 225.824 261.315 233.753 260.735ZM228.604 272.724C235.967 272.724 245.929 271.948 250.744 270.999C256.109 269.941 259.497 270.032 259.497 271.23C259.497 273.669 239.147 277.87 227.331 277.87C215.903 277.87 197.712 273.957 197.712 271.5C197.712 270.378 201.322 270.236 206.465 271.156C211.28 272.018 221.241 272.724 228.604 272.724ZM262.127 284.298C261.111 285.313 252.715 287.246 243.47 288.594C230.114 290.539 223.365 290.491 210.639 288.367C201.831 286.898 194.237 285.323 193.764 284.87C191.059 282.271 197.139 282.083 212.451 284.296C226.81 286.371 232.361 286.284 245.136 283.783C260.644 280.752 265.529 280.898 262.127 284.298ZM48.6762 339.769L43.2494 344.034V378.796C43.2494 411.904 43.4636 413.757 47.7577 417.754C53.5531 423.151 65.8298 423.307 72.3069 418.067C76.327 414.813 77.1158 412.227 77.1693 402.115L77.2311 390.047L70.6551 389.411C64.1574 388.781 64.073 388.892 63.4469 398.673C62.9897 405.818 61.9558 408.572 59.7254 408.572C57.1613 408.572 56.5373 403.887 56.0595 381.069C55.6744 362.668 56.2634 352.629 57.8389 350.732C61.3359 346.52 63.8444 349.237 63.8444 357.236C63.8444 362.845 64.6661 364.318 67.7945 364.318C75.2499 364.318 78.2609 361.914 78.2609 355.962C78.2609 338.658 61.6531 329.566 48.6762 339.769ZM377.825 340.555C372.868 345.508 372.769 346.271 372.769 379.303C372.769 411.865 372.93 413.151 377.535 417.476C384.312 423.838 396.101 423.519 402.831 416.791C407.251 412.375 407.906 410.076 407.373 400.839C406.769 390.36 406.561 390.029 400.175 389.411C393.691 388.783 393.59 388.913 392.966 398.513C392.604 404.101 391.214 408.619 389.704 409.115C387.632 409.796 387.194 403.591 387.645 379.941C387.991 361.698 389.024 349.886 390.275 349.863C391.407 349.84 392.622 353.086 392.973 357.071C393.454 362.532 394.556 364.318 397.44 364.318C404.769 364.318 407.78 361.885 407.78 355.962C407.78 338.25 389.525 328.86 377.825 340.555ZM86.9705 379.241L87.5286 420.922L94.222 421.566L100.915 422.212V379.885V337.561H93.6638H86.4144L86.9705 379.241ZM111.684 379.241L112.243 420.922L118.86 421.562L125.477 422.2L126.068 402.008L126.659 381.814L132.897 401.368C138.616 419.285 139.607 420.975 144.739 421.572L150.343 422.224V379.891V337.561H143.135H135.927L135.764 355.571L135.601 373.581L129.415 355.571C123.522 338.421 122.938 337.561 117.177 337.561H111.128L111.684 379.241ZM161.804 379.241L162.082 420.922H176.293H190.503L191.148 414.232C191.78 407.676 191.626 407.543 183.425 407.543H175.057V395.193V382.843H182.265C189.13 382.843 189.474 382.499 189.474 375.639C189.474 368.756 189.148 368.435 182.148 368.435H174.82L175.455 359.687C176.068 351.197 176.314 350.921 183.81 350.301C190.839 349.719 191.533 349.118 191.533 343.612V337.561H176.53H161.526L161.804 379.241ZM201.831 379.756V421.951H208.961H216.093L216.684 402.911L217.277 383.872L219.907 395.193C224.005 412.847 225.748 413.901 228.74 400.536C230.182 394.098 232.103 388.372 233.011 387.812C233.92 387.25 234.544 394.47 234.4 403.856L234.136 420.922H241.153H248.169L248.727 379.241L249.284 337.561H242.172H235.061L230.447 358.207C227.912 369.561 225.169 377.776 224.355 376.458C223.542 375.143 221.208 365.852 219.17 355.813L215.46 337.561H208.646H201.831V379.756ZM262.854 372.037C260.823 391 258.646 410.056 258.014 414.384L256.862 422.255L263.842 421.588C270.043 420.996 270.939 420.133 271.854 413.88C272.42 410.008 274.041 406.458 275.456 405.991C278.1 405.12 278.843 406.503 280.989 416.29C282.005 420.922 283.346 421.951 288.369 421.951C295.908 421.951 295.873 422.739 290.389 376.668C288.165 357.989 286.33 341.55 286.307 340.133C286.282 338.439 282.905 337.561 276.405 337.561H266.542L262.854 372.037ZM296.568 343.735C296.568 348.935 297.375 349.91 301.667 349.91H306.768L307.33 385.416L307.895 420.922L314.588 421.566L321.281 422.212V386.06V349.91H326.43C330.778 349.91 331.579 348.949 331.579 343.735V337.561H314.073H296.568V343.735ZM345.995 379.756V421.951H352.174H358.352V379.756V337.561H352.174H345.995V379.756ZM278.473 382.331C278.887 389.917 278.296 393.137 276.487 393.137C273.604 393.135 272.92 375.116 275.472 366.377L276.973 361.231L277.431 366.377C277.68 369.207 278.149 376.386 278.473 382.331Z" fill="black"/>
</svg>
