<svg width="451" height="348" viewBox="0 0 451 348" fill="none" xmlns="http://www.w3.org/2000/svg">
<path fill-rule="evenodd" clip-rule="evenodd" d="M211.861 0.40659C208.985 0.775201 202.935 1.82951 198.417 2.74984C155.829 11.4253 118.921 44.452 105.528 85.8695C100.254 102.177 99.2531 108.531 99.2531 125.684C99.2531 142.293 99.7877 146.437 103.801 160.96C111.103 187.382 127.523 211.074 150.299 228.054C170.995 243.483 193.91 251.372 220.65 252.274C256.225 253.472 287.167 241.659 312.278 217.291C328.946 201.115 339.807 183.181 346.078 161.477C350.205 147.194 351.418 137.172 350.89 121.721C349.721 87.5501 335.337 56.0834 310.578 33.5324C300.799 24.6247 293.213 19.2834 282.758 13.9421C265.145 4.94327 248.511 0.690381 228.559 0.0847495C222.252 -0.107086 214.738 0.0379796 211.861 0.40659ZM243.772 14.4011C258.751 16.876 272.99 22.3528 285.501 30.4527C294.645 36.3727 297.138 38.4305 306.13 47.4825C320.186 61.6332 328.721 76.8683 335.065 99.1284C336.863 105.439 337.142 108.138 337.479 122.513C337.922 141.368 337.049 148.234 332.475 161.906C326.821 178.804 318.359 192.46 305.386 205.622C296.17 214.972 294.055 216.709 284.413 222.84C263.742 235.986 235.405 242.256 211.415 238.993C183.602 235.211 160.546 223.308 142.102 203.214C130.498 190.572 122.77 177.582 117.525 161.906C112.951 148.234 112.078 141.368 112.521 122.513C112.856 108.222 113.145 105.398 114.916 99.0943C121.018 77.3693 129.995 61.3859 144.31 46.7548C151.081 39.8352 153.406 37.9613 163.708 31.1257C187.239 15.5141 215.18 9.67734 243.772 14.4011ZM212.346 25.7979C202.05 27.0361 187.74 31.7242 177.944 37.0687C159.525 47.1163 143.065 64.4172 134.817 82.4006C131.597 89.4209 127.707 100.547 127.098 104.479L126.637 107.452H160.595H194.552V82.0717V56.6914L190.4 58.7937C183.293 62.391 179.399 65.4152 171.221 73.6879L163.313 81.6888L172.21 81.9131L181.107 82.1375V88.453V94.7685H162.522C150.39 94.7685 143.937 94.4871 143.937 93.9584C143.937 92.2231 150.654 79.8275 154.411 74.6305C160.199 66.6233 169.391 57.8995 177.944 52.2959C184.797 47.8051 198.094 41.7774 204.026 40.4718L206.415 39.9454V79.6444V119.343H165.685H124.956V126.081V132.819H165.685H206.415V172.786V212.755L203.449 211.957C197.701 210.41 186.185 205.438 180.792 202.174C170.78 196.117 161.212 187.262 153.816 177.21C151.098 173.516 145.352 162.991 144.383 159.931L143.83 158.185H162.469H181.107V164.131V170.076H172.368C165.182 170.076 163.742 170.269 164.262 171.164C166.113 174.349 174.332 182.712 179.531 186.702C184.582 190.577 192.708 195.443 194.13 195.443C194.362 195.443 194.552 184.206 194.552 170.472V145.502H160.53H126.508L126.987 147.682C128.226 153.313 130.065 159.049 132.627 165.27C146.433 198.804 178.075 222.663 214.521 227.022L219.859 227.66V126.335C219.859 30.3219 219.787 25.0155 218.475 25.1186C217.715 25.178 214.956 25.484 212.346 25.7979ZM231.917 126.308L232.118 227.548L234.886 227.314C275.67 223.873 312.629 193.123 323.11 153.912C324.172 149.94 325.041 146.423 325.042 146.097C325.043 145.77 309.919 145.502 291.432 145.502H257.821V170.516V195.529L263.342 192.622C271.768 188.183 287.083 174.334 287.083 171.153C287.083 170.314 285.25 170.076 278.779 170.076H270.475V164.131V158.185H289.524H308.573L304.091 166.674C292.185 189.22 273.81 204.28 249.319 211.563L245.167 212.797V172.808V132.819H285.792H326.418L326.83 129.737C327.057 128.042 327.057 125.01 326.831 122.999L326.42 119.343H285.793H245.167V79.6079V39.8733L247.655 40.3719C252.434 41.3303 266.043 47.2756 272.385 51.1765C280.303 56.047 290.485 65.3502 296.102 72.8453C300.873 79.2131 308.718 93.4288 307.908 94.2398C307.619 94.5307 299.078 94.7685 288.928 94.7685H270.475V88.4268V82.0851H279.228H287.981L286.383 79.9052C283.993 76.6471 276.003 68.5694 272.24 65.6071C269.161 63.1837 259.397 57.5111 258.305 57.5111C258.038 57.5111 257.821 68.7478 257.821 82.4815V107.452H291.432C309.919 107.452 325.044 107.287 325.044 107.086C325.044 104.22 321.134 91.6531 318.242 85.2251C307.313 60.9309 286.936 41.3311 262.986 32.0738C254.78 28.9022 243.81 26.138 237.057 25.5411L231.716 25.0694L231.917 126.308ZM0 320.295V347.643H23.7258H47.4517V342.491V337.338H29.2619H11.0721V329.807V322.276H26.8893H42.7065V317.917V313.557H26.8893H11.0721V308.008V302.459H25.1968C32.9663 302.459 40.9737 302.232 42.9912 301.955L46.6608 301.45V297.198V292.946H23.3304H0V320.295ZM83.8313 320.295V347.643H89.3539H94.8764L95.0876 327.861L95.2988 308.079L105.047 317.673L114.796 327.267L120.073 322.097C122.977 319.253 127.309 315.118 129.701 312.907L134.051 308.888L134.262 328.265L134.474 347.643H140.391H146.309V320.295V292.946L140.18 292.949L134.051 292.95L124.62 302.461C119.433 307.691 114.979 311.971 114.722 311.971C114.465 311.971 109.995 307.691 104.789 302.459L95.3233 292.946H89.5777H83.8313V320.295ZM179.525 320.234V347.643H185.031H190.538L190.765 340.311L190.993 332.978L204.438 332.582C217.416 332.199 218.047 332.103 222.627 329.807C228.215 327.006 231.225 323.097 232.529 316.947C234.399 308.132 230.889 299.685 223.697 295.693L219.464 293.343L199.495 293.084L179.525 292.826V320.234ZM268.102 320.295V347.643H273.638H279.174V320.295V292.946H273.638H268.102V320.295ZM315.554 320.234V347.643H321.09H326.626V339.716V331.789H335.19H343.754L348.832 339.668L353.91 347.547L360.52 347.595C368.298 347.652 368.238 348.25 361.45 338.234C358.826 334.361 356.678 330.814 356.678 330.354C356.678 329.894 357.357 329.301 358.187 329.038C360.669 328.248 365.988 321.87 366.896 318.594C368 314.604 367.981 308.145 366.854 304.757C365.716 301.341 361.938 297.264 357.865 295.056C354.908 293.455 353.418 293.326 335.127 293.083L315.554 292.824V320.234ZM402.548 320.295V347.643H426.312H450.075L449.84 342.689L449.605 337.734L431.612 337.521L413.62 337.308V329.792V322.276H429.438H445.255V317.917V313.557H429.438H413.62V308.008V302.459H427.745C435.515 302.459 443.522 302.232 445.54 301.955L449.209 301.45V297.198V292.946H425.879H402.548V320.295ZM215.758 303.572C220.959 306.268 222.818 312.238 220.101 317.52C217.7 322.186 214.807 323.067 201.867 323.068L190.598 323.069V312.245V301.419L202.114 301.944C209.448 302.278 214.403 302.869 215.758 303.572ZM351.071 303.527C356.01 305.893 357.825 312.918 354.627 317.288C351.584 321.447 348.679 322.274 337.105 322.275L326.626 322.276V311.882V301.488L337.895 302.051C344.093 302.361 350.023 303.025 351.071 303.527Z" fill="black"/>
</svg>
