<svg width="342" height="521" viewBox="0 0 342 521" fill="none" xmlns="http://www.w3.org/2000/svg">
<path fill-rule="evenodd" clip-rule="evenodd" d="M320.981 0.750618C320.523 1.20824 289.81 1.68509 252.727 1.8091C215.646 1.93486 184.32 2.64575 183.114 3.38983C181.725 4.24919 184.357 5.8177 190.308 7.67964C204.08 11.9869 234.746 27.7226 242.815 34.622C251.111 41.7152 252.103 44.0121 255.514 64.0586C260.341 92.4227 260.313 93.0812 253.706 107.839C239.91 138.648 231.416 153.717 227.254 154.759C225.021 155.32 207.675 155.434 188.708 155.013C143.529 154.008 143.09 153.832 138.858 135.115C135.217 119.002 132.44 94.6706 132.396 78.4808C132.368 68.1947 132.917 66.4131 138.048 60.1408C143.613 53.3375 151.643 45.7762 156.113 43.1282C159.967 40.8454 196.268 39.7415 203.503 41.6872C207.227 42.6898 213.441 46.5482 217.309 50.2599C224.769 57.4195 226.817 64.1075 229.439 89.8725L230.505 100.353L220.768 111.128C212.409 120.378 209.786 122.168 202.215 123.791C197.366 124.829 188.85 125.679 183.289 125.679C174.571 125.679 172.897 125.138 171.145 121.749C166.366 112.508 163.842 101.755 163.842 90.6446C163.842 80.1454 164.267 78.6205 167.471 77.604C169.468 76.9717 171.507 76.8599 172.004 77.3542C172.499 77.8502 176.178 77.3332 180.178 76.2049C184.179 75.0765 189.418 74.1525 191.823 74.1525C195.918 74.1525 196.228 74.7866 196.719 84.1959L197.244 94.2392H191.824C187.141 94.2392 185.955 95.2418 183.096 101.621C181.277 105.68 179.94 109.152 180.123 109.336C181.029 110.24 208.319 106.387 209.366 105.207C210.031 104.459 211.792 98.8644 213.282 92.7772L215.992 81.7086L209.343 69.1972L202.696 56.6859L188.078 56.9199C180.039 57.0492 171.14 57.2465 168.303 57.3566C164.498 57.5068 160.939 59.9067 154.728 66.5144C150.097 71.4417 145.847 77.307 145.284 79.5515C144.142 84.0981 154.079 121.016 157.921 126.493C159.253 128.394 160.345 131.317 160.345 132.987C160.345 135.069 162.618 136.636 167.571 137.969C175.463 140.091 197.571 140.47 204.989 138.61C213.119 136.573 244.286 102.476 244.286 95.6191C244.286 93.2925 237.35 65.4559 233.772 53.4144C231.228 44.8557 225.399 39.448 211.059 32.3391C195.934 24.8424 183.215 21.1237 167.34 19.5552L154.224 18.2592L153.677 12.5878C153.266 8.33639 152.106 6.66134 149.039 5.89106C146.79 5.32863 128.113 5.71814 107.535 6.75915C86.9577 7.80016 67.8768 8.65254 65.1348 8.65254H60.1473L61.3452 90.3092C65.238 355.701 68.0884 476.223 70.5227 478.434C71.9113 479.694 147.271 477.975 177.832 475.985C185.046 475.516 204.72 474.716 221.552 474.207C238.384 473.699 260.025 472.843 269.643 472.305C279.261 471.769 298.09 471.261 311.487 471.179C324.883 471.096 337.306 470.648 339.095 470.18C342.11 469.394 342.28 467.774 341.395 448.154C340.87 436.509 340.053 417.94 339.58 406.893C339.106 395.845 338.331 379.339 337.857 370.213C337.385 361.086 336.563 327.353 336.031 295.247C335.498 263.144 334.793 236.42 334.463 235.861C333.571 234.353 331.18 68.5562 331.535 32.8893C331.843 2.18638 331.832 2.10079 327.849 1.03533C322.959 -0.272928 322.045 -0.311355 320.981 0.750618ZM34.5576 22.9735C39.3719 44.2339 39.2687 44.9029 31.123 45.0146L24.315 45.109L23.1836 35.1774C21.538 20.7395 20.3593 15.6392 18.6682 15.6392C17.8463 15.6392 17.6365 22.7778 18.2013 31.5007L19.2314 47.3622L14.1529 46.784C9.09024 46.2076 9.07275 46.1622 7.67024 30.4859C6.89729 21.8399 5.41958 13.9799 4.38606 13.0192C3.05175 11.7791 2.8244 15.2707 3.6061 25.073C4.20943 32.6622 4.70433 41.9789 4.70433 45.7762V52.6808L13.011 51.6031C33.4488 48.9499 41.4984 47.591 42.462 46.6303C44.0796 45.0129 35.4284 9.85774 33.232 9.12589C31.9414 8.69621 32.3926 13.414 34.5576 22.9735ZM10.3529 69.3492C8.22635 71.2164 6.11734 76.4861 4.93342 82.8859C1.15083 103.352 0.563247 101.951 13.4482 103.21C19.7 103.82 29.3585 104.913 34.9091 105.638C43.8575 106.806 44.8788 106.63 43.903 104.09C43.2979 102.515 41.2623 101.226 39.3772 101.226C33.5905 101.226 28.9475 97.7605 29.271 93.682C29.4372 91.5878 29.4879 86.2866 29.3812 81.906C29.0577 68.5877 18.8746 61.87 10.3529 69.3492ZM21.802 72.5054C25.1964 74.8791 25.6896 76.7918 25.6896 87.5809V99.9368L19.1317 98.8539C15.5257 98.2583 11.1975 97.7622 9.51344 97.7518C7.34322 97.7378 6.4566 96.3352 6.46359 92.9292C6.48283 82.6798 12.1768 69.7859 16.6816 69.7859C17.3602 69.7859 19.665 71.0103 21.802 72.5054ZM23.9408 118.155C6.07012 121.15 -0.641654 129.901 2.90835 145.575C5.01736 154.889 8.27007 157.554 18.1366 158.048C27.4698 158.517 34.4421 155.682 40.7937 148.835C45.963 143.265 46.7097 127.711 42.0318 123.038C39.1568 120.167 31.8032 116.728 29.5106 117.183C28.8513 117.314 26.3453 117.751 23.9408 118.155ZM36.9569 126.069C44.5553 136.903 34.8059 153.626 20.8892 153.626C11.8323 153.626 7.72445 149.167 7.72445 139.331C7.72445 133.097 8.63381 131.193 13.5811 127.07C21.2442 120.68 32.8315 120.182 36.9569 126.069ZM41.0927 179.786C40.2411 191.541 37.1825 196.115 28.1973 199.078C19.4482 201.961 14.1337 197.722 10.3424 184.837C8.68453 179.202 6.7364 174.589 6.01591 174.588C3.42598 174.584 4.7533 190.723 7.76468 195.859C13.0232 204.826 26.1355 207.851 34.4421 202.016C36.0877 200.859 39.587 197.354 42.2172 194.227C46.5296 189.102 46.8829 187.682 45.7986 179.819C44.1111 167.556 41.9793 167.542 41.0927 179.786ZM241.64 183.284C243.007 185.494 245.548 225.835 246.975 268.017C247.593 286.261 248.337 301.588 248.631 302.077C249.17 302.973 251.522 353.366 251.933 372.815C252.148 382.961 252.314 383.313 257.401 384.399C260.287 385.016 265.907 385.613 269.893 385.726C274.746 385.864 277.488 386.844 278.199 388.696C278.784 390.215 279.261 399.235 279.261 408.741V426.022L234.23 424.981C191.539 423.996 164.119 425.622 139.074 430.626C133.354 431.769 132.961 430.673 131.376 409.278L130.196 393.323L146.246 392.055L162.296 390.785L161.263 381.809C160.693 376.873 159.439 349.253 158.475 320.433C156.828 271.164 155.072 233.557 154.385 232.736C154.217 232.537 147.888 233.918 140.321 235.807C132.754 237.695 126.148 238.827 125.642 238.32C125.135 237.813 124.17 232.895 123.498 227.389C122.827 221.884 121.725 214.543 121.052 211.074L119.826 204.768L129.155 203.558C134.286 202.892 142.813 201.257 148.103 199.923C153.393 198.589 161.52 197.067 166.163 196.541C170.806 196.016 175.253 195.186 176.045 194.695C176.837 194.206 183.269 192.632 190.338 191.198C197.406 189.763 210.272 187.083 218.928 185.242C237.646 181.26 240.249 181.035 241.64 183.284ZM2.91009 222.714C-0.629413 230.015 -0.743083 231.195 1.50758 237.104C3.16541 241.454 5.56647 244.105 8.91187 245.28C13.4849 246.887 14.417 246.4 21.0885 238.909C29.2675 229.725 33.8266 227.761 38.6164 231.361C41.4407 233.483 41.759 235.262 40.7867 243.516C40.1186 249.202 40.3267 253.186 41.2956 253.186C43.1807 253.186 44.188 250.169 45.8354 239.592C47.4215 229.419 43.6179 223.493 35.5036 223.493C29.0682 223.493 21.2617 228.643 19.5549 234.014C18.1978 238.289 10.8163 240.357 7.30475 237.447C3.27209 234.104 4.15347 226.364 9.09549 221.728C12.3587 218.665 12.92 217.25 11.2814 216.211C7.62477 213.893 6.92002 214.44 2.91009 222.714ZM8.90138 269.605C3.34029 275.159 2.95556 276.289 2.95556 287.071C2.95556 295.059 3.62709 298.639 5.14152 298.732C11.8043 299.135 32.8368 298.365 39.225 297.485C48.5932 296.192 47.1837 293.359 37.172 293.359C30.1174 293.359 29.5526 293.003 28.5313 287.901C26.5499 278.01 27.2005 276.504 35.3078 272.209C39.636 269.915 43.1772 267.054 43.1772 265.853C43.1772 262.78 40.8042 263.121 33.9193 267.178L27.9595 270.691L23.4879 267.178C17.4424 262.429 15.8143 262.7 8.90138 269.605ZM21.218 272.789C22.7569 274.981 23.9408 280.285 23.9408 284.98C23.9408 293.913 21.9839 295.45 11.6994 294.596C7.71921 294.266 7.28027 293.419 6.8011 285.152C6.3814 277.873 6.98822 275.358 9.86145 272.488C14.4887 267.867 17.8288 267.956 21.218 272.789ZM4.05904 312.201C3.57288 312.988 3.62884 319.652 4.1867 327.007L5.19923 340.379L12.3832 341.333C16.3354 341.859 24.9743 342.088 31.5812 341.841L43.5934 341.393L44.2282 326.983C44.585 318.906 44.1565 312.573 43.2524 312.573C41.8202 312.573 40.7465 317.751 39.2652 331.786C38.8945 335.307 37.7158 336.257 33.1813 336.696C28.4561 337.152 27.3859 336.554 26.4817 332.954C25.8907 330.598 25.6668 326.89 25.9851 324.714C26.3034 322.537 25.6248 320.438 24.4777 320.047C23.0979 319.575 22.2113 322.177 21.8545 327.744C21.3561 335.557 20.9609 336.193 16.2952 336.725C13.5339 337.042 10.6099 336.636 9.80024 335.828C8.98881 335.017 8.13017 329.396 7.89059 323.337C7.48138 312.976 6.08761 308.926 4.05904 312.201ZM6.83433 372.84C7.12638 384.727 8.04098 392.938 9.07625 392.949C10.0381 392.958 11.0611 389.096 11.3479 384.366L11.8708 375.765L28.8356 374.527C47.481 373.164 48.6579 372.855 47.4285 369.655C46.778 367.961 43.2314 367.823 31.819 369.046C23.696 369.916 15.8457 370.165 14.375 369.601C12.5178 368.889 11.6994 366.153 11.6994 360.66C11.6994 354.716 11.0331 352.746 9.02029 352.746C6.74165 352.746 6.41638 355.743 6.83433 372.84ZM6.4531 407.909C6.4531 409.811 9.2931 410.386 18.6945 410.386C35.028 410.386 35.0682 412.25 19.2016 433.779C6.14007 451.499 6.06487 450.758 20.8087 449.56C27.8213 448.991 36.3133 448.31 39.6797 448.048C43.2402 447.77 46.0032 446.545 46.2848 445.118C46.6573 443.23 44.9365 442.813 38.8123 443.298C30.1874 443.983 22.192 442.582 22.192 440.385C22.192 438.649 39.3352 412.227 42.5389 409.027C43.8523 407.717 44.926 406.302 44.926 405.886C44.926 405.469 36.2696 405.197 25.6896 405.28C10.3231 405.403 6.4531 405.93 6.4531 407.909ZM5.76059 470.803C5.173 472.331 5.13628 474.296 5.67665 475.17C6.21702 476.045 16.0556 476.759 27.5415 476.759C43.805 476.759 48.4235 476.242 48.4235 474.424C48.4235 472.745 43.1353 471.516 29.6243 470.055C6.12258 467.512 7.03544 467.483 5.76059 470.803ZM318.171 486.649C314.1 488.291 315.835 495.204 321.336 499.267C329.442 505.253 327.912 510.548 317.734 511.745L309.864 512.669L316.859 513.691C321.796 514.412 324.755 513.93 326.915 512.058C331.449 508.126 330.687 504.956 323.666 498.531C320.194 495.356 317.881 491.91 318.523 490.872C320 488.483 329.405 488.399 330.867 490.76C331.472 491.737 332.745 492.055 333.698 491.466C334.697 490.851 334.088 489.381 332.266 488.001C329.118 485.617 322.344 484.967 318.171 486.649ZM231.45 498.811C232.494 510.599 235.769 521.687 235.024 510.908C234.73 506.681 235.561 505.436 239.658 503.958C244.065 502.369 245.13 502.716 248.755 506.924C253.524 512.463 255.693 513.168 253.106 508.342C252.118 506.5 251.746 502.765 252.279 500.046C253.767 492.434 249.847 488.671 239.379 487.667L230.386 486.804L231.45 498.811ZM274.314 497.63C273.095 503.529 271.694 509.401 271.203 510.683C270.605 512.237 272.145 513.282 275.837 513.822C288.367 515.659 296.749 510.245 296.749 500.311C296.749 493.435 292.16 489.44 282.454 487.866L276.531 486.907L274.314 497.63ZM192.989 492.158C191.408 493.901 189.644 497.688 189.065 500.573C187.641 507.68 195.152 516.933 202.345 516.933C209.718 516.933 212.808 512.798 212.808 502.933C212.808 496.119 212.033 493.882 208.92 491.705C203.716 488.064 196.513 488.268 192.989 492.158ZM157.52 493.237C143.721 499.237 152.386 521.086 167.268 517.822C174.823 516.164 173.857 513.439 165.715 513.439C157.926 513.439 153.35 509.916 153.35 503.922C153.35 499.192 155.92 496.71 162.541 495.05C165.18 494.388 167.34 493.146 167.34 492.291C167.34 490.123 163.926 490.453 157.52 493.237ZM248.593 493.538C250.761 495.704 250.94 496.898 249.378 498.778C246.631 502.084 233.793 502.049 233.793 498.736C233.793 497.373 233.316 495.015 232.731 493.496C231.871 491.257 233.011 490.733 238.728 490.733C242.876 490.733 246.942 491.889 248.593 493.538ZM291.128 493.461C298.242 498.439 292.214 511.693 282.837 511.693C275.634 511.693 274.315 509.224 276.264 499.384C277.799 491.625 278.453 490.733 282.601 490.733C285.146 490.733 288.982 491.96 291.128 493.461ZM207.861 495.37C213.889 500.818 211.155 513.439 203.95 513.439C199.514 513.439 191.823 506.639 191.823 502.718C191.823 493.256 200.914 489.091 207.861 495.37ZM76.7641 495.454C74.008 495.99 73.0182 497.15 73.6006 499.16C74.0657 500.769 75.0398 506.802 75.7638 512.566C76.8445 521.182 77.2537 522.115 78.0599 517.806C78.9151 513.245 79.8769 512.496 85.4782 512.031C90.5146 511.612 92.3316 512.276 93.8391 515.088C94.8971 517.064 96.6441 518.679 97.7213 518.679C98.8388 518.679 98.4593 517.333 96.8382 515.542C94.8429 513.34 94.292 510.583 94.9897 506.292C95.6473 502.24 95.1874 499.536 93.6257 498.276C90.6511 495.878 82.0069 494.43 76.7641 495.454ZM114.726 498.156C114.642 500.318 114.349 505.818 114.074 510.383C113.616 517.968 113.91 518.679 117.503 518.679C119.665 518.679 124.091 519.186 127.337 519.804C130.582 520.422 132.656 520.3 131.946 519.532C131.236 518.763 127.695 517.657 124.077 517.074C119.002 516.255 117.372 515.119 116.94 512.106C116.463 508.758 117.213 508.176 122.187 508.042L127.993 507.885L122.309 506.245C117.918 504.978 116.626 503.646 116.626 500.385C116.626 496.605 117.495 496.095 124.932 495.51L133.239 494.855L124.058 494.54C115.65 494.252 114.864 494.556 114.726 498.156ZM91.793 499.815C95.1489 503.167 94.3025 504.713 87.5662 507.523C79.4869 510.896 76.4038 509.651 76.4038 503.013C76.4038 498.048 76.8165 497.719 83.0492 497.719C86.7041 497.719 90.6388 498.662 91.793 499.815Z" fill="black"/>
</svg>
