<svg width="412" height="358" viewBox="0 0 412 358" fill="none" xmlns="http://www.w3.org/2000/svg">
<path fill-rule="evenodd" clip-rule="evenodd" d="M18.3117 0.973925C6.96848 3.19595 0 11.3592 0 22.4278C0 33.1132 5.29004 39.7995 16.1543 42.8447C23.4556 44.8913 28.6259 44.8994 35.4523 42.8741C41.2203 41.163 48.066 35.5248 49.2066 31.545C49.8276 29.3818 49.58 29.2642 44.4016 29.2642C39.5287 29.2642 38.7047 29.5865 36.7208 32.2667C30.9101 40.1178 16.4587 37.9364 12.5619 28.6195C10.6643 24.0842 10.8338 20.4552 13.184 15.2823C14.7447 11.8468 16.1441 10.4956 19.8267 8.86859C26.159 6.07079 31.7027 7.0044 36.3554 11.6522C39.3125 14.6061 40.4572 15.0724 44.7517 15.0724C48.8403 15.0724 49.7241 14.7521 49.7241 13.2711C49.7241 8.34553 41.9124 2.61611 32.9377 0.95872C26.2594 -0.274949 24.6814 -0.272922 18.3117 0.973925ZM72.1954 1.02867C67.1946 2.46609 61.1769 6.76112 58.8166 10.5767C54.2866 17.8976 55.3409 29.3889 61.1485 35.9961C66.1412 41.6759 71.9255 43.7925 82.7044 43.8847C93.8761 43.98 99.844 41.9597 104.898 36.3722C115.651 24.4826 110.454 5.95016 95.0868 1.39156C89.3939 -0.297256 77.4661 -0.485798 72.1954 1.02867ZM115.685 22.1683V43.4559H135.473H155.261V39.4011V35.3464H141.054H126.847V18.1135V0.880662H121.266H115.685V22.1683ZM159.343 15.8327C159.37 34.4127 160.531 37.8238 168.085 41.5309C172.174 43.537 174.585 43.9526 182.153 43.9577C189.872 43.9618 192.071 43.5705 196.36 41.4285C204.124 37.5501 204.982 35.0554 204.983 16.3395L204.985 0.880662H199.404H193.823L193.766 14.3121C193.694 31.1476 192.736 34.3387 187.179 36.2577C182.239 37.9637 176.304 37.1061 173.47 34.2759C171.686 32.4938 171.498 30.803 171.498 16.593V0.880662H165.409H159.32L159.343 15.8327ZM217.163 22.1277V43.4559H222.212H227.263L227.54 25.9697L227.818 8.48339L231.048 18.6204C232.825 24.1957 235.266 32.065 236.474 36.1066L238.671 43.4559H244.03C250.337 43.4559 249.437 44.9886 255.922 23.2165L260.291 8.55232L260.569 26.0041L260.846 43.4559H266.404H271.961V22.1683V0.880662H263.414H254.867L253.831 4.17518C253.261 5.98665 251.108 12.9437 249.046 19.6341C246.984 26.3245 245.033 32.2546 244.713 32.8121C244.391 33.3686 241.806 26.5262 238.967 17.6067L233.806 1.38751L225.485 1.09354L217.163 0.798551V22.1277ZM286.4 21.8165L286.675 42.9491L302.404 42.9207C321.231 42.8862 324.701 42.2821 329.317 38.2324C332.352 35.5704 332.847 34.505 332.847 30.6337C332.847 27.2043 332.254 25.5378 330.356 23.6432C328.986 22.2747 327.063 21.1546 326.082 21.1546C324.774 21.1546 325.221 20.3852 327.763 18.2646C330.616 15.8864 331.209 14.7156 331.123 11.6461C331.001 7.37846 329.721 5.49907 325.311 3.11891C322.829 1.77981 318.506 1.35913 304.159 1.05908L286.126 0.682992L286.4 21.8165ZM340.966 22.1683V43.4559H347.054H353.143V22.1683V0.880662H347.054H340.966V22.1683ZM377.581 4.29479C376.419 6.17216 375.468 7.94004 375.468 8.22287C375.468 8.50569 371.815 16.2666 367.35 25.4679C362.885 34.6692 359.232 42.5041 359.232 42.8771C359.232 43.2512 361.836 43.4205 365.021 43.2532C370.732 42.9531 370.839 42.8903 372.884 38.6409L374.959 34.3327L385.615 34.3367L396.271 34.3398L398.147 38.8983L400.024 43.4559H406.012C409.306 43.4559 412 43.1234 412 42.718C412 42.3115 407.585 32.732 402.188 21.4303L392.375 0.880662H386.034C379.929 0.880662 379.614 1.00737 377.581 4.29479ZM91.2956 8.73884C102.026 14.1449 101.053 31.617 89.7825 35.9171C78.4688 40.2334 67.5995 33.4933 67.5995 22.1602C67.5995 13.044 73.8444 6.96588 83.2118 6.96588C85.7234 6.96588 89.3614 7.76366 91.2956 8.73884ZM319.294 10.2198C320.709 11.635 320.819 12.4175 319.894 14.448C318.965 16.4835 317.771 17.0603 313.371 17.6016C310.409 17.9665 305.702 18.1165 302.911 17.9351L297.837 17.6067L297.524 12.6943L297.211 7.78292L307.384 8.13265C315.306 8.40635 317.941 8.86758 319.294 10.2198ZM389.168 18.3071C390.842 22.3122 392.364 25.9605 392.55 26.4137C392.736 26.8658 389.654 27.2368 385.7 27.2368C381.747 27.2368 378.512 26.9925 378.512 26.6945C378.512 25.5419 385.057 11.0176 385.575 11.0207C385.877 11.0227 387.493 14.301 389.168 18.3071ZM318.066 25.3635C323.016 27.6159 322.643 33.4477 317.433 35.2612C315.698 35.8654 310.465 36.3601 305.804 36.3601H297.33V30.2779V24.1957H306.415C311.412 24.1957 316.654 24.7208 318.066 25.3635ZM194.837 89.7363C160.666 93.0075 137.674 100.713 115.913 116.184C108.359 121.554 95.5759 134.1 91.2347 140.402C74.5964 164.56 72.1244 193.838 84.6325 218.614C101.215 251.463 139.703 274.815 185.704 279.937L197.374 281.237L197.64 318.963L197.906 356.688H201.953H206V320.702C206 300.91 206.23 284.716 206.511 284.716C206.793 284.716 218.322 292.316 232.135 301.606C245.946 310.896 270.455 327.384 286.599 338.248L315.951 358L318.358 355.205C319.682 353.668 320.592 351.89 320.382 351.255C320.171 350.619 296.818 334.59 268.485 315.634L216.972 281.168L222.395 280.389C250.833 276.308 267.303 270.843 286.675 259.062C309.089 245.43 324.478 226.271 330.827 204.093C333.695 194.079 333.635 176.654 330.698 166.178C320.623 130.241 284.183 101.485 237.458 92.601C223.261 89.9015 205.549 88.7114 194.837 89.7363ZM227.31 96.3162C265.979 102.54 299.431 127.875 310.802 159.551C317.864 179.221 316.757 199.147 307.526 218.515C302.499 229.062 297.535 235.737 288.014 244.755C279.197 253.107 272.063 258.033 260.81 263.543C243.396 272.07 226.931 275.636 204.985 275.636C182.345 275.636 166.682 272.214 148.665 263.33C120.078 249.234 100.99 226.069 95.9077 199.306C87.7519 156.355 117.616 114.866 167.438 99.929C185.693 94.456 207.558 93.1372 227.31 96.3162ZM195.852 108.955C173.43 111.635 159.577 115.526 144.863 123.274C124.593 133.949 110.085 149.83 103.876 168.141C101.076 176.398 101.341 195.783 104.368 204.054C114.144 230.771 141.524 251.336 177.586 259.049C189.779 261.657 220.192 261.657 232.384 259.049C255.052 254.2 272.509 245.422 287.009 231.578C327.706 192.723 308.042 135.941 246.789 115.441C232.931 110.803 207.492 107.563 195.852 108.955ZM225.001 116.03C254.164 121.986 277.061 140.502 286.318 165.617C288.204 170.733 288.562 173.842 288.598 185.373C288.637 198.289 288.467 199.486 285.577 206.671C273.357 237.049 242.296 256.352 205.493 256.44C189.382 256.478 177.01 253.863 163.794 247.626C144.891 238.703 130.096 223.011 123.729 205.13C120.982 197.416 120.011 181.763 121.733 172.971C124.428 159.211 134.038 143.868 146.009 134.209C167.498 116.873 196.478 110.204 225.001 116.03ZM184.69 128.122C159.262 133.334 138.601 147.996 130.318 166.706C118.961 192.358 132.57 220.808 163.091 235.226C177.553 242.057 184.744 243.511 204.478 243.591C219.507 243.652 222.84 243.358 230.355 241.309C250.946 235.693 267.814 224.163 276.792 209.567C282.182 200.804 284.524 187.436 282.628 176.25C280.894 166.022 272.933 153.702 262.477 145.066C252.92 137.17 236.909 130.139 222.811 127.644C214.614 126.194 192.758 126.468 184.69 128.122ZM212.967 131.69C254.594 136.905 277.913 177.069 258.72 210.495C251.764 222.609 236.304 233.634 220.755 237.569C213.894 239.305 197.633 239.559 190.778 238.035C177.915 235.177 164.028 227.024 156.612 217.976C136.363 193.271 141.732 160.107 168.92 141.942C179.032 135.185 186.056 132.915 203.489 130.763C204.063 130.692 208.328 131.109 212.967 131.69ZM200.419 140.454C184.204 142.657 171.559 152.055 164.532 167.127C161.092 174.505 160.264 189.962 162.836 198.791C166.281 210.613 176.077 221.53 188.288 227.154C192.602 229.141 194.974 229.469 205.007 229.469C216.14 229.469 217.016 229.312 223.38 226.183C232.58 221.659 239.927 214.163 244.414 204.725C247.581 198.066 248.091 195.91 248.451 187.673C248.793 179.866 248.466 177.006 246.551 171.056C241.902 156.615 230.449 145.478 216.649 141.983C211.241 140.613 204.159 139.946 200.419 140.454Z" fill="black"/>
</svg>
