<svg width="252" height="328" viewBox="0 0 252 328" fill="none" xmlns="http://www.w3.org/2000/svg">
<path fill-rule="evenodd" clip-rule="evenodd" d="M104.5 0.942603C57.338 7.1256 19.739 40.8706 7.008 88.4406C4.272 98.6636 3.266 119.898 4.928 132.331C9.178 164.116 28.243 194.283 55.582 212.483C102.482 243.706 165.006 236.535 203.828 195.482C251.412 145.163 244.529 64.8426 189.052 23.0666C165.426 5.2756 134.057 -2.9324 104.5 0.942603ZM138.222 8.4346C199.483 19.1506 238.935 77.3776 226.44 138.637C217.358 183.165 178.129 218.955 132.5 224.341L127.5 224.932L136 220.659C164.956 206.106 185.9 182.208 195.927 152.28C198.94 143.286 201.989 127.476 201.996 120.803L202 117.203L194.25 119.441C165.441 127.758 133.626 127.739 100.75 119.385C98.133 118.72 98 118.859 98 122.256C98 125.536 98.305 125.908 101.75 126.831C120.201 131.779 142.405 133.725 161.752 132.088C169.313 131.449 179.55 130.076 184.5 129.037C189.45 127.999 193.69 127.321 193.923 127.532C194.82 128.345 190.078 147.797 187.109 155.481C175.633 185.179 148.459 210.713 118.645 219.811C104.163 224.23 87.511 221.87 70.238 212.95C52.578 203.829 38.94 191.55 28.241 175.137C8.529 144.896 5.2 106.669 19.356 73.1036C34.132 38.0686 71.819 9.5886 103.5 9.5176C113.265 9.4956 122.124 11.9676 134.5 18.1696C161.72 31.8096 183.923 58.8236 191.234 87.1976C193.419 95.6776 193.589 95.9706 196 95.3766C197.375 95.0376 198.846 94.4236 199.27 94.0116C200.529 92.7866 195.277 76.1036 190.475 66.0716C179.106 42.3226 160.783 23.6906 137.594 12.2986C124.971 6.0976 124.968 6.1166 138.222 8.4346ZM228.18 200.528C212.895 208.321 218.368 231.332 235.505 231.332C245.061 231.332 251.107 225.696 251.774 216.166C252.11 211.355 251.791 209.84 249.839 206.995C248.552 205.121 246.281 202.684 244.791 201.581C241.084 198.835 232.561 198.294 228.18 200.528ZM240.282 202.274C247.841 205.495 251.255 214.642 247.563 221.782C242.589 231.399 228.197 231.16 223.557 221.382C220.22 214.349 223.041 206.239 230.071 202.655C234.206 200.546 236.064 200.477 240.282 202.274ZM229.669 215.126C229.771 220.703 230.265 224.491 230.919 224.709C231.589 224.933 232 223.327 232 220.486C232 214.483 233.908 214.456 238 220.403C239.703 222.878 241.524 224.903 242.048 224.903C243.386 224.903 243.276 224.484 240.865 220.399L238.73 216.78L240.865 215.285C243.634 213.345 243.754 208.377 241.066 206.938C240.002 206.369 236.964 205.903 234.316 205.903L229.5 205.902L229.669 215.126ZM239.5 210.903C239.5 213.07 239.001 213.444 235.75 213.713C232.151 214.011 232 213.898 232 210.903C232 207.908 232.151 207.795 235.75 208.093C239.001 208.362 239.5 208.736 239.5 210.903ZM14.5 269.291C6.262 272.886 0 284.964 0 297.259C0 310.685 5.006 320.879 13.907 325.577C18.538 328.021 26.241 328.545 36 327.079L40.5 326.403L40.814 311.153L41.129 295.903H34.064H27V299.403C27 302.636 27.232 302.903 30.04 302.903H33.081L32.79 311.153L32.5 319.403L25.139 319.699L17.778 319.995L14.056 316.083C5.201 306.774 5.391 287.732 14.427 278.974C18.578 274.951 23.987 274.117 31.999 276.265C35.023 277.076 37.639 277.597 37.813 277.423C37.987 277.249 37.83 275.515 37.465 273.568C36.945 270.795 36.142 269.799 33.751 268.966C29.563 267.506 18.148 267.699 14.5 269.291ZM50 297.903V326.903H63.5H77V322.903V318.903H67.5H58V309.903V300.903H65.5H73L73.002 297.153L73.005 293.403L65.502 293.732L58 294.061V284.982V275.903H67.75H77.5V272.403V268.903H63.75H50V297.903ZM86 297.903V326.903H89.47H92.94L93.22 314.153L93.5 301.403L101.25 301.111L109 300.819V297.403V293.987L101.25 293.695L93.5 293.403V284.903V276.403L103.25 276.117L113 275.831V272.367V268.903H99.5H86V297.903ZM121 297.903V326.903H124.47H127.94L128.22 314.153L128.5 301.403L136.25 301.111L144 300.819L144.002 297.111L144.003 293.403H136.252H128.5V284.903V276.403L138.25 276.117L148 275.831V272.367V268.903H134.5H121V297.903ZM155 297.903V326.903H169H183V322.903V318.903H173H163V309.903V300.903H171.06H179.121L178.81 297.27L178.5 293.638L171 293.52L163.5 293.403L163.211 284.653L162.922 275.903H172.961H183V272.403V268.903H169H155V297.903ZM191 297.853V326.903H194.981H198.962L199.231 304.397L199.5 281.891L209.932 304.397L220.364 326.903H225.182H230V297.903V268.903L226.25 268.902L222.5 268.901L222.789 290.641C222.972 304.346 222.728 312.016 222.131 311.392C221.61 310.848 216.905 301.178 211.675 289.903L202.165 269.403L196.583 269.103L191 268.803V297.853Z" fill="black"/>
</svg>
