<svg width="594" height="305" viewBox="0 0 594 305" fill="none" xmlns="http://www.w3.org/2000/svg">
<path fill-rule="evenodd" clip-rule="evenodd" d="M282.725 0.553099C281.097 0.756573 275.416 1.8263 270.1 2.92862C235.328 10.1411 206.641 33.0636 189.09 67.6632C183.892 77.9091 182.921 81.4541 187.769 72.4844C192.925 62.9438 197.212 57.2564 206.487 47.6476C219.71 33.9496 237.874 22.0375 254.35 16.2602C259.268 14.5356 259.597 15.3989 255.721 19.8526C252.348 23.7275 249.665 28.7423 249.652 31.1968C249.647 32.1747 248.117 34.8949 246.252 37.2418C241.142 43.6759 239.228 49.4196 240.633 54.1114C241.255 56.1936 241.766 59.6408 241.766 61.7723C241.766 63.9029 242.654 67.3896 243.74 69.5212C244.825 71.6527 245.714 74.0579 245.714 74.8659C245.714 75.981 245.99 76.06 246.858 75.1918C247.726 74.3226 247.58 72.4864 246.256 67.5921C245.296 64.0422 244.826 60.3569 245.212 59.4027C245.722 58.1444 246.297 59.1291 247.309 62.9902C248.076 65.9169 250.083 70.902 251.769 74.0668C253.454 77.2325 254.573 80.5049 254.253 81.3395C253.572 83.1145 253.966 83.2044 262.734 83.2873L269.39 83.3496L269.396 78.1323C269.406 67.8558 273.473 63.0129 282.556 62.4628C301.1 61.3397 301.971 61.4582 301.971 65.0882C301.971 67.2997 305.505 71.7406 306.486 70.7618C306.891 70.3578 306.394 67.2879 305.38 63.9394L303.539 57.851L305.922 56.2785C311.181 52.8066 313.882 49.8997 315.727 45.7255C316.792 43.3174 318.385 41.0693 319.269 40.7305C320.152 40.3907 321.275 39.0632 321.762 37.7791C322.42 36.0486 323.407 35.4441 325.576 35.4441C329.408 35.4441 330.175 34.0445 327.109 32.6468C325.647 31.9801 324.672 30.7079 324.672 29.4673C324.672 27.5431 325.04 27.4463 329.981 28.0637C333.005 28.442 335.536 28.3294 335.862 27.8019C336.828 26.2354 324.442 18.6396 321.974 19.2846C320.602 19.6442 318.862 19.095 317.178 17.7694C312.417 14.021 305.846 15.8908 310.423 19.6916C311.822 20.8542 311.822 21.0537 310.423 21.8379C309.574 22.313 308.88 23.7907 308.88 25.1222C308.88 28.2731 306.448 28.28 304.389 25.135C303.522 23.8115 301.513 22.478 299.924 22.1718C298.336 21.8656 295.704 21.3579 294.076 21.0438C292.447 20.7287 291.116 19.9504 291.117 19.3153C291.12 17.2933 300.266 11.8953 306.655 10.1441C312.508 8.53899 313.35 8.54393 323.433 10.2468C334.984 12.1966 350.197 17.0622 359.644 21.8271C381.084 32.6409 400.424 50.6365 412.132 70.666C418.007 80.7153 416.817 77.0715 410.469 65.5702C391.261 30.7721 359.485 7.79818 321.784 1.45194C313.28 0.0197188 291.051 -0.491932 282.725 0.553099ZM304.932 77.8636C306.289 78.2844 308.954 79.5082 310.854 80.5829C314.919 82.8824 319.565 83.9333 320.312 82.7233C320.603 82.2532 319.952 81.8679 318.866 81.8679C317.781 81.8679 316.618 81.4235 316.283 80.8802C315.947 80.3369 314.643 79.8925 313.384 79.8925C312.125 79.8925 310.543 79.2257 309.867 78.4109C309.191 77.596 307.25 76.9678 305.552 77.0142C302.597 77.0952 302.57 77.1317 304.932 77.8636ZM413.006 101.276C405.752 102.787 402.468 104.166 400.014 106.731C397.652 109.198 397.215 110.481 397.215 114.942C397.215 119.219 397.686 120.738 399.682 122.877C402.763 126.183 409.796 129.814 416.093 131.353C418.738 131.999 421.68 132.923 422.629 133.407C424.783 134.505 424.897 138.738 422.795 139.545C418.535 141.181 408.583 139.228 398.448 134.767C396.881 134.077 396.721 134.764 396.721 142.168C396.721 150.226 396.746 150.307 398.667 148.566C400.505 146.902 400.965 146.893 407.012 148.413C415.631 150.58 425.746 150.474 430.772 148.164C436.551 145.509 438.441 142.896 438.94 136.873C439.322 132.26 439.051 131.276 436.587 128.345C433.741 124.959 426.591 121.229 420.409 119.905C414.988 118.743 411.526 116.603 411.526 114.414C411.526 113.172 412.534 112.049 414.24 111.391C416.779 110.41 423.164 111.53 434.967 115.024C437.123 115.663 437.187 115.478 437.187 108.653C437.187 104.786 436.959 101.623 436.68 101.623C436.402 101.623 435.375 102.122 434.399 102.732C433.054 103.573 430.92 103.453 425.581 102.238C418.553 100.638 416.733 100.499 413.006 101.276ZM31.3223 103.845C31.8908 104.54 32.4859 112.43 32.6833 121.871C33.089 141.335 33.8697 143.619 41.3875 147.327C45.1903 149.202 47.4554 149.526 56.7074 149.515C66.1172 149.505 68.1326 149.2 71.8328 147.235C78.7476 143.562 79.854 139.933 79.8796 120.834C79.8944 109.847 80.2646 104.618 81.0857 103.796C82.0066 102.874 80.2083 102.611 72.9925 102.611C65.7767 102.611 63.9784 102.874 64.8993 103.796C65.7175 104.615 66.0837 109.666 66.0837 120.138C66.0837 134.915 66.0225 135.357 63.6606 137.72C59.4591 141.926 49.7521 140.624 47.4397 135.545C46.052 132.496 45.9572 105.929 47.3311 105.08C50.0453 103.401 47.4791 102.611 39.3148 102.611C32.2303 102.611 30.5268 102.873 31.3223 103.845ZM101.065 104.806C103.288 107.981 103.248 143.72 101.019 146.906C99.5294 149.033 99.5314 149.034 107.633 149.034C115.423 149.034 115.675 148.964 114.105 147.228C112.782 145.764 112.472 143.234 112.472 133.893C112.472 127.553 112.805 122.409 113.212 122.462C113.618 122.516 119.434 128.516 126.133 135.797L138.315 149.034H143.652H148.99V127.008C148.99 111.193 149.323 104.647 150.174 103.796C151.095 102.874 149.662 102.611 143.724 102.611C136.404 102.611 136.133 102.692 137.143 104.58C137.765 105.744 138.082 111.178 137.918 117.87L137.64 129.191L125.917 115.901L114.196 102.611H106.863H99.5294L101.065 104.806ZM172.031 104.417C173.435 105.97 173.664 108.972 173.664 125.822C173.664 142.673 173.435 145.675 172.031 147.228C170.459 148.966 170.764 149.034 180.124 149.034C187.689 149.034 189.587 148.771 188.666 147.849C186.989 146.171 186.989 105.474 188.666 103.796C189.587 102.874 187.689 102.611 180.124 102.611C170.764 102.611 170.459 102.679 172.031 104.417ZM213.228 125.51C219.153 138.105 224 148.573 224 148.774C224 148.974 226.296 149.004 229.102 148.839L234.203 148.541L244.893 125.933C250.773 113.498 255.583 103.164 255.583 102.968C255.583 102.772 251.936 102.611 247.476 102.611C240.066 102.611 239.504 102.746 240.938 104.181C242.372 105.615 242.014 106.812 236.789 118.092C233.645 124.879 230.885 130.62 230.657 130.848C230.429 131.076 227.674 125.483 224.533 118.418C219.835 107.85 219.041 105.312 220.052 104.092C221.13 102.792 220.124 102.611 211.869 102.611H202.457L213.228 125.51ZM269.742 104.417C271.146 105.97 271.375 108.972 271.375 125.822C271.375 142.673 271.146 145.675 269.742 147.228C268.163 148.973 268.85 149.034 289.887 149.034H311.665L312 143.106C312.338 137.124 311.941 136.159 310.075 138.416C309.331 139.316 305.671 139.568 296.576 139.347L284.098 139.042L284.398 134.902L284.699 130.761L292.442 130.471C297.301 130.289 300.701 130.61 301.572 131.333C302.739 132.302 302.958 131.445 302.958 125.908C302.958 119.621 302.87 119.379 300.969 120.398C299.875 120.984 295.766 121.333 291.839 121.173L284.699 120.884V116.439V111.994L296.429 111.715C306.313 111.479 308.449 111.698 310 113.102C311.778 114.712 311.841 114.56 311.841 108.69V102.611H289.975C268.853 102.611 268.163 102.672 269.742 104.417ZM331.921 104.417C333.326 105.97 333.555 108.972 333.555 125.822C333.555 142.673 333.326 145.675 331.921 147.228C330.349 148.966 330.653 149.034 339.97 149.034C349.287 149.034 349.591 148.966 348.019 147.228C346.842 145.927 346.385 143.578 346.385 138.832V132.243H349.695C352.691 132.243 353.431 132.886 357.511 139.026C361.681 145.3 361.897 145.928 360.405 147.421C358.914 148.914 359.547 149.034 368.875 149.034C374.419 149.034 378.956 148.829 378.956 148.578C378.956 148.327 376.252 144.255 372.948 139.528C367.469 131.691 367.1 130.848 368.753 129.944C369.751 129.399 372.009 127.439 373.774 125.589C376.637 122.587 376.982 121.61 376.982 116.502C376.982 112.126 376.477 110.138 374.842 108.057C371.079 103.268 367.865 102.611 348.238 102.611C330.911 102.611 330.344 102.673 331.921 104.417ZM472.126 104.19C472.49 105.137 468.58 114.291 462.362 127.052C456.658 138.757 451.992 148.492 451.992 148.685C451.992 148.877 455.545 149.034 459.888 149.034C467.498 149.034 468.865 148.537 466.835 146.505C466.228 145.897 466.329 144.67 467.114 143.097C468.316 140.694 468.597 140.639 479.542 140.639C490.302 140.639 490.782 140.728 491.792 142.934C492.558 144.608 492.52 145.744 491.655 147.132C490.514 148.96 490.835 149.034 499.934 149.034C505.531 149.034 509.266 148.648 509.072 148.089C508.891 147.57 503.858 137.154 497.886 124.944L487.03 102.743L479.275 102.677C472.559 102.619 471.601 102.822 472.126 104.19ZM524.382 104.417C525.786 105.97 526.015 108.972 526.015 125.822C526.015 142.673 525.786 145.675 524.382 147.228C522.805 148.973 523.478 149.034 544.121 149.034H565.494V142.987C565.494 137.932 565.269 137.127 564.12 138.08C563.208 138.839 558.844 139.128 551.106 138.943L539.466 138.663L539.476 122.182C539.484 110.137 539.832 105.284 540.768 104.155C541.915 102.773 541.04 102.611 532.398 102.611C523.113 102.611 522.81 102.679 524.382 104.417ZM562.652 104.092C563.53 105.179 564.495 106.734 564.795 107.549C565.257 108.807 565.35 108.793 565.416 107.455C565.459 106.589 564.495 105.033 563.274 103.998C561.072 102.132 561.067 102.133 562.652 104.092ZM555.625 108.973C555.625 109.756 556.027 110.645 556.52 110.949C557.011 111.254 557.182 110.613 556.898 109.526C556.295 107.219 555.625 106.928 555.625 108.973ZM362.309 114.381C364.618 117.234 364.607 117.568 362.105 120.75C360.247 123.115 359.433 123.353 353.222 123.353H346.385V118.085C346.385 115.187 346.718 112.479 347.126 112.065C347.533 111.651 350.701 111.491 354.167 111.709C359.272 112.03 360.816 112.536 362.309 114.381ZM483.779 124.385L487.436 132.243H479.584C475.265 132.243 471.732 132.067 471.732 131.852C471.732 130.745 478.951 116.446 479.49 116.483C479.837 116.508 481.767 120.064 483.779 124.385ZM326.648 168.048C326.647 168.455 327.036 168.789 327.513 168.789C329.433 168.789 330.842 174.556 329.714 177.795C329.112 179.523 328.62 182.23 328.62 183.811C328.62 187.734 323.049 203.953 320.529 207.363C319.404 208.886 318.749 210.823 319.073 211.667C319.396 212.512 319.006 215.063 318.204 217.336C316.529 222.089 317.031 224.629 319.953 226.194C321.698 227.129 321.915 227.049 321.386 225.669C320.956 224.545 321.519 223.698 323.211 222.926C324.557 222.313 325.659 221.259 325.659 220.585C325.659 217.069 340.988 206.323 346.005 206.323C346.784 206.323 347.831 205.244 348.333 203.925C348.834 202.606 350.826 200.775 352.759 199.857C356.222 198.212 367.112 188.105 367.112 186.537C367.112 184.272 372.471 179.666 375.807 179.066C380.545 178.211 381.804 177.119 384.026 171.931C385.036 169.57 385.864 167.557 385.864 167.461C385.864 167.363 372.541 167.289 356.257 167.295C339.973 167.302 326.649 167.641 326.648 168.048ZM185.508 182.051C185.508 182.504 187.792 187.013 190.584 192.071C209.474 226.295 238.665 248.228 274.694 255.271C329.932 266.069 384.959 239.723 410.968 190.026C414.811 182.684 414.658 182.853 407.315 194.047C395.026 212.784 374.203 229.527 351.347 239.05C323.395 250.696 287.148 251.929 258.544 242.21C228.456 231.986 205.883 214.3 189.986 188.495C187.523 184.497 185.508 181.597 185.508 182.051ZM180.601 279.528C177.577 280.736 176.66 282.124 176.64 285.523C176.622 288.693 180.176 291.542 186.164 293.156C188.415 293.762 191.283 295.091 192.538 296.107C194.452 297.659 194.615 298.204 193.55 299.488C191.57 301.877 187.425 302.32 182.094 300.714C176.842 299.133 176.069 299.258 176.946 301.546C177.753 303.652 185.211 305.403 190.433 304.713C195.164 304.088 199.326 300.624 199.326 297.313C199.326 294.562 195.397 291.601 189.02 289.544C182.354 287.393 180.444 285.409 182.572 282.844C183.958 281.172 189.028 281.22 195.131 282.963C196.76 283.429 197.352 283.185 197.352 282.048C197.352 279.098 185.966 277.386 180.601 279.528ZM349.973 280.476C345.353 284.112 346.877 288.969 353.481 291.662C365.434 296.535 367.132 298.445 361.787 301.009C359.322 302.192 358.173 302.169 353.413 300.842C350.378 299.998 347.723 299.478 347.511 299.69C346.299 300.904 348.827 303.172 352.493 304.16C358.313 305.729 364.718 304.849 367.667 302.077C372.563 297.473 369.872 292.719 360.745 289.846C353.543 287.579 351.501 285.972 352.9 283.672C354.322 281.335 358.865 280.94 363.99 282.707C367.832 284.032 368.099 284.006 368.099 282.31C368.099 278.402 354.372 277.013 349.973 280.476ZM397.957 280.223C393.856 282.412 391.994 285.114 391.279 289.909C390.18 297.28 395.789 303.913 403.894 304.828C409.097 305.415 415.474 303.592 415.474 301.519C415.474 300.365 414.719 300.227 411.773 300.84C405.559 302.135 401.829 301.653 399.241 299.22C396.168 296.33 395.264 292.229 396.726 287.798C398.666 281.915 404.273 280.266 413.253 282.938C416.836 284.002 416.001 280.781 412.366 279.513C407.871 277.945 401.65 278.252 397.957 280.223ZM442.389 279.893C436.084 282.635 433.327 291.667 436.764 298.319C439.138 302.913 445.822 305.493 453.192 304.658C461.894 303.673 461.862 303.701 461.862 297.09C461.862 291.54 461.747 291.269 459.394 291.269C457.099 291.269 456.927 291.606 456.927 296.098C456.927 300.85 456.872 300.937 453.411 301.587C445.262 303.117 439.397 297.894 440.449 290.044C441.46 282.507 447.111 279.889 456.056 282.818C461.287 284.53 462.462 284.381 461.593 282.116C460.336 278.837 448.077 277.418 442.389 279.893ZM507.511 280.223C499.326 284.593 498.234 295.548 505.384 301.568C511.172 306.444 519.941 306.086 525.773 300.738C528.903 297.866 529.329 296.907 529.395 292.554C529.436 289.842 528.818 286.403 528.022 284.912C524.915 279.097 514.206 276.649 507.511 280.223ZM0.0114223 287.071C0.0854456 297.236 1.50669 301.182 5.87802 303.367C12.6191 306.737 22.6438 304.576 25.3422 299.171C26.042 297.77 26.5819 292.964 26.5897 288.059C26.6046 279.494 26.5819 279.416 24.1371 279.416C21.6924 279.416 21.6697 279.497 21.6697 288.086C21.6697 297.93 20.4922 300.597 15.6817 301.655C11.3854 302.6 7.20551 300.582 5.94217 296.955C5.36381 295.295 4.89104 290.671 4.89104 286.677C4.89104 279.591 4.83182 279.416 2.4236 279.416C-0.000421212 279.416 -0.0428615 279.55 0.0114223 287.071ZM34.5004 291.763C34.5004 301.949 34.753 304.11 35.9463 304.11C37.103 304.11 37.4485 302.102 37.6735 294.078L37.9548 284.047L46.7823 293.831C52.2383 299.879 56.4784 303.735 57.8858 303.928C60.1588 304.24 60.1618 304.222 60.1618 291.828C60.1618 281.454 59.919 279.416 58.6813 279.416C57.4752 279.416 57.2009 281.063 57.2009 288.306C57.2009 293.195 56.8673 297.193 56.4606 297.188C56.054 297.184 52.2304 293.183 47.9657 288.298C41.5494 280.949 39.7185 279.416 37.3557 279.416H34.5004V291.763ZM70.0316 291.763V304.11H72.499H74.9665V291.763V279.416H72.499H70.0316V291.763ZM83.7131 283.12C84.7454 285.158 87.4379 290.742 89.6941 295.53C95.3703 307.572 96.2585 307.328 104.36 291.516C109.584 281.321 110.272 279.416 108.733 279.416C107.426 279.416 105.523 282.083 102.04 288.797C99.3636 293.956 96.9178 298.178 96.605 298.18C96.2931 298.182 94.0724 293.981 91.6701 288.844C87.7172 280.389 87.0441 279.5 84.5698 279.461L81.8348 279.416L83.7131 283.12ZM115.433 291.763V304.11H126.783C136.214 304.11 138.133 303.859 138.133 302.628C138.133 301.421 136.488 301.147 129.25 301.147H120.367V297.196V293.245H126.289C130.896 293.245 132.211 292.916 132.211 291.763C132.211 290.61 130.896 290.281 126.289 290.281H120.367V286.33V282.38H129.25C136.488 282.38 138.133 282.105 138.133 280.898C138.133 279.667 136.214 279.416 126.783 279.416H115.433V291.763ZM145.042 291.763V304.11H147.509C149.812 304.11 149.977 303.781 149.977 299.171V294.232H153.423C156.47 294.232 157.244 294.804 160.085 299.153C162.643 303.068 163.857 304.078 166.015 304.092C167.507 304.102 168.729 303.849 168.729 303.53C168.729 303.212 167.322 300.991 165.603 298.593C163.882 296.197 162.661 294.1 162.888 293.935C163.115 293.77 164.523 292.87 166.015 291.935C168.223 290.553 168.729 289.516 168.729 286.378C168.729 280.206 167.208 279.416 155.335 279.416H145.042V291.763ZM210.19 291.254C206.928 297.765 204.261 303.321 204.261 303.601C204.261 305.024 206.9 303.802 208.698 301.544C210.427 299.374 211.762 298.897 217.341 298.448C223.915 297.92 223.946 297.93 225.697 301.007C226.883 303.092 228.212 304.099 229.781 304.104C231.248 304.108 231.926 303.654 231.615 302.875C231.344 302.197 228.787 296.641 225.934 290.528C218.839 275.333 218.149 275.365 210.19 291.254ZM238.805 291.763V304.11H249.168C257.722 304.11 259.531 303.851 259.531 302.628C259.531 301.435 257.996 301.147 251.635 301.147H243.74V290.281V279.416H241.272H238.805V291.763ZM278.284 291.763C278.284 303.597 278.369 304.11 280.33 304.11C282.265 304.11 282.359 303.653 282.057 295.712C281.882 291.092 281.972 287.314 282.258 287.316C282.545 287.317 284.651 291.096 286.94 295.714C289.227 300.332 291.696 304.11 292.424 304.11C293.153 304.11 295.487 300.35 297.613 295.754C299.739 291.158 301.839 287.379 302.281 287.358C302.722 287.336 302.985 290.985 302.864 295.467C302.656 303.141 302.768 303.635 304.775 303.932C306.863 304.241 306.906 303.991 306.906 291.832C306.906 279.544 306.883 279.416 304.642 279.416C302.771 279.416 301.621 280.961 298.023 288.306C295.629 293.195 293.408 297.196 293.089 297.196C292.769 297.196 290.548 293.195 288.154 288.306C284.219 280.272 283.535 279.416 281.041 279.416H278.284V291.763ZM314.817 288.059C314.825 292.964 315.365 297.77 316.064 299.171C318.66 304.371 328.031 306.609 335.002 303.694C339.908 301.641 341.45 297.855 341.45 287.861C341.45 279.602 341.398 279.416 339.079 279.416C336.764 279.416 336.698 279.646 336.365 288.766C335.953 299.992 334.883 301.64 328.004 301.64C321.181 301.64 319.737 299.293 319.737 288.196C319.737 279.489 319.716 279.416 317.269 279.416C314.825 279.416 314.802 279.494 314.817 288.059ZM377.969 291.763V304.11H380.436H382.904V291.763V279.416H380.436H377.969V291.763ZM468.771 291.763V304.11H471.238C473.541 304.11 473.705 303.781 473.705 299.171V294.232L477.407 294.25C480.751 294.266 481.418 294.743 484.323 299.189C487.028 303.329 488.021 304.11 490.576 304.11H493.613L489.861 298.995C487.499 295.773 486.549 293.735 487.297 293.485C490.716 292.344 492.853 289.407 492.853 285.848C492.853 280.292 490.959 279.416 478.945 279.416H468.771V291.763ZM535.9 288.059C535.908 292.964 536.448 297.77 537.147 299.171C541.223 307.334 559.311 306.54 561.672 298.094C562.037 296.785 562.381 292.048 562.435 287.565C562.533 279.505 562.507 279.416 560.066 279.416C557.626 279.416 557.599 279.511 557.599 287.877C557.599 292.531 557.157 297.162 556.619 298.17C555.359 300.524 549.658 302.409 546.324 301.571C541.963 300.476 540.82 297.676 540.82 288.086C540.82 279.497 540.797 279.416 538.353 279.416C535.908 279.416 535.885 279.494 535.9 288.059ZM570.429 291.763C570.429 303.324 570.552 304.11 572.344 304.11C573.843 304.11 574.324 303.308 574.565 300.406L574.871 296.702L582.535 296.158C591.373 295.53 593.029 294.409 593.819 288.517C594.274 285.121 593.966 284.114 591.814 281.961C589.437 279.582 588.658 279.416 579.85 279.416H570.429V291.763ZM520.06 282.857C523.36 284.564 525.488 289.886 524.561 294.112C523.035 301.068 513.92 304.038 508.818 299.242C505.469 296.093 504.666 291.401 506.73 287.049C509.28 281.668 514.558 280.009 520.06 282.857ZM163.61 286.085C163.869 288.779 163.502 289.454 161.325 290.282C159.899 290.825 156.761 291.269 154.354 291.269H149.977V286.779V282.29L156.639 282.581L163.301 282.873L163.61 286.085ZM487.485 284.284C489.728 288.479 485.974 291.269 478.083 291.269H473.705V286.824V282.38H480.086C485.377 282.38 486.641 282.704 487.485 284.284ZM587.758 284.797C589.119 286.876 589.155 287.6 588.018 289.982C586.806 292.521 586.184 292.776 580.537 293.045L574.377 293.339V287.86V282.38H580.276C585.445 282.38 586.371 282.679 587.758 284.797ZM222.967 295.467C222.992 295.875 220.57 296.208 217.585 296.208C214.599 296.208 212.156 295.996 212.156 295.736C212.156 295.476 213.364 292.798 214.842 289.785L217.527 284.306L220.223 289.516C221.706 292.381 222.941 295.059 222.967 295.467Z" fill="black"/>
</svg>
