<svg width="1670" height="666" viewBox="0 0 1670 666" fill="none" xmlns="http://www.w3.org/2000/svg">
<g filter="url(#filter0_d_9_18)">
<path fill-rule="evenodd" clip-rule="evenodd" d="M238.212 0.541953C176.436 4.74952 139.362 15.3607 103.833 39.0025C52.9148 72.8848 21.2861 122.655 9.17349 187.958C2.48131 224.038 2.20993 411.777 8.77795 461.51C17.1179 524.661 45.201 574.914 91.8813 610.212C97.2467 614.269 102.036 618.036 102.524 618.586C104.702 621.034 127.753 632.53 140.658 637.605C166.35 647.708 194.46 654.051 215.597 654.516C216.817 654.542 217.816 655.03 217.82 655.599C217.825 656.745 260.456 657.403 368.579 657.925C441.274 658.276 452.404 657.623 486.53 650.994C514.413 645.577 552.23 629.066 573.325 613.096C601.621 591.677 626.257 561.307 639.323 531.742C641.733 526.286 644.427 520.225 645.309 518.273C646.192 516.322 648.212 510.335 649.802 504.969C651.389 499.604 653.399 493.617 654.266 491.666C662.175 473.86 666.496 368.695 663.33 271.011C662.171 235.297 660.125 199.291 658.778 190.998C653.264 157.017 640.107 122.735 622.183 95.6522C606.548 72.028 576.558 44.5724 551.271 30.7311C525.135 16.425 493.418 6.74332 459.925 2.84973C443.527 0.944614 260.319 -0.96227 238.212 0.541953ZM454.604 93.4047C471.881 95.9839 489.656 101.609 504.267 109.125C521.064 117.761 544.364 141.07 553.449 158.324C569.268 188.362 572.525 217.438 572.511 328.472C572.495 440.153 569.919 464.524 554.891 495.213C539.974 525.677 514.759 547.166 481.158 558.052C466.049 562.948 458.818 564.168 433.319 566.126C413.009 567.686 243.43 567.045 224.341 565.339C149.661 558.659 105.91 515.494 97.2574 439.961C94.9001 419.395 94.9037 245.422 97.2592 220.267C101.239 177.776 113.414 151.023 139.956 126.448C165.048 103.214 191.563 94.0805 240.872 91.6841C281.068 89.7328 438.481 90.9994 454.604 93.4047ZM280.781 134.423C244.044 135.076 217.009 136.325 211.606 137.614C185.998 143.729 168.179 154.845 156.641 171.906C140.126 196.329 136.852 229.539 138.673 354.192C139.878 436.639 141.201 452.666 148.312 470.968C158.768 497.874 181.778 514.903 216.041 521.09C229.799 523.574 394.986 524.847 428.924 522.729C471.731 520.06 496.231 508.647 512.038 484.011C527.253 460.3 528.7 444.781 527.799 315.168C527.028 204.464 527.104 205.358 516.605 182.368C506.215 159.619 484.003 143.521 454.664 137.481C441.608 134.794 350.211 133.185 280.781 134.423ZM475.14 177.294C484.164 183.374 489.191 191.935 489.191 201.219C489.191 230.151 451.047 241.102 435.863 216.531C430.526 207.892 431.556 191.429 437.865 184.579C448.907 172.586 463.829 169.67 475.14 177.294ZM361.484 209.471C403.303 219.683 436.803 250.481 450.464 291.274C454.082 302.082 454.597 306.983 454.545 330.245C454.488 356.108 454.323 357.261 448.66 371.466C441.063 390.517 431.675 404.346 416.824 418.356C402.742 431.642 389.888 439.312 370.807 445.82C359.131 449.803 353.832 450.539 335.766 450.69C312.33 450.885 301.35 448.822 283.714 440.909C243.765 422.982 217.706 387.292 212.271 343.063C204.84 282.584 245.344 224.047 304.577 209.663C317.44 206.541 349.043 206.434 361.484 209.471ZM749.039 221.4C731.887 230.676 713.864 255.433 708.217 277.475C704.937 290.282 706.785 301.749 713.765 311.875C718.838 319.233 731.921 326.974 736.387 325.259C739.054 324.236 738.884 323.209 734.723 315.249C723.992 294.724 729.145 262.614 746.763 240.223C749.642 236.565 752.785 233.571 753.746 233.571C754.879 233.571 755.25 263.038 754.799 317.385C754.168 393.572 753.804 402.044 750.8 410.48C748.982 415.583 748.004 420.27 748.627 420.893C750.716 422.982 758.675 419.821 764.745 414.491C779.702 401.357 782.141 383.252 781.448 290.525L780.965 225.97L776.29 222.481C769.257 217.23 757.604 216.769 749.039 221.4ZM1019.82 219.916C1018.77 221.186 1017.67 229.368 1017.39 238.098L1016.87 253.97L1003.56 254.468C988.646 255.029 985.828 256.955 985.828 266.598C985.828 272.783 985.826 272.782 1009.77 274.806L1015.09 275.256L1015.03 306.298C1014.98 334.606 1014.62 338.114 1010.99 346.112C1006.68 355.599 998.955 366.609 996.605 366.609C995.803 366.609 994.771 362.691 994.312 357.9C993.238 346.735 986.458 337.974 969.336 325.633C962.31 320.569 956.26 316.173 955.89 315.865C955.521 315.554 957.789 311.295 960.932 306.398C971.518 289.901 969.65 277.917 956.494 277.917C936.712 277.917 924.199 298.937 932.585 318.084C934.955 323.498 934.69 324.244 923.622 343.492C910.273 366.709 903.486 375.479 898.869 375.479C893.831 375.479 892.948 366.842 894.058 328.512C894.638 308.507 894.353 293.399 893.361 291.627C891.082 287.552 877.348 279.691 872.51 279.691C859.219 279.691 844.753 297.415 834.143 326.698C832.376 331.576 830.264 336.324 829.449 337.252C828.635 338.178 827.968 326.833 827.968 312.037C827.968 281.589 827.949 281.548 813.232 280.904L805.797 280.578V337.055V393.533L809.985 396.923C814.722 400.758 824.87 401.435 827.518 398.095C828.484 396.876 830.287 390.29 831.525 383.461C834.37 367.75 844.038 338.838 851.176 324.695C856.841 313.465 866.738 300.133 868.269 301.665C868.748 302.144 869.028 320.344 868.889 342.111C868.65 380.076 868.806 382.012 872.692 389.668C883.652 411.248 903.243 399.777 929.249 356.555C937.035 343.613 944.055 332.622 944.85 332.133C947.498 330.495 967.582 351.707 969.827 358.513C973.912 370.89 968.288 382.574 958.245 382.574C956.191 382.574 950.82 380.13 946.312 377.142C936.76 370.817 933.491 371.597 928.172 381.476C924.885 387.581 924.883 387.798 928.14 391.395C936.861 401.033 966.881 402.936 983.024 394.874C993.024 389.879 1003.9 378.538 1009.25 367.526C1014.73 356.243 1015.96 356.842 1018.51 372.06C1020.93 386.526 1034.63 400.312 1046.58 400.312C1054.55 400.312 1066.88 389.313 1075.54 374.489C1077.24 371.583 1077.93 372.174 1081.7 379.718C1093.69 403.725 1118.07 406.902 1136.54 386.863C1143.5 379.31 1147.23 378.111 1147.23 383.429C1147.23 387.989 1156.36 396.701 1163.33 398.787C1175.07 402.306 1189.41 395.358 1193.91 383.97C1194.51 382.473 1196.5 383.75 1199.71 387.674C1204.95 394.092 1216.41 400.21 1223.3 400.273C1231.24 400.346 1241.74 396.057 1247.95 390.2C1251.36 386.982 1254.44 384.348 1254.79 384.348C1255.14 384.348 1255.43 386.432 1255.43 388.979C1255.43 392.561 1250.46 398.496 1233.52 415.144C1210.06 438.202 1205.12 445.801 1205.14 458.849C1205.15 474.685 1215.33 484.87 1232.97 486.69C1245.46 487.98 1253.57 485.129 1262.34 476.355C1274.33 464.363 1277.15 454.104 1278.1 418.938L1278.92 388.782L1290.25 373.705C1299.83 360.968 1317.33 329.433 1323.72 313.394C1325.25 309.568 1326.77 308.886 1334.8 308.424C1345.55 307.804 1345.2 306.857 1341.46 326.41C1338.18 343.523 1338.1 357.625 1341.2 369.27C1345.89 386.877 1352.47 394.876 1365.48 398.773C1374.79 401.561 1381.08 399.47 1389.35 390.84L1396.45 383.431L1401.72 389.467C1415.1 404.788 1435.57 403.484 1451.04 386.329C1457.17 379.532 1461.18 378.153 1461.18 382.849C1461.18 386.824 1468.9 395.202 1474.85 397.689C1486.59 402.597 1497.3 399.564 1503.14 389.678C1507.1 382.975 1509.07 382.9 1509.07 389.453C1509.07 396.233 1512.7 398.897 1523.31 399.917C1535.86 401.123 1537.45 399.214 1537.45 382.945C1537.45 361.644 1541.61 341.685 1550.74 319.159C1556.11 305.929 1558.08 309.404 1559.3 334.237C1560.51 358.999 1563.07 375.516 1566.8 382.732C1569.97 388.868 1578.8 392.555 1585.06 390.358C1589.5 388.802 1589.84 387.84 1590.99 374.056C1592.32 358.12 1596.99 337.864 1603.03 321.82C1607.8 309.167 1611.07 308.312 1609.5 320.124C1608.88 324.8 1609.18 338.57 1610.17 350.723C1611.65 369.055 1612.79 374.466 1616.83 382.494C1622.38 393.515 1627.86 398.178 1637.03 399.667C1647.3 401.332 1655.33 396.417 1660.88 385.073C1666.5 373.586 1667.82 357.334 1663.21 356.39C1661.1 355.957 1659.28 359.083 1656.11 368.616C1649.81 387.555 1643.47 389.394 1635.9 374.469C1632.7 368.142 1632.37 363.917 1632.36 328.814L1632.34 290.132L1627.92 286.795C1621.3 281.798 1609.59 278.928 1605.27 281.243C1600.85 283.607 1593.6 301.443 1587.15 325.811C1581.38 347.588 1580.57 346.332 1579.48 313.919C1578.66 289.374 1576.88 284.821 1566.81 281.495C1553.46 277.09 1549.33 281.335 1539.88 309.192C1537.1 317.357 1534.23 324.037 1533.48 324.037C1532.74 324.037 1532.13 315.285 1532.13 304.587C1532.13 282.777 1532.04 282.626 1518.19 280.413C1512.79 279.547 1510.7 279.877 1510.1 281.686C1509.67 283.027 1508.9 300.888 1508.4 321.376C1507.89 341.864 1506.74 361.068 1505.84 364.051C1499.61 384.591 1487.12 391.679 1481.38 377.937C1479.51 373.467 1478.92 361.776 1478.92 329.477C1478.92 281.708 1479.74 284.548 1465.18 282.218C1459.1 281.245 1457.7 281.661 1455.24 285.167L1452.38 289.246L1448.36 285.576C1442.11 279.884 1437.21 277.917 1429.28 277.917C1416.92 277.917 1406.77 285.552 1399.29 300.48C1392.28 314.453 1390.08 327.017 1390.48 350.645C1390.89 374.322 1389.81 378.671 1382.31 383.587C1379.02 385.744 1377.23 385.932 1374.41 384.42C1363.82 378.757 1360.99 354.322 1367.15 321.82C1369.33 310.355 1370.6 298.953 1369.98 296.48C1367.88 288.131 1358.95 287.347 1333.92 293.314C1330.42 294.149 1329.93 293.575 1329.93 288.636C1329.93 280.778 1327.26 276.617 1321.38 275.327C1314.24 273.759 1307.44 276.89 1303.33 283.638C1298.74 291.168 1298.83 297.53 1303.63 303.625C1307.17 308.127 1307.31 309.193 1305.32 316.725C1301.42 331.556 1283.46 366.609 1279.77 366.609C1278.94 366.609 1278.42 349.153 1278.62 327.817C1278.82 306.481 1278.46 288.18 1277.83 287.148C1275.98 284.155 1264.52 281.025 1259.77 282.217C1257.38 282.816 1255.43 284.489 1255.43 285.933C1255.43 289.564 1254.36 289.278 1247.03 283.682C1241.65 279.581 1238.89 278.804 1229.71 278.804C1220.57 278.804 1217.77 279.588 1212.49 283.613C1197.95 294.706 1189.45 320.048 1190.02 350.678C1190.29 365.44 1189.7 370.732 1187.19 376.016C1182.99 384.86 1178.49 387.25 1172.9 383.592C1165.92 379.016 1164.56 369.323 1164.81 326.176L1165.03 286.632L1158.85 284.047C1150.09 280.386 1144.35 280.812 1141.16 285.355L1138.44 289.246L1134.41 285.576C1123.84 275.944 1110.9 275.07 1099.64 283.23C1085.77 293.277 1079.14 308.432 1076.1 337.022C1075.04 346.953 1072.79 358.272 1071.08 362.175C1067.13 371.204 1059.64 380.099 1054.95 381.327C1049.97 382.631 1044.94 376.812 1043.2 367.736C1041.64 359.615 1041.95 300.601 1043.64 284.569L1044.71 274.369H1061.43C1077.92 274.369 1078.17 274.304 1079.95 269.631C1082.22 263.671 1081.46 259.439 1078.04 258.972C1076.59 258.774 1068.38 258.091 1059.79 257.454L1044.19 256.297L1044.5 240.702C1044.68 232.123 1044.33 224.313 1043.73 223.346C1042.65 221.597 1029.13 217.606 1024.28 217.606C1022.88 217.606 1020.87 218.645 1019.82 219.916ZM314.481 251.994C295.251 256.671 275.059 271.678 265.284 288.56C252.994 309.784 251.577 340.12 261.85 362.074C269.23 377.848 284.624 393.219 300.643 400.806C312.147 406.255 313.695 406.521 333.992 406.521C354.23 406.521 355.844 406.246 366.805 400.944C384.44 392.415 395.623 381.398 404.023 364.282C419.314 333.126 414.493 300.324 390.875 274.811C371.389 253.762 342.585 245.159 314.481 251.994ZM1132.49 301.42C1138.14 307.67 1140.14 316.138 1140.14 333.871C1140.14 368.812 1125.57 392.227 1110.43 381.621C1104.77 377.655 1101.12 363.172 1101.12 344.674C1101.12 315.838 1109.57 297.429 1122.81 297.429C1126.85 297.429 1130.09 298.761 1132.49 301.42ZM1248.63 302.77C1256.08 312.791 1256.73 341.873 1250 363.73C1242.54 387.974 1225.3 391.495 1217.78 370.311C1216.43 366.505 1215.58 356.112 1215.67 344.436C1215.84 322.192 1220.16 307.409 1228.4 300.931C1234.75 295.934 1244.19 296.792 1248.63 302.77ZM1446.55 301.42C1452.34 307.613 1454.67 320.243 1453.61 339.647C1452.53 359.258 1448.88 371.308 1441.68 379.012C1431.59 389.817 1421.13 384.486 1416.77 366.322C1414.28 355.954 1415.4 325.594 1418.68 314.421C1423.12 299.29 1438.06 292.324 1446.55 301.42ZM1256.66 432.685C1256.07 443.662 1254.68 455.772 1253.57 459.596C1250.84 469.01 1243.03 476.588 1236.06 476.588C1223.61 476.588 1219.72 462.582 1227.79 446.817C1233.55 435.555 1252.97 412.729 1256.78 412.729C1257.3 412.729 1257.25 421.71 1256.66 432.685Z" fill="black"/>
</g>
<defs>
<filter id="filter0_d_9_18" x="0" y="0" width="1670" height="666" filterUnits="userSpaceOnUse" color-interpolation-filters="sRGB">
<feFlood flood-opacity="0" result="BackgroundImageFix"/>
<feColorMatrix in="SourceAlpha" type="matrix" values="0 0 0 0 0 0 0 0 0 0 0 0 0 0 0 0 0 0 127 0" result="hardAlpha"/>
<feOffset dy="4"/>
<feGaussianBlur stdDeviation="2"/>
<feComposite in2="hardAlpha" operator="out"/>
<feColorMatrix type="matrix" values="0 0 0 0 0 0 0 0 0 0 0 0 0 0 0 0 0 0 0.25 0"/>
<feBlend mode="normal" in2="BackgroundImageFix" result="effect1_dropShadow_9_18"/>
<feBlend mode="normal" in="SourceGraphic" in2="effect1_dropShadow_9_18" result="shape"/>
</filter>
</defs>
</svg>
