<svg width="270" height="270" viewBox="0 0 270 270" fill="none" xmlns="http://www.w3.org/2000/svg">
<path fill-rule="evenodd" clip-rule="evenodd" d="M16.3903 0.885632C10.0772 2.87025 3.91011 8.85196 1.35978 15.4651C0.0691927 18.8127 0 24.9065 0 135.269V251.547L1.6388 255.097C3.80858 259.797 9.20783 265.474 13.685 267.762L17.2981 269.609L134.138 269.804L250.978 270L255.4 268.014C260.567 265.694 265.942 260.337 268.361 255.097L270 251.547V134.893V18.2392L268.375 14.72C266.184 9.97635 261.104 4.61479 256.492 2.17936L252.702 0.176678L136.128 0.0336826C41.3055 -0.0822186 18.9639 0.0773337 16.3903 0.885632ZM190.279 42.6116C209.861 49.1735 223.607 63.2586 228.283 81.5506C229.679 87.0123 229.763 90.0603 229.763 134.893C229.763 179.726 229.679 182.774 228.283 188.235C224.077 204.69 211.565 218.695 195.136 225.336C185.394 229.274 182.659 229.439 131.862 229.178C85.0064 228.937 84.9838 228.936 79.7214 227.174C60.1423 220.616 46.3926 206.528 41.7169 188.235C40.321 182.774 40.2368 179.726 40.2368 134.893C40.2368 90.0603 40.321 87.0123 41.7169 81.5506C46.9394 61.1197 64.7353 44.8799 85.936 41.2004C87.8959 40.8603 110.99 40.642 137.256 40.7143L185.014 40.8467L190.279 42.6116ZM89.3835 57.7397C82.893 59.4421 79.6914 61.0218 73.5453 65.551C65.5107 71.4732 59.1157 81.0735 56.6827 90.8656C55.8772 94.1101 55.6546 103.792 55.6546 135.646C55.6546 172.16 55.7892 176.775 56.9813 181.093C60.8575 195.132 72.8421 207.849 86.9565 212.899C91.6864 214.591 92.3287 214.62 132.029 214.872C177.261 215.16 179.01 215.012 189.15 210.047C196.203 206.592 205.682 197.391 209.285 190.501C214.331 180.852 214.345 180.7 214.345 135.646C214.345 103.792 214.123 94.1101 213.317 90.8656C210.884 81.0735 204.489 71.4732 196.455 65.551C190.219 60.9556 187.105 59.4413 180.32 57.7043C175.021 56.3481 171.815 56.2488 134.692 56.2872C98.1439 56.3248 94.3075 56.4482 89.3835 57.7397ZM189.927 77.7078C194.639 80.1463 195.885 86.9378 192.347 90.9003C188.247 95.4919 180.897 94.4699 178.277 88.9442C176.478 85.1526 177.238 81.7922 180.551 78.8811C183.518 76.2741 186.448 75.9076 189.927 77.7078ZM149.706 86.1784C167.071 91.707 179.518 104.209 185.525 122.152C186.994 126.541 187.27 128.915 187.27 137.151C187.27 147.416 186.128 152.699 182.236 160.428C164.503 195.655 117.526 200.69 92.9146 170.001C85.2877 160.492 81.4054 149.411 81.4054 137.151C81.4054 128.404 82.784 122.319 86.5557 114.421C93.3666 100.159 105.994 89.7284 121.462 85.5876C128.715 83.6466 142.672 83.9379 149.706 86.1784ZM122.875 103.846C112.845 107.361 104.09 116.403 101.064 126.371C99.005 133.155 99.3314 144.026 101.785 150.353C105.279 159.359 114.44 167.773 123.984 170.739C128.258 172.067 130.411 172.279 136.582 171.982C143.249 171.661 144.604 171.337 149.585 168.873C176.157 155.732 176.135 118.558 149.547 105.409C144.339 102.834 143.387 102.621 135.902 102.37C128.977 102.137 127.161 102.344 122.875 103.846Z" fill="black"/>
</svg>
