<svg width="1455" height="411" viewBox="0 0 1455 411" fill="none" xmlns="http://www.w3.org/2000/svg">
<path fill-rule="evenodd" clip-rule="evenodd" d="M191.074 148.685C190.225 294.192 190.071 297.621 183.865 309.205C164.251 345.819 120.082 353.237 89.5171 325.056C74.171 310.904 69.2637 297.917 71.0622 276.223C73.6859 244.577 100.769 220.601 131.79 222.465L147.325 223.397L147.319 188.63C147.316 154.618 147.171 153.857 140.661 153.635C137.002 153.511 131.941 153.002 129.421 152.505C118.813 150.413 91.1529 157.39 71.4201 167.134C21.3973 191.835 -7.9963 249.356 1.91299 303.155C11.071 352.882 41.8578 388.726 89.875 405.568C104.076 410.548 112.755 411.513 135.816 410.669C161.536 409.731 166.354 408.592 186.324 398.718C213.694 385.187 235.654 362.824 248.773 335.123L258.241 315.123L259.179 227.096C259.694 178.682 260.62 139.069 261.235 139.069C261.85 139.069 271.798 143.809 283.34 149.602C303.561 159.754 335.226 168.498 352.158 168.607L360.292 168.658V134.947C360.292 99.3245 359.621 97.6438 345.372 97.6438C333.875 97.6438 307.182 85.1928 294.228 73.7892C279.018 60.3942 263.989 32.9563 261.022 13.1582L259.049 0H225.496H191.944L191.074 148.685ZM437.2 133.151V156.822H465.301H493.402V245.589V334.356H520.024H546.646V245.589V156.822H569.825H593.004L598.272 138.329C601.168 128.159 604.203 117.504 605.017 114.658C606.401 109.811 601.056 109.479 521.85 109.479H437.2V133.151ZM631.689 112.675C628.84 114.335 624.439 119.702 621.907 124.602C612.264 143.255 629.74 165.749 650.357 161.222C665.83 157.822 675.124 138.776 669.046 122.928C664.993 112.367 642.713 106.251 631.689 112.675ZM694.546 221.918V334.356H721.168H747.79V306.8C747.79 280.472 748.16 278.892 756.088 271.293C760.649 266.92 765.13 263.342 766.047 263.342C766.961 263.342 779.299 279.986 793.465 300.329L819.22 337.315H847.277C868.918 337.315 874.834 336.469 873.145 333.616C871.941 331.584 854.959 306.726 835.409 278.383L799.863 226.847L833.146 194.794L866.433 162.74H834.41H802.383L777.37 187.89C763.613 201.723 751.331 213.041 750.074 213.041C748.817 213.041 747.79 189.74 747.79 161.26V109.479H721.168H694.546V221.918ZM889.774 133.151V156.822H917.875H945.976V245.589V334.356H972.598H999.22V245.713V157.07L1021.87 156.206L1044.52 155.342L1049.5 140.548C1052.24 132.411 1055.38 122.093 1056.49 117.616L1058.49 109.479H974.134H889.774V133.151ZM1277.27 221.918V334.356H1303.89H1330.52V305.282C1330.52 278.72 1331.11 275.654 1337.36 269.775C1341.13 266.236 1345.45 263.399 1346.97 263.464C1348.5 263.532 1361.06 280.14 1374.89 300.37L1400.03 337.155L1427.71 337.235C1448.98 337.297 1455.05 336.439 1453.94 333.537C1453.14 331.456 1437.02 307.501 1418.12 280.303C1399.22 253.105 1383.76 229.862 1383.76 228.652C1383.76 227.442 1398.05 212.118 1415.51 194.595L1447.26 162.74H1414.83H1382.4L1356.46 188.568L1330.52 214.396V161.938V109.479H1303.89H1277.27V221.918ZM1121.67 154.91C1079.51 168.77 1051.1 212.816 1056.77 255.546C1059.2 273.876 1073.82 302.282 1086.24 312.789C1091.25 317.035 1102.68 323.944 1111.62 328.142C1125.65 334.726 1131.61 335.726 1154.89 335.427C1192.63 334.939 1209.29 328.864 1230.13 307.992C1249.43 288.671 1256.57 271.42 1256.57 244.11C1256.57 218.802 1249.62 200.83 1232.65 182.257C1213.09 160.846 1195.16 153.325 1160.43 151.963C1143.36 151.295 1129.46 152.354 1121.67 154.91ZM619.611 182.467C618.526 183.55 617.638 218.169 617.638 259.398V334.356H644.26H670.882V257.425V180.493H646.233C632.674 180.493 620.694 181.381 619.611 182.467ZM1176.37 206.887C1204.21 226.714 1201.22 267.905 1170.83 283.315C1154.57 291.562 1146.57 291.665 1130.42 283.845C1097.38 267.846 1096.77 221.367 1129.37 203.543C1142.69 196.258 1163.53 197.741 1176.37 206.887Z" fill="black"/>
</svg>
