<svg width="263" height="263" viewBox="0 0 263 263" fill="none" xmlns="http://www.w3.org/2000/svg">
<path fill-rule="evenodd" clip-rule="evenodd" d="M13.3177 0.626562C9.88241 1.55496 5.61221 4.50791 3.54036 7.38771C-0.107241 12.4571 0.172709 2.63901 0.0341094 130.202C-0.0687406 224.857 0.0412595 246.512 0.637459 248.91C1.94096 254.149 5.61936 258.425 10.9824 260.933L14.2824 262.477L128.957 262.639C212.653 262.757 244.524 262.633 246.932 262.178C253.35 260.967 258.064 257.281 260.883 251.268L262.332 248.177L262.479 132.402C262.623 18.3421 262.609 16.5744 261.535 13.0522C260.063 8.21986 256.662 4.36436 251.734 1.93831L248.056 0.127162L131.994 0.0237618C38.9279 -0.0592882 15.4143 0.0600617 13.3177 0.626562ZM159.464 59.6647C160.779 72.3345 168.655 83.7492 180.028 89.4692C184.187 91.5603 190.825 93.3522 194.415 93.3522H196.995L197.384 105.047C197.597 111.48 197.601 117.189 197.392 117.734C197.06 118.601 196.56 118.681 193.372 118.377C181.387 117.234 170.8 113.699 162.683 108.13C161.419 107.262 160.115 106.552 159.786 106.552C159.363 106.552 159.196 115.172 159.216 136.115C159.248 170.722 159.133 171.761 154.174 181.401C143.426 202.297 117.261 212.012 95.0032 203.371C81.5711 198.157 70.3973 186.111 66.8278 172.997C63.5542 160.973 64.6157 149.966 70.1283 138.768C76.4011 126.027 90.6747 115.806 105.112 113.719C109.321 113.11 117.399 112.972 118.737 113.486C119.496 113.777 119.607 115.442 119.607 126.475V139.13L118.37 138.782C108.023 135.865 97.196 140.945 92.2576 151.034C90.9139 153.78 90.7429 154.745 90.7401 159.627C90.7374 164.107 90.9728 165.713 92.0106 168.288C95.5823 177.146 106.325 183.092 115.645 181.369C125.201 179.602 132.194 172.878 133.9 163.815C134.252 161.943 134.457 141.537 134.457 108.402V55.9522H146.769H159.079L159.464 59.6647Z" fill="black"/>
</svg>
