<svg width="312" height="262" viewBox="0 0 312 262" fill="none" xmlns="http://www.w3.org/2000/svg">
<path fill-rule="evenodd" clip-rule="evenodd" d="M213.045 0.0728817C204.214 0.503248 195.716 2.77761 187.691 6.85891C165.326 18.2324 151.412 41.9678 152.008 67.7287C152.11 72.1217 152.571 76.2856 153.36 79.9408C153.502 80.6 153.595 81.1632 153.567 81.1924C153.539 81.2215 152.242 81.1545 150.686 81.0432C140.913 80.3441 132.029 79.0178 122.691 76.8632C98.4641 71.2734 75.1406 60.337 55.1218 45.1802C47.2274 39.2029 40.8913 33.5813 33.8499 26.3067C29.1173 21.4174 25.8147 17.682 21.9724 12.8733L21.4125 12.1726L21.1706 12.4808C20.756 13.009 17.9777 18.9593 17.2176 20.9469C15.1042 26.4723 13.6937 32.4506 13.0302 38.694C12.7091 41.7143 12.7109 48.8114 13.0334 51.8738C14.2685 63.6011 18.1665 74.3185 24.6047 83.6876C28.7883 89.776 34.5656 95.6485 40.4301 99.7737L41.2521 100.352L40.683 100.394C39.9527 100.448 37.2427 100.217 34.7395 99.8866C27.8427 98.9764 20.5636 96.642 14.1585 93.2864L12.1035 92.2098L12.1053 92.7575C12.1096 94.127 12.3798 98.6923 12.5505 100.283C14.6238 119.591 24.9049 137.052 40.5566 147.847C45.6212 151.34 50.2386 153.686 55.858 155.622C58.2682 156.452 61.7874 157.447 63.0322 157.649C63.3265 157.697 63.5394 157.783 63.5053 157.84C63.4712 157.897 62.7181 158.12 61.832 158.337C53.9428 160.261 46.3113 160.688 38.47 159.643C37.3572 159.495 36.0625 159.298 35.5931 159.206C35.1237 159.114 34.7395 159.084 34.7395 159.14C34.7395 159.411 35.864 162.564 36.601 164.359C44.1291 182.691 59.0168 196.477 77.3804 202.121C82.4923 203.692 89.007 204.805 93.1212 204.81C94.6943 204.812 94.7052 204.847 93.4467 205.852C75.7643 219.972 53.7579 229.348 31.4288 232.277C25.4182 233.065 21.4386 233.315 14.9488 233.313C9.58396 233.312 6.99423 233.191 2.50079 232.732C1.14896 232.594 0.0238599 232.501 0.000338748 232.525C-0.023056 232.549 1.16831 233.335 2.64786 234.27C27.6757 250.092 55.587 259.351 84.7537 261.506C95.0055 262.263 106.194 262.147 116.495 261.176C162.689 256.82 202.917 236.081 233.035 201.093C258.875 171.075 275.644 131.53 279.49 91.5437C280.161 84.5704 280.231 82.981 280.27 73.7966L280.306 65.1188L282.631 63.2919C293.791 54.5188 303.279 44.2627 311.211 32.3977C311.679 31.6979 312.033 31.1254 311.998 31.1254C311.962 31.1254 311.039 31.5139 309.946 31.9886C301.362 35.7169 292.299 38.4786 282.787 40.2634C280.974 40.6036 275.471 41.4257 275.409 41.3656C275.385 41.3422 275.755 41.0714 276.231 40.7637C278.848 39.0718 281.399 37.1546 283.925 34.9809C285.803 33.365 289.473 29.6049 291.127 27.6021C296.387 21.2327 300.546 13.7814 303.032 6.27639C303.268 5.56416 303.444 4.96428 303.424 4.9434C303.404 4.92253 303.077 5.09817 302.698 5.33371C300.367 6.7814 295.308 9.49317 291.92 11.1117C283.206 15.2731 273.682 18.5253 264.232 20.5659L262.874 20.859L260.754 18.7169C255.932 13.846 250.892 10.134 244.895 7.03651C235.051 1.95224 224.011 -0.461618 213.045 0.0728817Z" fill="black"/>
</svg>
