<svg width="1732" height="382" viewBox="0 0 1732 382" fill="none" xmlns="http://www.w3.org/2000/svg">
<path fill-rule="evenodd" clip-rule="evenodd" d="M136.453 1.12906C132.934 2.03786 113.39 4.01337 93.0281 5.51951C63.6342 7.69126 52.5635 10.486 39.3341 19.0663C7.09464 39.9731 0 70.9876 0 191.01C0 275.089 4.44534 317.321 15.5288 338.509C24.7054 356.058 47.2009 370.821 71.6332 375.335C106.748 381.825 363.46 384.521 428.686 379.09C512.533 372.105 527.657 363.026 540.297 312.073C549.286 275.84 552.567 159.261 546.087 106.354C537.695 37.8183 522.367 15.6103 477.657 7.2134C455.558 3.05765 150.088 -2.38669 136.453 1.12906ZM1413.99 17.1505C1412.86 20.0903 1412.44 97.3728 1413.05 188.885L1414.17 355.277L1434.57 356.583C1453.89 357.82 1455.22 357.206 1459.46 345.024L1463.94 332.16L1473.44 343.203C1480.63 351.561 1488.15 354.74 1504.46 356.31C1532.25 358.981 1542.86 352.999 1554.24 328.243C1562.53 310.234 1563.4 301.056 1563.39 231.543C1563.38 163.468 1562.42 152.81 1554.9 137.71C1550.24 128.34 1541.62 118.199 1535.76 115.169C1519.25 106.64 1493.33 112.336 1477.1 128.059L1463.23 141.482V76.6452V11.8086H1439.64C1424.67 11.8086 1415.28 13.7628 1413.99 17.1505ZM607.413 28.1458C608.616 30.0914 614.512 49.7693 620.514 71.8793C626.517 93.9893 635.97 128.396 641.529 148.343C669.904 250.184 669.724 249.212 669.724 301.867V353.144H695.321H720.918V302.153C720.918 272.026 723.363 241.911 726.895 228.552C737.236 189.444 779.907 39.8963 783.017 31.8578C785.717 24.8775 783.516 24.293 758.947 25.4578L731.908 26.742L720.159 77.9423C713.696 106.102 706.051 143.061 703.167 160.076C700.283 177.092 696.776 191.01 695.377 191.01C693.973 191.01 688.517 168.452 683.248 140.876C671.973 81.8378 662.792 39.2008 659.528 30.6973C657.86 26.3452 649.784 24.6087 631.209 24.6087C616.922 24.6087 606.214 26.2001 607.413 28.1458ZM1087.81 45.9421V67.2756H1113.35H1138.89L1140.01 211.276L1141.14 355.277H1166.73H1192.33L1193.45 211.276L1194.58 67.2756H1220.12H1245.66V45.9421V24.6087H1166.73H1087.81V45.9421ZM295.496 150.416C332.381 171.502 362.56 189.768 362.56 191.01C362.56 193.634 231.103 269.269 222.971 271.322C218.675 272.41 217.511 255.253 217.511 191.01C217.511 126.766 218.675 109.61 222.971 110.698C225.975 111.457 258.611 129.33 295.496 150.416ZM816.907 116.466C807.522 119.846 799.441 122.644 798.955 122.679C798.469 122.713 792.709 131.861 786.157 143.009C774.382 163.046 774.245 164.1 774.245 235.81C774.245 302.955 774.962 309.683 783.887 326.387C796.365 349.743 814.057 358.887 846.77 358.887C904.803 358.887 921.428 331.606 921.428 236.377C921.428 155.169 908.241 122.286 872.367 114.06C849.083 108.718 836.945 109.247 816.907 116.466ZM1638.14 114.085C1602.45 123.007 1589.1 162.15 1592.01 249.352C1594.89 335.48 1609.9 358.264 1663.74 358.264C1705.34 358.264 1731.95 335.889 1731.98 300.877L1732 284.877H1708.54H1685.07V299.567C1685.07 325.675 1655.21 335.07 1646.35 311.748C1644.18 306.052 1642.41 289.993 1642.41 276.066V250.743H1687.21H1732L1731.97 209.143C1731.95 159.372 1727.47 140.97 1711.69 125.853C1698.29 113.015 1664.23 107.566 1638.14 114.085ZM951.62 213.41C952.004 330.283 954.418 342.998 978.424 354.761C992.285 361.554 997.255 362.04 1010.95 357.935C1019.85 355.269 1033.1 346.978 1040.4 339.507C1052.46 327.177 1053.68 326.754 1053.68 334.917C1053.68 353.276 1058.08 357.411 1077.6 357.411H1096.34V235.81V114.209H1070.74H1045.15V211.682C1045.15 302.34 1044.58 309.671 1036.96 316.557C1032.47 320.632 1024.31 323.328 1018.83 322.552L1008.88 321.144L1007.74 217.676L1006.6 114.209H978.945H951.291L951.62 213.41ZM1233.1 215.543C1233.26 282.257 1235.08 321.98 1238.43 331.81C1249.45 364.109 1295.63 368.914 1319.73 340.263C1332.23 325.41 1335.25 324.527 1335.25 335.727C1335.25 353.229 1339.86 357.411 1359.17 357.411H1377.91V235.81V114.209H1352.31H1326.71V211.682C1326.71 300.693 1326.04 309.769 1318.91 316.216C1308.43 325.709 1293.88 325.142 1288.47 315.025C1285.8 310.033 1284.05 268.702 1284.05 210.491V114.209H1258.46H1232.86L1233.1 215.543ZM865.759 168.661C868.195 177.433 870.187 207.65 870.187 235.81C870.187 292.553 865.469 316.693 853.08 323.324C846.612 326.788 842.973 325.88 836.203 319.109C828.195 311.1 827.573 305.071 827.573 235.81C827.573 166.549 828.195 160.52 836.203 152.511C847.841 140.872 859.867 147.447 865.759 168.661ZM1674.55 150.058C1681.07 154.815 1683.06 162.64 1684.37 188.458L1686.01 220.876H1663.74H1641.48L1643.06 189.469C1645.15 148.065 1655 135.752 1674.55 150.058ZM1504.42 159.419C1514.03 174.084 1515.5 283.473 1506.39 305.199C1499.17 322.415 1483.58 327.574 1471.59 316.723C1463.96 309.811 1463.23 303.271 1463.23 241.267C1463.23 175.556 1465.82 159.568 1477.74 151.607C1486.92 145.471 1497.27 148.501 1504.42 159.419Z" fill="black"/>
</svg>
