<svg width="278" height="278" viewBox="0 0 278 278" fill="none" xmlns="http://www.w3.org/2000/svg">
<path fill-rule="evenodd" clip-rule="evenodd" d="M45.453 0.387421C31.1588 2.27504 18.1189 10.0585 9.63826 21.764C6.45405 26.1591 3.11082 33.2987 1.49119 39.1623L0 44.56V138.802V233.044L1.49119 238.442C6.65921 257.15 20.3924 270.862 39.1624 276.053L44.48 277.524H138.722H232.964L238.282 276.053C257.063 270.859 270.779 257.143 275.973 238.362L277.444 233.044V138.802V44.56L275.973 39.2424C270.781 20.4718 257.062 6.73138 238.362 1.57337L232.964 0.0844013L140.946 0.00656129C90.3361 -0.0362507 47.364 0.134997 45.453 0.387421ZM173.738 84.8783C181.848 85.1891 190.451 85.6878 192.854 85.987C198.589 86.7003 203.102 88.7625 206.216 92.0907C212.952 99.2926 214.605 108.497 214.605 138.802C214.605 169.107 212.952 178.311 206.216 185.513C203.004 188.947 198.543 190.941 192.549 191.624C173.831 193.756 103.613 193.756 84.8951 191.624C74.196 190.406 67.9827 184.764 65.0965 173.645C63.3707 166.996 62.8375 158.767 62.8375 138.802C62.8375 117.98 63.3751 110.408 65.3634 103.232C68.3485 92.4599 74.2477 87.2385 84.894 85.9458C96.9442 84.4819 147.52 83.8747 173.738 84.8783ZM123.71 136.578C123.71 148.198 123.856 157.706 124.035 157.706C124.214 157.706 128.78 155.362 134.182 152.498C139.584 149.634 148.445 144.986 153.873 142.17C159.301 139.353 163.742 136.861 163.742 136.632C163.742 136.403 160.176 134.378 155.819 132.132C151.462 129.886 142.57 125.214 136.06 121.749C129.55 118.284 124.108 115.45 123.967 115.45C123.826 115.45 123.71 124.958 123.71 136.578Z" fill="black"/>
</svg>
