<svg width="797" height="792" viewBox="0 0 797 792" fill="none" xmlns="http://www.w3.org/2000/svg">
<path fill-rule="evenodd" clip-rule="evenodd" d="M340.5 0.924334C334.29 1.95333 325.606 5.67233 320.735 9.38733C314.305 14.2913 309.37 22.7883 285.435 70.1613C266.847 106.952 261.557 118.229 262.59 118.867C263.33 119.324 267.765 120.886 272.446 122.337C277.127 123.789 281.766 125.697 282.754 126.578C284.987 128.569 284.64 133.138 282.221 133.597C281.267 133.778 275.277 132.271 268.91 130.249C257.759 126.706 257.282 126.64 255.927 128.428C253.633 131.457 254.209 132.456 259.033 133.806C264.129 135.233 266.996 138.51 265.973 141.736C265.199 144.174 263.18 144.304 257.457 142.285C255.119 141.46 252.394 140.785 251.402 140.785C250.046 140.785 246.721 146.567 238.033 164.035L226.469 187.285L229.213 188.56L231.957 189.834L228.767 189.243C225.961 188.724 225.389 189.015 224.017 191.669C221.846 195.867 222.025 196.531 225.529 197.301C227.218 197.672 228.366 198.21 228.08 198.496C227.793 198.782 226.186 198.537 224.507 197.952C221.693 196.971 221.341 197.108 219.999 199.703C218.639 202.334 218.688 202.594 220.75 203.672C222.888 204.79 222.876 204.811 220.381 204.33C218.2 203.91 217.54 204.387 216.088 207.433C214.165 211.465 214.12 211.295 217.494 212.765C219.792 213.766 219.74 213.805 216.719 213.339C213.92 212.907 213.276 213.234 211.98 215.741C210.607 218.396 210.627 218.681 212.218 219.098C213.64 219.47 213.584 219.574 211.914 219.669C210.282 219.762 207.611 224.327 198.664 242.312C192.5 254.702 187.457 265.24 187.457 265.729C187.457 266.218 187.058 266.768 186.571 266.952C186.083 267.135 177.533 283.595 167.571 303.53L149.457 339.774V375.785V411.797L158.207 406.152C171.442 397.615 191.603 382.161 204.457 370.701C210.782 365.062 218.094 358.907 220.707 357.023L225.457 353.597V326.891C225.457 300.396 225.761 297.785 228.848 297.785C229.393 297.785 229.07 298.348 228.131 299.035C226.582 300.168 226.447 302.751 226.69 326.662L226.957 353.04L232.207 348.889L237.457 344.738V329.321C237.457 319.319 237.838 313.668 238.542 313.233C239.915 312.384 276.354 323.613 278.707 325.61C280.267 326.934 280.457 329.291 280.457 347.333C280.457 362.604 280.15 367.687 279.207 368.045C277.89 368.545 242.166 357.668 239.27 355.885C237.869 355.023 237.514 355.308 237.17 357.566C236.863 359.587 236.718 359.266 236.607 356.316C236.474 352.787 237.035 351.763 241.673 347.066C244.542 344.162 246.454 341.787 245.923 341.789C242.733 341.803 221.106 357.554 207.209 369.985C193.875 381.912 168.65 401.056 155.406 409.298C143.38 416.783 125.422 426.158 118.957 428.327C116.207 429.25 113.821 430.128 113.656 430.279C113.49 430.43 114.728 432.719 116.406 435.365C118.084 438.012 119.453 440.651 119.448 441.231C119.442 441.811 118.102 439.954 116.468 437.106C111.753 428.885 110.993 428.616 100.155 431.317C95.0964 432.578 88.6184 433.914 85.7604 434.284L80.5644 434.958L80.1854 439.122C79.8694 442.598 79.7944 442.377 79.7314 437.785C79.6904 434.76 79.9734 431.16 80.3604 429.785C81.0204 427.441 81.4154 427.306 86.6854 427.627C94.3484 428.092 96.1454 427.317 98.6114 422.484C100.336 419.101 100.771 416.276 100.946 407.306C101.11 398.866 101.664 394.944 103.309 390.56C105.812 383.889 106.163 374.034 104.042 369.985C102.246 366.556 96.8434 361.451 92.9574 359.511C81.7964 353.939 65.8084 355.571 54.3514 363.452C49.2814 366.939 49.2574 366.944 47.7994 364.863C45.9824 362.269 41.3094 359.784 38.2574 359.789C35.4844 359.793 29.5294 363.277 27.4574 366.106C26.6324 367.233 24.9334 369.984 23.6824 372.22L21.4074 376.285L22.0044 370.785C22.3334 367.76 22.8174 364.385 23.0814 363.285L23.5614 361.285L21.9654 363.285C15.3914 371.523 16.9804 390.441 24.8584 397.73C28.0674 400.698 29.4784 401.123 36.1484 401.126L41.3394 401.128L42.9874 406.207C45.0324 412.508 47.7594 417.035 52.8474 422.576C56.6584 426.727 56.7804 427.077 56.5554 433.271L56.3234 439.675L60.5404 442.73C64.9004 445.889 64.8094 447.055 60.4304 444.139C56.7674 441.7 55.4574 439.724 55.4574 436.638V433.874L51.6104 435.231C40.8504 439.027 34.9244 444.117 32.1654 451.93C29.3144 460.003 25.2484 479.552 25.9564 481.783C26.3704 483.086 28.7264 484.969 31.8034 486.457C35.3154 488.154 36.0014 488.737 33.9574 488.288C32.3074 487.926 29.5934 486.592 27.9264 485.323L24.8954 483.017L23.2054 492.151C21.1354 503.338 18.8844 517.849 17.0574 531.785C16.0484 539.479 15.6504 540.981 15.5694 537.404C15.4234 531.016 20.1234 498.785 23.0794 485.911C23.8834 482.405 24.3384 479.333 24.0894 479.084C23.4264 478.421 16.0854 489.505 12.9944 495.834C8.26043 505.531 5.96243 512.7 2.27343 529.285C0.291431 538.198 0.044431 542.165 0.00343096 565.785C-0.035569 588.32 0.238431 593.482 1.83643 600.285C4.27943 610.689 6.82943 618.444 10.3884 626.293C11.9714 629.785 12.9724 632.971 12.6124 633.374C12.2524 633.776 12.5194 633.782 13.2074 633.386C13.8944 632.991 14.4574 633.079 14.4574 633.582C14.4574 634.086 16.0114 636.533 17.9114 639.021C19.8104 641.509 21.0854 643.823 20.7444 644.165C20.4034 644.506 20.6894 644.785 21.3804 644.785C23.2144 644.785 28.4434 649.999 27.7434 651.131C27.4164 651.66 27.6174 651.804 28.1894 651.451C28.7624 651.097 29.7514 651.434 30.3874 652.2C31.7684 653.865 30.7224 659.067 29.1964 658.124C28.6204 657.767 28.4354 657.94 28.7864 658.508C29.1364 659.075 25.0044 669.157 19.6034 680.912C14.2024 692.667 9.49843 703.073 9.15143 704.035C8.80443 704.998 8.12543 705.785 7.64243 705.785C7.16043 705.785 6.76543 707.569 6.76543 709.749C6.76543 711.929 7.09443 713.509 7.49843 713.26C7.90143 713.011 8.77143 713.458 9.43243 714.255C10.4634 715.497 10.9554 715.389 12.9054 713.494C14.1554 712.279 16.1774 708.81 17.3984 705.785C18.6194 702.76 20.1444 699.59 20.7874 698.74C22.1714 696.913 49.2674 686.55 50.5654 687.352C51.0554 687.655 51.4574 687.449 51.4574 686.895C51.4574 686.341 53.9524 685.101 57.0004 684.14L62.5444 682.392L80.3914 700.22L98.2394 718.047L99.4154 724.166C100.061 727.531 101.194 732.985 101.932 736.285C102.67 739.585 103.575 744.172 103.944 746.477C104.673 751.045 106.413 753.137 109.052 752.618C112.313 751.976 112.97 749.316 111.529 742.589C110.787 739.122 109.591 733.135 108.872 729.285C108.152 725.435 107.106 719.853 106.546 716.881C105.987 713.909 105.764 711.097 106.052 710.631C106.34 710.166 106.046 709.785 105.399 709.785C104.689 709.785 104.41 708.809 104.696 707.315C104.956 705.957 104.83 705.054 104.417 705.31C104.004 705.565 103.459 704.089 103.207 702.029C102.955 699.97 101.558 692.661 100.103 685.787C98.6474 678.913 97.4574 671.998 97.4574 670.42C97.4574 667.909 97.7654 667.611 99.9274 668.024C101.285 668.284 102.19 668.162 101.938 667.754C101.686 667.346 104.062 666.704 107.218 666.326C121.539 664.614 143.194 657.538 159.818 649.139C163.591 647.233 166.897 645.891 167.163 646.158C168.526 647.521 154.139 693.431 146.019 713.634C143.51 719.875 141.457 725.759 141.457 726.709C141.457 729.207 145.135 732.29 151.698 735.295C161.351 739.715 161.351 739.714 172.201 720.285C190.435 687.632 205.187 656.205 209.52 640.785C210.216 638.31 211.441 635.745 212.242 635.086C214.54 633.196 213.473 616.528 210.715 611.217C208.715 607.367 203.097 601.64 198.878 599.152C195.431 597.12 198.436 596.319 202.102 598.293C213.536 604.451 218.8 619.786 215.359 636.919C214.303 642.179 214.514 643.293 220.952 666.335C224.633 679.508 228.209 692.31 228.899 694.785C230.081 699.022 230.379 699.304 233.993 699.607C238.746 700.005 246.371 698.164 248.707 696.055C251.065 693.927 250.972 689.529 248.012 663.077C239.616 588.048 232.538 566.22 213.682 557.209C208.393 554.681 201.334 554.347 190.991 556.136C186.06 556.989 181.903 557.565 181.754 557.415C181.604 557.266 188.446 550.2 196.957 541.714C205.468 533.228 212.437 525.826 212.444 525.264C212.452 524.629 205.374 525.248 193.707 526.901C183.395 528.363 171.111 530.093 166.41 530.746L157.862 531.934L143.512 546.044L129.163 560.153L126.82 557.219C123.661 553.263 115.264 536.106 115.094 533.259C115.018 532.004 114.673 531.152 114.325 531.367C113.978 531.582 113.22 530.076 112.641 528.021C108.72 514.099 107.412 508.343 107.889 507.103C108.191 506.316 107.993 505.954 107.446 506.292C106.902 506.628 106.457 506.159 106.457 505.249C106.457 504.34 105.499 500.442 104.329 496.589C102.872 491.793 101.93 490.008 101.344 490.933C100.839 491.731 100.481 487.725 100.472 481.16C100.464 475.041 100.194 468.722 99.8744 467.118C99.3114 464.306 99.6764 463.974 109.997 457.902L120.704 451.602L120.076 447.023C119.397 442.066 120.29 441.808 121.323 446.663L121.957 449.643L135.457 442.878C150.762 435.209 160.898 429.208 167.457 423.935C176.079 417.003 191.807 401.192 203.506 387.696C218.194 370.752 220.229 369.017 226.371 368.202C232.175 367.432 232.699 367.127 234.829 363.285C236.354 360.535 236.47 360.485 236.225 362.686C236.009 364.624 236.633 365.333 239.457 366.36C241.382 367.06 242.424 367.667 241.772 367.709C241.12 367.751 239.412 367.338 237.976 366.792C236.043 366.057 234.793 366.168 233.161 367.218C231.949 367.999 229.157 368.955 226.957 369.343C220.649 370.456 218.958 371.735 209.804 382.324C187.119 408.563 170.623 424.237 156.561 432.913L149.474 437.285L149.281 442.785L149.087 448.285L148.72 443.049L148.353 437.812L141.405 441.311C137.584 443.236 134.457 445.249 134.457 445.785C134.457 446.969 140.811 451.07 146.012 453.244C149.04 454.509 149.975 454.572 150.619 453.558C151.221 452.608 151.43 452.696 151.442 453.904C151.452 454.994 152.683 455.726 155.207 456.143C161.221 457.137 260.224 456.768 257.957 455.76C256.857 455.271 250.557 453.183 243.957 451.12C235.578 448.501 231.127 446.551 229.207 444.654L226.457 441.939V413.062C226.457 391.935 226.779 383.863 227.657 382.985C229.334 381.308 232.189 381.484 239.042 383.686C275.064 395.266 286.198 399.025 287.544 400.062C291.153 402.843 291.457 405.265 291.457 431.219V456.785H296.47H301.483L301.22 421.64L300.957 386.494L296.101 385.078C293.431 384.3 291.442 383.467 291.681 383.227C291.921 382.988 294.443 383.483 297.287 384.327L302.457 385.862V421.324V456.785L324.707 456.779C345.467 456.773 346.756 456.668 343.957 455.216C335.978 451.074 330.483 441.999 330.467 432.935C330.458 428.178 330.834 427.208 333.857 424.185C336.842 421.2 337.885 420.785 342.397 420.785C351.145 420.785 359.2 426.543 363.378 435.785C367.118 444.056 365.292 453.162 359.312 456.058C356.334 457.501 356.328 457.519 358.633 458.257C359.911 458.667 361.52 458.933 362.207 458.85C362.895 458.766 363.457 459.092 363.457 459.574C363.457 460.057 364.02 460.452 364.707 460.452C365.395 460.452 367.757 461.299 369.957 462.334C374.67 464.551 387.868 477.31 386.963 478.775C386.62 479.33 386.785 479.785 387.331 479.785C388.248 479.785 390.043 483.796 389.518 484.673C389.391 484.887 389.819 485.39 390.469 485.793C391.12 486.195 391.721 487.708 391.805 489.155C391.939 491.47 392.738 492.043 398.457 493.919C402.032 495.092 405.52 496.496 406.207 497.041C406.895 497.585 407.457 497.695 407.457 497.285C407.457 496.875 408.132 497.1 408.957 497.785C409.782 498.47 410.457 498.695 410.457 498.285C410.457 497.875 411.02 498.007 411.707 498.578C412.395 499.148 413.298 499.633 413.715 499.656C417.075 499.839 421.457 501.201 421.457 502.063C421.457 502.643 421.72 502.855 422.042 502.534C422.965 501.611 426.457 505.052 426.457 506.885C426.457 510.603 423.897 511.093 416.742 508.745C413.01 507.521 409.395 506.074 408.707 505.529C408.02 504.985 407.457 504.875 407.457 505.285C407.457 505.695 406.782 505.47 405.957 504.785C405.132 504.1 404.457 503.776 404.457 504.065C404.457 504.353 402.36 503.958 399.798 503.187C393.46 501.28 393.287 501.332 393.644 505.035C393.931 508.017 394.41 508.429 399.457 510.028C404.303 511.564 408.457 514.645 408.457 516.705C408.457 517.089 407.865 518.213 407.141 519.203C405.875 520.934 405.608 520.935 400.153 519.215C397.033 518.232 394.212 517.697 393.883 518.026C393.554 518.354 393.661 535.62 394.121 556.392L394.957 594.161L398.317 595.03C400.164 595.508 401.425 596.15 401.118 596.458C400.81 596.765 399.186 596.538 397.508 595.953L394.457 594.889V644.156C394.457 696.9 394.561 698.166 399.714 708.283C403.228 715.182 412.304 723.118 420.654 726.595C438.675 734.097 457.395 730.783 470.437 717.783C475.403 712.834 477.946 708.339 495.758 673.033C506.648 651.447 515.198 633.778 514.758 633.77C514.317 633.761 514.456 633.424 515.066 633.02C515.676 632.616 521.466 621.823 527.932 609.035C534.398 596.247 540.087 585.785 540.573 585.785C541.059 585.785 541.457 584.923 541.457 583.868C541.457 582.814 541.84 581.802 542.309 581.618C542.777 581.435 545.477 576.405 548.309 570.441C553.386 559.746 553.457 559.465 553.457 550.082V540.568L555.864 541.172C557.188 541.505 558.965 542.043 559.812 542.368C560.979 542.816 562.7 540.274 566.905 531.889C572.167 521.397 572.457 520.425 572.457 513.302C572.457 509.167 572.572 505.785 572.714 505.785C572.855 505.785 574.44 506.207 576.237 506.722L579.504 507.659L584.98 496.739L590.457 485.818V467.524C590.457 447.939 589.961 445.738 585.1 443.777C583.691 443.208 583.493 442.89 584.52 442.848C585.38 442.814 587.281 444.036 588.745 445.564C591.391 448.326 591.41 448.451 591.682 465.47L591.957 482.597L628.897 409.117C666.183 334.95 666.655 333.877 662.04 333.8C661.536 333.792 661.361 333.547 661.652 333.257C662.264 332.645 676.501 337.567 677.886 338.87C678.934 339.855 677.36 365.428 674.936 386.785C672.907 404.658 668.982 428.246 665.368 444.285C663.757 451.435 662.522 458.635 662.624 460.285C662.725 461.935 660.216 471.61 657.046 481.785C647.028 513.949 639.513 537.672 632.97 557.785C629.482 568.51 626.035 579.985 625.311 583.285C623.149 593.148 623.72 638.732 626.333 664.785C627.52 676.61 628.704 687.41 628.966 688.785C629.228 690.16 629.911 695.542 630.483 700.744C631.056 705.947 631.755 711.123 632.037 712.246C632.449 713.888 631.046 715.365 624.9 719.76C614.943 726.881 607.74 734.759 606.85 739.501C606.253 742.685 606.522 743.444 608.997 745.573C611.417 747.655 612.481 747.916 616.368 747.384C622.494 746.544 632.299 741.826 637.29 737.317C640.206 734.682 641.94 733.804 643.343 734.249C645.667 734.986 652.057 732.509 655.026 729.72C657.073 727.798 657.113 727.133 656.694 702.018C656.249 675.269 658.401 622.001 660.601 605.297C661.947 595.076 664.323 588.896 698.834 505.816C700.769 501.159 702.569 498.009 702.834 498.816C703.5 500.848 705.269 527.931 706.458 554.285C707.003 566.385 707.89 585.96 708.429 597.785C708.967 609.61 710.092 637.06 710.927 658.785C711.763 680.51 712.645 703.168 712.888 709.135C713.196 716.729 713.768 720.481 714.793 721.635C715.84 722.816 716.368 726.556 716.648 734.785C716.928 742.987 717.517 747.178 718.704 749.4C722.212 755.964 734.803 758.627 739.861 753.875C741.272 752.55 742.686 750.075 743.003 748.375C743.497 745.728 739.37 723.071 737.986 720.831C737.732 720.421 738.149 712.93 738.911 704.185C741.702 672.199 745.072 620.563 746.478 588.285C748.939 531.759 749.417 516.956 749.436 496.723L749.457 475.161L752.44 472.955C757.884 468.93 758.735 465.883 758.275 452.055C757.873 439.979 757.913 439.683 759.91 440.176C761.036 440.454 765.843 441.161 770.593 441.747C784.918 443.515 793.817 440.285 796.429 432.37C797.785 428.261 795.999 419.385 790.678 403.785C784.695 386.246 773.904 360.271 772.703 360.516C772.03 360.653 772.246 359.571 773.239 357.842C774.806 355.112 774.795 354.615 773.061 349.611C772.047 346.682 768.521 338.671 765.227 331.81C760.25 321.441 758.197 318.313 753.072 313.288C746.815 307.152 734.162 299.683 727.707 298.315L724.457 297.626L724.625 287.456C724.718 281.862 724.97 278.973 725.185 281.035C725.401 283.098 725.831 284.785 726.14 284.785C727.698 284.785 739.751 275.258 743.315 271.209C753.296 259.87 754.989 240.739 747.054 228.952C738.807 216.701 725.649 212.443 708.258 216.399C704.356 217.286 699.261 217.798 696.936 217.536C692.818 217.071 692.678 217.153 691.541 220.672C690.899 222.659 690.108 227.473 689.783 231.37C689.108 239.479 690.305 244.212 694.258 249.06C695.954 251.141 696.161 251.663 694.841 250.533C692.475 248.507 691.457 249.114 691.457 252.551C691.457 253.888 690.831 256.401 690.066 258.134C687.989 262.84 685.457 269.714 685.457 270.645C685.457 271.095 686.514 271.945 687.805 272.534C689.787 273.437 690.255 274.593 690.808 279.944C691.713 288.698 693.731 291.2 700.196 291.583C703.373 291.772 707.396 291.131 711.094 289.848L716.957 287.815L711.446 293.073C704.648 299.558 699.965 300.855 687.457 299.717C682.782 299.292 675.289 298.908 670.805 298.865C662.69 298.785 662.644 298.8 660.462 302.035C659.256 303.822 658.493 304.577 658.765 303.711C659.155 302.468 657.649 301.75 651.608 300.3C639.714 297.446 626.542 292.94 619.957 289.473C613.065 285.844 600.528 273.798 592.702 263.285C589.836 259.435 583.353 249.31 578.295 240.785C573.237 232.26 567.993 223.812 566.642 222.012C565.291 220.212 559.184 214.979 553.071 210.382C546.958 205.785 541.1 201.07 540.052 199.904C539.004 198.739 537.679 197.785 537.107 197.785C536.535 197.785 534.84 196.61 533.342 195.175C528.48 190.516 528.214 193.08 532.866 199.765C535.336 203.314 537.145 206.43 536.886 206.689C536.627 206.948 534.409 205.191 531.957 202.785C529.505 200.379 527.247 198.662 526.939 198.969C526.632 199.277 529.772 203.824 533.918 209.074C538.065 214.324 541.457 219.107 541.457 219.702C541.457 220.348 539.237 220.785 535.957 220.785C532.932 220.785 530.457 221.179 530.457 221.66C530.457 222.978 535.801 223.785 544.535 223.785C557.122 223.785 555.412 221.834 569.473 252.242C577.498 269.598 589.306 287.949 597.346 295.56C605.843 303.604 618.286 310.367 641.031 319.305C647.59 321.882 653.407 324.461 653.957 325.035C654.639 325.747 654.479 325.895 653.457 325.5C652.632 325.182 648.357 323.531 643.957 321.832C639.557 320.133 635.057 318.323 633.957 317.809C632.857 317.296 629.482 315.843 626.457 314.581C607.33 306.597 594.748 296.806 585.02 282.335L579.272 273.785H566.864H554.457L554.478 353.535L554.499 433.285L564.228 436.528C572.629 439.329 573.896 440.171 566.707 438.176L564.457 437.552V457.775C564.457 475.806 564.285 477.933 562.875 477.392C562.005 477.058 561.105 476.785 560.875 476.785C560.645 476.785 560.457 476.075 560.457 475.208C560.457 474.341 559.023 472.203 557.269 470.458L554.082 467.285L553.64 370.535L553.199 273.785H512.821H472.442L472.7 314.285C472.841 336.561 472.694 354.786 472.374 354.785C472.053 354.785 471.453 354.448 471.04 354.035C470.628 353.622 469.99 353.26 469.624 353.229C467.885 353.081 461.693 351.422 459.457 350.504C458.082 349.94 456.327 349.352 455.557 349.198C454.787 349.044 453.887 348.506 453.557 348.001C453.227 347.497 451.635 346.652 450.02 346.122C446.304 344.905 445.437 342.867 448.917 343.533C450.314 343.8 451.457 344.432 451.457 344.937C451.457 345.466 452.249 345.431 453.326 344.855C454.353 344.305 455.477 344.139 455.824 344.485C456.17 344.832 457.585 345.236 458.968 345.383C460.351 345.531 462.781 346.299 464.367 347.09C465.954 347.882 467.694 348.25 468.234 347.907C468.843 347.521 469.262 333.344 469.339 310.535L469.464 273.785H454.96C445.958 273.785 440.457 274.164 440.457 274.785C440.457 276.664 436.751 275.779 410.864 267.713C386.605 260.155 382.457 258.328 382.457 255.201C382.457 252.818 385.416 252.975 394.607 255.844C399.749 257.449 404.076 258.768 404.221 258.774C404.366 258.78 403.334 257.044 401.926 254.917C399.698 251.55 398.399 250.762 391.902 248.834C383.815 246.433 381.005 243.809 383.668 241.145C384.877 239.937 385.693 239.957 389.471 241.29C394.209 242.962 397.113 242.617 395.77 240.542C395.323 239.851 394.507 237.304 393.957 234.883C393.065 230.956 392.524 230.333 388.957 229.121C386.757 228.373 384.282 227.471 383.457 227.116C382.632 226.761 380.157 226.355 377.957 226.213C375.757 226.071 371.728 225.259 369.004 224.407C366.279 223.555 363.91 222.998 363.739 223.17C363.568 223.341 363.145 236.037 362.799 251.383C362.18 278.886 363.06 316.792 364.314 316.631C364.668 316.585 365.294 316.658 365.707 316.792C366.12 316.925 366.907 317.148 367.457 317.285C368.007 317.422 368.57 317.622 368.707 317.729C368.844 317.836 370.28 318.095 371.896 318.306C373.513 318.517 376.006 319.554 377.436 320.611C378.866 321.669 381.476 322.85 383.235 323.236C386.296 323.909 388.175 325.4 387.196 326.38C386.942 326.633 385.469 326.36 383.922 325.772C382.376 325.184 379.276 324.548 377.034 324.359C374.791 324.169 371.607 323.443 369.957 322.744C368.307 322.045 366.507 321.418 365.957 321.351C365.407 321.283 363.495 320.868 361.707 320.427L358.457 319.626V308.765C358.457 302.602 358.89 297.636 359.457 297.285C360.084 296.897 360.457 286.461 360.457 269.285C360.457 252.109 360.084 241.673 359.457 241.285C358.881 240.929 358.457 235.608 358.457 228.726C358.457 217.573 358.585 216.785 360.398 216.785C361.466 216.785 362.622 217.242 362.967 217.801C363.313 218.36 363.984 218.577 364.46 218.283C365.372 217.72 370.624 219.54 378.957 223.309C385.884 226.441 387.511 226.998 390.984 227.424L394.011 227.795L393.728 136.54C393.544 76.9393 393.065 42.7043 392.348 37.8443C389.564 18.9773 376.265 5.39734 356.46 1.19934C349.194 -0.341665 348.233 -0.358666 340.5 0.924334ZM323.457 72.1683C323.457 72.3793 322.556 72.7873 321.456 73.0753C320.355 73.3633 319.706 73.1903 320.015 72.6923C320.553 71.8213 323.457 71.3793 323.457 72.1683ZM333.957 73.2493C337.819 75.0173 336.023 75.0433 331.457 73.2853C329.532 72.5443 328.632 71.9233 329.457 71.9063C330.282 71.8893 332.307 72.4933 333.957 73.2493ZM318.457 74.1993C318.457 74.4273 316.207 75.9983 313.457 77.6903C310.707 79.3823 308.457 80.5463 308.457 80.2783C308.457 79.8603 317.497 73.8583 318.207 73.8043C318.344 73.7943 318.457 73.9713 318.457 74.1993ZM340.186 75.3893C339.854 75.7213 338.991 75.7573 338.27 75.4683C337.472 75.1493 337.709 74.9123 338.874 74.8643C339.928 74.8213 340.518 75.0573 340.186 75.3893ZM305.381 83.3653L302.957 85.9453V138.077V190.208L319.672 195.708L336.387 201.207L336.672 224.063C336.829 236.633 336.671 247.688 336.322 248.629C335.894 249.779 331.801 251.526 323.822 253.963C317.296 255.956 311.282 257.862 310.457 258.198C309.148 258.731 308.957 255.723 308.957 234.596V210.384L291.088 204.663C268.132 197.313 268.902 197.483 267.029 199.356C265.69 200.695 265.457 204.368 265.457 224.165V247.401L279.602 251.795C287.382 254.211 293.345 256.317 292.852 256.474C292.36 256.631 285.882 254.834 278.457 252.481L264.957 248.202L264.689 224.343C264.392 197.956 264.461 197.634 270.727 196.381C272.469 196.033 279.011 194.136 285.265 192.167C291.519 190.197 297.705 188.79 299.011 189.04L301.386 189.494L301.433 150.64C301.471 120.044 301.212 111.768 300.219 111.706C299.217 111.643 299.215 111.523 300.207 111.123C301.108 110.759 301.457 107.315 301.457 98.7783C301.457 87.5003 301.58 86.7933 304.046 83.8623C305.47 82.1703 306.898 80.7853 307.22 80.7853C307.542 80.7853 306.715 81.9463 305.381 83.3653ZM360.957 81.7853C362.218 82.3273 362.402 82.6443 361.457 82.6443C360.632 82.6443 359.057 82.2583 357.957 81.7853C356.696 81.2433 356.512 80.9263 357.457 80.9263C358.282 80.9263 359.857 81.3123 360.957 81.7853ZM388.957 90.7853C390.218 91.3273 390.402 91.6443 389.457 91.6443C388.632 91.6443 387.057 91.2583 385.957 90.7853C384.696 90.2433 384.512 89.9263 385.457 89.9263C386.282 89.9263 387.857 90.3123 388.957 90.7853ZM277.957 103.785C279.276 104.352 279.446 104.663 278.457 104.699C277.632 104.73 276.282 104.318 275.457 103.785C273.629 102.604 275.208 102.604 277.957 103.785ZM347.778 160.794C370.571 167.997 373.91 169.741 373.254 174.102C372.656 178.087 370.176 178.345 360.79 175.399C355.932 173.875 346.107 170.833 338.957 168.64C325.61 164.547 322.457 162.585 322.457 158.374C322.457 156.486 324.088 153.785 325.228 153.785C325.431 153.785 335.579 156.939 347.778 160.794ZM249.457 160.785C251.285 161.966 249.706 161.966 246.957 160.785C245.638 160.218 245.468 159.907 246.457 159.871C247.282 159.84 248.632 160.252 249.457 160.785ZM270.186 167.389C269.854 167.721 268.991 167.757 268.27 167.468C267.472 167.149 267.709 166.912 268.874 166.864C269.928 166.821 270.518 167.057 270.186 167.389ZM297.457 175.785C299.285 176.966 297.706 176.966 294.957 175.785C293.638 175.218 293.468 174.907 294.457 174.871C295.282 174.84 296.632 175.252 297.457 175.785ZM241.985 192.336C250.18 194.959 254.457 198.198 254.457 201.782C254.457 202.819 253.959 203.975 253.35 204.351C252.601 204.814 252.466 204.332 252.933 202.861C254.227 198.782 251.336 196.37 241.557 193.37C236.552 191.835 232.457 190.4 232.457 190.182C232.457 189.434 234.023 189.788 241.985 192.336ZM240.684 202.059C244.384 203.217 247.243 204.332 247.037 204.538C246.539 205.036 229.457 199.807 229.457 199.157C229.457 198.606 230.553 198.89 240.684 202.059ZM233.312 207.437C238.067 208.895 241.497 210.248 240.934 210.444C240.372 210.64 236.097 209.481 231.434 207.868C220.78 204.183 221.88 203.93 233.312 207.437ZM251.186 205.389C250.854 205.721 249.991 205.757 249.27 205.468C248.472 205.149 248.709 204.912 249.874 204.864C250.928 204.821 251.518 205.057 251.186 205.389ZM250.457 213.682C251.832 214.676 253.397 216.725 253.934 218.234C254.738 220.491 254.57 221.229 252.993 222.382C250.081 224.512 248.902 224.059 251.596 221.846C253.828 220.013 253.873 219.753 252.429 217.114C251.5 215.416 249.148 213.615 246.429 212.521C243.316 211.268 242.869 210.896 244.957 211.298C246.607 211.615 249.082 212.688 250.457 213.682ZM290.535 214.059C295.498 217.403 298.457 222.331 298.457 227.251C298.457 230.711 297.563 232.634 293.207 238.542C290.32 242.458 287.7 245.69 287.386 245.723C287.072 245.757 284.416 241.172 281.484 235.535C275.147 223.348 274.228 217.012 278.318 213.698C281.478 211.137 286.416 211.283 290.535 214.059ZM231.684 217.059C235.384 218.217 238.243 219.332 238.037 219.538C237.539 220.036 220.457 214.807 220.457 214.157C220.457 213.606 221.553 213.89 231.684 217.059ZM283.124 219.452C280.524 222.052 284.76 228.785 288.996 228.785C291.134 228.785 291.457 228.333 291.457 225.342C291.457 222.917 290.799 221.438 289.234 220.342C286.904 218.709 284.252 218.323 283.124 219.452ZM224.144 222.37C228.806 223.792 232.404 225.171 232.141 225.435C231.635 225.94 214.457 220.823 214.457 220.167C214.457 219.496 215.495 219.732 224.144 222.37ZM246.957 221.785L248.957 222.644L246.957 222.699C245.857 222.73 244.282 222.318 243.457 221.785C242.124 220.923 242.124 220.822 243.457 220.871C244.282 220.901 245.857 221.312 246.957 221.785ZM241.457 227.809C249.909 230.407 251.979 231.523 253.452 234.276C254.712 236.63 254.029 240.785 252.381 240.785C251.864 240.785 251.975 239.929 252.628 238.883C254.844 235.335 251.541 232.323 241.747 228.961C231.796 225.544 231.603 224.78 241.457 227.809ZM209.594 228.573C208.872 228.813 207.807 228.535 207.225 227.953C206.483 227.211 206.874 227.081 208.537 227.516C209.889 227.87 210.343 228.323 209.594 228.573ZM222.684 232.059C226.384 233.217 229.243 234.332 229.037 234.538C228.539 235.036 211.457 229.807 211.457 229.157C211.457 228.606 212.553 228.89 222.684 232.059ZM240.502 237.71C245.152 239.318 248.495 240.668 247.929 240.71C246.806 240.792 231.215 235.842 230.54 235.188C229.522 234.202 232.655 234.995 240.502 237.71ZM704.374 255.42C705.746 256.621 702.491 255.506 700.898 254.23C699.068 252.763 699.1 252.743 701.457 253.865C702.832 254.52 704.145 255.22 704.374 255.42ZM299.308 257.883L302.457 258.981V289.383V319.785L300.207 319.669C298.571 319.585 298.425 319.43 299.671 319.103C301.239 318.691 301.388 316.161 301.425 289.356L301.465 260.06L297.711 258.519C293.38 256.742 294.619 256.248 299.308 257.883ZM719.057 263.864L719.157 269.285L718.743 264.304C718.515 261.565 717.795 258.943 717.143 258.478C716.319 257.891 716.415 257.756 717.457 258.037C718.539 258.329 718.985 259.952 719.057 263.864ZM725.957 268.785C724.376 270.435 722.71 271.785 722.254 271.785C721.446 271.785 727.526 265.873 728.394 265.814C728.634 265.798 727.538 267.135 725.957 268.785ZM732.264 268.311C731.956 268.619 731.397 268.064 731.021 267.078C730.479 265.653 730.593 265.538 731.581 266.518C732.265 267.197 732.572 268.004 732.264 268.311ZM731.457 270.111C731.457 270.29 730.22 271.527 728.707 272.861L725.957 275.285L728.381 272.535C730.647 269.965 731.457 269.326 731.457 270.111ZM390.142 274.951C393.403 276.302 392.95 276.162 397.457 277.219C399.382 277.67 402.082 278.507 403.457 279.079C404.832 279.65 406.294 280.211 406.707 280.326C407.12 280.441 407.682 280.648 407.957 280.785C408.232 280.922 408.907 281.148 409.457 281.285C410.007 281.422 410.57 281.622 410.707 281.729C410.844 281.836 412.115 282.078 413.531 282.267C414.947 282.456 417.759 283.302 419.781 284.147C422.621 285.334 423.457 286.249 423.457 288.175C423.457 289.546 423.011 290.943 422.465 291.28C421.524 291.862 410.514 288.927 409.457 287.812C409.182 287.522 408.025 287.192 406.887 287.079C405.748 286.965 403.498 286.328 401.887 285.662C398.476 284.254 398.935 284.395 394.457 283.373C391.598 282.72 384.994 280.175 383.632 279.201C382.726 278.553 382.883 275.191 383.849 274.55C385.411 273.515 386.905 273.61 390.142 274.951ZM609.236 279.79C618.6 288.737 631.076 294.305 652.856 299.257C659.216 300.703 659.898 300.696 661.583 299.171C663.326 297.594 663.33 297.378 661.684 294.57C658.97 289.94 650.303 282.247 644.473 279.293C637.09 275.552 628.973 274.075 614.957 273.922L602.957 273.791L609.236 279.79ZM217.957 275.785C219.276 276.352 219.446 276.663 218.457 276.699C217.632 276.73 216.282 276.318 215.457 275.785C213.629 274.604 215.208 274.604 217.957 275.785ZM246.957 284.785C248.218 285.327 248.402 285.644 247.457 285.644C246.632 285.644 245.057 285.258 243.957 284.785C242.696 284.243 242.512 283.926 243.457 283.926C244.282 283.926 245.857 284.312 246.957 284.785ZM396.555 289.815C401.956 291.482 407.091 293.561 407.966 294.437C411.116 297.587 407.934 301.102 403.649 299.206C402.718 298.794 401.62 298.363 401.207 298.246C400.794 298.13 400.232 297.922 399.957 297.785C399.682 297.648 399.007 297.422 398.457 297.285C397.907 297.148 397.344 296.944 397.207 296.833C397.07 296.723 396.282 296.493 395.457 296.324C384.625 294.102 381.867 291.981 383.38 287.035C383.624 286.239 387.871 287.135 396.555 289.815ZM265.957 290.785C267.276 291.352 267.446 291.663 266.457 291.699C265.632 291.73 264.282 291.318 263.457 290.785C261.629 289.604 263.208 289.604 265.957 290.785ZM420.967 297.801C421.313 298.36 421.983 298.578 422.457 298.285C422.931 297.992 423.589 298.19 423.92 298.725C424.251 299.26 425.182 299.444 425.989 299.134C426.796 298.825 427.457 299.096 427.457 299.737C427.457 300.378 427.851 300.66 428.332 300.362C429.523 299.626 438.347 302.711 440.62 304.657C442.787 306.512 442.957 308.125 441.144 309.63C440.17 310.438 436.902 309.761 428.469 307.002C417.17 303.306 414.567 301.547 415.766 298.421C416.459 296.617 419.976 296.198 420.967 297.801ZM241.265 300.467C245.996 301.942 249.437 303.288 248.912 303.459C248.387 303.63 243.907 302.45 238.957 300.837C234.007 299.224 230.566 297.878 231.311 297.845C232.055 297.812 236.535 298.992 241.265 300.467ZM293.186 299.389C292.854 299.721 291.991 299.757 291.27 299.468C290.472 299.149 290.709 298.912 291.874 298.864C292.928 298.821 293.518 299.057 293.186 299.389ZM709.888 304.688C709.625 304.951 708.633 304.355 707.683 303.364C706.034 301.642 706.055 301.62 708.162 302.885C709.374 303.614 710.151 304.425 709.888 304.688ZM264.775 307.808C276.87 311.534 280.193 312.795 277.874 312.779C276.499 312.769 249.818 303.987 250.835 303.878C251.318 303.827 257.591 305.595 264.775 307.808ZM716.207 305.474C715.245 305.726 713.669 305.726 712.707 305.474C711.745 305.223 712.532 305.017 714.457 305.017C716.382 305.017 717.169 305.223 716.207 305.474ZM721.186 305.389C720.854 305.721 719.991 305.757 719.27 305.468C718.472 305.149 718.709 304.912 719.874 304.864C720.928 304.821 721.518 305.057 721.186 305.389ZM656.14 312.973C655.821 313.77 655.584 313.533 655.536 312.368C655.493 311.314 655.729 310.724 656.061 311.056C656.393 311.388 656.429 312.251 656.14 312.973ZM289.265 315.467C293.996 316.942 297.427 318.295 296.889 318.474C296.351 318.654 292.097 317.481 287.434 315.868C276.745 312.17 277.889 311.92 289.265 315.467ZM655.119 318.035C654.842 318.723 654.615 318.16 654.615 316.785C654.615 315.41 654.842 314.848 655.119 315.535C655.397 316.223 655.397 317.348 655.119 318.035ZM391.457 326.285C391.457 325.875 392.061 326.041 392.799 326.654C393.537 327.266 394.339 327.57 394.58 327.329C395.333 326.576 415.835 333.42 416.212 334.549C416.408 335.137 411.256 334.027 404.763 332.081C389.726 327.575 388.457 327.078 388.457 325.687C388.457 324.868 388.885 324.896 389.957 325.785C390.782 326.47 391.457 326.695 391.457 326.285ZM659.624 331.785C660.265 331.785 660.504 332.071 660.155 332.42C659.354 333.222 654.457 330.078 654.457 328.762C654.457 328.225 655.357 328.685 656.457 329.785C657.557 330.885 658.982 331.785 659.624 331.785ZM420.457 335.285C420.457 334.875 421.061 335.041 421.799 335.654C422.537 336.266 423.339 336.57 423.58 336.329C424.334 335.575 444.836 342.421 445.213 343.552C445.539 344.531 438.769 342.995 434.457 341.113C433.632 340.752 432.62 340.363 432.207 340.246C431.794 340.13 431.344 339.948 431.207 339.841C431.07 339.734 429.832 339.483 428.457 339.282C423.943 338.623 418.079 336.15 417.601 334.704C417.201 333.496 417.379 333.489 418.794 334.657C419.709 335.412 420.457 335.695 420.457 335.285ZM134.784 369.042C127.54 383.476 120.902 397.438 120.034 400.07C117.351 408.211 118.423 425.785 121.603 425.785C122.624 425.785 139.837 417.322 145.201 414.183L148.444 412.285L148.451 377.535C148.454 358.422 148.344 342.788 148.207 342.792C148.07 342.796 142.029 354.608 134.784 369.042ZM766.957 363.785C766.617 364.335 765.803 364.778 765.148 364.77C764.432 364.76 764.556 364.367 765.457 363.785C767.378 362.543 767.724 362.543 766.957 363.785ZM762.016 366.317C760.948 367.124 759.598 367.769 759.016 367.75C758.433 367.73 759.082 367.071 760.457 366.285C763.696 364.433 764.485 364.449 762.016 366.317ZM250.457 369.89C253.15 371.388 249.332 370.872 245.957 369.281L242.957 367.867L245.957 368.461C247.607 368.788 249.632 369.43 250.457 369.89ZM753.186 369.389C752.854 369.721 751.991 369.757 751.27 369.468C750.472 369.149 750.709 368.912 751.874 368.864C752.928 368.821 753.518 369.057 753.186 369.389ZM258.457 372.285C260.382 373.026 261.282 373.633 260.457 373.633C259.632 373.633 257.382 373.026 255.457 372.285C253.532 371.544 252.632 370.937 253.457 370.937C254.282 370.937 256.532 371.544 258.457 372.285ZM273.684 377.059C277.384 378.217 280.243 379.332 280.037 379.538C279.539 380.036 262.457 374.807 262.457 374.157C262.457 373.606 263.553 373.89 273.684 377.059ZM765.276 400.722C768.973 408.182 772.963 416.648 774.142 419.535L776.285 424.785L764.621 424.715C758.206 424.676 753.826 424.304 754.888 423.888C756.552 423.236 756.79 422.242 756.604 416.708C756.318 408.202 754.526 385.072 753.86 381.285C753.381 378.567 753.577 378.702 755.943 382.722C757.378 385.162 761.579 393.262 765.276 400.722ZM287.457 381.285C289.382 382.026 290.221 382.667 289.322 382.709C288.422 382.751 286.172 382.128 284.322 381.324C280.105 379.494 282.72 379.461 287.457 381.285ZM458.723 386.035C459.629 386.723 462.191 391.269 464.415 396.137L468.46 404.99L471.993 401.887C476.037 398.337 477.085 398.138 479.628 400.44C482.813 403.323 481.832 406.122 475.531 412.133C472.272 415.242 469.208 417.785 468.722 417.785C466.416 417.785 464.14 414.334 459.015 403.069C453.452 390.843 452.364 386.393 454.707 385.447C456.661 384.659 456.968 384.704 458.723 386.035ZM98.4574 389.163C98.4574 389.37 97.6704 390.158 96.7074 390.913C95.1214 392.156 95.0864 392.121 96.3294 390.535C97.6364 388.869 98.4574 388.34 98.4574 389.163ZM595.457 393.785C597.285 394.966 595.706 394.966 592.957 393.785C591.638 393.218 591.468 392.907 592.457 392.871C593.282 392.84 594.632 393.252 595.457 393.785ZM80.7074 394.447C80.0204 394.725 78.8954 394.725 78.2074 394.447C77.5204 394.17 78.0824 393.943 79.4574 393.943C80.8324 393.943 81.3954 394.17 80.7074 394.447ZM88.7074 394.447C88.0204 394.725 86.8954 394.725 86.2074 394.447C85.5204 394.17 86.0824 393.943 87.4574 393.943C88.8324 393.943 89.3954 394.17 88.7074 394.447ZM70.4574 399.163C70.4574 399.37 69.6704 400.158 68.7074 400.913C67.1214 402.156 67.0864 402.121 68.3294 400.535C69.6364 398.869 70.4574 398.34 70.4574 399.163ZM614.957 399.785C616.218 400.327 616.402 400.644 615.457 400.644C614.632 400.644 613.057 400.258 611.957 399.785C610.696 399.243 610.512 398.926 611.457 398.926C612.282 398.926 613.857 399.312 614.957 399.785ZM707.578 405.483C710.074 408.151 712.907 411.542 713.873 413.017C715.14 414.95 717.569 416.312 722.565 417.888C726.379 419.092 729.298 420.277 729.053 420.523C728.637 420.938 724.762 419.866 718.189 417.517C716.667 416.973 714.002 414.673 712.266 412.406C708.086 406.945 702.249 400.785 701.254 400.785C699.905 400.785 700.37 403.031 702.118 404.962C703.031 405.972 703.532 407.043 703.232 407.344C702.37 408.205 698.243 400.94 698.947 399.801C699.882 398.288 702.395 399.942 707.578 405.483ZM66.4574 404.785C65.8684 405.885 65.1624 406.785 64.8874 406.785C64.6124 406.785 64.8684 405.885 65.4574 404.785C66.0464 403.685 66.7524 402.785 67.0274 402.785C67.3024 402.785 67.0464 403.685 66.4574 404.785ZM700.707 411.213C702.22 411.253 703.457 411.622 703.457 412.035C703.457 413.322 699.076 412.787 696.457 411.18C694.912 410.233 694.721 409.933 695.957 410.394C697.057 410.806 699.194 411.174 700.707 411.213ZM64.6134 416.446C65.1964 417.165 65.1984 417.827 64.6194 418.185C63.6584 418.779 62.4054 415.451 62.5874 412.785C62.6444 411.946 62.9064 412.167 63.1814 413.285C63.4514 414.385 64.0964 415.807 64.6134 416.446ZM734.707 421.447C734.02 421.725 732.895 421.725 732.207 421.447C731.52 421.17 732.082 420.943 733.457 420.943C734.832 420.943 735.395 421.17 734.707 421.447ZM743.186 422.389C742.854 422.721 741.991 422.757 741.27 422.468C740.472 422.149 740.709 421.912 741.874 421.864C742.928 421.821 743.518 422.057 743.186 422.389ZM750.186 423.389C749.854 423.721 748.991 423.757 748.27 423.468C747.472 423.149 747.709 422.912 748.874 422.864C749.928 422.821 750.518 423.057 750.186 423.389ZM68.4574 425.785C69.0464 426.885 69.3024 427.785 69.0274 427.785C68.7524 427.785 68.0464 426.885 67.4574 425.785C66.8684 424.685 66.6124 423.785 66.8874 423.785C67.1624 423.785 67.8684 424.685 68.4574 425.785ZM71.5854 430.535C72.8284 432.121 72.7934 432.156 71.2074 430.913C69.5414 429.606 69.0124 428.785 69.8354 428.785C70.0424 428.785 70.8304 429.573 71.5854 430.535ZM696.983 430.592C696.676 430.9 695.869 430.593 695.19 429.909C694.21 428.921 694.325 428.807 695.75 429.349C696.736 429.725 697.291 430.284 696.983 430.592ZM718.726 431.441C718.049 431.715 716.699 431.732 715.726 431.478C714.753 431.224 715.307 431 716.957 430.98C718.607 430.96 719.403 431.167 718.726 431.441ZM76.4574 436.285C77.7494 437.66 78.5814 438.785 78.3064 438.785C78.0314 438.785 76.7494 437.66 75.4574 436.285C74.1654 434.91 73.3334 433.785 73.6084 433.785C73.8834 433.785 75.1654 434.91 76.4574 436.285ZM733.186 434.389C732.854 434.721 731.991 434.757 731.27 434.468C730.472 434.149 730.709 433.912 731.874 433.864C732.928 433.821 733.518 434.057 733.186 434.389ZM391.692 439.404C396.238 440.832 400.52 442.457 401.207 443.015C401.895 443.573 402.457 443.695 402.457 443.285C402.457 442.875 403.132 443.1 403.957 443.785C404.782 444.47 405.457 444.723 405.457 444.348C405.457 443.974 406.02 444.018 406.707 444.448C407.395 444.877 408.465 445.306 409.085 445.401C411.11 445.709 421.462 448.834 424.243 449.977C425.736 450.59 427.555 451.214 428.285 451.362C429.016 451.51 430.366 451.964 431.285 452.372C432.205 452.779 433.394 453.151 433.927 453.199C435.725 453.359 437.399 458.025 436.357 459.972C435.353 461.848 433.348 462.342 432.04 461.035C431.628 460.622 430.878 460.229 430.374 460.16C429.87 460.091 429.344 459.945 429.207 459.836C429.07 459.726 428.007 459.457 426.845 459.238C422.723 458.46 407.937 453.554 406.707 452.555C406.02 451.997 405.457 451.875 405.457 452.285C405.457 452.695 404.782 452.47 403.957 451.785C403.132 451.1 402.457 450.875 402.457 451.285C402.457 451.695 401.853 451.529 401.115 450.916C400.377 450.304 399.571 450.004 399.324 450.251C399.078 450.498 393.948 449.031 387.924 446.992C378.278 443.727 376.856 442.95 376.001 440.476C375.252 438.309 375.364 437.46 376.493 436.759C378.328 435.62 381.28 436.134 391.692 439.404ZM745.707 437.447C745.02 437.725 743.895 437.725 743.207 437.447C742.52 437.17 743.082 436.943 744.457 436.943C745.832 436.943 746.395 437.17 745.707 437.447ZM750.186 438.389C749.854 438.721 748.991 438.757 748.27 438.468C747.472 438.149 747.709 437.912 748.874 437.864C749.928 437.821 750.518 438.057 750.186 438.389ZM579.957 441.249C583.819 443.017 582.023 443.043 577.457 441.285C575.532 440.544 574.632 439.923 575.457 439.906C576.282 439.889 578.307 440.493 579.957 441.249ZM78.0144 446.367C75.9054 447.909 70.1454 448.14 66.9574 446.81C65.7254 446.296 67.0814 446.176 70.4874 446.497C74.8434 446.909 76.3074 446.671 77.3804 445.378C78.1294 444.475 79.0154 444.009 79.3484 444.343C79.6814 444.676 79.0814 445.587 78.0144 446.367ZM385.581 453.302C387.988 454.136 390.632 455.107 391.457 455.459C392.282 455.812 393.52 456.01 394.207 455.899C394.895 455.788 395.457 456.242 395.457 456.908C395.457 457.574 395.703 457.872 396.004 457.571C396.305 457.27 398.428 457.578 400.721 458.255C408.7 460.611 411.143 468.573 403.557 467.498C401.577 467.217 398.607 466.417 396.957 465.72C395.307 465.023 393.62 464.359 393.207 464.244C392.794 464.129 392.232 463.922 391.957 463.785C391.682 463.648 391.007 463.422 390.457 463.285C389.907 463.148 389.12 462.927 388.707 462.795C388.294 462.662 387.507 462.475 386.957 462.378C383.531 461.776 377.448 459.579 376.943 458.762C375.999 457.235 375.464 453.583 376.046 452.641C376.847 451.344 380.705 451.612 385.581 453.302ZM425.163 465.959C426.7 466.596 428.257 467.155 428.624 467.201C428.99 467.247 429.597 467.591 429.971 467.966C430.346 468.341 431.284 468.405 432.055 468.109C432.826 467.813 433.457 468.096 433.457 468.737C433.457 469.378 433.874 469.645 434.383 469.331C434.893 469.016 437.847 469.707 440.949 470.868C447.51 473.323 449.958 476.713 447.177 479.493C445.754 480.917 444.998 480.964 441.309 479.859C438.98 479.161 435.923 478.109 434.516 477.521C433.109 476.934 431.62 476.359 431.207 476.244C430.794 476.129 430.232 475.923 429.957 475.785C429.682 475.647 429.007 475.423 428.457 475.285C427.907 475.147 427.344 474.944 427.207 474.833C427.07 474.723 426.225 474.489 425.331 474.315C417.067 472.705 413.171 468.471 416.704 464.938C417.985 463.657 420.278 463.934 425.163 465.959ZM502.606 471.864C513.884 475.478 518.887 477.56 519.955 479.086C521.989 481.99 522.153 512.451 520.15 515.191C518.916 516.877 517.911 516.681 502.4 511.729C493.356 508.841 484.944 505.569 483.707 504.457C481.54 502.511 481.457 501.806 481.457 485.277C481.457 475.84 481.757 467.818 482.124 467.452C483.466 466.109 487.081 466.888 502.606 471.864ZM50.7624 491.743C49.2174 497.984 48.4864 499.203 49.0084 494.666C49.5144 490.277 49.4264 490.067 47.2494 490.468C45.9884 490.7 43.1574 490.494 40.9574 490.01C37.3684 489.221 37.6994 489.134 44.1744 489.166L51.3914 489.201L50.7624 491.743ZM47.3034 505.631C46.6504 508.461 45.9174 510.578 45.6744 510.335C45.4304 510.092 45.7834 507.594 46.4574 504.785C47.1314 501.976 47.8644 499.859 48.0874 500.081C48.3094 500.304 47.9564 502.801 47.3034 505.631ZM101.695 514.285C102.025 521.309 101.922 523.658 101.409 520.785C100.605 516.285 100.137 502.082 100.818 502.868C101.016 503.098 101.411 508.235 101.695 514.285ZM44.3904 518.718C43.7274 522.089 42.9574 524.618 42.6794 524.34C42.4014 524.062 42.7514 521.112 43.4574 517.785C44.1634 514.458 44.9334 511.928 45.1684 512.163C45.4044 512.398 45.0534 515.348 44.3904 518.718ZM41.2774 532.328C40.6284 535.56 39.9114 537.647 39.6844 536.966C39.2284 535.599 41.4504 525.445 42.0704 526.064C42.2834 526.277 41.9264 529.096 41.2774 532.328ZM103.119 530.035C102.842 530.723 102.615 530.16 102.615 528.785C102.615 527.41 102.842 526.848 103.119 527.535C103.397 528.223 103.397 529.348 103.119 530.035ZM104.119 536.035C103.842 536.723 103.615 536.16 103.615 534.785C103.615 533.41 103.842 532.848 104.119 533.535C104.397 534.223 104.397 535.348 104.119 536.035ZM105.119 541.035C104.842 541.723 104.615 541.16 104.615 539.785C104.615 538.41 104.842 537.848 105.119 538.535C105.397 539.223 105.397 540.348 105.119 541.035ZM38.3904 545.718C37.7274 549.089 36.9574 551.618 36.6794 551.34C36.4014 551.062 36.7514 548.112 37.4574 544.785C38.1634 541.458 38.9334 538.928 39.1684 539.163C39.4044 539.398 39.0534 542.348 38.3904 545.718ZM178.457 541.456C178.457 543.775 175.527 546.785 173.271 546.785C170.597 546.785 169.903 544.054 171.991 541.748C174.208 539.298 178.457 539.106 178.457 541.456ZM14.9964 556.699C14.1114 573.891 15.1894 580.308 19.7054 584.723C22.7244 587.675 23.1804 587.791 32.3974 587.953C37.6554 588.046 40.2704 588.298 38.2074 588.513C35.5514 588.791 34.4344 589.398 34.3784 590.595C34.3294 591.636 34.1054 591.805 33.7954 591.035C33.5104 590.33 31.5614 589.785 29.3244 589.785C24.8534 589.785 19.9274 587.576 17.3384 584.411C13.3054 579.48 12.2844 569.786 13.8744 551.535C15.0634 537.895 15.7924 541.253 14.9964 556.699ZM107.14 548.973C106.821 549.77 106.584 549.533 106.536 548.368C106.493 547.314 106.729 546.724 107.061 547.056C107.393 547.388 107.429 548.251 107.14 548.973ZM109.316 555.785C109.316 556.73 108.999 556.546 108.457 555.285C107.984 554.185 107.598 552.61 107.598 551.785C107.598 550.84 107.915 551.024 108.457 552.285C108.93 553.385 109.316 554.96 109.316 555.785ZM35.7834 560.719L35.1714 568.652L54.0644 568.083C64.4554 567.77 72.7324 567.739 72.4574 568.014C72.1824 568.289 63.7704 568.818 53.7644 569.19C32.2554 569.99 32.8514 570.294 34.6514 559.436C35.2574 555.778 35.8974 552.785 36.0744 552.785C36.2504 552.785 36.1194 556.355 35.7834 560.719ZM114.376 563.322C115.795 562.974 118.002 562.427 119.279 562.107C120.556 561.786 122.581 562.017 123.779 562.619C124.977 563.222 127.082 563.899 128.457 564.126C129.832 564.352 128.932 564.331 126.457 564.08C119.259 563.348 116.55 563.606 114.208 565.247C112.628 566.354 109.9 566.729 104.484 566.586L96.9574 566.388L104.296 566.041C110.426 565.751 111.538 565.439 111.042 564.146C110.716 563.295 110.234 561.404 109.972 559.942C109.629 558.031 109.818 558.222 110.645 560.619C111.65 563.533 112.12 563.874 114.376 563.322ZM138.707 563.447C138.02 563.725 136.895 563.725 136.207 563.447C135.52 563.17 136.082 562.943 137.457 562.943C138.832 562.943 139.395 563.17 138.707 563.447ZM143.404 565.221C144.871 566.989 143.774 569.289 139.799 572.781L136.957 575.278L139.707 572.227C142.6 569.017 143.317 565.299 141.207 564.447C140.422 564.13 140.376 563.914 141.085 563.864C141.705 563.821 142.748 564.431 143.404 565.221ZM86.7074 567.517C84.3694 567.728 80.5444 567.728 78.2074 567.517C75.8694 567.307 77.7824 567.134 82.4574 567.134C87.1324 567.134 89.0444 567.307 86.7074 567.517ZM422.452 572.102C436.473 576.792 438.162 577.608 440.202 580.683C441.442 582.552 442.457 584.998 442.457 586.118C442.457 588.3 438.813 592.782 437.033 592.79C436.441 592.793 429.246 590.659 421.043 588.049C403.792 582.559 400.457 580.245 400.457 573.765C400.457 570.903 401.034 569.494 402.68 568.342C403.902 567.486 405.364 566.815 405.93 566.852C406.495 566.889 413.93 569.252 422.452 572.102ZM124.207 579.474C123.244 579.726 121.67 579.726 120.707 579.474C119.744 579.223 120.532 579.017 122.457 579.017C124.382 579.017 125.17 579.223 124.207 579.474ZM105.957 580.836C107.93 581.372 106.902 581.459 102.957 581.093C99.6574 580.786 96.7704 580.366 96.5404 580.16C95.7964 579.491 102.872 579.999 105.957 580.836ZM116.219 580.472C115.263 580.722 113.463 580.731 112.219 580.492C110.975 580.253 111.757 580.048 113.957 580.037C116.157 580.026 117.175 580.222 116.219 580.472ZM94.7074 581.447C94.0204 581.725 92.8954 581.725 92.2074 581.447C91.5204 581.17 92.0824 580.943 93.4574 580.943C94.8324 580.943 95.3954 581.17 94.7074 581.447ZM84.9574 582.842C82.7574 583.297 79.6074 583.636 77.9574 583.596C75.0194 583.523 75.0294 583.507 78.4574 582.785C80.3824 582.38 83.5324 582.041 85.4574 582.032L88.9574 582.015L84.9574 582.842ZM73.7264 584.441C73.0494 584.715 71.6994 584.732 70.7264 584.478C69.7534 584.224 70.3074 584 71.9574 583.98C73.6074 583.96 74.4034 584.167 73.7264 584.441ZM62.4574 585.836C59.9824 586.276 56.3824 586.606 54.4574 586.569L50.9574 586.501L54.9574 585.785C57.1574 585.391 60.7574 585.061 62.9574 585.052L66.9574 585.035L62.4574 585.836ZM49.2074 587.474C48.2444 587.726 46.6704 587.726 45.7074 587.474C44.7444 587.223 45.5324 587.017 47.4574 587.017C49.3824 587.017 50.1704 587.223 49.2074 587.474ZM36.2684 605.785C36.2424 607.35 35.9184 606.789 35.4004 604.285C34.9454 602.085 34.6034 598.935 34.6404 597.285C34.6904 595.035 34.9084 595.411 35.5084 598.785C35.9484 601.26 36.2904 604.41 36.2684 605.785ZM412.502 599.71C417.152 601.318 420.422 602.668 419.769 602.71C418.312 602.802 402.457 597.742 402.457 597.185C402.457 596.397 404.17 596.827 412.502 599.71ZM426.957 604.249C428.607 605.004 429.282 605.639 428.457 605.659C427.632 605.679 425.607 605.077 423.957 604.321C422.307 603.566 421.632 602.931 422.457 602.911C423.282 602.891 425.307 603.493 426.957 604.249ZM444.599 609.906C451.722 612.172 457.341 614.234 457.087 614.488C456.583 614.992 430.457 606.854 430.457 606.192C430.457 605.463 431.485 605.733 444.599 609.906ZM40.9574 613.338C42.0574 614.215 42.2824 614.606 41.4574 614.207C39.0604 613.046 36.4574 610.564 36.4574 609.439C36.4574 608.869 37.0204 609.154 37.7074 610.072C38.3954 610.99 39.8574 612.46 40.9574 613.338ZM472.599 618.944C479.679 621.232 485.282 623.294 485.049 623.526C484.57 624.006 458.457 615.821 458.457 615.192C458.457 614.444 459.655 614.762 472.599 618.944ZM500.656 627.925C507.726 630.202 513.312 632.264 513.068 632.507C512.576 632.999 486.457 624.838 486.457 624.192C486.457 623.431 487.796 623.783 500.656 627.925ZM49.4424 669.27C55.2374 675.09 58.5144 679.094 57.9224 679.633C56.2954 681.115 50.2954 682.8 49.0924 682.113C48.4684 681.756 48.3104 681.852 48.7424 682.326C49.7244 683.405 34.6724 689.036 33.2154 688.135C32.6284 687.773 32.4284 687.929 32.7704 688.482C33.4004 689.501 25.6834 692.344 24.7684 691.43C23.8244 690.485 25.6064 686.759 26.6844 687.425C27.2874 687.798 27.4814 687.633 27.1224 687.052C26.2454 685.632 31.8384 673.519 32.9184 674.502C33.3914 674.933 33.4864 674.774 33.1294 674.149C32.4204 672.909 38.0014 659.785 39.2374 659.785C39.6554 659.785 44.2474 664.053 49.4424 669.27ZM61.7734 666.173C64.9714 666.804 67.3714 667.537 67.1064 667.803C66.6234 668.286 70.1834 668.528 80.4574 668.71C87.0034 668.826 86.3114 669.414 74.5004 673.769C69.9834 675.435 65.8054 676.5 65.2174 676.137C64.5854 675.746 64.4404 675.948 64.8624 676.63C65.2654 677.283 64.9944 677.785 64.2394 677.785C63.5044 677.785 59.7654 674.579 55.9304 670.66L48.9574 663.536L52.4574 664.281C54.3824 664.691 58.5744 665.543 61.7734 666.173ZM88.9574 675.299C88.9574 676.391 89.2364 677.51 89.5774 677.785C90.4134 678.458 96.5154 709.061 95.9304 709.645C95.0654 710.511 91.5024 706.521 92.1414 705.401C92.4914 704.787 92.4094 704.619 91.9594 705.026C90.8074 706.07 88.3414 703.8 89.1284 702.422C89.4854 701.797 89.3954 701.633 88.9264 702.059C87.8234 703.063 78.3544 693.761 79.1564 692.462C79.4924 691.92 79.2974 691.766 78.7254 692.119C77.4004 692.938 75.2274 690.404 76.2164 689.193C76.6234 688.694 76.5484 688.619 76.0494 689.026C74.8384 690.015 72.3044 687.842 73.1234 686.517C73.4764 685.945 73.2974 685.766 72.7254 686.119C71.4554 686.904 69.1774 684.399 70.2164 683.36C70.6234 682.952 70.3094 682.768 69.5164 682.952C68.7244 683.135 67.9134 682.548 67.7154 681.647C67.4544 680.463 68.6514 679.566 72.0304 678.415C74.6024 677.538 77.2134 677.11 77.8324 677.463C78.4514 677.817 78.6064 677.72 78.1764 677.248C77.3154 676.301 85.0714 672.869 87.4574 673.141C88.2824 673.235 88.9574 674.206 88.9574 675.299ZM224.542 712.426C222.295 714.978 220.457 717.984 220.457 719.106C220.457 722.307 228.446 728.963 243.304 738.142C262.804 750.189 268.078 752.977 270.67 752.609C275.147 751.974 274.069 748.025 266.536 737.466C260.908 729.578 259.301 726.48 258.364 721.716C257.722 718.454 256.805 715.785 256.327 715.785C255.848 715.785 255.457 716.163 255.457 716.624C255.457 717.864 250.758 719.785 247.726 719.785C243.691 719.785 236.98 716.107 233.023 711.727C231.065 709.559 229.274 707.785 229.045 707.785C228.815 707.785 226.789 709.873 224.542 712.426ZM133.218 738.667C127.873 743.653 127.663 747.318 132.335 754.108C134.729 757.588 135.873 760.68 136.58 765.578C137.111 769.267 138.01 774.653 138.576 777.547C141.564 792.816 158.877 796.577 158.607 781.899C158.57 779.911 158.409 772.008 158.249 764.337L157.957 750.389L151.957 749.302C148.657 748.704 145.427 747.887 144.78 747.486C143.079 746.432 141.174 740.045 141.716 737.21C142.46 733.32 138.16 734.057 133.218 738.667Z" fill="black"/>
</svg>
