<svg width="1344" height="522" viewBox="0 0 1344 522" fill="none" xmlns="http://www.w3.org/2000/svg">
<path fill-rule="evenodd" clip-rule="evenodd" d="M242.956 3.53228C227.789 10.1373 227.113 13.0011 227.106 70.7412C227.101 99.4907 226.361 140.784 225.459 162.508L223.824 202.002L201.402 200.548L178.982 199.093L161.555 181.655C151.972 172.064 144.679 163.667 145.35 162.996C146.02 162.322 153.234 165.979 161.381 171.12C180.572 183.228 183.446 184.205 194.626 182.418C202.632 181.135 203.821 180.128 202.917 175.398C202.254 171.927 204.246 167.035 208.278 162.242C215.928 153.141 216.35 150.586 209.919 152.269C207.294 152.958 185.917 152.46 162.417 151.168C122.49 148.973 118.605 149.154 103.23 153.934C81.0559 160.83 63.2014 171.075 56.8451 180.549C46.651 195.747 19.1465 275.572 7.71799 323.128C-8.04748 388.741 0.909553 434.993 29.3853 434.993C38.3945 434.993 53.6358 422.308 73.2166 398.513C97.5789 368.911 110.165 355.845 119.062 350.925C125.029 347.624 136.271 346.55 175.462 345.531L224.411 344.258L225.859 350.047C226.654 353.229 227.168 387.493 226.999 426.188L226.693 496.539L209.137 498.272C194.412 499.724 190.441 501.143 184.506 507.082C180.617 510.975 177.435 515.924 177.435 518.08C177.435 521.637 223.395 522 672.849 522H1168.26L1165.62 514.411C1161.91 503.748 1154.83 500.005 1134.91 498.153L1117.6 496.542L1118.25 260.488C1118.82 49.171 1118.48 23.5612 1114.95 16.1184C1106.7 -1.27545 1140.43 -0.049897 672.603 0.0569969C322.717 0.139032 249.387 0.730665 242.956 3.53228ZM679.188 11.4897C679.188 16.1731 672.123 18.7435 668.693 15.3105C666.738 13.3541 666.835 11.5742 669.041 8.91426C672.59 4.63602 679.188 6.31153 679.188 11.4897ZM873.751 24.1976C764.225 24.5556 584.264 24.5556 473.839 24.1976C363.414 23.8396 453.026 23.5463 672.978 23.5463C892.929 23.5463 983.277 23.8396 873.751 24.1976ZM271.618 25.5723C271.049 25.985 267.229 28.2894 263.13 30.6908L255.678 35.0585L261.543 29.9376C264.767 27.1235 268.587 24.8191 270.028 24.8191C271.471 24.8191 272.187 25.1572 271.618 25.5723ZM1084.97 31.3719C1088.57 34.9765 1091.52 39.1404 1091.52 40.627C1091.52 42.111 1089.81 40.878 1087.71 37.885C1085.61 34.892 1081.45 30.7281 1078.46 28.63C1075.47 26.5344 1074.24 24.8191 1075.72 24.8191C1077.21 24.8191 1081.37 27.7674 1084.97 31.3719ZM255.129 42.3199C254.402 45.1066 253.252 46.8343 252.571 46.1556C251.227 44.8107 253.602 37.2486 255.368 37.2486C255.966 37.2486 255.86 39.5307 255.129 42.3199ZM997.13 262.223V477.254H672.978H348.826V262.223V47.1922H672.978H997.13V262.223ZM1094.62 352.337C1094.96 431.98 1094.41 497.141 1093.38 497.141C1092.36 497.141 1091.78 395.622 1092.11 271.545C1092.43 147.469 1092.98 82.3056 1093.34 126.741C1093.7 171.177 1094.28 272.696 1094.62 352.337ZM351.309 262.223V474.768H367.455H383.6V262.223V49.6781H367.455H351.309V262.223ZM388.568 58.3788V67.0795H435.763H482.957V58.3788V49.6781H435.763H388.568V58.3788ZM485.441 58.3664V67.0795H740.2H994.962L994.182 59.0003L993.404 50.9211L739.423 50.2872L485.441 49.6558V58.3664ZM374.73 58.5553C381.8 65.6302 378.009 77.0231 368.585 77.0231C365.023 77.0231 358.23 71.5342 355.833 66.719C354.62 64.2828 364.062 54.6499 367.664 54.6499C369.402 54.6499 372.582 56.4075 374.73 58.5553ZM388.568 249.532C388.568 391.266 389.229 429.875 391.673 430.862C394.157 431.864 394.157 432.154 391.673 432.311C389.626 432.44 388.568 436.766 388.568 444.994V457.481L394.612 453.518C403.946 447.398 410.924 452.27 410.924 464.911V474.768H446.955H482.987L482.351 272.788L481.716 70.8083L435.142 70.1321L388.568 69.456V249.532ZM485.441 272.167V474.768H689.123H892.805V272.167V69.5654H689.123H485.441V272.167ZM896.998 71.1713C896.057 72.1109 895.289 163.329 895.289 273.877V474.872L944.347 474.199L993.404 473.525V272.167V70.8083L946.056 70.1346C920.012 69.7642 897.937 70.2316 896.998 71.1713ZM429.553 83.2378C429.553 84.6051 421.451 86.0519 411.545 86.4546C396.445 87.0661 393.536 86.5466 393.536 83.2378C393.536 79.9291 396.445 79.4095 411.545 80.0211C421.451 80.4238 429.553 81.8706 429.553 83.2378ZM377.391 94.4244C377.391 102.822 377.065 103.125 368.076 103.125C362.954 103.125 358.761 102.285 358.761 101.261C358.761 100.236 358.761 95.9731 358.761 91.7894C358.761 84.5181 359.174 84.2148 368.076 84.9531C376.919 85.684 377.391 86.1637 377.391 94.4244ZM410.924 99.3962C410.924 100.763 407.011 101.882 402.23 101.882C397.448 101.882 393.536 100.763 393.536 99.3962C393.536 98.029 397.448 96.9103 402.23 96.9103C407.011 96.9103 410.924 98.029 410.924 99.3962ZM375.652 112.323C380.662 117.337 379.085 125.66 372.448 129.215C367.077 132.091 365.627 131.952 361.454 128.173C353.726 121.175 358.309 109.482 368.821 109.377C370.94 109.357 374.013 110.682 375.652 112.323ZM410.924 114.312C410.924 115.679 407.011 116.798 402.23 116.798C397.448 116.798 393.536 115.679 393.536 114.312C393.536 112.944 397.448 111.826 402.23 111.826C407.011 111.826 410.924 112.944 410.924 114.312ZM420.859 129.227C420.859 130.594 414.712 131.713 407.198 131.713C399.684 131.713 393.536 130.594 393.536 129.227C393.536 127.86 399.684 126.741 407.198 126.741C414.712 126.741 420.859 127.86 420.859 129.227ZM377.125 139.792C381.054 146.067 376.042 152.843 367.47 152.843C362.611 152.843 359.968 151.21 358.53 147.322C354.417 136.19 370.731 129.585 377.125 139.792ZM428.932 145.385C427.971 149.234 395.416 148.545 394.12 144.65C393.29 142.164 397.217 141.597 411.299 142.164C421.875 142.591 429.292 143.946 428.932 145.385ZM1166.66 150.974C1147.19 151.394 1131.26 152.674 1131.26 153.82C1131.26 154.964 1133.5 158.745 1136.23 162.222C1138.96 165.698 1141.2 171.318 1141.2 174.709C1141.2 179.743 1142.74 181.168 1149.56 182.448C1159.53 184.32 1163.19 183.094 1180.45 172.096C1187.7 167.483 1194.71 164.065 1196.03 164.505C1197.35 164.947 1190.63 173.049 1181.11 182.51L1163.78 199.712L1142.56 200.826L1121.33 201.942V273.492V345.043L1169.14 345.933C1208.48 346.667 1218.36 347.584 1224.85 351.104C1232.48 355.243 1245.28 368.841 1273.41 402.677C1289.42 421.94 1305.78 434.993 1313.91 434.993C1329.38 434.993 1336.88 425.542 1342.36 399.122C1347.61 373.785 1340.33 331.56 1319.37 265.952C1305.71 223.157 1291.01 185.58 1284.91 177.819C1274.62 164.726 1234.88 148.789 1214.7 149.661C1207.75 149.962 1186.12 150.554 1166.66 150.974ZM410.924 160.457C410.924 163.331 408.867 164.142 403.042 163.565C391.656 162.441 390.799 156.572 402.024 156.572C408.44 156.572 410.924 157.656 410.924 160.457ZM377.125 169.623C381.054 175.897 376.042 182.674 367.47 182.674C362.611 182.674 359.968 181.041 358.53 177.153C354.417 166.021 370.731 159.416 377.125 169.623ZM417.7 175.788C412.546 176.325 404.721 176.318 400.312 175.768C395.901 175.219 400.119 174.779 409.682 174.789C419.245 174.801 422.851 175.249 417.7 175.788ZM1252.69 178.657C1258.11 184.086 1257.2 195.745 1250.97 200.697C1241.59 208.145 1225.65 201.249 1225.65 189.746C1225.65 176.442 1243.25 169.218 1252.69 178.657ZM606.948 182.08C606.379 182.435 603.117 184.954 599.702 187.673L593.492 192.618L598.224 187.024C600.827 183.947 604.086 181.431 605.47 181.431C606.851 181.431 607.516 181.722 606.948 182.08ZM120.255 188.272C155.589 206.037 139.654 259.827 100.525 254.875C66.5051 250.569 58.2857 204.637 88.6393 188.434C99.037 182.88 109.43 182.828 120.255 188.272ZM751.303 190.132C754.674 194.731 754.622 194.848 750.6 191.693C748.211 189.816 746.254 187.111 746.254 185.684C746.254 184.258 746.569 183.554 746.956 184.123C747.344 184.695 749.299 187.397 751.303 190.132ZM377.622 195.136C379.509 202.671 375.091 208.776 367.748 208.776C360.756 208.776 356.387 201.599 359.029 194.452C362.115 186.107 375.481 186.599 377.622 195.136ZM412.787 190.669C409.031 191.238 402.881 191.238 399.125 190.669C395.369 190.099 398.442 189.635 405.956 189.635C413.47 189.635 416.542 190.099 412.787 190.669ZM595.33 284.989C595.685 313.92 595.154 336.293 594.15 334.707C593.147 333.123 592.533 301.065 592.789 263.466C593.281 190.616 594.272 199.021 595.33 284.989ZM423.964 205.624C418.157 206.148 408.658 206.148 402.851 205.624C397.043 205.102 401.795 204.672 413.408 204.672C425.02 204.672 429.772 205.102 423.964 205.624ZM1219.23 208.542C1221.95 211.555 1223.23 216.286 1222.72 221.516C1221.22 237.018 1200.12 241.282 1193.78 227.363C1189.92 218.864 1190.03 217.976 1196.03 210.355C1202.21 202.479 1212.99 201.639 1219.23 208.542ZM1281.2 208.957C1284.96 211.916 1287.75 216.599 1287.75 219.963C1287.75 226.048 1277.41 236.121 1271.16 236.121C1266.4 236.121 1255.46 224.86 1255.46 219.963C1255.46 215.065 1266.4 203.804 1271.16 203.804C1273.08 203.804 1277.6 206.124 1281.2 208.957ZM201.447 212.791C205.26 218.615 205.322 219.975 202.048 225.842C195.083 238.316 174.951 233.794 174.951 219.754C174.951 206.051 193.794 201.1 201.447 212.791ZM1165.95 211.098C1174.27 226.657 1158.48 241.055 1145.74 229.521C1140.09 224.405 1139.92 216.8 1145.31 210.837C1150.81 204.759 1162.64 204.908 1165.95 211.098ZM377.125 219.341C383.223 229.078 366.332 238.99 359.521 229.668C355.333 223.935 355.433 222.406 360.314 217.521C365.247 212.582 373.446 213.469 377.125 219.341ZM400.988 227.42C400.988 229.471 399.311 231.149 397.262 231.149C393.382 231.149 392.334 228.208 395.193 225.35C398.049 222.488 400.988 223.537 400.988 227.42ZM443.215 227.42C443.215 230.401 439.506 231.149 424.732 231.149C407.652 231.149 401.251 229.228 405.196 225.28C406.07 224.407 414.98 223.691 425 223.691C439.536 223.691 443.215 224.445 443.215 227.42ZM706.511 229.588C715.284 233.551 723.533 252.453 725.438 272.96C726.976 289.516 726.775 290.438 720.808 294.351C711.352 300.553 700.035 303.223 696.826 300.011C692.723 295.904 693.488 293.404 699.68 290.662C705.003 288.303 704.973 288.258 699.059 289.725C684.006 293.461 665.124 293.615 654.969 290.087C644.328 286.391 640.073 288.114 649.475 292.312C653.901 294.289 654.115 295.151 651.176 299.173C647.925 303.626 647.398 303.593 634.904 298.214C625.766 294.281 621.553 290.913 620.497 286.697C618.91 280.37 624.298 255.692 630.518 240.792C634.581 231.057 646.139 224.355 653.683 227.361C656.097 228.32 665.34 229.126 674.22 229.148C683.1 229.17 692.323 230.229 694.712 231.5C701.901 235.321 699.6 231.612 692.228 227.492L685.397 223.677L692.849 225.23C696.948 226.085 703.095 228.047 706.511 229.588ZM1252.35 239.216C1256.73 242.719 1256.22 257.38 1251.56 262.046C1246.18 267.426 1236.57 266.939 1230.62 260.98C1216.49 246.84 1236.65 226.645 1252.35 239.216ZM430.204 240.315C427.829 240.936 423.358 240.959 420.268 240.364C417.178 239.77 419.121 239.261 424.585 239.233C430.05 239.206 432.578 239.693 430.204 240.315ZM410.924 251.036C410.924 252.404 409.739 253.522 408.293 253.522C406.847 253.522 406.353 252.404 407.198 251.036C408.042 249.669 409.225 248.55 409.828 248.55C410.432 248.55 410.924 249.669 410.924 251.036ZM443.215 251.036C443.215 252.404 437.067 253.522 429.553 253.522C422.039 253.522 415.891 252.404 415.891 251.036C415.891 249.669 422.039 248.55 429.553 248.55C437.067 248.55 443.215 249.669 443.215 251.036ZM1200.81 258.293C1225.61 275.813 1223.44 309.231 1196.73 321.054C1186.64 325.524 1184.09 325.75 1174.41 323.038C1162.53 319.71 1149.81 307.491 1147.14 296.844C1141.3 273.571 1163.75 248.789 1187.15 252.67C1191.25 253.348 1197.4 255.879 1200.81 258.293ZM174.454 256.505C176.093 258.146 177.435 263.739 177.435 268.935C177.435 278.215 177.601 278.381 186.874 278.381C198.933 278.381 202.274 281.886 202.274 294.54C202.274 307.193 198.933 310.698 186.874 310.698C177.532 310.698 177.435 310.8 177.435 320.555C177.435 331.629 172.961 335.557 160.35 335.557C151.562 335.557 145.144 327.978 145.144 317.601C145.144 311.449 144.252 310.698 136.947 310.698C126.137 310.698 122.788 306.877 122.788 294.54C122.788 282.202 126.137 278.381 136.947 278.381C144.252 278.381 145.144 277.631 145.144 271.478C145.144 260.199 151.478 253.522 162.176 253.522C167.29 253.522 172.815 254.865 174.454 256.505ZM650.491 263.613C646.946 267.53 646.482 269.713 648.509 272.935C651.902 278.324 658.551 279.624 663.161 275.796C667.839 271.913 667.734 267.274 662.866 262.399C657.766 257.298 656.047 257.467 650.491 263.613ZM684.255 262.104C677.677 270.034 687.382 282.5 695.124 276.069C699.797 272.186 700.226 265.629 696.078 261.477C692.097 257.492 687.894 257.714 684.255 262.104ZM415.315 270.215C411.582 270.782 404.875 270.792 400.412 270.24C395.948 269.686 399.001 269.221 407.198 269.208C415.395 269.193 419.049 269.646 415.315 270.215ZM422.787 287.646C417.7 288.181 408.758 288.188 402.915 287.661C397.073 287.137 401.236 286.699 412.166 286.692C423.095 286.682 427.874 287.112 422.787 287.646ZM438.247 298.269C438.247 299.636 432.099 300.754 424.585 300.754C417.071 300.754 410.924 299.636 410.924 298.269C410.924 296.901 417.071 295.783 424.585 295.783C432.099 295.783 438.247 296.901 438.247 298.269ZM407.198 308.212C408.042 309.579 407.548 310.698 406.102 310.698C404.657 310.698 403.472 309.579 403.472 308.212C403.472 306.845 403.964 305.726 404.567 305.726C405.171 305.726 406.353 306.845 407.198 308.212ZM429.553 308.212C430.482 309.716 427.047 310.698 420.859 310.698C414.672 310.698 411.237 309.716 412.166 308.212C413.01 306.845 416.922 305.726 420.859 305.726C424.796 305.726 428.709 306.845 429.553 308.212ZM440.174 319.963C435.087 320.498 426.145 320.505 420.303 319.978C414.461 319.453 418.624 319.016 429.553 319.008C440.482 318.999 445.261 319.429 440.174 319.963ZM432.037 330.585C432.964 332.087 429.578 333.071 423.49 333.071C417.946 333.071 413.408 331.953 413.408 330.585C413.408 329.218 417.253 328.099 421.955 328.099C426.657 328.099 431.192 329.218 432.037 330.585ZM722.773 338.55L732.592 349.001L722.246 340.415C713.438 333.106 709.362 328.099 712.216 328.099C712.621 328.099 717.373 332.803 722.773 338.55ZM716.446 341.772C716.446 344.991 708.903 345.424 661.179 344.931L605.912 344.36L659.937 343.639C693.093 343.196 713.963 341.976 713.963 340.479C713.963 339.139 714.521 338.043 715.204 338.043C715.888 338.043 716.446 339.721 716.446 341.772ZM428.967 342.279C425.912 342.868 420.323 342.883 416.547 342.314C412.772 341.742 415.271 341.26 422.101 341.24C428.932 341.223 432.022 341.69 428.967 342.279ZM408.44 351.569C408.44 352.173 407.322 353.356 405.956 354.201C404.59 355.047 403.472 354.552 403.472 353.105C403.472 351.658 404.59 350.473 405.956 350.473C407.322 350.473 408.44 350.965 408.44 351.569ZM429.553 352.958C428.709 354.326 424.796 355.444 420.859 355.444C416.922 355.444 413.01 354.326 412.166 352.958C411.237 351.455 414.672 350.473 420.859 350.473C427.047 350.473 430.482 351.455 429.553 352.958ZM742.528 355.444C744.999 358.179 746.465 360.416 745.782 360.416C745.099 360.416 742.515 358.179 740.044 355.444C737.572 352.71 736.107 350.473 736.79 350.473C737.473 350.473 740.056 352.71 742.528 355.444ZM450.666 362.902C450.666 364.351 442.388 365.388 430.795 365.388C419.203 365.388 410.924 364.351 410.924 362.902C410.924 361.453 419.203 360.416 430.795 360.416C442.388 360.416 450.666 361.453 450.666 362.902ZM432.703 374.623C428.969 375.19 422.263 375.2 417.799 374.648C413.336 374.094 416.388 373.629 424.585 373.616C432.782 373.601 436.436 374.054 432.703 374.623ZM437.606 393.976C437.276 395.348 428.105 396.576 417.133 396.715C396.726 396.979 392.582 396.288 394.637 392.964C396.43 390.058 438.316 391.045 437.606 393.976ZM424.585 410.134C425.549 411.695 420.057 412.62 409.828 412.62C400.623 412.62 393.536 411.539 393.536 410.134C393.536 408.757 400.111 407.648 408.293 407.648C416.411 407.648 423.741 408.767 424.585 410.134ZM429.007 431.839C423.241 432.358 413.182 432.366 406.651 431.851C400.121 431.339 404.838 430.911 417.133 430.904C429.429 430.897 434.772 431.317 429.007 431.839ZM388.568 469.321C388.568 474.131 389.805 474.723 399.125 474.395C407.409 474.104 408.077 473.803 402.23 472.998C398.131 472.434 393.382 470.152 391.673 467.924C388.904 464.31 388.568 464.461 388.568 469.321ZM882.445 496.519C768.137 496.877 580.352 496.877 465.145 496.519C349.938 496.162 443.463 495.868 672.978 495.868C902.492 495.868 996.752 496.162 882.445 496.519Z" fill="black"/>
</svg>
