<svg width="1286" height="1005" viewBox="0 0 1286 1005" fill="none" xmlns="http://www.w3.org/2000/svg">
<path fill-rule="evenodd" clip-rule="evenodd" d="M1207.34 3.02766C1207.34 4.70953 1208.35 6.05532 1209.61 6.05532C1210.87 6.05532 1211.88 4.70953 1211.88 3.02766C1211.88 1.3458 1210.87 0 1209.61 0C1208.35 0 1207.34 1.3458 1207.34 3.02766ZM1237.6 3.02766C1237.6 4.70953 1238.61 6.05532 1239.87 6.05532C1241.13 6.05532 1242.14 4.70953 1242.14 3.02766C1242.14 1.3458 1241.13 0 1239.87 0C1238.61 0 1237.6 1.3458 1237.6 3.02766ZM1217.93 15.1383C1217.93 26.2392 1218.35 28.7628 1220.2 28.7628C1222.05 28.7628 1222.47 26.2392 1222.47 15.1383C1222.47 4.03739 1222.05 1.51383 1220.2 1.51383C1218.35 1.51383 1217.93 4.03739 1217.93 15.1383ZM1227.01 15.1383C1227.01 26.2392 1227.43 28.7628 1229.28 28.7628C1231.13 28.7628 1231.55 26.2392 1231.55 15.1383C1231.55 4.03739 1231.13 1.51383 1229.28 1.51383C1227.43 1.51383 1227.01 4.03739 1227.01 15.1383ZM1107.28 5.92513C1105.31 7.5192 1104.2 9.31914 1104.8 9.92467C1105.41 10.5317 1106.94 10.1669 1108.21 9.11326C1110.23 7.43594 1110.51 8.25643 1110.51 15.7105C1110.51 23.2116 1110.15 24.2213 1107.49 24.2213C1105.81 24.2213 1104.46 25.231 1104.46 26.492C1104.46 28.2072 1106.31 28.7628 1112.03 28.7628C1117.74 28.7628 1119.59 28.2072 1119.59 26.492C1119.59 25.2431 1118.57 24.2213 1117.32 24.2213C1115.52 24.2213 1115.05 22.0353 1115.05 13.6245C1115.05 1.97404 1113.75 0.678195 1107.28 5.92513ZM1127.16 6.05532C1123.32 9.89288 1122.91 22.7832 1126.51 26.3846C1131.9 31.7798 1140.77 27.6577 1140.77 19.757C1140.77 14.4646 1137.42 11.5308 1132.46 12.48C1130.38 12.8782 1128.67 12.754 1128.67 12.203C1128.67 10.0473 1132.47 7.56915 1135.78 7.56915C1137.86 7.56915 1139.26 6.65934 1139.26 5.29841C1139.26 1.89834 1130.78 2.4297 1127.16 6.05532ZM1146.15 6.39291C1142.81 11.1675 1143.06 23.0814 1146.57 26.2574C1149.89 29.2729 1154.35 29.4743 1158.04 26.7781C1161.97 23.9034 1163.07 11.764 1159.84 6.84252C1156.59 1.86958 1149.48 1.63645 1146.15 6.39291ZM1155.94 11.4582C1157.73 16.1662 1156.34 22.6348 1153.28 23.8065C1150.51 24.8738 1148.39 21.6917 1148.36 16.3978C1148.31 7.41172 1153.2 4.22813 1155.94 11.4582ZM1174.06 19.1621C1174.06 26.6873 1174.55 28.7628 1176.33 28.7628C1177.95 28.7628 1178.6 27.1006 1178.6 22.8921C1178.6 16.9337 1181.67 12.5406 1184.58 14.3405C1185.45 14.8779 1186.16 18.3416 1186.16 22.0399C1186.16 27.0067 1186.75 28.7628 1188.43 28.7628C1190.11 28.7628 1190.7 26.9916 1190.7 21.9036C1190.7 17.0094 1191.39 14.7765 1193.12 14.1134C1196.35 12.8751 1198.21 16.1495 1198.24 23.0859C1198.26 27.1127 1198.92 28.7628 1200.53 28.7628C1203.56 28.7628 1203.65 15.3654 1200.66 11.2644C1198.79 8.70301 1197.91 8.55163 1193.85 10.0851C1191.29 11.051 1188.85 11.2841 1188.43 10.5998C1188.01 9.91559 1184.6 9.4024 1180.86 9.45993L1174.06 9.56287V19.1621ZM1207.34 18.9229C1207.34 26.6601 1207.83 28.7628 1209.61 28.7628C1211.4 28.7628 1211.88 26.6601 1211.88 18.9229C1211.88 11.1857 1211.4 9.08298 1209.61 9.08298C1207.83 9.08298 1207.34 11.1857 1207.34 18.9229ZM1237.6 18.9229C1237.6 26.6601 1238.09 28.7628 1239.87 28.7628C1241.66 28.7628 1242.14 26.6601 1242.14 18.9229C1242.14 11.1857 1241.66 9.08298 1239.87 9.08298C1238.09 9.08298 1237.6 11.1857 1237.6 18.9229ZM1249.06 11.4612C1245.56 14.9627 1245.92 25.2189 1249.61 27.196C1256.77 31.0335 1264.84 26.3785 1264.84 18.4006C1264.84 10.4257 1254.59 5.9221 1249.06 11.4612ZM1269.37 19.0985C1269.37 26.5163 1269.88 28.7628 1271.56 28.7628C1273.09 28.7628 1273.88 26.6222 1274.21 21.5857C1274.56 16.1783 1275.32 14.2845 1277.32 13.906C1279.56 13.4807 1279.97 14.5858 1279.97 21.0831C1279.97 27.9029 1280.33 28.7628 1283.18 28.7628C1286.15 28.7628 1286.34 28.1315 1285.7 20.4382C1285.32 15.8604 1284.51 11.6126 1283.9 10.9995C1283.29 10.3864 1279.77 9.78389 1276.08 9.65975L1269.37 9.43419V19.0985ZM1259.47 16.4387C1260.86 20.8258 1258.8 24.4393 1255.2 23.9231C1249.61 23.1207 1249.99 13.6245 1255.61 13.6245C1257.24 13.6245 1258.98 14.8916 1259.47 16.4387ZM1135.95 20.081C1136.55 23.2085 1132.19 25.3173 1129.88 23.0102C1127.57 20.7031 1129.68 16.3342 1132.81 16.9367C1134.26 17.2153 1135.67 18.6307 1135.95 20.081ZM1122.62 452.635V853.8H1199.02H1275.43V452.635V51.4702H1199.02H1122.62V452.635ZM983.425 99.9128C983.425 101.595 984.434 102.94 985.694 102.94C986.954 102.94 987.964 101.595 987.964 99.9128C987.964 98.231 986.954 96.8852 985.694 96.8852C984.434 96.8852 983.425 98.231 983.425 99.9128ZM1013.68 99.9128C1013.68 101.595 1014.69 102.94 1015.95 102.94C1017.21 102.94 1018.22 101.595 1018.22 99.9128C1018.22 98.231 1017.21 96.8852 1015.95 96.8852C1014.69 96.8852 1013.68 98.231 1013.68 99.9128ZM994.015 112.023C994.015 123.124 994.436 125.648 996.285 125.648C998.134 125.648 998.554 123.124 998.554 112.023C998.554 100.923 998.134 98.399 996.285 98.399C994.436 98.399 994.015 100.923 994.015 112.023ZM1003.09 112.023C1003.09 123.124 1003.51 125.648 1005.36 125.648C1007.21 125.648 1007.63 123.124 1007.63 112.023C1007.63 100.923 1007.21 98.399 1005.36 98.399C1003.51 98.399 1003.09 100.923 1003.09 112.023ZM883.359 102.81C881.394 104.404 880.282 106.204 880.885 106.81C881.489 107.417 883.022 107.052 884.289 105.998C886.309 104.321 886.595 105.142 886.595 112.596C886.595 120.097 886.237 121.106 883.569 121.106C881.888 121.106 880.543 122.116 880.543 123.377C880.543 125.092 882.392 125.648 888.108 125.648C893.824 125.648 895.673 125.092 895.673 123.377C895.673 122.128 894.652 121.106 893.403 121.106C891.603 121.106 891.134 118.92 891.134 110.51C891.134 98.8592 889.827 97.5634 883.359 102.81ZM903.395 107.237C897.115 117.03 897.239 119.593 903.994 119.593C908.28 119.593 909.29 120.169 909.29 122.62C909.29 124.638 910.299 125.648 912.316 125.648C914.332 125.648 915.341 124.638 915.341 122.62C915.341 120.955 916.022 119.593 916.854 119.593C917.687 119.593 918.367 118.571 918.367 117.322C918.367 116.073 917.687 115.051 916.854 115.051C916.022 115.051 915.341 111.645 915.341 107.482C915.341 100.505 915.057 99.9128 911.716 99.9128C909.04 99.9128 906.864 101.826 903.395 107.237ZM922.236 103.278C918.892 108.053 919.14 119.967 922.647 123.143C925.976 126.158 930.432 126.359 934.117 123.663C938.048 120.789 939.148 108.649 935.925 103.728C932.669 98.7547 925.565 98.5216 922.236 103.278ZM932.023 108.343C933.813 113.051 932.421 119.52 929.367 120.692C926.587 121.759 924.472 118.577 924.442 113.283C924.39 104.297 929.277 101.113 932.023 108.343ZM909.29 110.51C909.29 114.007 908.609 115.051 906.335 115.051C903.486 115.051 903.472 114.886 905.957 110.519C907.373 108.027 908.703 105.983 908.911 105.977C909.12 105.973 909.29 108.012 909.29 110.51ZM950.14 116.047C950.14 123.572 950.63 125.648 952.409 125.648C954.035 125.648 954.678 123.986 954.678 119.777C954.678 113.819 957.753 109.426 960.664 111.226C961.532 111.763 962.243 115.227 962.243 118.925C962.243 123.892 962.836 125.648 964.513 125.648C966.197 125.648 966.782 123.877 966.782 118.789C966.782 113.895 967.477 111.662 969.204 110.999C972.427 109.76 974.295 113.035 974.324 119.971C974.341 123.998 975.007 125.648 976.616 125.648C979.642 125.648 979.735 112.251 976.739 108.15C974.867 105.588 973.994 105.437 969.937 106.97C967.377 107.936 964.936 108.169 964.514 107.485C964.092 106.801 960.685 106.288 956.943 106.345L950.14 106.448V116.047ZM983.425 115.808C983.425 123.545 983.91 125.648 985.694 125.648C987.478 125.648 987.964 123.545 987.964 115.808C987.964 108.071 987.478 105.968 985.694 105.968C983.91 105.968 983.425 108.071 983.425 115.808ZM1013.68 115.808C1013.68 123.545 1014.17 125.648 1015.95 125.648C1017.74 125.648 1018.22 123.545 1018.22 115.808C1018.22 108.071 1017.74 105.968 1015.95 105.968C1014.17 105.968 1013.68 108.071 1013.68 115.808ZM1025.14 108.346C1021.64 111.848 1022 122.104 1025.69 124.081C1032.86 127.919 1040.92 123.264 1040.92 115.286C1040.92 107.311 1030.68 102.807 1025.14 108.346ZM1045.46 115.984C1045.46 123.401 1045.96 125.648 1047.64 125.648C1049.18 125.648 1049.97 123.507 1050.29 118.471C1050.64 113.063 1051.4 111.17 1053.4 110.791C1055.64 110.366 1056.05 111.471 1056.05 117.968C1056.05 124.788 1056.41 125.648 1059.26 125.648C1062.23 125.648 1062.42 125.017 1061.78 117.323C1061.4 112.746 1060.59 108.498 1059.98 107.885C1059.37 107.272 1055.85 106.669 1052.16 106.545L1045.46 106.319V115.984ZM1035.55 113.324C1036.95 117.711 1034.89 121.324 1031.28 120.808C1025.69 120.006 1026.07 110.51 1031.69 110.51C1033.32 110.51 1035.06 111.777 1035.55 113.324ZM898.699 502.592V853.8H975.103H1051.51V502.592V151.383H975.103H898.699V502.592ZM761.019 304.28C761.019 305.962 762.029 307.308 763.289 307.308C764.549 307.308 765.558 305.962 765.558 304.28C765.558 302.598 764.549 301.252 763.289 301.252C762.029 301.252 761.019 302.598 761.019 304.28ZM791.279 304.28C791.279 305.962 792.288 307.308 793.548 307.308C794.808 307.308 795.818 305.962 795.818 304.28C795.818 302.598 794.808 301.252 793.548 301.252C792.288 301.252 791.279 302.598 791.279 304.28ZM771.61 316.391C771.61 327.492 772.031 330.015 773.88 330.015C775.728 330.015 776.149 327.492 776.149 316.391C776.149 305.29 775.728 302.766 773.88 302.766C772.031 302.766 771.61 305.29 771.61 316.391ZM780.688 316.391C780.688 327.492 781.108 330.015 782.957 330.015C784.806 330.015 785.227 327.492 785.227 316.391C785.227 305.29 784.806 302.766 782.957 302.766C781.108 302.766 780.688 305.29 780.688 316.391ZM660.954 307.177C658.988 308.772 657.876 310.571 658.48 311.177C659.084 311.784 660.616 311.419 661.884 310.366C663.904 308.688 664.19 309.509 664.19 316.963C664.19 324.464 663.831 325.474 661.164 325.474C659.483 325.474 658.138 326.483 658.138 327.744C658.138 329.46 659.987 330.015 665.703 330.015C671.419 330.015 673.268 329.46 673.268 327.744C673.268 326.495 672.246 325.474 670.998 325.474C669.198 325.474 668.729 323.288 668.729 314.877C668.729 303.226 667.422 301.93 660.954 307.177ZM681.306 305.47C675.735 309.014 675.421 325.604 680.869 328.521C685.102 330.787 689.166 330.319 691.945 327.246C695.28 323.56 695.363 309.952 692.072 306.658C689.555 304.141 684.305 303.561 681.306 305.47ZM699.831 307.645C696.487 312.42 696.735 324.334 700.242 327.51C703.571 330.525 708.026 330.727 711.712 328.03C715.643 325.156 716.743 313.016 713.52 308.095C710.264 303.122 703.159 302.889 699.831 307.645ZM688.992 311.216C691.582 317.971 688.939 326.586 684.768 324.985C683.058 324.329 682.345 322.11 682.345 317.447C682.345 313.813 682.799 310.385 683.355 309.831C685.143 308.042 688.048 308.755 688.992 311.216ZM709.618 312.71C711.408 317.418 710.016 323.887 706.961 325.059C704.182 326.126 702.067 322.944 702.037 317.65C701.985 308.664 706.872 305.48 709.618 312.71ZM727.734 320.414C727.734 327.94 728.224 330.015 730.004 330.015C731.63 330.015 732.273 328.353 732.273 324.144C732.273 318.186 735.347 313.793 738.258 315.593C739.127 316.13 739.838 319.594 739.838 323.292C739.838 328.259 740.431 330.015 742.107 330.015C743.791 330.015 744.377 328.244 744.377 323.156C744.377 318.262 745.071 316.029 746.799 315.366C750.022 314.127 751.89 317.402 751.919 324.338C751.936 328.365 752.601 330.015 754.211 330.015C757.237 330.015 757.329 316.618 754.334 312.517C752.462 309.955 751.589 309.804 747.531 311.337C744.971 312.303 742.531 312.536 742.109 311.852C741.687 311.168 738.28 310.655 734.538 310.712L727.734 310.815V320.414ZM761.019 320.175C761.019 327.912 761.505 330.015 763.289 330.015C765.073 330.015 765.558 327.912 765.558 320.175C765.558 312.438 765.073 310.335 763.289 310.335C761.505 310.335 761.019 312.438 761.019 320.175ZM791.279 320.175C791.279 327.912 791.764 330.015 793.548 330.015C795.332 330.015 795.818 327.912 795.818 320.175C795.818 312.438 795.332 310.335 793.548 310.335C791.764 310.335 791.279 312.438 791.279 320.175ZM802.733 312.714C799.235 316.215 799.592 326.471 803.282 328.448C810.451 332.286 818.512 327.631 818.512 319.653C818.512 311.678 808.271 307.174 802.733 312.714ZM823.051 320.351C823.051 327.769 823.559 330.015 825.237 330.015C826.771 330.015 827.561 327.875 827.885 322.838C828.233 317.431 828.998 315.537 830.994 315.158C833.233 314.733 833.642 315.838 833.642 322.335C833.642 329.155 834.002 330.015 836.855 330.015C839.825 330.015 840.016 329.384 839.379 321.691C838.999 317.113 838.186 312.865 837.575 312.252C836.962 311.639 833.443 311.036 829.756 310.912L823.051 310.686V320.351ZM813.148 317.691C814.54 322.078 812.48 325.692 808.879 325.175C803.288 324.373 803.662 314.877 809.284 314.877C810.918 314.877 812.658 316.144 813.148 317.691ZM676.294 603.262V853.8H752.698H829.103V603.262V352.723H752.698H676.294V603.262ZM531.724 520.889C530.166 523.415 533.671 526.309 535.759 524.22C537.505 522.473 536.413 519.244 534.075 519.244C533.341 519.244 532.284 519.984 531.724 520.889ZM561.309 522.272C561.309 524.551 562.098 525.369 563.956 525.012C565.412 524.73 566.604 523.498 566.604 522.272C566.604 521.045 565.412 519.813 563.956 519.532C562.098 519.174 561.309 519.992 561.309 522.272ZM541.64 534.382C541.64 545.483 542.061 548.007 543.909 548.007C545.758 548.007 546.179 545.483 546.179 534.382C546.179 523.281 545.758 520.758 543.909 520.758C542.061 520.758 541.64 523.281 541.64 534.382ZM552.231 534.382C552.231 545.483 552.651 548.007 554.5 548.007C556.349 548.007 556.77 545.483 556.77 534.382C556.77 523.281 556.349 520.758 554.5 520.758C552.651 520.758 552.231 523.281 552.231 534.382ZM449.349 528.988C449.349 535.459 449.529 535.722 454.267 536.179C458.017 536.541 459.184 537.372 459.184 539.681C459.184 542.201 458.232 542.68 453.51 542.536C447.667 542.357 445.552 545.292 450.23 547.088C457.551 549.899 464.479 545.834 464.479 538.728C464.479 534.049 461.881 531.355 457.368 531.355C455.283 531.355 453.888 530.445 453.888 529.084C453.888 527.57 455.401 526.813 458.427 526.813C461.453 526.813 462.966 526.056 462.966 524.542C462.966 522.86 461.2 522.272 456.158 522.272H449.349V528.988ZM472.044 525.299C468.208 529.137 467.797 542.027 471.395 545.628C476.789 551.024 485.66 546.902 485.66 539.001C485.66 533.709 482.309 530.775 477.348 531.724C475.263 532.122 473.557 531.998 473.557 531.447C473.557 529.291 477.36 526.813 480.668 526.813C482.753 526.813 484.148 525.903 484.148 524.542C484.148 521.142 475.667 521.674 472.044 525.299ZM499.277 538.545C499.277 545.787 499.79 548.007 501.463 548.007C502.998 548.007 503.787 545.866 504.111 540.83C504.459 535.422 505.225 533.528 507.22 533.15C509.459 532.725 509.868 533.83 509.868 540.327C509.868 546.926 510.282 548.007 512.811 548.007C515.248 548.007 515.833 546.771 516.215 540.816C516.548 535.639 517.312 533.625 518.946 533.625C520.58 533.625 521.344 535.639 521.677 540.816C522.008 545.983 522.773 548.007 524.4 548.007C526.193 548.007 526.568 546.237 526.208 539.46C525.687 529.661 522.687 526.206 517.508 529.443C515.846 530.481 514.177 530.693 513.703 529.926C513.239 529.175 509.803 528.678 506.067 528.822L499.277 529.084V538.545ZM532.562 538.167C532.562 545.904 533.048 548.007 534.832 548.007C536.616 548.007 537.101 545.904 537.101 538.167C537.101 530.43 536.616 528.327 534.832 528.327C533.048 528.327 532.562 530.43 532.562 538.167ZM561.309 538.167C561.309 545.904 561.794 548.007 563.578 548.007C565.362 548.007 565.847 545.904 565.847 538.167C565.847 530.43 565.362 528.327 563.578 528.327C561.794 528.327 561.309 530.43 561.309 538.167ZM573.412 531.355C567.198 537.572 571.234 548.007 579.853 548.007C585.455 548.007 588.542 544.222 588.542 537.355C588.542 533.077 587.74 531.032 585.616 529.894C581.13 527.493 576.748 528.017 573.412 531.355ZM593.081 538.373C593.081 545.765 593.589 548.007 595.267 548.007C596.803 548.007 597.591 545.865 597.915 540.816C598.302 534.788 598.865 533.625 601.402 533.625C603.939 533.625 604.502 534.788 604.889 540.816C605.213 545.865 606.001 548.007 607.537 548.007C610.371 548.007 610.628 532.454 607.832 530.204C606.793 529.367 603.047 528.695 599.511 528.711L593.081 528.74V538.373ZM583.246 538.167C583.246 541.643 582.493 542.816 580.034 543.167C576.391 543.686 574.358 540.07 575.777 535.595C576.385 533.68 577.812 532.85 579.972 533.159C582.498 533.519 583.246 534.664 583.246 538.167ZM480.837 539.325C481.439 542.452 477.073 544.561 474.767 542.254C472.461 539.947 474.569 535.578 477.695 536.181C479.144 536.459 480.559 537.875 480.837 539.325ZM452.375 713.771V853.8H529.536H606.697V713.771V573.742H529.536H452.375V713.771ZM304.78 576.901C303.222 579.426 306.727 582.321 308.815 580.232C310.561 578.485 309.469 575.256 307.131 575.256C306.397 575.256 305.34 575.996 304.78 576.901ZM334.364 578.283C334.364 580.563 335.154 581.381 337.012 581.023C338.468 580.742 339.66 579.51 339.66 578.283C339.66 577.057 338.468 575.825 337.012 575.543C335.154 575.186 334.364 576.003 334.364 578.283ZM314.696 590.394C314.696 601.495 315.116 604.018 316.965 604.018C318.814 604.018 319.235 601.495 319.235 590.394C319.235 579.293 318.814 576.769 316.965 576.769C315.116 576.769 314.696 579.293 314.696 590.394ZM325.287 590.394C325.287 601.495 325.707 604.018 327.556 604.018C329.405 604.018 329.826 601.495 329.826 590.394C329.826 579.293 329.405 576.769 327.556 576.769C325.707 576.769 325.287 579.293 325.287 590.394ZM225.042 585.158C219.208 594.82 219.49 597.963 226.188 597.963C230.474 597.963 231.483 598.54 231.483 600.991C231.483 602.673 232.492 604.018 233.752 604.018C235.013 604.018 236.022 602.673 236.022 600.991C236.022 599.326 236.703 597.963 237.535 597.963C238.367 597.963 239.048 596.941 239.048 595.692C239.048 594.443 238.367 593.422 237.535 593.422C236.703 593.422 236.022 590.016 236.022 585.852C236.022 579.005 235.697 578.283 232.607 578.283C230.173 578.283 228 580.257 225.042 585.158ZM243.587 584.996C243.587 591.192 243.906 591.743 247.747 592.186C250.74 592.53 251.908 593.515 251.908 595.692C251.908 598.107 250.905 598.717 246.95 598.703C240.272 598.679 240.901 603.072 247.67 603.729C256.22 604.559 261.933 595.343 256.339 589.745C255.031 588.437 252.307 587.366 250.288 587.366C248.03 587.366 246.613 586.491 246.613 585.096C246.613 583.509 248.21 582.825 251.908 582.825C255.606 582.825 257.203 582.141 257.203 580.554C257.203 578.872 255.438 578.283 250.395 578.283H243.587V584.996ZM231.483 588.88C231.483 592.412 230.811 593.422 228.457 593.422C224.797 593.422 224.735 592.863 227.875 588.07C231.02 583.267 231.483 583.37 231.483 588.88ZM272.333 594.557C272.333 601.799 272.846 604.018 274.519 604.018C276.053 604.018 276.843 601.878 277.167 596.841C277.515 591.434 278.28 589.54 280.276 589.162C282.515 588.736 282.924 589.841 282.924 596.339C282.924 602.938 283.338 604.018 285.866 604.018C288.304 604.018 288.889 602.783 289.271 596.828C289.603 591.65 290.367 589.637 292.001 589.637C293.635 589.637 294.4 591.65 294.732 596.828C295.064 601.994 295.829 604.018 297.456 604.018C299.249 604.018 299.624 602.249 299.264 595.471C298.743 585.672 295.743 582.218 290.564 585.454C288.901 586.493 287.233 586.705 286.759 585.937C286.295 585.186 282.859 584.69 279.123 584.834L272.333 585.096V594.557ZM305.618 594.179C305.618 601.916 306.104 604.018 307.888 604.018C309.671 604.018 310.157 601.916 310.157 594.179C310.157 586.441 309.671 584.339 307.888 584.339C306.104 584.339 305.618 586.441 305.618 594.179ZM334.364 594.179C334.364 601.916 334.85 604.018 336.634 604.018C338.418 604.018 338.903 601.916 338.903 594.179C338.903 586.441 338.418 584.339 336.634 584.339C334.85 584.339 334.364 586.441 334.364 594.179ZM346.468 587.366C340.254 593.584 344.289 604.018 352.909 604.018C358.511 604.018 361.598 600.234 361.598 593.367C361.598 589.089 360.796 587.044 358.672 585.905C354.186 583.505 349.804 584.028 346.468 587.366ZM366.137 594.384C366.137 601.776 366.645 604.018 368.323 604.018C369.858 604.018 370.647 601.876 370.97 596.828C371.358 590.8 371.921 589.637 374.458 589.637C376.995 589.637 377.558 590.8 377.945 596.828C378.269 601.876 379.057 604.018 380.593 604.018C383.427 604.018 383.684 588.465 380.888 586.216C379.849 585.379 376.102 584.706 372.567 584.723L366.137 584.752V594.384ZM356.302 594.179C356.302 597.654 355.549 598.828 353.09 599.179C349.447 599.698 347.414 596.081 348.833 591.607C349.441 589.692 350.868 588.862 353.028 589.171C355.553 589.531 356.302 590.676 356.302 594.179ZM229.97 741.02V853.8H306.375H382.779V741.02V628.24H306.375H229.97V741.02ZM82.3747 755.533C80.8163 758.058 84.3219 760.953 86.4098 758.864C88.1557 757.117 87.0633 753.888 84.7258 753.888C83.992 753.888 82.9345 754.628 82.3747 755.533ZM111.959 756.915C111.959 759.195 112.749 760.013 114.607 759.655C116.064 759.374 117.254 758.142 117.254 756.915C117.254 755.689 116.064 754.457 114.607 754.175C112.749 753.818 111.959 754.636 111.959 756.915ZM92.2906 769.026C92.2906 780.127 92.7112 782.65 94.5601 782.65C96.4089 782.65 96.8295 780.127 96.8295 769.026C96.8295 757.925 96.4089 755.402 94.5601 755.402C92.7112 755.402 92.2906 757.925 92.2906 769.026ZM102.881 769.026C102.881 780.127 103.302 782.65 105.151 782.65C107 782.65 107.42 780.127 107.42 769.026C107.42 757.925 107 755.402 105.151 755.402C103.302 755.402 102.881 757.925 102.881 769.026ZM2.81562 759.813C0.850284 761.407 -0.261745 763.207 0.341926 763.812C0.945597 764.419 2.47823 764.055 3.74609 763.001C5.76589 761.324 6.05184 762.144 6.05184 769.598C6.05184 777.099 5.69327 778.109 3.02592 778.109C1.34502 778.109 0 779.119 0 780.38C0 782.095 1.84884 782.65 7.56481 782.65C13.2808 782.65 15.1296 782.095 15.1296 780.38C15.1296 779.131 14.1084 778.109 12.8602 778.109C11.0597 778.109 10.5907 775.923 10.5907 767.512C10.5907 755.862 9.28353 754.566 2.81562 759.813ZM23.168 758.105C17.5973 761.649 17.2826 778.239 22.7307 781.156C26.964 783.423 31.0278 782.955 33.8071 779.882C37.1417 776.196 37.2249 762.588 33.9342 759.294C31.4166 756.776 26.1667 756.196 23.168 758.105ZM30.8538 763.852C33.444 770.606 30.8009 779.222 26.6296 777.62C24.92 776.965 24.2074 774.745 24.2074 770.083C24.2074 766.448 24.6613 763.021 25.2165 762.467C27.0048 760.677 29.9097 761.39 30.8538 763.852ZM49.9277 773.189C49.9277 780.431 50.4406 782.65 52.114 782.65C53.6481 782.65 54.4379 780.51 54.7616 775.473C55.1096 770.066 55.8752 768.172 57.8708 767.794C60.1099 767.368 60.5184 768.473 60.5184 774.971C60.5184 781.57 60.933 782.65 63.4612 782.65C65.8985 782.65 66.4841 781.415 66.8653 775.46C67.1982 770.282 67.9622 768.269 69.5962 768.269C71.2302 768.269 71.9942 770.282 72.3271 775.46C72.6584 780.626 73.424 782.65 75.0504 782.65C76.8433 782.65 77.2185 780.881 76.8584 774.103C76.338 764.304 73.3378 760.85 68.1589 764.086C66.4962 765.125 64.8274 765.337 64.3538 764.569C63.8893 763.818 60.4534 763.322 56.7179 763.466L49.9277 763.728V773.189ZM83.2129 772.811C83.2129 780.548 83.6985 782.65 85.4823 782.65C87.2661 782.65 87.7517 780.548 87.7517 772.811C87.7517 765.073 87.2661 762.971 85.4823 762.971C83.6985 762.971 83.2129 765.073 83.2129 772.811ZM111.959 772.811C111.959 780.548 112.445 782.65 114.229 782.65C116.012 782.65 116.498 780.548 116.498 772.811C116.498 765.073 116.012 762.971 114.229 762.971C112.445 762.971 111.959 765.073 111.959 772.811ZM124.063 765.998C117.849 772.216 121.884 782.65 130.503 782.65C136.106 782.65 139.192 778.866 139.192 771.999C139.192 767.721 138.391 765.676 136.266 764.537C131.78 762.136 127.399 762.66 124.063 765.998ZM143.731 773.016C143.731 780.408 144.24 782.65 145.918 782.65C147.453 782.65 148.241 780.508 148.565 775.46C148.953 769.432 149.515 768.269 152.053 768.269C154.59 768.269 155.153 769.432 155.54 775.46C155.864 780.508 156.652 782.65 158.188 782.65C161.021 782.65 161.279 767.097 158.483 764.848C157.443 764.011 153.699 763.339 150.161 763.355L143.731 763.384V773.016ZM133.897 772.811C133.897 776.286 133.144 777.459 130.685 777.811C127.042 778.33 125.008 774.713 126.428 770.239C127.036 768.324 128.462 767.494 130.623 767.803C133.148 768.163 133.897 769.308 133.897 772.811ZM6.05184 829.579V853.8H83.2129H160.374V829.579V805.358H83.2129H6.05184V829.579ZM93.5207 863.917C94.6115 864.355 95.9172 864.3 96.4195 863.798C96.9218 863.295 96.0292 862.938 94.4345 863.003C92.6719 863.076 92.3133 863.434 93.5207 863.917ZM41.8591 876.004C39.4747 878.388 41.0315 880.595 44.6142 879.91C50.8945 878.709 50.9716 883.246 44.8003 890.782C41.7955 894.451 39.337 898.191 39.337 899.091C39.337 900.068 42.7003 900.729 47.6583 900.729C54.046 900.729 55.9796 900.202 55.9796 898.458C55.9796 896.933 54.4545 896.188 51.3302 896.188H46.6809L51.3302 890.544C56.5303 884.233 57.1082 880.881 53.6027 877.372C51.2168 874.985 43.7458 874.115 41.8591 876.004ZM64.0179 876.184C58.4472 879.728 58.1325 896.318 63.5807 899.235C67.8139 901.501 71.8778 901.034 74.6571 897.96C77.9916 894.274 78.0748 880.666 74.7842 877.372C72.2666 874.855 67.0166 874.275 64.0179 876.184ZM84.5155 877.892C82.5502 879.486 81.4382 881.286 82.0418 881.891C82.6455 882.498 84.1781 882.133 85.446 881.08C87.4658 879.402 87.7517 880.223 87.7517 887.677C87.7517 895.178 87.3932 896.188 84.7258 896.188C83.0449 896.188 81.6999 897.197 81.6999 898.458C81.6999 900.174 83.5487 900.729 89.2647 900.729C94.9807 900.729 96.8295 900.174 96.8295 898.458C96.8295 897.21 95.8083 896.188 94.5601 896.188C92.7596 896.188 92.2906 894.002 92.2906 885.591C92.2906 873.94 90.9834 872.645 84.5155 877.892ZM101.368 877.265C101.368 878.863 102.983 879.536 106.826 879.536C110.597 879.536 112.042 880.12 111.504 881.428C111.076 882.469 108.969 887.236 106.823 892.025C103.216 900.068 103.131 900.729 105.702 900.729C107.696 900.729 109.83 897.676 113.247 889.937C119.725 875.262 119.662 874.994 109.69 874.994C103.302 874.994 101.368 875.521 101.368 877.265ZM492.721 876.004C490.337 878.388 491.894 880.595 495.477 879.91C501.757 878.709 501.834 883.246 495.663 890.782C492.658 894.451 490.199 898.191 490.199 899.091C490.199 900.068 493.563 900.729 498.521 900.729C504.908 900.729 506.842 900.202 506.842 898.458C506.842 896.933 505.317 896.188 502.193 896.188H497.543L502.193 890.544C507.393 884.233 507.971 880.881 504.465 877.372C502.079 874.985 494.608 874.115 492.721 876.004ZM514.88 876.184C509.31 879.728 508.995 896.318 514.443 899.235C518.676 901.501 522.74 901.034 525.519 897.96C528.854 894.274 528.937 880.666 525.647 877.372C523.129 874.855 517.879 874.275 514.88 876.184ZM535.378 877.892C533.413 879.486 532.301 881.286 532.904 881.891C533.508 882.498 535.041 882.133 536.308 881.08C538.328 879.402 538.614 880.223 538.614 887.677C538.614 895.178 538.256 896.188 535.588 896.188C533.907 896.188 532.562 897.197 532.562 898.458C532.562 900.174 534.411 900.729 540.127 900.729C545.843 900.729 547.692 900.174 547.692 898.458C547.692 897.21 546.671 896.188 545.422 896.188C543.622 896.188 543.153 894.002 543.153 885.591C543.153 873.94 541.846 872.645 535.378 877.892ZM554.878 876.629C553.067 877.684 552.231 880.053 552.231 884.124C552.231 889.207 552.781 890.213 556.01 891.024C558.089 891.546 560.812 891.58 562.062 891.1C563.312 890.62 564.334 890.752 564.334 891.39C564.334 893.887 560.501 896.188 556.342 896.188C550.456 896.188 551.745 899.825 557.845 900.434C564.188 901.065 568.873 895.093 568.873 886.378C568.873 876.874 562.307 872.3 554.878 876.629ZM267.29 877.518C264.906 879.902 266.463 882.109 270.045 881.423C276.326 880.223 276.403 884.76 270.231 892.296C267.227 895.965 264.768 899.704 264.768 900.605C264.768 901.582 268.131 902.243 273.089 902.243C279.477 902.243 281.411 901.716 281.411 899.972C281.411 898.446 279.886 897.702 276.761 897.702H272.112L276.761 892.058C281.961 885.747 282.539 882.395 279.034 878.886C276.648 876.499 269.177 875.628 267.29 877.518ZM289.449 877.698C283.878 881.242 283.564 897.832 289.012 900.749C293.245 903.015 297.309 902.547 300.088 899.474C303.423 895.788 303.506 882.18 300.215 878.886C297.698 876.369 292.448 875.789 289.449 877.698ZM309.947 879.405C307.981 880.999 306.869 882.799 307.473 883.405C308.077 884.012 309.609 883.647 310.877 882.594C312.897 880.916 313.183 881.737 313.183 889.191C313.183 896.692 312.824 897.702 310.157 897.702C308.476 897.702 307.131 898.711 307.131 899.972C307.131 901.687 308.98 902.243 314.696 902.243C320.412 902.243 322.261 901.687 322.261 899.972C322.261 898.723 321.239 897.702 319.991 897.702C318.191 897.702 317.722 895.516 317.722 887.105C317.722 875.454 316.415 874.158 309.947 879.405ZM329.447 878.143C326.604 879.799 325.831 886.327 328.296 887.851C329.22 888.423 328.918 890.111 327.505 892.268C324.622 896.671 326.013 900.475 330.962 901.716C339.446 903.848 346.768 896.724 342 890.976C340.77 889.494 340.825 887.865 342.203 884.837C343.839 881.245 343.711 880.448 341.201 878.612C337.838 876.152 333.183 875.966 329.447 878.143ZM715.127 877.518C712.742 879.902 714.299 882.109 717.882 881.423C724.162 880.223 724.239 884.76 718.068 892.296C715.063 895.965 712.605 899.704 712.605 900.605C712.605 901.582 715.968 902.243 720.926 902.243C727.314 902.243 729.247 901.716 729.247 899.972C729.247 898.446 727.722 897.702 724.598 897.702H719.949L724.598 892.058C729.798 885.747 730.376 882.395 726.87 878.886C724.484 876.499 717.013 875.628 715.127 877.518ZM737.286 877.698C731.715 881.242 731.4 897.832 736.848 900.749C741.082 903.015 745.145 902.547 747.925 899.474C751.259 895.788 751.343 882.18 748.052 878.886C745.534 876.369 740.284 875.789 737.286 877.698ZM755.977 877.518C753.592 879.902 755.149 882.109 758.732 881.423C765.012 880.223 765.089 884.76 758.918 892.296C755.913 895.965 753.455 899.704 753.455 900.605C753.455 901.582 756.818 902.243 761.776 902.243C768.164 902.243 770.097 901.716 770.097 899.972C770.097 898.446 768.572 897.702 765.448 897.702H760.799L765.448 892.058C770.648 885.747 771.226 882.395 767.72 878.886C765.334 876.499 757.863 875.628 755.977 877.518ZM778.136 877.698C772.565 881.242 772.25 897.832 777.698 900.749C781.932 903.015 785.995 902.547 788.775 899.474C792.109 895.788 792.192 882.18 788.902 878.886C786.384 876.369 781.134 875.789 778.136 877.698ZM939.045 877.518C936.661 879.902 938.217 882.109 941.8 881.423C948.08 880.223 948.158 884.76 941.986 892.296C938.981 895.965 936.523 899.704 936.523 900.605C936.523 901.582 939.886 902.243 944.844 902.243C951.232 902.243 953.165 901.716 953.165 899.972C953.165 898.446 951.64 897.702 948.516 897.702H943.867L948.516 892.058C953.716 885.747 954.294 882.395 950.789 878.886C948.403 876.499 940.932 875.628 939.045 877.518ZM961.204 877.698C955.633 881.242 955.318 897.832 960.767 900.749C965 903.015 969.064 902.547 971.843 899.474C975.177 895.788 975.261 882.18 971.97 878.886C969.452 876.369 964.202 875.789 961.204 877.698ZM979.895 877.518C977.51 879.902 979.067 882.109 982.65 881.423C988.93 880.223 989.008 884.76 982.836 892.296C979.831 895.965 977.373 899.704 977.373 900.605C977.373 901.582 980.736 902.243 985.694 902.243C992.082 902.243 994.015 901.716 994.015 899.972C994.015 898.446 992.49 897.702 989.366 897.702H984.717L989.366 892.058C994.566 885.747 995.144 882.395 991.639 878.886C989.253 876.499 981.782 875.628 979.895 877.518ZM1002.71 878.615C1001.26 879.722 1000.07 881.485 1000.07 882.537C1000.07 884.063 1000.52 884.07 1002.34 882.563C1004.31 880.927 1004.61 881.796 1004.61 889.191C1004.61 895.747 1004.08 897.702 1002.34 897.702C1001.09 897.702 1000.07 898.723 1000.07 899.972C1000.07 901.687 1001.92 902.243 1007.63 902.243C1013.35 902.243 1015.2 901.687 1015.2 899.972C1015.2 898.723 1014.18 897.702 1012.93 897.702C1011.13 897.702 1010.66 895.516 1010.66 887.105C1010.66 878.004 1010.28 876.514 1008.01 876.556C1006.55 876.582 1004.17 877.509 1002.71 878.615ZM1162.96 879.031C1160.58 881.416 1162.14 883.623 1165.72 882.937C1172 881.737 1172.08 886.274 1165.9 893.81C1162.9 897.479 1160.44 901.218 1160.44 902.119C1160.44 903.095 1163.8 903.757 1168.76 903.757C1175.15 903.757 1177.08 903.23 1177.08 901.486C1177.08 899.96 1175.56 899.215 1172.43 899.215H1167.79L1172.43 893.572C1177.63 887.261 1178.21 883.909 1174.71 880.4C1172.32 878.013 1164.85 877.142 1162.96 879.031ZM1185.12 879.212C1179.55 882.756 1179.24 899.346 1184.68 902.263C1188.92 904.529 1192.98 904.061 1195.76 900.988C1199.1 897.302 1199.18 883.694 1195.89 880.4C1193.37 877.882 1188.12 877.303 1185.12 879.212ZM1203.81 879.031C1201.43 881.416 1202.99 883.623 1206.57 882.937C1212.85 881.737 1212.93 886.274 1206.75 893.81C1203.75 897.479 1201.29 901.218 1201.29 902.119C1201.29 903.095 1204.65 903.757 1209.61 903.757C1216 903.757 1217.93 903.23 1217.93 901.486C1217.93 899.96 1216.41 899.215 1213.28 899.215H1208.63L1213.28 893.572C1218.48 887.261 1219.06 883.909 1215.56 880.4C1213.17 878.013 1205.7 877.142 1203.81 879.031ZM1224.36 879.024C1223.32 879.445 1222.47 880.736 1222.47 881.894C1222.47 883.428 1223.71 883.755 1227.01 883.093C1231.06 882.283 1231.55 882.581 1231.55 885.876C1231.55 887.999 1229.62 891.412 1227.01 893.917C1224.52 896.31 1222.47 899.503 1222.47 901.012C1222.47 903.33 1223.77 903.757 1230.79 903.757C1237.18 903.757 1239.12 903.23 1239.12 901.486C1239.12 899.877 1237.49 899.215 1233.52 899.215H1227.93L1232.77 894.223C1237.79 889.043 1239.03 883.089 1235.79 879.838C1233.97 878.02 1227.92 877.589 1224.36 879.024ZM71.7038 881.93C74.294 888.685 71.6508 897.3 67.4796 895.699C65.7699 895.043 65.0573 892.824 65.0573 888.161C65.0573 884.527 65.5112 881.099 66.0665 880.545C67.8548 878.756 70.7597 879.469 71.7038 881.93ZM522.566 881.93C525.156 888.685 522.513 897.3 518.342 895.699C516.632 895.043 515.92 892.824 515.92 888.161C515.92 884.527 516.374 881.099 516.929 880.545C518.717 878.756 521.622 879.469 522.566 881.93ZM563.421 881.943C564.66 885.175 563.271 887.105 559.706 887.105C557.867 887.105 556.77 886.068 556.77 884.33C556.77 879.289 561.722 877.512 563.421 881.943ZM297.135 883.444C299.725 890.199 297.082 898.814 292.911 897.213C291.201 896.557 290.489 894.338 290.489 889.675C290.489 886.041 290.942 882.613 291.498 882.059C293.286 880.27 296.191 880.983 297.135 883.444ZM338.041 882.392C338.496 883.129 338.003 884.454 336.944 885.332C334.609 887.271 330.514 885.122 331.991 882.733C333.236 880.718 336.88 880.512 338.041 882.392ZM744.971 883.444C747.562 890.199 744.918 898.814 740.747 897.213C739.038 896.557 738.325 894.338 738.325 889.675C738.325 886.041 738.779 882.613 739.334 882.059C741.122 880.27 744.027 880.983 744.971 883.444ZM785.821 883.444C788.412 890.199 785.768 898.814 781.597 897.213C779.888 896.557 779.175 894.338 779.175 889.675C779.175 886.041 779.629 882.613 780.184 882.059C781.972 880.27 784.877 880.983 785.821 883.444ZM968.89 883.444C971.48 890.199 968.837 898.814 964.665 897.213C962.956 896.557 962.243 894.338 962.243 889.675C962.243 886.041 962.697 882.613 963.252 882.059C965.041 880.27 967.946 880.983 968.89 883.444ZM1192.81 884.958C1195.4 891.713 1192.75 900.328 1188.58 898.726C1186.87 898.071 1186.16 895.852 1186.16 891.189C1186.16 887.554 1186.62 884.127 1187.17 883.573C1188.96 881.784 1191.86 882.497 1192.81 884.958ZM338.147 894.695C338.147 895.932 336.616 897.163 334.743 897.429C331.431 897.898 330.018 894.987 332.399 892.603C334.162 890.839 338.147 892.29 338.147 894.695ZM630.905 972.636C630.905 974.195 631.896 974.937 633.552 974.619C636.742 974.005 636.54 971.318 633.254 970.633C631.884 970.347 630.905 971.181 630.905 972.636ZM782.201 983.99C782.201 994.862 782.643 997.614 784.387 997.614C785.921 997.614 786.711 995.474 787.035 990.437C787.383 985.03 788.148 983.136 790.144 982.758C792.383 982.332 792.792 983.437 792.792 989.935C792.792 996.755 793.152 997.614 796.005 997.614C798.981 997.614 799.166 996.991 798.517 989.149C797.766 980.09 795.731 977.49 790.144 978.446C787.271 978.938 786.74 978.352 786.74 974.697C786.74 971.857 785.959 970.365 784.47 970.365C782.621 970.365 782.201 972.889 782.201 983.99ZM803.382 983.99C803.382 995.091 803.803 997.614 805.652 997.614C807.501 997.614 807.921 995.091 807.921 983.99C807.921 972.889 807.501 970.365 805.652 970.365C803.803 970.365 803.382 972.889 803.382 983.99ZM481.122 985.504V999.128H521.215H561.309V985.504V971.879H521.215H481.122V985.504ZM581.767 974.448C581.157 975.95 579.069 981.777 577.125 987.396C573.804 997.003 573.757 997.614 576.352 997.614C577.869 997.614 579.467 996.252 579.903 994.587C580.485 992.358 581.967 991.559 585.516 991.559C589.065 991.559 590.547 992.358 591.129 994.587C591.568 996.263 593.193 997.614 594.771 997.614C598.291 997.614 598.313 997.807 593.364 983.99C590.206 975.172 588.581 972.533 586.086 972.178C584.107 971.894 582.449 972.766 581.767 974.448ZM689.91 984.647C689.91 995.165 690.338 997.614 692.18 997.614C693.96 997.614 694.475 995.418 694.567 987.396L694.685 977.178L698.1 987.018C702.61 1000.01 705.597 1000.2 710.396 987.775L713.904 978.692L714.012 988.153C714.093 995.507 714.623 997.614 716.387 997.614C718.227 997.614 718.656 995.176 718.656 984.747C718.656 972.106 718.591 971.879 714.956 971.879C711.801 971.879 710.757 973.245 707.892 981.105L704.53 990.331L701.241 981.483C698.478 974.055 697.306 972.559 693.93 972.158L689.91 971.678V984.647ZM841.206 981.719C841.206 993.109 844.208 997.614 851.797 997.614C859.386 997.614 862.388 993.109 862.388 981.719C862.388 973.982 861.902 971.879 860.118 971.879C858.386 971.879 857.849 973.782 857.849 979.916C857.849 988.927 855.31 993.678 850.941 992.843C848.449 992.368 847.948 990.772 847.567 982.082C847.175 973.121 846.76 971.879 844.163 971.879C841.533 971.879 841.206 972.965 841.206 981.719ZM618.801 975.664C618.801 976.913 618.12 977.935 617.288 977.935C616.456 977.935 615.775 978.956 615.775 980.205C615.775 981.454 616.418 982.476 617.205 982.476C617.992 982.476 618.843 985.713 619.096 989.667C619.511 996.134 619.925 996.857 623.214 996.857C625.225 996.857 627.154 996.007 627.501 994.965C627.847 993.925 627.053 993.073 625.735 993.073C624.006 993.073 623.34 991.598 623.34 987.775C623.34 983.132 623.809 982.476 627.122 982.476C630.652 982.476 630.905 982.98 630.905 990.045C630.905 995.765 631.46 997.614 633.174 997.614C634.958 997.614 635.444 995.512 635.444 987.775V977.935H629.392C625.021 977.935 623.34 977.303 623.34 975.664C623.34 974.415 622.319 973.393 621.071 973.393C619.822 973.393 618.801 974.415 618.801 975.664ZM768.584 975.664C768.584 976.913 767.903 977.935 767.071 977.935C766.239 977.935 765.558 978.956 765.558 980.205C765.558 981.454 766.201 982.476 766.988 982.476C767.775 982.476 768.627 985.713 768.879 989.667C769.301 996.252 769.692 996.898 773.501 997.336C776.473 997.678 777.662 997.138 777.662 995.444C777.662 994.14 776.641 993.073 775.393 993.073C773.807 993.073 773.123 991.474 773.123 987.775C773.123 984.075 773.807 982.476 775.393 982.476C776.641 982.476 777.662 981.454 777.662 980.205C777.662 978.956 776.641 977.935 775.393 977.935C774.144 977.935 773.123 976.913 773.123 975.664C773.123 974.415 772.102 973.393 770.854 973.393C769.605 973.393 768.584 974.415 768.584 975.664ZM587.589 981.341C588.979 986.536 588.79 987.018 585.354 987.018C583.069 987.018 582.426 986.339 583.085 984.623C583.59 983.306 584.003 981.262 584.003 980.081C584.003 976.681 586.583 977.586 587.589 981.341ZM602.251 980.87C595.913 987.211 600.217 998.149 608.722 997.321C611.863 997.015 613.655 995.937 613.994 994.149C614.41 991.945 613.801 991.617 610.726 992.389C607.944 993.088 606.548 992.595 605.437 990.518C603.09 986.131 606.079 981.993 610.749 983.165C613.801 983.931 614.41 983.599 613.993 981.4C613.233 977.394 606.048 977.07 602.251 980.87ZM638.843 979.827C639.228 980.868 640.716 985.295 642.154 989.667C644.269 996.107 645.406 997.614 648.149 997.614C650.912 997.614 652.002 996.131 654.079 989.534C657.165 979.738 657.239 977.935 654.552 977.935C653.371 977.935 651.614 981.026 650.467 985.125L648.455 992.316L646.222 985.125C644.57 979.8 643.232 977.935 641.067 977.935C639.367 977.935 638.438 978.725 638.843 979.827ZM662.231 979.827C657.905 983.051 657.312 990.733 661.096 994.519C664.936 998.361 673.717 998.352 674.443 994.507C674.794 992.651 673.761 992.286 669.538 992.779C666.255 993.162 664.19 992.757 664.19 991.724C664.19 990.775 666.818 990.045 670.242 990.045C675.032 990.045 676.294 989.485 676.294 987.355C676.294 979.948 668.013 975.516 662.231 979.827ZM726.221 980.962C720.008 987.18 724.043 997.614 732.662 997.614C738.264 997.614 741.351 993.83 741.351 986.963C741.351 982.685 740.549 980.64 738.425 979.501C733.939 977.1 729.557 977.624 726.221 980.962ZM745.89 987.98C745.89 995.534 746.38 997.614 748.159 997.614C749.786 997.614 750.429 995.952 750.429 991.744C750.429 985.785 753.503 981.392 756.414 983.192C757.282 983.73 757.993 987.193 757.993 990.892C757.993 995.858 758.587 997.614 760.263 997.614C761.998 997.614 762.532 995.701 762.532 989.473C762.532 979.895 761.054 978.28 752.32 978.319L745.89 978.348V987.98ZM810.949 979.07C810.949 979.695 812.365 983.934 814.096 988.491C816.011 993.532 816.905 998.462 816.38 1001.09C815.675 1004.61 815.997 1005.31 818.15 1004.89C819.917 1004.55 821.901 1000.91 824.192 993.81C826.068 987.992 828.006 981.978 828.499 980.445C829.169 978.36 828.724 977.786 826.736 978.174C825.145 978.484 823.352 981.123 822.269 984.747C820.424 990.92 820.276 990.845 817.081 982.098C815.743 978.433 810.946 976.065 810.949 979.07ZM868.807 979.686C865.763 982.732 866.642 986.953 870.709 988.807C872.789 989.755 874.491 991.182 874.491 991.978C874.491 992.775 872.789 993.1 870.709 992.702C868.139 992.212 866.927 992.655 866.927 994.087C866.927 996.851 870.57 998.167 875.085 997.033C881.708 995.371 881.707 987.747 875.082 986.084C870.219 984.862 870.438 981.927 875.321 982.861C878.283 983.427 879.07 983.029 878.713 981.145C878.139 978.119 871.369 977.123 868.807 979.686ZM886.149 979.827C881.823 983.051 881.23 990.733 885.014 994.519C888.854 998.361 897.635 998.352 898.361 994.507C898.712 992.651 897.679 992.286 893.456 992.779C890.173 993.162 888.108 992.757 888.108 991.724C888.108 990.775 890.736 990.045 894.16 990.045C898.95 990.045 900.212 989.485 900.212 987.355C900.212 979.948 891.931 975.516 886.149 979.827ZM904.751 988.074C904.751 995.545 905.242 997.614 907.02 997.614C908.709 997.614 909.29 995.833 909.29 990.66C909.29 984.98 909.843 983.561 912.316 982.915C917.522 981.553 915.853 978.219 910.046 978.384L904.751 978.534V988.074ZM918.735 979.686C915.691 982.732 916.57 986.953 920.637 988.807C922.717 989.755 924.419 991.182 924.419 991.978C924.419 992.775 922.717 993.1 920.637 992.702C918.066 992.212 916.854 992.655 916.854 994.087C916.854 996.851 920.498 998.167 925.012 997.033C931.636 995.371 931.635 987.747 925.009 986.084C920.147 984.862 920.366 981.927 925.248 982.861C928.211 983.427 928.997 983.029 928.64 981.145C928.067 978.119 921.296 977.123 918.735 979.686ZM670.242 984.747C670.242 986.008 668.897 987.018 667.216 987.018C664.202 987.018 663.281 985.404 665.199 983.486C667.042 981.642 670.242 982.443 670.242 984.747ZM736.056 987.775C736.056 991.25 735.302 992.423 732.844 992.775C729.2 993.294 727.167 989.677 728.586 985.203C729.194 983.288 730.621 982.458 732.781 982.767C735.307 983.127 736.056 984.272 736.056 987.775ZM894.16 984.747C894.16 986.008 892.815 987.018 891.134 987.018C888.12 987.018 887.199 985.404 889.117 983.486C890.96 981.642 894.16 982.443 894.16 984.747Z" fill="black"/>
</svg>
