<svg width="1429" height="503" viewBox="0 0 1429 503" fill="none" xmlns="http://www.w3.org/2000/svg">
<path fill-rule="evenodd" clip-rule="evenodd" d="M616.284 3.52272C599.235 12.4974 591.732 25.8615 585.959 57.5293C580.982 84.8315 581.114 84.5619 570.442 89.1384C565.059 91.4472 560.859 94.7106 560.859 96.5846C560.859 100.8 553.85 100.907 545.932 96.8107C539.503 93.4865 529.315 93.6474 525.833 97.1303C523.332 99.6327 564.346 160.799 568.525 160.799C569.993 160.799 572.412 159.331 573.901 157.537C575.389 155.744 575.878 154.276 574.987 154.276C574.096 154.276 574.435 152.991 575.737 151.422C577.063 149.824 577.552 145.156 576.85 140.827C575.242 130.911 579.526 127.828 581.606 137.407C585.244 154.178 593.54 174.454 600.828 184.383C605.145 190.266 608.677 196.034 608.677 197.199C608.677 198.367 612.217 206.987 616.547 216.357C625.554 235.859 626.204 243.492 622.09 281.46C620.664 294.614 618.501 319.018 617.284 335.693C616.067 352.371 614.597 366.489 614.015 367.07C613.435 367.652 609.588 364.859 605.467 360.863C598.055 353.677 598.014 353.532 601.619 347.422C603.626 344.026 606.021 341.248 606.942 341.248C609.392 341.248 615.732 325.121 613.567 324.399C612.557 324.062 612.128 320.381 612.615 316.218C614.695 298.397 605.436 289.092 585.605 289.078C571.284 289.068 563.9 294.568 560.59 307.715C559.26 313.004 557.308 317.333 556.254 317.333C552.854 317.333 554.089 332.593 557.599 333.939C559.392 334.628 560.859 337.487 560.859 340.296V345.398L555.524 340.063C552.589 337.128 548.434 334.656 546.286 334.569C540.228 334.326 531.539 322.014 526.368 306.341C522.499 294.622 521.586 286.267 521.228 259.337L520.791 226.586L527.907 218.479C536.447 208.748 536.255 202.284 527.296 198.004C521.352 195.162 509.447 194.108 507.319 196.236C506.809 196.747 505.487 206.837 504.385 218.66C503.281 230.48 500.797 245.044 498.862 251.023C496.928 257.002 495.172 268.742 494.956 277.112C494.533 293.651 501.518 330.112 508.891 349.859C512.229 358.802 512.97 364.302 511.892 372.144C511.106 377.87 509.649 382.556 508.658 382.556C507.667 382.556 503.983 380.138 500.471 377.181C496.958 374.227 491.427 370.796 488.179 369.561C482.906 367.557 482.435 366.559 483.78 360.26C484.61 356.38 486.323 351.923 487.586 350.357C488.849 348.79 490.229 340.646 490.653 332.26C491.407 317.274 491.287 316.879 483.695 309.284C476.734 302.321 475.097 301.675 467.124 302.745C455.066 304.362 448.706 310.882 446.935 323.438C442.946 351.727 442.914 354.177 446.476 359.617C450.808 366.228 451.03 368.715 446.989 365.361C443.127 362.156 435.53 344.574 429.262 324.333L424.361 308.506L437.258 299.742C462.036 282.913 484.952 241.362 475.325 230.722C472.091 227.15 472.137 225.728 475.886 212.609C478.125 204.78 481.076 196.28 482.448 193.719C484.082 190.664 484.165 189.062 482.689 189.062C481.452 189.062 480.439 189.853 480.439 190.82C480.439 191.788 478.966 194.477 477.166 196.799C474.114 200.734 474.041 200.608 476.079 194.899C479.803 184.474 478.168 180.974 473.86 190.149L469.778 198.845L471.093 189.273C472.045 182.335 471.717 180.126 469.902 181.248C468.526 182.1 467.398 186.324 467.398 190.64C467.398 199.771 465.449 198.873 463.021 188.629C461.532 182.333 461.295 182.97 461.099 193.825C460.889 205.633 458.396 211.233 455.466 206.489C454.716 205.274 452.003 204.28 449.441 204.28C445.272 204.28 445.631 205.15 452.829 212.524C457.257 217.06 460.878 221.375 460.878 222.114C460.878 225.295 442.468 255.945 436.984 261.894C433.676 265.481 429.929 270.453 428.655 272.942C427.382 275.432 421.857 279.834 416.377 282.726C408.216 287.033 406.077 287.439 404.545 284.982C403.354 283.074 400.219 282.343 395.914 282.976C388.056 284.13 387.576 282.856 393.347 276.199C396.935 272.062 398.239 271.736 402.371 273.947C406.566 276.193 407.016 276.051 405.797 272.875C404.653 269.896 405.297 269.499 409.27 270.727C413.904 272.16 413.865 271.968 408.483 266.914C405.366 263.987 402.432 260.548 401.962 259.27C401.491 257.991 397.263 255.124 392.569 252.897C384.048 248.858 378.449 241.946 386.065 244.868C388.53 245.814 389.35 245.494 388.4 243.955C385.276 238.9 367.669 234.139 356.18 235.244C346.646 236.161 343.73 237.57 337.666 244.19C332.543 249.78 330.482 254.093 330.519 259.143C330.612 271.503 334.716 284.804 340.291 290.82C349.013 300.229 346.466 302.434 336.62 293.996C333.899 291.663 329.976 291.263 320.929 292.394C310.484 293.701 308.932 294.498 309.345 298.355C309.927 303.83 293.215 313.27 281.261 314.217L273.395 314.841L274.749 303.312C276.216 290.82 289.19 264.509 304.28 243.414C316.817 225.889 325.111 209.392 329.421 193.41C331.517 185.637 334.566 177.111 336.196 174.463C337.826 171.815 339.161 168.251 339.161 166.542C339.161 164.836 340.845 162.792 342.904 162.001C346.11 160.77 346.188 160.275 343.447 158.542C340.839 156.892 341.052 156.485 344.595 156.346C348.479 156.194 348.401 155.957 343.851 154.135C341.05 153.011 337.626 152.657 336.244 153.341C334.86 154.028 336.418 152.283 339.704 149.461C347.051 143.154 347.103 142.401 340.23 142.004C331.747 141.514 321.773 152.098 321.773 161.59C321.773 172.226 314.807 189.79 304.411 205.367C299.622 212.542 295.701 219.468 295.697 220.762C295.686 224.375 265.131 253.145 256.674 257.504C252.548 259.63 247.658 262.885 245.806 264.737C242.765 267.779 242.37 267.74 241.716 264.348C241.318 262.283 242.613 258.117 244.596 255.093C248.03 249.851 247.928 240.466 244.3 227.628C242.883 222.612 232.448 217.325 223.965 217.325C215.468 217.325 205.035 222.619 203.66 227.628C200.073 240.694 200.247 247.097 204.401 254.85C210.171 265.618 209.937 266.159 202.027 260.328C195.326 255.389 187.021 241.305 187.006 234.852C187.002 232.985 185.05 228.26 182.668 224.354C179.544 219.225 177.625 209.959 175.776 191.049C173.532 168.125 173.637 164.121 176.608 159.02C180.62 152.126 183.648 135.879 181.551 132.485C180.579 130.913 179.049 131.442 177.06 134.035C174.2 137.771 173.976 137.721 172.67 133.079C170.324 124.746 166.834 127.455 168.468 136.34C169.679 142.938 169.435 143.975 167.188 141.775C161.154 135.87 159.166 138.821 159.133 153.733C159.116 161.805 158.403 177.706 157.551 189.073C156.249 206.43 156.742 212.757 160.639 228.593C163.191 238.961 165.28 249.951 165.28 253.012C165.28 256.076 168.118 267.642 171.587 278.717C175.058 289.792 178.525 302.523 179.294 307.006C180.536 314.248 180.19 315.159 176.197 315.159C173.213 315.159 169.531 311.732 165.232 304.949C159.533 295.962 157.633 295.496 158.496 303.306C158.737 305.48 122.29 303.319 119.994 301.025C119.486 300.514 121.275 294.655 123.974 288.004C129.762 273.738 128.875 262.115 121.585 256.717C118.973 254.78 114.487 250.995 111.616 248.306C108.746 245.614 105.349 243.414 104.069 243.414C102.787 243.414 97.9419 247.329 93.2993 252.112C86.0876 259.546 84.8095 262.313 84.5161 271.136C84.3292 276.814 84.4096 282.928 84.6943 284.722C86.6635 297.064 86.0593 298.866 80.1778 298.181C77.0044 297.812 73.7659 298.544 72.9834 299.812C70.3709 304.041 60.0141 301.903 43.5627 293.738L27.2614 285.646L25.6421 273.771C24.751 267.238 24.5901 256.378 25.2835 249.636C26.0225 242.464 25.653 236.826 24.3945 236.048C23.0534 235.218 23.7033 230.839 26.1268 224.391C31.4867 210.139 33.4907 199.932 30.9303 199.932C29.7696 199.932 28.1569 202.571 27.3483 205.798C26.5028 209.168 25.2443 210.64 24.3902 209.257C23.5729 207.935 20.3018 207.348 17.1241 207.957C11.9707 208.942 11.0469 210.566 8.58 222.977C6.86075 231.635 4.73505 236.892 2.95494 236.892C-0.748732 236.892 -1.07259 285.08 2.56153 295.505C5.49795 303.932 30.3673 321.188 49.7659 328.26L62.0376 332.734L61.3486 342.97C60.9683 348.599 61.5551 362.032 62.6527 372.82C63.7482 383.61 63.9373 397.796 63.0722 404.344C61.4356 416.724 63.37 423.863 68.3604 423.863C74.1637 423.863 68.5321 435.856 53.0414 456.475C44.5082 467.834 34.3905 482.755 30.5564 489.629L23.586 502.131H701.079H1378.57L1377.12 496.356C1376.33 493.18 1375.76 464.41 1375.86 432.425C1376.05 373.085 1377.98 356.362 1385.36 350.236C1391.53 345.113 1404.77 312.026 1411.72 284.352C1418.72 256.489 1420.15 247.445 1422.81 214.064C1423.48 205.693 1424.94 197.917 1426.06 196.78C1427.18 195.645 1428.09 191.486 1428.09 187.54C1428.09 181.815 1427.21 180.365 1423.75 180.365C1418.51 180.365 1418.45 179.804 1422.79 171.415C1428.01 161.314 1425.21 158.866 1418.97 168.064L1413.41 176.25L1411.96 168.525C1411.16 164.275 1409.53 160.799 1408.35 160.799C1407.02 160.799 1406.34 169.862 1406.57 184.17C1407.01 210.218 1405.14 222.832 1396.86 249.945C1393.75 260.113 1390.56 273.149 1389.77 278.912C1388.98 284.678 1387.19 290.544 1385.79 291.95C1384.4 293.355 1379.78 299.945 1375.54 306.593C1366.88 320.144 1352.64 332.552 1345.75 332.552C1343.24 332.552 1339.97 334.508 1338.47 336.9C1335.52 341.637 1330.28 342.787 1330.28 338.702C1330.28 337.302 1332 334.263 1334.09 331.949C1339.27 326.218 1338.45 303.327 1332.79 295.592C1326.4 286.874 1318.1 283.778 1308.67 286.602C1289.06 292.479 1284.44 309.745 1295.2 336.9L1301.66 353.205L1293.72 360.028C1289.35 363.78 1281.11 368.531 1275.4 370.583C1269.05 372.868 1262.53 377.342 1258.6 382.108L1252.18 389.897L1253.17 382.423C1258.91 338.963 1258.85 339.159 1274.38 318.329C1289.75 297.723 1304.2 268.455 1304.2 257.946C1304.2 248.982 1293.74 214.72 1290.57 213.325C1287.53 211.983 1282.57 200.456 1282.32 194.158C1282.19 190.757 1283.2 181.635 1284.57 173.887C1286.32 164.049 1286.37 159.566 1284.77 159.029C1283.5 158.607 1282.47 156.876 1282.47 155.183C1282.47 152.265 1281.56 151.748 1275.6 151.233C1274.21 151.113 1271.87 154.928 1270.39 159.711L1267.71 168.408L1267.48 160.383C1267.19 150.206 1263.28 147.506 1261.53 156.27C1260.8 159.918 1259.39 162.401 1258.4 161.79C1257.41 161.179 1255.94 164.218 1255.13 168.545C1254.05 174.274 1254.88 179.167 1258.15 186.542C1269.53 212.174 1271.3 220.132 1270.6 242.516L1269.92 264.068L1260.98 273.399C1256.06 278.532 1252.04 284.156 1252.04 285.9C1252.04 290.907 1243.87 297.766 1237.91 297.766C1234.92 297.766 1232.48 298.549 1232.48 299.503C1232.48 302.399 1218.68 306.432 1213.46 305.062C1207.72 303.56 1207.13 299.488 1212.06 295.401C1214.74 293.174 1215.32 289.75 1214.57 280.636C1213.75 270.757 1212.45 267.762 1206.82 262.733C1203.11 259.411 1196.75 256.069 1192.71 255.311C1183.29 253.545 1168.88 257.422 1161.89 263.598C1156.61 268.268 1156.51 268.872 1158.61 283.263C1159.8 291.429 1161.75 299.925 1162.94 302.143C1166.34 308.5 1165.62 308.913 1157.22 305.404C1152.89 303.595 1147.91 302.114 1146.14 302.114C1142.51 302.114 1132.81 292.377 1128.61 284.517C1127.07 281.634 1123.06 277.695 1119.7 275.767C1112.65 271.718 1109.45 260.798 1113.23 253.721C1114.57 251.215 1115.86 245.671 1116.1 241.399C1116.68 230.987 1126.82 209.537 1135.95 199.426C1143.02 191.605 1145.83 182.539 1141.19 182.539C1139.99 182.539 1139.01 181.072 1139.01 179.278C1139.01 173.323 1135.24 175.906 1133.45 183.083L1131.7 190.149L1130.88 181.996C1130.2 175.217 1129.23 173.843 1125.14 173.843C1121.31 173.843 1119.71 175.65 1117.94 181.996L1115.66 190.149L1115.38 182.955C1114.89 170.173 1110.76 177.88 1110.76 191.573C1110.76 204.211 1107.13 213.166 1099.01 220.586C1095.1 224.162 1082.84 250.288 1080.03 261.041C1077.62 270.286 1077.81 271.603 1082.44 278.115C1086.56 283.902 1086.92 285.515 1084.44 287.087C1082.78 288.141 1080.18 289.018 1078.68 289.037C1077.17 289.055 1070.08 293.07 1062.92 297.957C1052.57 305.021 1049.89 308.032 1049.83 312.633C1049.79 315.815 1048.46 320.142 1046.86 322.249C1044.28 325.638 1043.64 325.701 1041.23 322.792C1039.73 320.985 1037.62 319.507 1036.55 319.507C1035.47 319.507 1030.77 316.974 1026.09 313.878C1017.12 307.941 1012.48 298.938 1014.47 291.32C1015.17 288.657 1014.18 285.104 1012.09 282.798C1009.38 279.806 1008.31 273.325 1007.7 256.235C1007.25 243.803 1005.81 224.825 1004.5 214.064L1002.12 194.497L1010.8 177.1C1015.57 167.534 1019.46 158.24 1019.44 156.446C1019.41 153.554 1019.17 153.554 1017.3 156.45C1015.61 159.068 1015.19 158.711 1015.16 154.639C1015.12 148.295 1009.97 149.469 1009 156.044C1008.58 158.877 1005.35 162.138 1000.85 164.275C994.863 167.116 993.389 169.071 993.389 174.167C993.389 177.661 991.683 183.122 989.599 186.307C986.243 191.429 985.814 198.349 985.869 246.56C985.93 298.858 986.171 301.956 991.937 324.349C998.353 349.27 997.934 353.879 988.807 358.767C986.343 360.084 983 364.343 981.376 368.228C977.572 377.336 973.847 380.299 964.24 381.858C955.433 383.288 955.118 382.501 959.511 370.048C962.29 362.163 962.206 360.723 958.6 354.792C956.409 351.192 953.562 347.592 952.268 346.792C950.975 345.994 949.919 344.57 949.919 343.626C949.919 341.024 965.433 325.603 966.737 326.91C968.946 329.116 976.223 323.538 975.864 319.914C975.664 317.896 975.627 314.289 975.784 311.898C975.999 308.597 976.518 308.26 977.935 310.5C980.644 314.772 982.202 310.954 982.748 298.721C983.395 284.154 978.52 275.332 967.346 270.86C955.772 266.227 949.382 266.405 939.108 271.649C929.388 276.608 923.837 283.513 923.837 290.642C923.837 297.616 919.583 296.762 911.167 288.096C903.949 280.665 897.759 265.159 897.748 254.482C897.746 251.384 894.514 243.468 890.567 236.892C879.638 218.679 875.802 207.5 877.289 198.195C879.062 187.094 873.065 181.391 861.574 183.257C849.37 185.237 848.461 190.094 858.033 202.217C859.496 204.072 862.259 215.812 864.169 228.306C866.193 241.531 869.881 255.726 873 262.276C878.245 273.299 882.242 286.052 887.113 307.299C889.076 315.87 888.889 320.488 886.143 331.214C884.272 338.526 882.092 347.933 881.299 352.118C879.269 362.815 878.528 363.469 873.615 358.893C869.266 354.84 869.266 354.838 873.876 336.782C879.412 315.091 879.262 314.524 856.177 270.133C847.964 254.339 841.243 239.418 841.243 236.979C841.243 231.556 837.594 231.098 836.22 236.348C835.609 238.69 835.129 237.853 834.975 234.174C834.835 230.885 833.616 228.195 832.264 228.195C830.667 228.195 830.241 230.874 831.049 235.852C832.49 244.738 829.795 244.105 824.766 234.378C820.608 226.336 818.497 227.426 821.734 235.942C823.998 241.899 823.935 241.988 819.993 238.418C814.009 233 811.955 233.902 816.048 240.153C818.006 243.142 818.851 245.623 817.928 245.664C817.004 245.708 818.339 246.929 820.895 248.382C835.009 256.404 847.19 279.547 851.969 307.428C854.319 321.133 854.13 323.838 849.918 336.778C844.734 352.701 831.888 369.72 827.991 365.822C826.352 364.182 826.989 360.93 830.171 354.692C832.649 349.836 835.288 339.178 836.053 330.949C837.361 316.874 837.144 315.824 832.277 312.687C815.283 301.725 800.37 303.854 792.102 318.42C786.794 327.769 786.925 341.246 792.387 347.77C793.886 349.564 795.799 354.251 796.636 358.186C798.12 365.167 798.007 365.306 791.989 363.893C783.286 361.85 778.315 354.782 778.259 344.366C778.233 339.502 777.187 329.982 775.935 323.207C773.171 308.252 775.964 290.192 783.854 271.994C788.755 260.691 790.409 258.989 801.665 253.663C812.357 248.603 813.048 247.943 806.658 248.88C799.579 249.919 799.407 249.786 802.854 245.977C808.26 240.001 807.214 238.474 800.659 242.773L794.849 246.579L798.725 240.666C800.855 237.413 801.981 233.143 801.226 231.178C799.983 227.937 799.42 227.987 795.186 231.704C790.963 235.411 790.648 235.439 791.902 232C792.665 229.906 792.587 228.197 791.728 228.2C789.644 228.206 776.038 248.282 776.038 251.349C776.038 252.673 773.577 259.137 770.569 265.707L765.1 277.658L755.52 276.577L745.941 275.497L743.22 285.002C741.724 290.229 739.449 295.888 738.164 297.577C735.191 301.484 717.431 309.439 715.651 307.66C714.914 306.923 715.44 300.936 716.82 294.355C719.822 280.043 719.176 277.932 709.556 270.594C705.477 267.481 702.138 263.694 702.138 262.178C702.138 257.865 715.746 241.24 719.276 241.24C725.09 241.24 730.476 234.585 728.159 230.258C726.851 227.808 726.825 224.454 728.092 221.29C729.292 218.301 730.231 217.57 730.394 219.499C730.581 221.703 731.224 221.353 732.382 218.412C733.324 216.02 733.452 208.402 732.665 201.48C730.802 185.116 723.343 177.037 707.283 173.993C692.366 171.165 682.985 174.019 671.928 184.753C664.462 191.999 663.015 194.797 663.015 201.976C663.015 206.689 662.154 211.079 661.1 211.729C660.048 212.381 655.512 209.992 651.021 206.422C646.529 202.852 642.192 199.932 641.38 199.932C639.578 199.932 629.38 177.948 626.039 166.856C624.7 162.414 619.184 153.12 613.78 146.202C605.032 134.999 595.636 119.523 595.636 116.317C595.636 114.156 611.794 115.264 626.065 118.404C645.385 122.654 668.003 122.545 676.708 118.16C694.678 109.105 703.675 93.0604 697.689 80.7333C696.135 77.5374 695.085 73.6654 695.354 72.1305C696.469 65.7582 659.17 11.8734 653.645 11.8734C652.223 11.8734 648.772 9.18188 645.977 5.89465C641.903 1.10513 639.095 -0.066697 631.849 0.00287389C626.874 0.0507039 619.87 1.63561 616.284 3.52272ZM632.101 11.9973C638.556 16.5194 638.202 22.4982 631.21 27.0812C628.06 29.1444 617.26 39.1343 607.205 49.283C587.257 69.4172 588.148 69.9107 594.805 42.4346C598.44 27.4312 606.388 15.9302 616.021 11.7364C624.8 7.91438 626.308 7.9383 632.101 11.9973ZM685.682 88.884C689.238 92.8126 689.247 93.517 685.817 100.744C681.283 110.301 667.738 117.356 654.177 117.221C641.579 117.097 617.477 111.801 621.718 110.088C623.511 109.362 630.358 106.77 636.933 104.324C643.507 101.881 655.244 96.5172 663.015 92.4082C679.675 83.5988 680.751 83.4314 685.682 88.884ZM396.581 257.778C401.571 259.693 400.806 262.778 395.672 261.437C393.281 260.811 391.325 259.435 391.325 258.378C391.325 256.106 392.019 256.026 396.581 257.778ZM753.018 316.996C751.762 324.855 750.768 326.09 744.795 327.223C736.182 328.858 729.763 333.541 729.357 338.489C729.183 340.604 727.788 344.642 726.255 347.459C724.241 351.166 724.127 353.242 725.845 354.96C727.151 356.267 728.22 361.054 728.22 365.598V373.859L714.636 373.688C707.165 373.594 702.275 373.022 703.768 372.42C707.015 371.109 707.311 364.248 704.359 358.73C702.749 355.719 703.52 352.86 707.552 346.918C710.478 342.607 712.403 337.854 711.832 336.358C711.228 334.782 714.925 331.447 720.635 328.423C726.049 325.553 735.519 319.444 741.679 314.848C747.838 310.25 753.231 306.841 753.663 307.271C754.094 307.704 753.802 312.078 753.018 316.996ZM1126.91 343.087C1120.17 344.487 1103.99 340.963 1102.79 337.835C1102.14 336.124 1100.22 334.726 1098.54 334.726C1096.82 334.726 1098.59 331.921 1102.57 328.332L1109.67 321.938L1120.1 332.136C1128.01 339.87 1129.65 342.518 1126.91 343.087ZM281.793 344.461C281.534 346.231 279.078 350.066 276.335 352.986C272.032 357.569 271.491 359.954 272.377 370.455C273.097 378.957 275.186 385.184 279.322 391.154C285.584 400.194 285.395 403.072 278.411 404.899C272.91 406.336 271.951 402.929 268.391 369.294C266.824 354.482 271.358 341.248 277.998 341.248C280.526 341.248 282.074 342.557 281.793 344.461ZM186.408 353.208C188.423 353.89 188.234 356.347 185.617 363.439C183.724 368.572 181.929 375.218 181.627 378.207C179.653 397.802 176.917 402.435 169.937 398.013C166.747 395.991 168.392 386.904 171.946 386.904C173.061 386.904 173.974 383.186 173.974 378.642C173.974 374.098 175.071 369.283 176.415 367.939C179.818 364.535 171.696 353.503 163.191 349.979C159.587 348.488 157.088 346.542 157.633 345.659C158.459 344.322 166.195 346.353 186.408 353.208ZM305.191 344.703C309.973 346.537 321.301 364.987 322.768 373.329C323.453 377.223 326.457 385.934 329.441 392.687C332.427 399.44 334.512 405.325 334.073 405.762C333.634 406.201 328.185 405.468 321.962 404.133C310.918 401.764 310.684 401.557 312.064 395.276C315.124 381.34 313.779 370.694 307.438 358.641C298.336 341.335 298.462 342.12 305.191 344.703ZM1140.2 375.49C1140.25 379.975 1140.59 387.556 1140.95 392.339C1142.35 410.771 1141.34 419.515 1137.81 419.515C1134.91 419.515 1134.64 416.787 1135.85 399.887C1137 383.871 1136.62 379.286 1133.79 374.962C1129.26 368.044 1129.39 367.337 1135.21 367.337C1139.4 367.337 1140.11 368.513 1140.2 375.49ZM428.156 381.823C438.269 395.95 439.08 399.948 431.829 399.948C429.001 399.948 424.241 401.872 421.252 404.225C414.354 409.653 412 425.785 416.523 436.63C420.8 446.883 420.442 452.126 415.462 452.126C412.361 452.126 411.054 450.113 410.172 443.974C409.526 439.491 407.733 430.533 406.186 424.072C403.586 413.219 403.68 412.141 407.429 409.94C409.661 408.629 413.889 405.403 416.823 402.772C421.874 398.244 422.033 397.394 419.783 386.904C417.255 375.107 416.801 369.511 418.375 369.511C418.907 369.511 423.309 375.051 428.156 381.823ZM869.577 402.192C864.913 423.411 858.516 441.656 855.371 442.708C854.034 443.156 853.48 438.614 853.932 430.933C854.482 421.594 855.934 417.052 859.666 412.993C864.111 408.16 866.871 402.292 868.234 394.787C869.138 389.804 872.094 382.253 872.846 383.006C873.274 383.432 871.803 392.067 869.577 402.192ZM980.348 396.831C980.348 406.005 976.549 410.819 969.304 410.819C958.759 410.819 952.092 419.2 952.092 432.462C952.092 444.476 950.267 445.73 942.114 439.315C938.06 436.125 937.588 434.927 940.021 433.992C942.242 433.14 942.82 430.679 941.992 425.583C941.096 420.061 941.885 417.417 945.372 414.26C947.874 411.997 949.919 408.875 949.919 407.323C949.919 405.771 954.564 402.507 960.243 400.074C965.922 397.639 972.034 394.715 973.827 393.578C979.059 390.256 980.348 390.9 980.348 396.831ZM1087.58 407.014C1088.3 412.097 1089.55 419.096 1090.36 422.568C1091.79 428.694 1091.63 428.842 1084.99 427.514C1079.05 426.324 1078.16 426.748 1078.16 430.744C1078.16 433.273 1079.74 436.499 1081.67 437.912C1084.72 440.145 1083.72 441.532 1074.06 448.478C1067.94 452.877 1062.47 456.475 1061.92 456.475C1061.36 456.475 1061.27 451.848 1061.71 446.191C1062.3 438.747 1063.78 435.073 1067.08 432.881C1070.24 430.783 1071.64 427.559 1071.64 422.368C1071.64 414.571 1074.21 408.051 1079.86 401.579C1084.81 395.898 1086.15 396.842 1087.58 407.014ZM621.072 427.359C621.82 429.607 613.187 439.969 611.757 438.538C611.3 438.082 612.104 434.584 613.545 430.766C616.021 424.207 619.497 422.633 621.072 427.359ZM1267.25 435.386C1267.25 440.528 1268.1 445.665 1269.14 446.8C1271.04 448.881 1274.32 462.997 1272.9 462.997C1271.8 462.997 1246.75 451.868 1245.83 450.97C1244.71 449.883 1263.61 426.037 1265.59 426.037C1266.51 426.037 1267.25 430.244 1267.25 435.386ZM772.332 456.475L773.575 472.78L769.374 461.91C764.507 449.313 764.181 445.289 767.741 441.728C769.156 440.312 770.489 439.382 770.702 439.662C770.915 439.941 771.649 447.507 772.332 456.475ZM510.119 445.213C511.477 447.387 512.084 451.818 511.464 455.057C510.54 459.886 509.504 460.692 505.713 459.527C503.17 458.747 500.875 457.936 500.614 457.725C499.651 456.942 505.126 441.256 506.363 441.256C507.072 441.256 508.76 443.037 510.119 445.213ZM610.6 471.693L610.418 477.128L608.677 471.693C607.72 468.704 606.853 464.791 606.753 462.997C606.59 460.099 606.803 460.099 608.677 462.997C609.835 464.791 610.7 468.704 610.6 471.693Z" fill="black"/>
</svg>
