<svg width="1389" height="1243" viewBox="0 0 1389 1243" fill="none" xmlns="http://www.w3.org/2000/svg">
<path fill-rule="evenodd" clip-rule="evenodd" d="M54.0306 1.92919C39.4982 5.06174 22.3882 15.863 13.4741 27.5378C0.623147 44.3663 -0.726063 63.5894 0.253952 215.783L1.18698 360.998L9.11101 366.755C19.3374 374.185 31.3225 374.08 39.7835 366.486C46.3214 360.619 46.4959 356.447 46.4959 207.371V54.282L54.2622 47.7308L62.0318 41.1825H510.708C954.913 41.1825 959.454 41.2428 966.1 47.2067C972.423 52.8814 972.812 57.2459 972.812 122.644V192.06L981.052 199.452C991.503 208.835 1001.11 208.835 1011.56 199.452L1019.8 192.06L1019.78 124.903C1019.77 87.9691 1018.25 52.8453 1016.39 46.8513C1011.22 30.1523 999.256 16.351 982.75 8.04972L967.778 0.519536L516.366 0.0466413C268.09 -0.212397 60.0383 0.633996 54.0306 1.92919ZM472.947 67.5382C467.668 71.3816 465.174 77.4328 463.744 89.8667C461.865 106.27 461.365 106.996 450.813 108.773C410.471 115.566 361.47 160.187 353.1 197.75C351.173 206.392 350.247 206.847 334.56 206.847C306.076 206.847 292.426 226.024 309.808 241.621C316.319 247.467 321.501 249.016 334.56 249.016C350.13 249.016 351.183 249.519 353.036 257.829C361.296 294.887 404.839 335.784 446.752 345.842L461.848 349.468L463.778 366.261C465.174 378.441 467.695 384.502 472.947 388.324C490.235 400.905 508.546 389.598 510.282 365.273L511.332 350.504L528.563 345.48C551.815 338.697 577.993 323.185 591.616 308.116C603.853 294.576 618.161 270.389 621.671 257.299C623.671 249.838 625.343 249.016 638.479 249.016C656.754 249.016 670.776 240.073 670.702 228.464C670.608 214.064 659.623 206.847 637.798 206.847C624.782 206.847 624.433 206.557 618.808 191.127C604.517 151.918 568.69 120.587 524.757 108.885C511.701 105.406 511.302 104.903 510.282 90.5655C508.546 66.2641 490.228 54.9658 472.947 67.5382ZM100.44 91.2884C96.6143 95.6529 93.483 101.752 93.483 104.843C93.483 113.12 105.562 122.515 116.137 122.463C126.834 122.409 131.344 120.144 136.003 112.484C139.114 107.37 139.759 107.529 145.024 114.743C152.667 125.213 170.857 125.575 179.744 115.433L185.947 108.358L191.894 115.433C200.063 125.156 218.21 125.156 226.732 115.433L232.934 108.358L238.881 115.433C250.594 129.373 278.075 120.605 278.075 102.93C278.075 93.2101 267.013 83.3516 256.109 83.3516C251.41 83.3516 244.066 86.4901 239.791 90.3275L232.018 97.3035L225.094 90.3275C216.159 81.3244 202.386 81.3244 193.451 90.3275L186.527 97.3035L178.754 90.3275C168.699 81.3034 155.338 81.3877 146.263 90.5293L139.141 97.7071L132.848 90.5293C124.169 80.6256 109.482 80.969 100.44 91.2884ZM794.933 131.545C788.519 137.301 788.22 141.584 788.22 227.931C788.22 314.278 788.519 318.561 794.933 324.317C801.118 329.869 806.119 330.342 858.509 330.342C913.467 330.342 915.552 330.116 920.599 323.646C925.043 317.956 925.825 303.628 925.825 227.931C925.825 152.235 925.043 137.906 920.599 132.216C915.552 125.747 913.467 125.521 858.509 125.521C806.119 125.521 801.118 125.993 794.933 131.545ZM546.572 164.376C553.033 169.039 562.588 180.166 567.804 189.099L577.292 205.341L561.467 207.03C535.215 209.838 525.197 227.094 541.387 241.621C547.425 247.043 553.258 249.016 563.246 249.016H576.869L571.878 259.733C564.055 276.54 554.55 286.853 537.601 296.929C515.658 309.974 509.654 309.387 509.654 294.197C509.654 262.736 469.389 261.443 464.16 292.736C462.922 300.167 460.506 306.245 458.797 306.245C452.239 306.245 430.39 294.371 421.896 286.191C411.26 275.947 398.929 258.022 398.912 252.781C398.902 250.513 403.389 249.016 410.192 249.016C430.931 249.016 446.423 230.284 436.606 217.088C432.444 211.494 420.003 206.847 409.189 206.847C397.459 206.847 396.714 204.416 404.309 190.883C414.405 172.894 445.141 149.617 458.797 149.617C460.506 149.617 462.922 155.696 464.16 163.126C469.547 195.362 509.654 192.609 509.654 160.003V146.524L522.24 151.211C529.164 153.789 540.112 159.714 546.572 164.376ZM107.965 167.602C92.4056 173.458 89.4656 188.455 101.722 199.452C109.784 206.69 111.11 206.847 163.813 206.847C213.189 206.847 218.22 206.347 224.375 200.822C233.149 192.949 232.984 179.202 224.033 171.922C217.838 166.882 210.793 166.102 166.138 165.515C138.178 165.147 111.999 166.087 107.965 167.602ZM882.194 185.762V206.847H858.701H835.207V185.762V164.678H858.701H882.194V185.762ZM1083.57 166.765C1080.8 167.708 1075.89 170.542 1072.66 173.066C1067.16 177.37 1066.79 193.003 1066.79 421.002V664.344L996.584 665.266L926.382 666.188L911.84 675.263C895.572 685.417 882.194 705.893 882.194 720.637C882.194 730.734 871.196 746.008 863.926 746.008C861.077 746.008 858.754 739.568 857.224 727.405C853.438 697.372 839.778 678.899 814.291 669.345C804.159 665.543 785.814 664.682 715.051 664.682C667.306 664.682 627.612 664.122 626.843 663.438C626.071 662.754 625.947 653.323 626.561 642.483L627.682 622.769L797.728 621.889L967.778 621.007L982.75 613.477C999.256 605.175 1011.22 591.374 1016.39 574.675C1018.44 568.048 1019.77 504.976 1019.78 413.791L1019.8 263.802L1011.56 256.41C1001.11 247.028 991.503 247.028 981.052 256.41L972.812 263.802V416.05C972.812 595.422 976.507 580.344 932.537 580.344C917.77 580.344 905.688 579.603 905.688 578.696C905.688 577.793 915.505 565.506 927.503 551.392C950.356 524.515 953.356 515.909 943.445 505.656C933.937 495.819 842.034 435.764 836.489 435.764C829.277 435.764 819.524 440.803 797.695 455.813L778.638 468.912L741.545 432.388L704.449 395.86L711.094 387.487C723.912 371.333 715.779 354.438 695.186 354.438C684.204 354.438 679.398 357.742 643.356 390.092C613.083 417.258 603.628 427.601 603.628 433.541C603.628 437.83 620.973 472.617 642.171 510.843L680.717 580.344H514.635H348.556V555.199V530.054L362.437 524.434C384.944 515.328 392.186 508.831 392.186 497.759C392.186 478.915 375.529 473.144 352.1 483.87L339.131 489.81L333.845 482.569C328.881 475.768 329.173 474.147 338.655 455.969C350.381 433.475 348.821 424.029 332.362 417.909C318.051 412.589 310.251 417.369 298.149 438.891C283.623 464.713 278.075 462.978 278.075 432.617C278.075 410.903 277.219 407.613 269.835 400.99C259.851 392.026 250.134 391.562 241.157 399.619C235.283 404.89 234.444 409.659 234.444 437.785C234.444 463.409 233.323 471.042 228.916 475.412C223.62 480.662 222.771 480.385 208.853 468.873C192.522 455.364 181.053 453.56 170.676 462.873C158.506 473.795 161.96 482.747 187.457 506.343L210.951 528.087V554.217V580.344H135.567C62.3406 580.344 59.9879 580.154 53.3393 573.75C46.8584 567.509 46.4959 563.443 46.4959 497.162V427.165L37.6523 420.924C26.8486 413.297 19.2971 413.032 9.7856 419.951C2.64021 425.144 2.54959 426.385 3.53968 503.801L4.5432 582.38L13.8198 594.386C18.9212 600.988 29.4933 609.678 37.3133 613.699L51.5302 621.007L223.536 621.889L395.543 622.769V643.727V664.682H305.452C217.619 664.682 214.991 664.856 200.57 671.691C192.434 675.543 181.248 684.468 175.71 691.516C166.333 703.456 165.561 706.504 164.49 735.902C163.859 753.261 164.198 770.538 165.249 774.294C168.4 785.562 180.829 788.177 231.246 788.177H278.075V809.261V830.346H147.931C35.5681 830.346 16.7632 830.987 10.326 835.036C2.88858 839.707 2.86509 840.036 2.86509 932.711C2.86509 1032.94 2.84831 1032.84 20.7202 1036.77C24.7443 1037.65 133.513 1037.99 262.432 1037.53L496.823 1036.67L503.24 1029.56C509.234 1022.92 509.654 1016.57 509.654 932.422C509.654 846.409 509.355 842.126 502.942 836.37C496.582 830.662 491.755 830.346 410.646 830.346H325.062V809.261V788.177H454.498C539.316 788.177 586.226 787.074 590.586 784.981C606.669 777.255 603.658 752.149 586.142 747.939C581.917 746.92 495.011 746.071 393.025 746.05L207.594 746.008V735.607C207.594 721.267 213.542 710.878 223.973 707.001C230.115 704.718 318.068 703.977 515.826 704.541L798.883 705.345L805.3 712.456C809.438 717.044 811.714 724.258 811.714 732.788V746.008H740.008C672.548 746.008 667.779 746.378 659.459 752.252C648.638 759.887 647.668 773.484 657.328 782.153C662.922 787.174 668.514 788.177 690.89 788.177H717.74V803.237C717.74 821.575 709.809 830.346 693.226 830.346C687.127 830.346 674.458 833.783 665.067 837.981C644.957 846.976 631.256 863.572 628.377 882.428C626.585 894.16 625.141 895.768 612.049 900.627C593.781 907.41 574.513 924.416 565.418 941.793C559.172 953.723 558.188 961.91 557.218 1010.12C555.973 1071.85 558.396 1081.27 578.369 1092.35C588.27 1097.84 595.019 1098.42 648.937 1098.42C738.572 1098.42 741.243 1096.01 741.213 1015.13C741.203 987.221 739.713 959.591 737.9 953.735C731.849 934.187 715.89 915.573 696.948 905.964C687.154 900.997 677.119 895.834 674.649 894.491C671.014 892.515 670.94 890.5 674.263 883.955C678.888 874.846 682.234 873.292 705.916 869.244C715.101 867.671 728.13 863.114 734.87 859.111C751.671 849.132 764.727 825.102 764.727 804.153V788.177H814.254C867.272 788.177 880.107 786.225 897.851 775.457C911.041 767.457 925.825 743.002 925.825 729.182C925.825 713.357 935.112 706.149 957.652 704.471L977.172 703.019L974.95 715.495C968.385 752.33 1002.58 788.177 1044.28 788.177C1056.83 788.177 1066.79 801.014 1066.79 817.198V830.346H998.688C925.405 830.346 906.309 832.894 875.895 846.725C852.653 857.295 825.461 880.783 810.969 902.807C789.603 935.277 787.754 949.407 788.895 1071.36C789.851 1173.35 790.227 1178.88 797.111 1192.24C805.85 1209.21 825.675 1227.59 843.708 1235.44C862.748 1243.73 901.627 1245.21 921.512 1238.39C940.116 1232.02 960.253 1216.27 971.137 1199.58C977.538 1189.76 992.949 1130.85 992.949 1116.2C992.949 1114.96 998.615 1112.33 1005.54 1110.35C1012.46 1108.37 1029.12 1100.13 1042.55 1092.04C1065.78 1078.06 1068.1 1077.34 1089.63 1077.34C1110.72 1077.34 1113.47 1078.14 1129.6 1089.02C1139.14 1095.45 1155.28 1103.81 1165.47 1107.6C1186.06 1115.26 1184.37 1111.94 1194.48 1164.69C1203.82 1213.45 1240.49 1243 1291.65 1243C1320.22 1243 1340.91 1235.37 1360.43 1217.62C1386.38 1194.03 1389.02 1184.19 1389 1111.22C1388.98 1054.25 1388.54 1049.83 1382.27 1044.2C1374.22 1036.98 1362.99 1036.47 1352.81 1042.87C1345.55 1047.43 1345.35 1049.08 1345.28 1105.37C1345.19 1170.66 1342.24 1181.77 1321.41 1195.1C1305.72 1205.15 1277.75 1205.26 1262.24 1195.32C1246.38 1185.17 1241.93 1175.2 1234.09 1132.27C1230.24 1111.17 1225.01 1090.91 1222.46 1087.25C1219.78 1083.38 1210.97 1078.76 1201.47 1076.23C1179.04 1070.25 1167.3 1064.43 1149.07 1050.27L1133.5 1038.18H1089.09H1044.68L1025.21 1052.95C1011.54 1063.33 998.866 1069.71 982.649 1074.39C969.946 1078.06 957.937 1082.81 955.961 1084.94C953.98 1087.08 948.771 1107.82 944.382 1131.04C936.189 1174.36 931.584 1184.69 916.038 1194.63C894.81 1208.19 867.981 1205.19 848.39 1187.06L836.885 1176.41L835.929 1065.52C834.999 957.594 835.17 954.154 842.349 936.937C852.331 912.988 879.845 888.205 907.389 878.343C927.335 871.202 928.725 871.132 1072.88 870.12C1226.18 869.045 1254.18 870.644 1279.35 881.931C1311.33 896.277 1335.94 926.549 1342.23 959.272C1347.77 988.082 1348.27 989.091 1358.95 993.061C1368.07 996.453 1370.32 996.188 1378.29 990.799C1386.61 985.169 1387.28 983.109 1386.97 964.001C1386.26 920.479 1356.17 875.289 1312.61 852.34C1277.27 833.719 1268.87 832.252 1187.61 830.484L1112.1 828.84L1110.25 807.556C1107.37 774.4 1088.39 754.963 1052.74 748.67C1041.41 746.67 1029.36 742.541 1025.97 739.496C1016.8 731.27 1018.05 717.559 1028.64 710.083C1037.33 703.953 1040.58 703.839 1207.68 703.839C1368.3 703.839 1378.19 703.529 1383.43 698.33C1388.21 693.589 1388.98 684.39 1388.98 632.284V571.744L1380.14 565.503C1369.08 557.693 1365.26 557.693 1354.2 565.503L1345.35 571.744V618.254V664.76L1228.72 663.968L1112.1 663.176L1111.22 538.928L1110.34 414.68H1227.85H1345.35V460.9C1345.35 512.298 1347.26 517.09 1367.75 517.09C1389.76 517.09 1388.98 523.473 1388.98 341.866C1388.98 178.777 1388.94 177.62 1381.92 171.922C1375.23 166.488 1367.29 166.153 1231.73 165.62C1153.01 165.31 1086.34 165.825 1083.57 166.765ZM473.484 211.536C468.376 214.747 466.023 219.311 466.023 226.021C466.023 238.121 471.638 245.073 483.475 247.633C490.5 249.151 494.457 247.868 501.096 241.91C512.211 231.934 512.104 221.064 500.81 213.091C490.245 205.63 483.489 205.244 473.484 211.536ZM1344.61 248.263L1343.67 289.679H1227.88H1112.1L1111.16 248.263L1110.23 206.847H1227.88H1345.54L1344.61 248.263ZM100.44 256.952C92.1271 266.434 91.6975 272.498 98.7086 281.477C103.531 287.658 106.586 288.173 138.463 288.173C177.278 288.173 184.101 285.121 184.101 267.775C184.101 252.916 174.576 249.016 138.288 249.016C108.911 249.016 107.052 249.404 100.44 256.952ZM881.509 269.347L880.516 289.679L857.862 290.57L835.207 291.459V270.239V249.016H858.855H882.5L881.509 269.347ZM1344.67 352.179L1345.66 372.511H1228.04H1110.42V353.435C1110.42 342.941 1111.44 333.438 1112.7 332.312C1113.95 331.185 1166.44 330.619 1229.33 331.055L1343.67 331.848L1344.67 352.179ZM741.233 492.994C775.067 526.955 808.857 560.5 816.322 567.542L829.891 580.344L781.367 580.335L732.842 580.323L693.652 510.304L654.461 440.282L663.278 431.957C670.246 425.382 672.897 424.433 675.904 427.439C677.999 429.532 707.396 459.032 741.233 492.994ZM1201.06 482.731C1175.75 492.581 1160.76 513.37 1160.76 538.608C1160.76 589.476 1220.76 617.38 1268.31 588.624C1299.17 569.958 1305.26 527.25 1280.84 500.662C1261.8 479.936 1227.85 472.307 1201.06 482.731ZM872.965 507.873C883.58 514.997 892.263 522.054 892.263 523.554C892.263 525.054 886.601 533.123 879.677 541.482L867.091 556.684L837.812 528.602L808.532 500.524L820.963 490.906L833.395 481.289L843.531 488.102C849.105 491.852 862.349 500.747 872.965 507.873ZM295.695 505.638C300.548 510.674 301.568 517.699 301.568 546.039V580.344H278.075H254.581V547.012C254.581 528.681 256.189 510.985 258.156 507.687C265.59 495.223 284.657 494.18 295.695 505.638ZM1243.14 524.485C1258.52 538.283 1249.32 559.259 1227.88 559.259C1202.84 559.259 1195.76 528.482 1218.87 520.123C1230.51 515.915 1234.37 516.608 1243.14 524.485ZM580.135 643.597V664.682H509.654H439.173V643.597V622.513H509.654H580.135V643.597ZM93.483 890.587V911.672H69.9894H46.4959V892.596C46.4959 882.102 47.5028 872.614 48.7345 871.512C49.9629 870.406 60.535 869.503 72.228 869.503H93.483V890.587ZM186.772 891.34L187.762 911.672H164.118H140.47V890.449V869.229L163.124 870.117L185.779 871.009L186.772 891.34ZM278.075 890.587V911.672H254.581H231.088V892.596C231.088 882.102 232.095 872.614 233.327 871.512C234.555 870.406 245.127 869.503 256.82 869.503H278.075V890.587ZM371.364 891.34L372.354 911.672H348.71H325.062V890.449V869.229L347.716 870.117L370.371 871.009L371.364 891.34ZM462.667 890.587V911.672H439.173H415.68V892.596C415.68 882.102 416.687 872.614 417.919 871.512C419.147 870.406 429.719 869.503 441.412 869.503H462.667V890.587ZM934.34 920.585C931.064 923.832 927.614 932.642 926.671 940.163C924.973 953.675 924.801 953.841 912.417 953.841C896.25 953.841 882.174 963.425 882.245 974.392C882.335 988.501 893.317 996.01 913.857 996.01C924.778 996.01 925.825 996.76 925.825 1004.6C925.825 1026.94 940.421 1041.06 957.491 1035.24C968.16 1031.6 972.812 1023.4 972.812 1008.26V996.01H988.066C1005.17 996.01 1019.8 986.287 1019.8 974.925C1019.8 963.564 1005.17 953.841 988.066 953.841H972.812V940.958C972.812 923.678 965.459 914.684 951.326 914.684C944.63 914.684 937.951 917.003 934.34 920.585ZM1192.31 916.91C1190.28 918.172 1186.81 922.277 1184.6 926.036C1179.16 935.314 1186.1 948.172 1198.7 952.148C1209.85 955.666 1217.15 952.44 1224.53 940.741C1229.01 933.627 1229 931.853 1224.42 924.473C1220.57 918.268 1216.36 915.991 1207.64 915.404C1201.24 914.97 1194.34 915.648 1192.31 916.91ZM627.122 952.217C627.122 964.323 637.603 974.925 649.571 974.925C661.113 974.925 670.752 964.648 670.752 952.335C670.752 938.136 677.039 938.639 688.567 953.76C693.33 960.004 694.246 969.121 694.246 1010.24V1059.26H648.937H603.628V1009.8C603.628 960.97 603.742 960.205 612.317 951.061C623.547 939.082 627.122 939.362 627.122 952.217ZM93.483 974.925V996.01H69.9894H46.4959V974.925V953.841H69.9894H93.483V974.925ZM187.457 974.925V996.01H163.964H140.47V974.925V953.841H163.964H187.457V974.925ZM278.075 974.925V996.01H254.581H231.088V974.925V953.841H254.581H278.075V974.925ZM462.667 974.925V996.01H393.864H325.062V974.925V953.841H393.864H462.667V974.925ZM1259.94 960.946C1255.23 965.169 1251.38 971.462 1251.38 974.925C1251.38 978.389 1255.23 984.681 1259.94 988.904C1274.18 1001.69 1296.13 993.209 1296.13 974.925C1296.13 956.642 1274.18 948.163 1259.94 960.946ZM1193.3 999.356C1170.98 1011.01 1188.42 1043.48 1212.56 1035.24C1228.88 1029.67 1232.22 1014.68 1219.65 1003.4C1210.83 995.486 1203.01 994.287 1193.3 999.356Z" fill="black"/>
</svg>
