<svg width="1111" height="994" viewBox="0 0 1111 994" fill="none" xmlns="http://www.w3.org/2000/svg">
<path fill-rule="evenodd" clip-rule="evenodd" d="M43.2167 1.54273C31.5929 4.04777 17.9074 12.6853 10.7773 22.0214C0.498428 35.4788 -0.580746 50.851 0.203125 172.557L0.949413 288.683L7.2875 293.286C15.4671 299.228 25.0535 299.144 31.8211 293.071C37.0505 288.379 37.19 285.043 37.19 165.83V43.4082L49.6165 32.9328H408.493C763.793 32.9328 767.425 32.9809 772.741 37.7502C777.798 42.2881 778.11 45.7783 778.11 98.0758V153.586L784.7 159.497C793.06 167 800.743 167 809.102 159.497L815.693 153.586L815.676 99.8823C815.668 70.3469 814.45 42.2592 812.965 37.4659C808.831 24.1122 799.261 13.0755 786.058 6.43719L774.083 0.415461L413.019 0.037298C214.434 -0.169849 48.022 0.506992 43.2167 1.54273ZM378.29 54.0088C374.067 57.0823 372.072 61.9213 370.929 71.8644C369.425 84.9821 369.025 85.5626 360.585 86.9838C328.318 92.4154 289.124 128.098 282.429 158.136C280.888 165.047 280.147 165.411 267.6 165.411C244.817 165.411 233.899 180.747 247.802 193.219C253.01 197.894 257.155 199.132 267.6 199.132C280.053 199.132 280.896 199.535 282.378 206.18C288.985 235.814 323.813 268.519 357.337 276.562L369.412 279.462L370.956 292.891C372.072 302.631 374.088 307.478 378.29 310.534C392.117 320.595 406.764 311.553 408.152 292.101L408.992 280.291L422.774 276.273C441.372 270.849 462.311 258.444 473.208 246.393C482.995 235.566 494.439 216.224 497.247 205.756C498.847 199.79 500.184 199.132 510.691 199.132C525.308 199.132 536.524 191.981 536.465 182.698C536.39 171.182 527.604 165.411 510.146 165.411C499.736 165.411 499.457 165.179 494.958 152.84C483.527 121.486 454.87 96.4307 419.73 87.0729C409.287 84.2909 408.968 83.8886 408.152 72.4232C406.764 52.9899 392.112 43.9549 378.29 54.0088ZM80.3379 73.0013C77.2775 76.4915 74.7729 81.3691 74.7729 83.8404C74.7729 90.4595 84.4344 97.9722 92.8932 97.9313C101.449 97.8879 105.057 96.0766 108.783 89.9513C111.271 85.8613 111.787 85.989 115.999 91.7578C122.111 100.13 136.661 100.419 143.77 92.3094L148.731 86.6514L153.488 92.3094C160.022 100.085 174.537 100.085 181.353 92.3094L186.314 86.6514L191.07 92.3094C200.439 103.457 222.42 96.4451 222.42 82.3109C222.42 74.5381 213.572 66.6544 204.85 66.6544C201.092 66.6544 195.218 69.1643 191.798 72.233L185.581 77.8115L180.043 72.233C172.896 65.0334 161.879 65.0334 154.733 72.233L149.195 77.8115L142.978 72.233C134.935 65.0165 124.248 65.084 116.989 72.3943L111.293 78.1342L106.259 72.3943C99.3172 64.4746 87.5699 64.7491 80.3379 73.0013ZM635.832 105.193C630.702 109.796 630.463 113.222 630.463 182.272C630.463 251.321 630.702 254.747 635.832 259.35C640.779 263.789 644.779 264.167 686.684 264.167C730.642 264.167 732.31 263.986 736.347 258.812C739.901 254.262 740.527 242.804 740.527 182.272C740.527 121.739 739.901 110.281 736.347 105.731C732.31 100.557 730.642 100.376 686.684 100.376C644.779 100.376 640.779 100.754 635.832 105.193ZM437.179 131.448C442.347 135.177 449.99 144.075 454.161 151.219L461.75 164.206L449.093 165.558C428.095 167.803 420.082 181.602 433.032 193.219C437.861 197.555 442.527 199.132 450.516 199.132H461.412L457.42 207.702C451.163 221.143 443.56 229.39 430.004 237.447C412.452 247.879 407.65 247.41 407.65 235.263C407.65 210.104 375.444 209.071 371.262 234.094C370.271 240.037 368.338 244.897 366.972 244.897C361.726 244.897 344.25 235.402 337.456 228.86C328.949 220.668 319.086 206.334 319.072 202.143C319.064 200.329 322.653 199.132 328.095 199.132C344.682 199.132 357.074 184.153 349.222 173.6C345.893 169.127 335.942 165.411 327.292 165.411C317.91 165.411 317.314 163.467 323.389 152.645C331.464 138.26 356.049 119.646 366.972 119.646C368.338 119.646 370.271 124.506 371.262 130.449C375.57 156.226 407.65 154.025 407.65 127.951V117.172L417.717 120.92C423.255 122.982 432.012 127.72 437.179 131.448ZM86.3565 134.028C73.9112 138.71 71.5596 150.703 81.3633 159.497C87.8115 165.285 88.8719 165.411 131.026 165.411C170.521 165.411 174.545 165.011 179.468 160.593C186.485 154.297 186.354 143.304 179.194 137.482C174.239 133.452 168.604 132.828 132.887 132.359C110.522 132.065 89.5833 132.816 86.3565 134.028ZM705.628 165.411H668.045V131.689H705.628V165.411ZM866.698 133.358C864.483 134.112 860.556 136.379 857.973 138.397C853.571 141.839 853.275 154.34 853.275 336.666V531.262L740.972 532.736L729.34 539.993C716.329 548.113 705.628 564.487 705.628 576.278C705.628 584.352 696.831 596.566 691.017 596.566C688.738 596.566 686.88 591.416 685.656 581.69C682.628 557.673 671.702 542.901 651.316 535.26C643.211 532.22 628.538 531.532 571.938 531.532C533.748 531.532 501.999 531.084 501.384 530.537C500.767 529.99 500.667 522.448 501.159 513.78L502.055 498.015L774.083 496.606L786.058 490.584C799.261 483.945 808.831 472.909 812.965 459.555C814.605 454.256 815.668 403.818 815.676 330.9L815.693 210.957L809.102 205.046C800.743 197.543 793.06 197.543 784.7 205.046L778.11 210.957V332.706C778.11 476.146 781.065 464.088 745.896 464.088C734.084 464.088 724.42 463.496 724.42 462.771C724.42 462.048 732.272 452.223 741.869 440.936C760.148 419.443 762.548 412.562 754.62 404.362C747.015 396.496 673.506 348.471 669.071 348.471C663.302 348.471 655.501 352.501 638.041 364.503L622.798 374.979L563.458 316.561L568.773 309.865C579.025 296.947 572.521 283.436 556.049 283.436C547.265 283.436 543.421 286.079 514.592 311.948C490.378 333.672 482.816 341.944 482.816 346.694C482.816 350.123 496.689 377.941 513.644 408.51L544.476 464.088H278.794V423.873L289.897 419.378C307.9 412.097 313.693 406.901 313.693 398.047C313.693 382.978 300.37 378.363 281.629 386.94L271.256 391.69L267.028 385.9C263.058 380.461 263.291 379.165 270.875 364.629C280.255 346.641 279.006 339.087 265.842 334.192C254.395 329.939 248.156 333.761 238.476 350.971C226.857 371.621 222.42 370.234 222.42 345.954C222.42 328.59 221.735 325.96 215.83 320.663C207.843 313.495 200.072 313.124 192.891 319.567C188.193 323.782 187.522 327.595 187.522 350.087C187.522 370.578 186.625 376.682 183.1 380.177C178.864 384.375 178.185 384.153 167.052 374.947C153.99 364.144 144.817 362.702 136.516 370.149C126.782 378.883 129.545 386.042 149.939 404.912L168.73 422.3V464.088H108.434C49.8635 464.088 47.9817 463.936 42.6637 458.816C37.48 453.825 37.19 450.573 37.19 397.57V341.594L30.1164 336.604C21.475 330.505 15.4349 330.293 7.82707 335.826C2.11179 339.978 2.03931 340.97 2.83123 402.879L3.6339 465.716L11.0538 475.318C15.1343 480.597 23.5904 487.546 29.8453 490.762L41.2168 496.606L316.377 498.015V531.532H244.317C174.064 531.532 171.962 531.671 160.427 537.137C153.92 540.217 144.972 547.354 140.543 552.991C133.042 562.539 132.425 564.976 131.569 588.485C131.064 602.366 131.335 616.183 132.175 619.186C134.696 628.197 144.637 630.288 184.963 630.288H222.42V664.009H118.323C28.4493 664.009 13.4081 664.523 8.25928 667.76C2.31045 671.496 2.29166 671.758 2.29166 745.869C2.29166 826.02 2.27824 825.938 16.5732 829.079C19.7919 829.788 106.791 830.06 209.908 829.686L397.387 829.005L402.52 823.318C407.314 818.004 407.65 812.929 407.65 745.638C407.65 676.855 407.411 673.43 402.281 668.827C397.194 664.262 393.333 664.009 328.457 664.009H260.003V630.288H363.533C431.375 630.288 468.896 629.406 472.384 627.732C485.248 621.554 482.84 601.477 468.829 598.11C465.45 597.296 395.937 596.617 314.364 596.6L166.046 596.566V588.249C166.046 576.781 170.803 568.474 179.146 565.374C184.059 563.548 254.408 562.955 412.587 563.406L638.991 564.049L644.124 569.736C647.434 573.404 649.254 579.173 649.254 585.994V596.566H591.9C537.942 596.566 534.127 596.862 527.472 601.559C518.817 607.665 518.041 618.538 525.767 625.47C530.243 629.486 534.715 630.288 552.612 630.288H574.088V642.331C574.088 656.995 567.745 664.009 554.481 664.009C549.603 664.009 539.469 666.758 531.958 670.116C515.872 677.308 504.914 690.58 502.611 705.658C501.177 715.04 500.023 716.326 489.551 720.211C474.939 725.636 459.528 739.235 452.253 753.131C447.257 762.672 446.47 769.219 445.694 807.767C444.698 857.136 446.637 864.668 462.612 873.527C470.531 877.918 475.93 878.383 519.056 878.383C590.751 878.383 592.888 876.454 592.864 811.78C592.856 789.459 591.664 767.364 590.214 762.681C585.374 747.049 572.609 732.163 557.458 724.48C549.624 720.508 541.598 716.379 539.622 715.305C536.715 713.725 536.656 712.113 539.313 706.879C543.013 699.595 545.689 698.353 564.631 695.115C571.978 693.858 582.399 690.214 587.79 687.012C601.228 679.032 611.671 659.816 611.671 643.063V630.288H651.286C693.693 630.288 703.959 628.727 718.152 620.116C728.702 613.718 740.527 594.162 740.527 583.111C740.527 570.456 747.955 564.692 765.984 563.35L781.597 562.189L779.82 572.166C774.569 601.622 801.918 630.288 835.271 630.288C845.311 630.288 853.275 640.554 853.275 653.496V664.009H798.807C740.191 664.009 724.916 666.047 700.59 677.108C681.999 685.56 660.25 704.343 648.658 721.955C631.569 747.921 630.089 759.22 631.002 856.746C631.767 938.299 632.068 942.726 637.574 953.411C644.564 966.979 660.422 981.677 674.845 987.957C690.074 994.588 721.172 995.768 737.077 990.317C751.957 985.218 768.064 972.623 776.77 959.276C781.889 951.424 794.217 904.317 794.217 892.601C794.217 891.611 798.748 889.504 804.283 887.921C809.821 886.339 823.145 879.751 833.893 873.284C852.473 862.103 854.328 861.522 871.549 861.522C888.415 861.522 890.614 862.165 903.521 870.868C911.145 876.006 924.055 882.692 932.21 885.727C948.679 891.85 947.326 889.191 955.412 931.374C962.886 970.366 992.217 994 1033.14 994C1055.99 994 1072.53 987.896 1088.15 973.704C1108.9 954.837 1111.02 946.97 1111 888.62C1110.99 843.064 1110.63 839.526 1105.62 835.026C1099.18 829.25 1090.19 828.843 1082.06 833.959C1076.25 837.609 1076.09 838.926 1076.03 883.94C1075.96 936.151 1073.6 945.039 1056.94 955.699C1044.38 963.735 1022.02 963.817 1009.61 955.873C996.922 947.756 993.363 939.78 987.097 905.449C984.018 888.576 979.833 872.373 977.796 869.447C975.645 866.354 968.604 862.659 961.007 860.636C943.066 855.854 933.67 851.201 919.091 839.878L906.638 830.209H835.593L820.02 842.024C809.086 850.319 798.949 855.426 785.978 859.166C775.817 862.098 766.212 865.896 764.631 867.606C763.047 869.317 758.881 885.903 755.369 904.464C748.816 939.108 745.133 947.373 732.699 955.316C715.719 966.165 694.26 963.764 678.59 949.263L669.388 940.746L668.623 852.07C667.879 765.767 668.016 763.016 673.758 749.248C681.742 730.097 703.749 710.278 725.781 702.392C741.735 696.681 742.846 696.626 858.148 695.816C980.77 694.956 1003.16 696.235 1023.29 705.261C1048.87 716.733 1068.56 740.941 1073.59 767.109C1078.02 790.148 1078.42 790.955 1086.96 794.129C1094.26 796.842 1096.06 796.63 1102.43 792.32C1109.09 787.819 1109.62 786.171 1109.38 770.89C1108.81 736.087 1084.74 699.95 1049.9 681.598C1021.63 666.707 1014.91 665.534 949.917 664.12L889.516 662.805L888.037 645.785C885.734 619.27 870.553 603.727 842.043 598.695C832.978 597.096 823.341 593.794 820.627 591.359C813.295 584.781 814.294 573.816 822.766 567.838C829.711 562.936 832.315 562.845 965.97 562.845C1094.44 562.845 1102.35 562.596 1106.54 558.439C1110.37 554.648 1110.99 547.292 1110.99 505.624V457.211L1103.91 452.221C1095.06 445.975 1092.01 445.975 1083.16 452.221L1076.09 457.211V531.594L889.516 530.327L888.115 331.61H1076.09V368.572C1076.09 409.674 1077.62 413.506 1094 413.506C1111.6 413.506 1110.99 418.61 1110.99 273.383C1110.99 142.964 1110.95 142.039 1105.34 137.482C1099.99 133.137 1093.63 132.869 985.207 132.443C922.243 132.195 868.913 132.607 866.698 133.358ZM378.719 169.161C374.633 171.729 372.751 175.378 372.751 180.744C372.751 190.42 377.243 195.979 386.711 198.027C392.329 199.241 395.494 198.215 400.804 193.45C409.695 185.473 409.61 176.78 400.576 170.404C392.125 164.438 386.722 164.129 378.719 169.161ZM1074.75 231.65H889.516L888.023 165.411H1076.24L1074.75 231.65ZM80.3379 205.479C73.6884 213.062 73.3448 217.911 78.9527 225.091C82.8103 230.033 85.2532 230.445 110.75 230.445C141.797 230.445 147.254 228.005 147.254 214.134C147.254 202.252 139.636 199.132 110.611 199.132C87.1135 199.132 85.6263 199.443 80.3379 205.479ZM704.286 231.65L668.045 233.073V199.132H705.873L704.286 231.65ZM1076.33 297.889H888.174V282.634C888.174 274.243 888.995 266.643 889.999 265.742C891.001 264.841 932.981 264.389 983.285 264.738L1074.75 265.371L1076.33 297.889ZM592.88 394.236C619.942 421.394 646.97 448.22 652.94 453.851L663.793 464.088L586.169 464.071L523.475 352.084L530.527 345.427C536.1 340.168 538.221 339.41 540.626 341.814C542.301 343.488 565.815 367.078 592.88 394.236ZM960.674 386.03C940.433 393.906 928.441 410.531 928.441 430.713C928.441 471.391 976.435 493.705 1014.47 470.71C1039.15 455.783 1044.02 421.63 1024.48 400.369C1009.26 383.795 982.101 377.693 960.674 386.03ZM698.246 406.135C706.737 411.832 713.682 417.475 713.682 418.675C713.682 419.874 709.153 426.327 703.615 433.011L693.548 445.168L646.709 400.258L666.596 384.876L674.703 390.325C679.162 393.323 689.755 400.436 698.246 406.135ZM236.514 404.348C240.395 408.375 241.211 413.992 241.211 436.656V464.088H203.628V437.434C203.628 422.774 204.914 408.623 206.487 405.986C212.434 396.019 227.684 395.185 236.514 404.348ZM994.332 419.419C1006.63 430.453 999.274 447.227 982.131 447.227C962.102 447.227 956.435 422.615 974.923 415.931C984.233 412.566 987.315 413.12 994.332 419.419ZM464.024 531.532H351.276V497.81H464.024V531.532ZM74.7729 729.044H37.19V713.79C37.19 705.398 37.9954 697.811 38.9806 696.929C39.9631 696.045 48.4193 695.322 57.772 695.322H74.7729V729.044ZM150.183 729.044H112.356V695.103L148.596 696.527L150.183 729.044ZM222.42 729.044H184.837V713.79C184.837 705.398 185.642 697.811 186.628 696.929C187.61 696.045 196.066 695.322 205.419 695.322H222.42V729.044ZM297.83 729.044H260.003V695.103L296.243 696.527L297.83 729.044ZM370.067 729.044H332.484V713.79C332.484 705.398 333.289 697.811 334.275 696.929C335.257 696.045 343.713 695.322 353.066 695.322H370.067V729.044ZM747.337 736.171C744.717 738.768 741.958 745.813 741.203 751.828C739.845 762.633 739.708 762.766 729.802 762.766C716.871 762.766 705.612 770.43 705.669 779.2C705.741 790.483 714.525 796.487 730.954 796.487C739.689 796.487 740.527 797.087 740.527 803.355C740.527 821.222 752.202 832.517 765.855 827.861C774.389 824.948 778.11 818.394 778.11 806.281V796.487H790.311C803.988 796.487 815.693 788.712 815.693 779.627C815.693 770.541 803.988 762.766 790.311 762.766H778.11V752.464C778.11 738.645 772.228 731.453 760.923 731.453C755.568 731.453 750.226 733.308 747.337 736.171ZM953.675 733.233C952.051 734.242 949.278 737.525 947.512 740.531C943.158 747.95 948.712 758.233 958.789 761.412C967.704 764.225 973.546 761.646 979.446 752.29C983.033 746.601 983.025 745.182 979.363 739.281C976.284 734.319 972.912 732.498 965.941 732.029C960.819 731.682 955.299 732.224 953.675 733.233ZM501.607 761.467C501.607 771.148 509.991 779.627 519.564 779.627C528.796 779.627 536.505 771.408 536.505 761.561C536.505 750.207 541.533 750.609 550.755 762.701C554.564 767.694 555.297 774.985 555.297 807.864V847.07H482.816V807.512C482.816 768.467 482.907 767.855 489.766 760.543C498.748 750.963 501.607 751.187 501.607 761.467ZM74.7729 796.487H37.19V762.766H74.7729V796.487ZM149.939 796.487H112.356V762.766H149.939V796.487ZM222.42 796.487H184.837V762.766H222.42V796.487ZM370.067 796.487H260.003V762.766H370.067V796.487ZM1007.77 768.448C1004 771.825 1000.92 776.857 1000.92 779.627C1000.92 782.397 1004 787.428 1007.77 790.805C1019.16 801.028 1036.71 794.247 1036.71 779.627C1036.71 765.006 1019.16 758.225 1007.77 768.448ZM954.467 799.163C936.618 808.48 950.564 834.448 969.876 827.861C982.928 823.407 985.597 811.421 975.541 802.401C968.486 796.068 962.234 795.11 954.467 799.163Z" fill="black"/>
</svg>
