<svg width="852" height="699" viewBox="0 0 852 699" fill="none" xmlns="http://www.w3.org/2000/svg">
<path d="M606.896 648.39L606.047 628.855C597.197 624.014 587.325 621.457 577.289 621.405C591.101 632.961 589.375 655.236 598.739 670.775C601.696 675.599 605.676 679.68 610.384 682.716C615.092 685.752 620.407 687.665 625.935 688.313L637.494 695.554C639.08 686.507 638.73 677.215 636.469 668.318C634.208 659.422 630.089 651.133 624.395 644.023C621.163 640.067 617.456 636.543 613.363 633.534C610.595 641.003 606.896 648.39 606.896 648.39Z" fill="#AFAFAF"/>
<path d="M843.336 472.314C844.397 535.283 808.724 594.526 751.194 621.822C749.765 622.5 748.325 623.16 746.876 623.802C712.081 639.202 669.605 642.144 638.201 621.841C611.831 604.794 597.336 574.668 574.784 552.887C530.513 510.13 461.562 504.898 399.56 512.09C337.558 519.281 275.481 536.439 213.763 529.331C112.032 517.616 25.3727 434.58 5.12067 334.694C-15.1312 234.807 29.6188 124.703 111.755 61.6418C193.892 -1.41939 308.676 -16.6325 404.35 18.5311C439.497 31.4489 473.416 51.8159 492.862 83.6232C509.734 111.222 514.301 144.976 530.243 173.132C555.306 217.399 604.601 241.72 652.828 258.604C701.056 275.487 752.251 288.078 792.914 318.664C832.397 348.363 842.396 416.533 843.336 472.314Z" fill="#AFAFAF"/>
<path d="M375.693 73.1185H686.147C692.622 73.1262 698.829 75.7615 703.407 80.4463C707.985 85.1311 710.561 91.4829 710.568 98.1083V256.217C710.561 262.843 707.985 269.194 703.407 273.879C698.829 278.564 692.622 281.199 686.147 281.207H375.693C369.218 281.201 363.009 278.567 358.431 273.881C353.852 269.196 351.277 262.843 351.272 256.217V98.1083C351.277 91.4823 353.852 85.1293 358.431 80.444C363.009 75.7587 369.218 73.1241 375.693 73.1185Z" fill="white"/>
<path d="M375.692 282.439H686.141C692.935 282.431 699.447 279.666 704.251 274.751C709.054 269.836 711.756 263.171 711.764 256.22V98.1063C711.756 91.1551 709.054 84.4908 704.251 79.5755C699.447 74.6602 692.935 71.8954 686.141 71.8875H375.692C368.899 71.8954 362.386 74.6602 357.583 79.5755C352.779 84.4908 350.077 91.1551 350.07 98.1063V256.22C350.077 263.171 352.779 269.836 357.583 274.751C362.386 279.666 368.899 282.431 375.692 282.439ZM686.141 74.3447C692.298 74.3519 698.2 76.8577 702.553 81.3123C706.907 85.7669 709.356 91.8066 709.363 98.1063V256.22C709.356 262.52 706.907 268.559 702.553 273.014C698.2 277.469 692.298 279.974 686.141 279.982H375.692C369.536 279.974 363.633 277.469 359.28 273.014C354.927 268.559 352.478 262.52 352.471 256.22V98.1063C352.478 91.8066 354.927 85.7669 359.28 81.3123C363.633 76.8577 369.536 74.3519 375.692 74.3447H686.141Z" fill="#6D6D6D"/>
<path d="M361.411 326.148H658.92C661.492 326.148 663.958 325.103 665.777 323.242C667.595 321.382 668.617 318.858 668.617 316.227C668.617 313.595 667.595 311.071 665.777 309.211C663.958 307.35 661.492 306.305 658.92 306.305H361.411C358.84 306.305 356.374 307.35 354.555 309.211C352.737 311.071 351.715 313.595 351.715 316.227C351.715 318.858 352.737 321.382 354.555 323.242C356.374 325.103 358.84 326.148 361.411 326.148Z" fill="#D9D9D9"/>
<path d="M563.545 231.536C565.308 231.531 567.04 231.07 568.581 230.194C570.229 229.285 571.604 227.932 572.558 226.283C573.511 224.633 574.008 222.749 573.993 220.833V132.591C573.993 130.678 573.491 128.8 572.539 127.153C571.587 125.506 570.22 124.151 568.581 123.23C566.943 122.308 565.092 121.854 563.223 121.915C561.354 121.976 559.536 122.549 557.957 123.575L476.156 167.696C474.672 168.66 473.451 169.992 472.605 171.568C471.758 173.144 471.315 174.914 471.315 176.712C471.315 178.51 471.758 180.28 472.605 181.856C473.451 183.432 474.672 184.764 476.156 185.728L557.957 229.849C559.625 230.945 561.563 231.531 563.545 231.536Z" fill="#AFAFAF"/>
<path d="M83.1576 187.542H212.891C215.597 187.539 218.191 186.438 220.104 184.48C222.018 182.522 223.094 179.868 223.097 177.099V111.025C223.094 108.257 222.018 105.602 220.104 103.644C218.191 101.686 215.597 100.585 212.891 100.582H83.1576C80.4518 100.585 77.8577 101.686 75.9445 103.644C74.0312 105.602 72.955 108.257 72.952 111.025V177.099C72.955 179.868 74.0312 182.522 75.9445 184.48C77.8577 186.438 80.4518 187.539 83.1576 187.542Z" fill="white"/>
<path d="M83.1575 188.771H212.891C215.915 188.767 218.814 187.537 220.953 185.349C223.091 183.16 224.294 180.194 224.297 177.099V111.025C224.294 107.931 223.091 104.964 220.953 102.776C218.814 100.588 215.915 99.357 212.891 99.3535H83.1575C80.1335 99.357 77.2342 100.588 75.0959 102.776C72.9576 104.964 71.7547 107.931 71.7513 111.025V177.099C71.7547 180.194 72.9576 183.16 75.0959 185.349C77.2342 187.537 80.1335 188.767 83.1575 188.771ZM212.891 101.811C215.279 101.813 217.568 102.785 219.256 104.513C220.944 106.24 221.893 108.582 221.896 111.025V177.099C221.893 179.542 220.944 181.885 219.256 183.612C217.568 185.339 215.279 186.311 212.891 186.314H83.1575C80.7701 186.311 78.4812 185.339 76.793 183.612C75.1048 181.885 74.1552 179.542 74.1526 177.099V111.025C74.1552 108.582 75.1048 106.24 76.793 104.513C78.4812 102.785 80.7701 101.813 83.1575 101.811H212.891Z" fill="#6D6D6D"/>
<path d="M104.471 219.874H191.865C194.435 219.871 196.898 218.825 198.714 216.964C200.53 215.104 201.55 212.582 201.55 209.952C201.55 207.323 200.53 204.801 198.714 202.941C196.898 201.08 194.435 200.034 191.865 200.031H104.471C101.899 200.031 99.4331 201.076 97.6148 202.937C95.7964 204.797 94.7749 207.321 94.7749 209.952C94.7749 212.584 95.7964 215.108 97.6148 216.968C99.4331 218.829 101.899 219.874 104.471 219.874Z" fill="#D9D9D9"/>
<path d="M161.975 167.576C162.711 167.574 163.435 167.381 164.079 167.015C164.768 166.635 165.343 166.07 165.741 165.381C166.14 164.691 166.347 163.904 166.341 163.103V126.228C166.341 125.428 166.131 124.644 165.733 123.955C165.335 123.267 164.764 122.701 164.079 122.316C163.395 121.931 162.621 121.741 161.84 121.767C161.059 121.792 160.299 122.031 159.64 122.46L125.456 140.898C124.836 141.301 124.325 141.857 123.972 142.516C123.618 143.175 123.433 143.914 123.433 144.666C123.433 145.417 123.618 146.156 123.972 146.815C124.325 147.474 124.836 148.03 125.456 148.433L159.64 166.871C160.336 167.329 161.147 167.574 161.975 167.576Z" fill="#3564EF"/>
<path d="M166.003 471.787H295.736C298.442 471.784 301.036 470.683 302.949 468.725C304.863 466.767 305.939 464.113 305.942 461.344V395.27C305.939 392.501 304.863 389.847 302.95 387.889C301.036 385.931 298.442 384.83 295.736 384.827H166.003C163.297 384.83 160.703 385.931 158.79 387.889C156.876 389.847 155.8 392.501 155.797 395.27V461.344C155.8 464.113 156.877 466.767 158.79 468.725C160.703 470.683 163.297 471.784 166.003 471.787Z" fill="white"/>
<path d="M166.003 473.016H295.736C298.761 473.012 301.66 471.781 303.798 469.593C305.936 467.405 307.139 464.438 307.143 461.344V395.27C307.139 392.176 305.936 389.209 303.798 387.021C301.66 384.833 298.761 383.602 295.736 383.598H166.003C162.979 383.602 160.08 384.833 157.941 387.021C155.803 389.209 154.6 392.176 154.597 395.27V461.344C154.6 464.438 155.803 467.405 157.941 469.593C160.08 471.781 162.979 473.012 166.003 473.016ZM295.736 386.055C298.124 386.058 300.413 387.03 302.101 388.757C303.789 390.485 304.739 392.827 304.741 395.27V461.344C304.739 463.787 303.789 466.129 302.101 467.857C300.413 469.584 298.124 470.556 295.736 470.559H166.003C163.615 470.556 161.326 469.584 159.638 467.857C157.95 466.129 157 463.787 156.998 461.344V395.27C157 392.827 157.95 390.485 159.638 388.757C161.326 387.03 163.615 386.058 166.003 386.055H295.736Z" fill="#6D6D6D"/>
<path d="M187.316 504.296H274.71C277.28 504.293 279.743 503.246 281.56 501.386C283.376 499.526 284.396 497.004 284.396 494.374C284.396 491.744 283.376 489.222 281.56 487.362C279.743 485.502 277.28 484.455 274.71 484.452H187.316C184.745 484.452 182.278 485.497 180.46 487.358C178.642 489.219 177.62 491.743 177.62 494.374C177.62 497.005 178.642 499.529 180.46 501.39C182.278 503.251 184.745 504.296 187.316 504.296Z" fill="#D9D9D9"/>
<path d="M245.136 453.841C245.872 453.839 246.596 453.646 247.24 453.28C247.929 452.9 248.503 452.335 248.902 451.645C249.3 450.956 249.508 450.169 249.502 449.368V412.493C249.502 411.693 249.292 410.908 248.894 410.22C248.496 409.532 247.925 408.966 247.24 408.581C246.555 408.196 245.782 408.006 245.001 408.031C244.22 408.057 243.46 408.296 242.801 408.725L208.616 427.162C207.997 427.565 207.486 428.122 207.132 428.781C206.779 429.439 206.593 430.179 206.593 430.93C206.593 431.682 206.779 432.421 207.132 433.08C207.486 433.738 207.997 434.295 208.616 434.698L242.801 453.136C243.497 453.594 244.307 453.838 245.136 453.841Z" fill="#3564EF"/>
<path d="M606.536 243.188L672.938 243.644C672.938 243.644 710.755 231.169 727.906 233.775L734.463 260.135L687.356 276.106L605.371 263.934C603.531 264.885 601.478 265.323 599.42 265.205C597.362 265.086 595.371 264.415 593.646 263.258C591.922 262.102 590.527 260.501 589.599 258.617C588.672 256.733 588.246 254.632 588.364 252.526C588.483 250.42 589.141 248.383 590.273 246.62C591.406 244.857 592.972 243.431 594.814 242.484C596.656 241.538 598.709 241.104 600.767 241.228C602.825 241.351 604.815 242.027 606.536 243.188Z" fill="#A0616A"/>
<path d="M687.918 278.659L766.697 255.474L773.87 228.128C775.738 224.479 776.572 220.369 776.277 216.261C775.982 212.153 774.571 208.211 772.201 204.881C765.476 195.561 760.219 204.819 750.674 211.052C733.942 212.262 692.179 226.885 675.226 243.816L676.561 254.224L687.918 278.659Z" fill="#3F3D56"/>
<path d="M619.375 256.338C621.137 256.332 622.87 255.871 624.411 254.995C626.059 254.086 627.434 252.733 628.388 251.084C629.341 249.434 629.837 247.55 629.823 245.634V157.392C629.823 155.479 629.32 153.601 628.368 151.954C627.417 150.307 626.05 148.952 624.411 148.031C622.772 147.11 620.922 146.655 619.053 146.716C617.184 146.777 615.365 147.35 613.787 148.376L531.985 192.497C530.502 193.461 529.28 194.793 528.434 196.369C527.588 197.945 527.144 199.715 527.144 201.513C527.144 203.311 527.588 205.081 528.434 206.657C529.28 208.233 530.502 209.565 531.985 210.529L613.787 254.65C615.454 255.746 617.393 256.332 619.375 256.338Z" fill="#3564EF"/>
<path d="M674.329 681.358L657.569 681.357L649.597 615.209L674.332 615.21L674.329 681.358Z" fill="#A0616A"/>
<path d="M678.604 675.758L673.887 675.758L655.47 668.094L645.599 675.757H645.598C640.019 675.757 634.67 678.025 630.725 682.061C626.781 686.098 624.564 691.572 624.564 697.28V697.979L678.603 697.981L678.604 675.758Z" fill="#2F2E41"/>
<path d="M793.674 665.213L777.799 670.712L749.514 610.677L772.943 602.559L793.674 665.213Z" fill="#A0616A"/>
<path d="M795.969 658.506L791.501 660.054L771.654 658.84L764.707 669.337L764.705 669.338C759.422 671.169 755.066 675.073 752.595 680.19C750.124 685.308 749.741 691.22 751.529 696.627L751.749 697.289L802.933 679.555L795.969 658.506Z" fill="#2F2E41"/>
<path d="M774.248 396.435C774.248 396.435 776.205 420.465 771.313 443.494C766.42 466.523 755.892 542.967 755.892 542.967C777.217 578.834 789.577 614.129 791.911 649.855L761.895 652.313L718.916 547.962L714.561 443.494L683.25 514.583L684.86 520.075C685.241 521.374 685.194 522.764 684.727 524.033C684.26 525.302 683.398 526.379 682.275 527.098C682.275 527.098 685.207 546.623 683.25 546.623C681.293 546.623 676.4 549.627 676.4 549.627C688.599 588.485 690.236 625.698 679.049 660.913L652.635 659.684L635.304 506.573L648.024 423.469L649.003 407.449L653.406 407.634L655.648 400.941L659.766 389.426L774.248 396.435Z" fill="#2F2E41"/>
<path d="M775.939 401.482L776.114 401.232C785.427 387.889 771.42 355.826 769.307 351.179L778.205 348.224L785.986 280.847L791.677 257.571C793.821 248.772 793.639 239.548 791.148 230.845C788.657 222.142 783.947 214.274 777.503 208.049L764.349 195.357L748.363 171.153H722.583L713.744 188.238C705.174 190.265 697.571 195.303 692.258 202.477C686.946 209.65 684.261 218.503 684.671 227.494L686.675 272.302L678.832 328.093L678.827 338.19L665.212 361.033L662.246 375.195C661.018 376.852 652.917 387.906 652.917 390.928C652.917 391.382 653.244 391.82 653.946 392.307C659.467 396.132 689.984 403.932 703.49 398.401C717.877 392.515 775.066 401.345 775.642 401.435L775.939 401.482Z" fill="#3F3D56"/>
<path d="M432.119 697.537C432.119 697.728 432.163 697.918 432.251 698.095C432.339 698.273 432.468 698.434 432.632 698.57C432.795 698.705 432.989 698.813 433.202 698.887C433.416 698.961 433.645 698.999 433.876 699H850.232C850.701 699 851.151 698.846 851.482 698.571C851.814 698.297 852 697.925 852 697.537C852 697.149 851.814 696.777 851.482 696.502C851.151 696.228 850.701 696.074 850.232 696.074H433.887C433.42 696.073 432.971 696.225 432.639 696.498C432.308 696.771 432.121 697.141 432.119 697.528V697.537Z" fill="#6D6D6D"/>
<path d="M732.143 163.339C713.287 163.339 698.001 147.698 698.001 128.403C698.001 109.108 713.287 93.4663 732.143 93.4663C750.999 93.4663 766.285 109.108 766.285 128.403C766.285 147.698 750.999 163.339 732.143 163.339Z" fill="#A0616A"/>
<path d="M605.402 155.225L658.078 196.596C658.078 196.596 695.589 210.003 707.727 222.673L697.409 247.741L650.429 231.384L592.237 171.047C590.209 170.669 588.314 169.751 586.742 168.386C585.171 167.02 583.98 165.255 583.287 163.268C582.594 161.281 582.425 159.143 582.797 157.068C583.169 154.993 584.068 153.055 585.405 151.449C586.741 149.843 588.468 148.625 590.41 147.919C592.353 147.212 594.443 147.042 596.47 147.425C598.497 147.808 600.39 148.73 601.958 150.1C603.526 151.469 604.714 153.237 605.402 155.225Z" fill="#A0616A"/>
<path d="M649.371 233.766L722.548 255.692L747.707 246.556C751.349 244.801 754.438 242.038 756.626 238.581C758.814 235.123 760.013 231.108 760.088 226.99C760.223 215.405 750.57 219.54 739.284 218.615C725.229 209.248 683.304 195.116 659.801 198.146L654.727 207.27L649.371 233.766Z" fill="#3F3D56"/>
<path d="M708.731 88.066C711.178 87.9916 710.338 83.2719 712.31 81.7663C712.319 81.812 712.329 81.8575 712.34 81.903C712.598 82.9225 713.17 83.8302 713.97 84.4923C714.771 85.1544 715.758 85.536 716.786 85.5809C717.814 85.6258 718.83 85.3316 719.682 84.7417C720.535 84.1517 721.18 83.2972 721.522 82.3039C721.849 81.1549 722.441 80.1031 723.248 79.2369C724.055 78.3707 725.053 77.7154 726.159 77.3262C726.282 81.7008 729.516 85.4975 733.374 87.3869C737.231 89.2764 741.63 89.5908 745.906 89.6555C750.183 89.7202 754.521 89.5736 758.668 90.6445C762.815 91.7153 766.848 94.233 768.62 98.2162C770.392 102.199 769.128 107.683 765.253 109.537C768.255 109.554 770.801 112.088 771.839 114.97C772.69 117.926 772.912 121.034 772.49 124.085C771.646 135.382 769.59 147.545 761.551 155.336C755.424 161.274 746.654 163.666 738.215 163.631C729.777 163.596 731.261 162.803 723.101 160.599C723.101 160.599 715.344 137.843 717.297 135.605C719.251 133.366 720.873 130.502 720.52 127.522C720.166 124.543 717.037 121.874 714.322 123.008C714.779 121.814 715.123 121.587 715.338 121.647C715.201 121.308 715.081 120.961 714.979 120.609C714.468 118.814 713.548 117.169 712.294 115.809C711.041 114.449 709.49 113.412 707.769 112.785C706.03 112.208 704.161 112.189 702.411 112.73C700.662 113.272 699.117 114.349 697.983 115.816C689.048 107.242 694.591 88.4957 708.731 88.066Z" fill="#2F2E41"/>
<path d="M420.874 73.1185V106.487C420.874 108.146 423.707 109.534 427.526 109.915C427.558 109.913 427.591 109.917 427.622 109.927C428.258 109.977 428.93 110.013 429.615 110.013C431.72 110.053 433.814 109.703 435.798 108.981C435.978 108.908 436.158 108.822 436.338 108.748C436.506 108.65 436.687 108.564 436.855 108.465C437.803 107.888 438.355 107.212 438.355 106.487V73.1185H420.874Z" fill="#6D6D6D"/>
<path d="M155.5 483.638C147.295 483.638 140.645 476.832 140.645 468.437C140.645 460.042 147.295 453.236 155.5 453.236C163.704 453.236 170.355 460.042 170.355 468.437C170.355 476.832 163.704 483.638 155.5 483.638Z" fill="#3F3D56"/>
<path d="M156.612 474.512C156.643 474.512 156.675 474.511 156.707 474.509C156.987 474.496 157.26 474.42 157.509 474.288C157.757 474.156 157.975 473.97 158.147 473.744L160.629 470.478C160.786 470.272 160.902 470.036 160.969 469.784C161.037 469.532 161.056 469.269 161.024 469.01C160.992 468.751 160.911 468.501 160.785 468.274C160.659 468.046 160.49 467.847 160.289 467.687L160.199 467.616C159.998 467.455 159.767 467.337 159.521 467.267C159.275 467.198 159.018 467.179 158.765 467.211C158.511 467.244 158.267 467.327 158.045 467.456C157.823 467.585 157.628 467.758 157.471 467.964C157.346 468.129 157.187 468.264 157.006 468.36C156.825 468.457 156.626 468.512 156.422 468.522C156.218 468.532 156.014 468.497 155.825 468.419C155.636 468.341 155.465 468.223 155.324 468.071L150.284 462.626C149.929 462.244 149.441 462.021 148.926 462.007C148.41 461.992 147.911 462.188 147.536 462.55L147.453 462.63C147.268 462.81 147.119 463.025 147.015 463.264C146.911 463.502 146.854 463.759 146.847 464.02C146.84 464.282 146.884 464.541 146.975 464.785C147.066 465.029 147.204 465.252 147.379 465.442L155.201 473.891C155.383 474.087 155.602 474.243 155.844 474.35C156.087 474.457 156.348 474.512 156.612 474.512Z" fill="white"/>
<path d="M73.855 201.059C65.6508 201.059 59 194.253 59 185.858C59 177.463 65.6508 170.657 73.855 170.657C82.0591 170.657 88.7099 177.463 88.7099 185.858C88.7099 194.253 82.0591 201.059 73.855 201.059Z" fill="#3F3D56"/>
<path d="M74.9671 191.933C74.9988 191.933 75.0304 191.932 75.0621 191.93C75.3419 191.917 75.6155 191.841 75.864 191.709C76.1126 191.577 76.3303 191.391 76.5022 191.165L78.9847 187.899C79.1415 187.693 79.257 187.457 79.3247 187.205C79.3924 186.953 79.411 186.69 79.3794 186.431C79.3477 186.172 79.2666 185.922 79.1404 185.695C79.0142 185.468 78.8456 185.268 78.6441 185.108L78.5547 185.037C78.3533 184.876 78.1228 184.758 77.8766 184.689C77.6305 184.619 77.3734 184.6 77.12 184.633C76.8666 184.665 76.6219 184.748 76.4 184.877C76.1781 185.007 75.9833 185.179 75.8266 185.386C75.7012 185.55 75.5425 185.685 75.3614 185.782C75.1803 185.878 74.981 185.933 74.7772 185.943C74.5734 185.953 74.3698 185.918 74.1804 185.84C73.991 185.763 73.8202 185.644 73.6798 185.492L68.6393 180.047C68.2844 179.665 67.7959 179.442 67.2808 179.428C66.7656 179.413 66.2659 179.609 65.8913 179.971L65.8087 180.051C65.6233 180.231 65.4744 180.446 65.3704 180.685C65.2663 180.923 65.2092 181.18 65.2023 181.442C65.1954 181.703 65.2389 181.963 65.3302 182.207C65.4215 182.45 65.5589 182.674 65.7345 182.863L73.5567 191.312C73.7382 191.508 73.9568 191.664 74.1993 191.771C74.4418 191.878 74.7031 191.933 74.9671 191.933Z" fill="white"/>
</svg>
