<svg width="1400" height="1321" viewBox="0 0 1400 1321" fill="none" xmlns="http://www.w3.org/2000/svg">
<path d="M1374.52 1106.26C1344.86 1214.83 1253.87 1298.66 1141.26 1316.75C1138.47 1317.2 1135.66 1317.61 1132.85 1317.99C1065.29 1327.03 990.758 1310.85 946.889 1260.33C910.053 1217.91 900.181 1158.98 872.279 1110.34C817.505 1014.86 701.516 971.433 591.267 952.796C481.018 934.158 365.657 932.583 263.047 889.553C93.9111 818.626 -13.6374 632.862 1.46967 451.363C16.5771 269.863 148.607 103.308 321.425 36.1455C494.243 -31.0168 699.296 0.227625 846.288 108.359C900.286 148.082 948.45 199.974 965.995 264.263C981.218 320.045 972.198 380.241 985.542 436.514C1006.52 524.987 1079.15 591.344 1153.67 644.407C1228.19 697.47 1309.96 744.65 1364.61 817.444C1417.68 888.127 1400.79 1010.09 1374.52 1106.26Z" fill="#50B3DB"/>
</svg>
