<svg width="784" height="984" viewBox="0 0 784 984" fill="none" xmlns="http://www.w3.org/2000/svg">
<path fill-rule="evenodd" clip-rule="evenodd" d="M279.835 2.303C276.86 3.877 274.754 5.984 273.181 8.96C270.948 13.185 270.879 14.094 270.879 39.5C270.879 64.906 270.948 65.815 273.181 70.04C274.754 73.016 276.86 75.123 279.835 76.697C284.058 78.931 284.966 79 310.361 79C335.755 79 336.664 78.931 340.887 76.697C343.862 75.123 345.968 73.016 347.541 70.04C349.774 65.815 349.843 64.906 349.843 39.5C349.843 14.094 349.774 13.185 347.541 8.96C345.968 5.984 343.862 3.877 340.887 2.303C336.664 0.0689995 335.755 0 310.361 0C284.966 0 284.058 0.0689995 279.835 2.303ZM503.229 3.455L500.775 5.909V37V68.091L503.229 70.545L505.682 73H536.759H567.836L570.289 70.545L572.743 68.091V37V5.909L570.289 3.455L567.836 1H536.759H505.682L503.229 3.455ZM754.162 2.666C750.894 3.545 745.78 7.879 744.041 11.241C743.15 12.967 742.291 16.418 742.134 18.909C741.977 21.401 741.379 23.596 740.802 23.789C738.892 24.426 727.266 21.011 721.079 17.995C717.726 16.361 712.804 12.994 710.142 10.513C704.643 5.391 703.724 5.772 703.699 13.185C703.681 18.928 704.671 21.651 708.127 25.361C711.327 28.797 710.878 29.613 706.604 28.122L703.426 27.014L703.993 30.516C704.783 35.384 708 39.521 712.669 41.674C717.589 43.944 717.733 45 713.123 45H709.569L711.365 48.043C713.511 51.677 716.747 53.936 722.049 55.502L725.963 56.658L723.07 58.708C719.821 61.009 712.167 63.676 706.252 64.567C701.462 65.288 702.512 66.17 711.536 69.005C719.065 71.369 732.582 71.669 740.168 69.639C760.211 64.274 776.652 43.375 776.652 23.259C776.652 19.574 777.165 18.487 780.15 15.866C784.28 12.238 784.663 10.664 781.085 12.025C775.881 14.004 775.295 13.138 779.035 8.997C781.023 6.796 782.649 4.793 782.649 4.548C782.649 4.303 781.089 4.754 779.183 5.551C774.449 7.53 772.079 7.374 768.679 4.859C765.777 2.713 758.229 1.572 754.162 2.666ZM45.8255 8.902C38.7376 9.693 34.9963 11.526 32.4125 15.471C29.8176 19.433 28.4792 38.261 29.8196 51.948C31.0381 64.393 32.2975 67.34 37.4832 69.881C42.0741 72.131 72.4055 73.382 93.675 72.199C117.928 70.85 119.143 70.061 121.088 54.398C122.294 44.676 121.621 24.867 119.871 18.627C118.624 14.18 115.115 10.521 111.175 9.558C107.155 8.575 53.568 8.037 45.8255 8.902ZM320.771 13.25C322.96 18.298 326.507 21.814 330.471 22.869C333.123 23.574 333.374 24.049 333.654 28.873L333.958 34.111L330.156 33.422C328.065 33.043 325.116 32.106 323.605 31.341L320.856 29.949L320.85 40.224C320.844 52.813 319.756 56.999 315.169 62.079C309.094 68.805 298.647 70.363 291.413 65.621C283.381 60.355 280.341 48.279 284.973 40.035C287.532 35.479 292.088 32.191 297.549 30.959C302.985 29.732 303.864 30.498 303.864 36.468C303.864 41.515 303.766 41.704 301.398 41.251C299.598 40.907 298.115 41.598 295.9 43.813C292.48 47.235 292.215 48.835 294.378 53.02C297.313 58.696 302.476 59.542 306.939 55.077L309.861 52.154V30.577V9H314.395C318.773 9 318.991 9.146 320.771 13.25ZM555.921 12.667C562.22 16.348 563.23 19.64 563.239 36.5C563.248 54.172 562.044 57.932 555.251 61.437C551.753 63.242 549.442 63.5 536.759 63.5C520.13 63.5 515.889 62.2 512.298 56C510.495 52.887 510.274 50.786 510.301 37C510.326 24.217 510.636 20.932 512.071 18.259C515.734 11.439 521.02 9.957 539.963 10.44C550.237 10.702 553.285 11.127 555.921 12.667ZM522.021 16.07C516.504 17.745 515.314 20.832 514.922 34.488C514.292 56.445 515.777 58.316 534.248 58.847C556.196 59.477 558.066 57.992 558.596 39.512C559.235 17.252 557.854 15.603 538.305 15.293C531.133 15.179 523.805 15.528 522.021 16.07ZM553.572 22.754C553.979 25.621 551.163 26.838 549.04 24.714C546.917 22.59 548.133 19.773 550.999 20.18C552.449 20.386 553.366 21.303 553.572 22.754ZM542.55 24.992C545.957 26.539 547.268 27.905 548.91 31.621C550.716 35.704 550.828 36.807 549.79 40.272C548.272 45.341 545.07 48.526 539.947 50.062C536.29 51.158 535.423 51.043 531.081 48.888C527.108 46.916 525.931 45.672 524.332 41.75C522.416 37.05 522.416 36.95 524.338 32.25C525.894 28.444 527.165 27.053 530.732 25.25C536.121 22.526 537.073 22.506 542.55 24.992ZM77.967 32.953C83.6325 36.228 88.6642 39.304 89.15 39.79C89.8617 40.502 68.3094 54 66.4592 54C66.1903 54 65.9704 47.925 65.9704 40.5C65.9704 33.075 66.3522 27 66.819 27C67.2858 27 72.3026 29.679 77.967 32.953ZM530.685 30.923C527.938 33.671 527.595 34.578 528.108 37.737C528.937 42.846 531.86 45.455 536.759 45.455C542.164 45.455 545.211 42.407 545.211 37C545.211 32.099 542.603 29.174 537.496 28.345C534.338 27.832 533.432 28.175 530.685 30.923ZM186.916 200C186.916 218.333 186.986 219 188.915 219C190.844 219 190.914 218.333 190.914 200C190.914 181.667 190.844 181 188.915 181C186.986 181 186.916 181.667 186.916 200ZM196.912 200C196.912 218.333 196.982 219 198.911 219C200.84 219 200.91 218.333 200.91 200C200.91 181.667 200.84 181 198.911 181C196.982 181 196.912 181.667 196.912 200ZM288.87 200C288.87 218.333 288.94 219 290.87 219C292.799 219 292.869 218.333 292.869 200C292.869 181.667 292.799 181 290.87 181C288.94 181 288.87 181.667 288.87 200ZM299.866 200C299.866 216.222 300.084 219 301.365 219C302.645 219 302.864 216.222 302.864 200C302.864 183.778 302.645 181 301.365 181C300.084 181 299.866 183.778 299.866 200ZM438.803 200C438.803 216.222 439.022 219 440.303 219C441.135 219 441.802 218.111 441.802 217V215L443.801 217C447.471 220.672 452.861 219.123 454.691 213.872C456.526 208.606 456.068 198.959 453.807 195.25C452.24 192.678 451.163 192 448.642 192C446.891 192 444.636 192.745 443.63 193.655C441.875 195.244 441.802 195.023 441.802 188.155C441.802 182.462 441.496 181 440.303 181C439.022 181 438.803 183.778 438.803 200ZM540.758 200.073C540.758 217.699 540.89 219.121 542.507 218.813C544.004 218.527 544.328 216.94 544.756 207.785C545.035 201.82 545.757 196.591 546.39 195.961C547.014 195.339 548.588 194.981 549.888 195.165C552.202 195.493 552.258 195.75 552.534 207.25C552.796 218.175 552.954 219 554.783 219C556.624 219 556.75 218.272 556.75 207.611C556.75 198.109 556.45 195.851 554.941 193.986C552.81 191.354 548.474 191.038 545.942 193.331C544.293 194.824 544.217 194.525 544.589 187.956C544.958 181.419 544.854 181 542.87 181C540.793 181 540.758 181.327 540.758 200.073ZM641.077 183.493C640.731 184.396 640.927 185.614 641.512 186.2C643.036 187.724 645.92 186.331 645.523 184.265C645.08 181.963 641.877 181.407 641.077 183.493ZM146.934 201.073C146.934 217.747 147.07 219.121 148.683 218.812C150.139 218.535 150.482 217.177 150.724 210.739L151.016 203H155.472C158.767 203 159.928 202.609 159.928 201.5C159.928 200.389 158.762 200 155.43 200H150.932V193V186H155.93C159.706 186 160.928 185.633 160.928 184.5C160.928 183.31 159.484 183 153.931 183H146.934V201.073ZM506.773 188.64C506.773 190.092 505.985 191.92 505.024 192.703C503.751 193.738 503.614 194.267 504.524 194.646C505.401 195.012 505.773 198.05 505.773 204.861C505.773 216.007 507.148 219.331 511.541 218.807C514.845 218.413 515.597 216.255 512.578 215.827C510.362 215.513 510.26 215.097 509.986 205.25L509.701 195H512.235C513.822 195 514.769 194.439 514.769 193.5C514.769 192.567 513.826 192 512.27 192C510.16 192 509.771 191.533 509.771 189C509.771 187 509.272 186 508.272 186C507.318 186 506.773 186.96 506.773 188.64ZM528.763 188.64C528.763 190.092 527.975 191.92 527.014 192.703C525.741 193.738 525.604 194.267 526.514 194.646C527.392 195.012 527.763 198.05 527.763 204.861C527.763 216.007 529.138 219.331 533.531 218.807C536.835 218.413 537.587 216.255 534.568 215.827C532.352 215.513 532.25 215.097 531.976 205.25C531.706 195.515 531.794 195 533.726 195C534.867 195 535.76 194.342 535.76 193.5C535.76 192.667 534.871 192 533.761 192C532.205 192 531.762 191.333 531.762 189C531.762 187 531.262 186 530.262 186C529.308 186 528.763 186.96 528.763 188.64ZM629.718 187.777C629.718 188.755 628.958 190.639 628.03 191.965C626.834 193.674 626.689 194.49 627.531 194.771C628.344 195.042 628.718 198.386 628.718 205.392C628.718 217.052 629.66 219.365 634.188 218.836C637.725 218.422 638.678 216.274 635.523 215.827C633.307 215.513 633.205 215.097 632.931 205.25C632.66 195.515 632.748 195 634.68 195C635.822 195 636.714 194.342 636.714 193.5C636.714 192.667 635.826 192 634.715 192C633.16 192 632.716 191.333 632.716 189C632.716 187 632.216 186 631.217 186C630.392 186 629.718 186.8 629.718 187.777ZM669.185 189.068C668.815 190.755 667.88 192.378 667.107 192.675C665.242 193.391 665.307 195 667.201 195C668.434 195 668.7 196.785 668.7 205.066C668.7 216.706 669.529 219 673.733 219C677.135 219 677.858 216.537 674.697 215.71C672.865 215.231 672.698 214.346 672.698 205.094C672.698 195.667 672.83 195 674.697 195C675.808 195 676.697 194.333 676.697 193.5C676.697 192.667 675.808 192 674.697 192C673.142 192 672.698 191.333 672.698 189C672.698 184.983 670.071 185.033 669.185 189.068ZM169.242 192.47C165.674 194.014 163.941 198.356 163.932 205.782C163.911 221.737 179.494 224.258 181.448 208.615C182.947 196.61 177.212 189.023 169.242 192.47ZM211.925 192.28C207.962 194.294 206.8 197.655 207.123 206.174C207.371 212.684 207.782 214.238 209.834 216.424C211.441 218.135 213.311 219 215.403 219C217.495 219 219.366 218.135 220.973 216.424C223.022 214.241 223.439 212.673 223.697 206.174C223.949 199.839 223.647 197.933 221.966 195.25C220.847 193.463 219.287 192 218.498 192C217.71 192 216.467 191.78 215.735 191.51C215.003 191.241 213.288 191.587 211.925 192.28ZM272.378 191.89C270.729 192.236 269.492 192.853 269.629 193.26C269.766 193.667 269.879 194.419 269.879 194.93C269.879 195.488 271.078 195.516 272.877 195C276.604 193.931 278.875 195.851 278.875 200.071C278.875 202.733 278.567 203 275.487 203C270.249 203 267.38 205.922 267.38 211.258C267.38 213.697 267.998 216.437 268.751 217.346C270.464 219.409 275.218 219.499 276.876 217.5C277.561 216.675 278.515 216 278.997 216C279.48 216 279.874 216.675 279.874 217.5C279.874 218.325 280.587 219 281.458 219C282.832 219 282.997 217.425 282.707 207.033C282.357 194.503 281.759 192.784 277.376 191.737C276.276 191.475 274.027 191.543 272.378 191.89ZM326.853 191.793C326.029 192.05 324.566 192.947 323.605 193.785C322.03 195.158 321.856 195.145 321.856 193.655C321.856 192.745 321.181 192 320.356 192C319.098 192 318.857 194.167 318.857 205.5C318.857 218.333 318.956 219 320.856 219C322.726 219 322.855 218.333 322.855 208.691C322.855 197.248 323.851 194.582 327.909 195.155C330.323 195.496 330.355 195.64 330.634 207.25C330.896 218.175 331.054 219 332.883 219C334.723 219 334.85 218.273 334.85 207.723C334.85 199.421 334.462 195.891 333.382 194.347C331.782 192.064 329.211 191.058 326.853 191.793ZM394.073 192.515C391.21 193.739 390.825 194.36 390.825 197.761C390.825 202.065 391.832 203.669 396.572 206.913C402.3 210.832 399.948 217.619 393.682 215.253C390.911 214.206 390.724 214.281 391.014 216.314C391.464 219.487 398.827 219.994 401.765 217.055C405.448 213.37 404.504 209.318 398.718 203.997C392.332 198.123 392.281 195.458 398.559 195.583C401.129 195.634 402.925 195.166 403.232 194.365C403.507 193.65 403.414 192.887 403.025 192.67C400.704 191.376 396.894 191.31 394.073 192.515ZM421.811 191.906C417.768 193.013 418.713 195.361 423.233 195.435C426.698 195.492 427.246 195.84 427.939 198.414C428.962 202.219 428.366 203 424.44 203C419.632 203 416.813 206.099 416.813 211.384C416.813 218.327 422.365 221.446 426.809 217L428.808 215V217C428.808 218.111 429.474 219 430.307 219C432.699 219 432.477 196.998 430.057 194.198C427.947 191.756 425.172 190.985 421.811 191.906ZM466.148 192.016C462.196 193.566 460.793 196.911 460.793 204.788C460.793 214.957 463.179 218.904 469.366 218.968C474.362 219.02 477.114 215.211 477.601 207.567C478.012 201.112 476.67 194.935 474.486 193.218C472.555 191.7 468.46 191.109 466.148 192.016ZM596.732 191.92C592.65 193.015 593.567 195.55 597.909 195.176C601.845 194.837 603.729 196.701 603.729 200.934C603.729 202.633 603.101 203 600.186 203C593.256 203 589.25 211.005 593.291 216.777C595.129 219.404 599.847 219.77 601.782 217.437C602.959 216.019 603.161 216.019 603.954 217.437C606.004 221.103 606.728 218.431 606.728 207.191C606.728 199.249 606.319 194.868 605.478 193.811C603.935 191.87 600.049 191.03 596.732 191.92ZM654.706 191.917C651.628 192.739 649.424 197.018 650.293 200.483C650.666 201.971 652.797 204.342 655.322 206.08C658.382 208.186 659.704 209.799 659.704 211.426C659.704 215.086 657.271 216.509 653.167 215.249C650.11 214.311 649.709 214.396 649.709 215.987C649.709 218.093 651.636 219.006 656.038 218.985C659.764 218.967 660.998 218.272 662.553 215.316C664.708 211.221 663.881 208.852 658.602 203.997C652.216 198.123 652.165 195.458 658.443 195.583C661.013 195.634 662.809 195.166 663.116 194.365C663.391 193.65 663.298 192.887 662.909 192.67C661.153 191.691 656.985 191.308 654.706 191.917ZM226.952 192.75C226.982 193.162 228.245 199.125 229.758 206C232.15 216.87 232.782 218.54 234.606 218.807C236.849 219.135 236.84 219.161 240 203L241.272 196.5L243.074 206.5C245.288 218.791 245.367 219 247.787 219C249.37 219 249.97 217.898 250.912 213.25C251.553 210.088 252.878 204.012 253.854 199.75C255.554 192.334 255.554 192 253.859 192C252.461 192 251.734 193.631 250.408 199.75C247.269 214.229 247.518 214.087 245.474 202.576C243.76 192.922 243.405 192 241.401 192C239.44 192 239.019 192.936 237.461 200.75C236.501 205.563 235.474 210.175 235.179 211C234.883 211.825 233.752 207.887 232.667 202.25C230.989 193.546 230.406 192 228.794 192C227.752 192 226.922 192.338 226.952 192.75ZM343.251 194.104C341.782 195.728 341.268 198.083 341.002 204.415C340.679 212.107 340.825 212.821 343.34 215.811C345.367 218.22 346.836 219 349.35 219C353.991 219 355.84 218.105 355.84 215.858C355.84 214.261 355.508 214.108 353.907 214.965C349.327 217.417 345.41 215.077 344.233 209.184L343.596 206H350.348H357.1L356.595 201.514C355.835 194.775 353.613 192 348.975 192C346.362 192 344.553 192.665 343.251 194.104ZM359.839 193.159C359.839 193.877 361.052 200.004 362.535 206.776C364.974 217.909 365.429 219.059 367.283 218.794C369.025 218.544 369.654 216.988 371.45 208.5C372.614 203 373.832 199.175 374.159 200C374.668 201.287 377.831 217.377 377.831 218.68C377.831 218.933 378.83 218.995 380.052 218.82C382.021 218.536 382.581 217.142 385.002 206.5C388.268 192.148 388.298 191.762 386.113 192.183C384.797 192.437 383.91 194.94 382.292 202.957L380.183 213.4L378.449 204.45C376.111 192.38 375.97 192 373.832 192C371.696 192 371.563 192.357 369.19 204.5L367.431 213.5L365.353 203.008C363.75 194.914 362.882 192.44 361.557 192.184C360.612 192.002 359.839 192.441 359.839 193.159ZM483.783 203.277C483.783 211.866 484.154 215.085 485.339 216.777C487.161 219.379 491.889 219.777 493.788 217.489C494.901 216.147 495.178 216.165 496.257 217.642C498.89 221.244 499.776 218.047 499.776 204.941C499.776 192.872 499.647 192 497.868 192C496.132 192 495.929 192.954 495.619 202.582C495.326 211.669 495.004 213.365 493.338 214.582C488.437 218.164 486.782 214.845 486.782 201.435C486.782 193.715 486.509 192 485.282 192C484.038 192 483.783 193.92 483.783 203.277ZM564.911 194.519C560.814 199.73 561.32 212.572 565.799 217.053C568.832 220.087 577.741 219.535 577.741 216.314C577.741 215.2 577.015 215.001 574.764 215.495C570.704 216.387 568.266 215.438 566.898 212.434C564.364 206.87 565.106 206 572.379 206H579.012L578.371 201.315C577.416 194.348 575.506 192 570.794 192C567.813 192 566.423 192.595 564.911 194.519ZM613.725 205.5C613.725 218.333 613.824 219 615.724 219C617.587 219 617.723 218.333 617.723 209.223C617.723 198.708 619.04 195 622.778 195C623.846 195 624.72 194.325 624.72 193.5C624.72 191.15 620.183 191.688 618.397 194.25L616.828 196.5L616.775 194.25C616.745 192.94 616.097 192 615.224 192C613.966 192 613.725 194.167 613.725 205.5ZM641.712 205.5C641.712 216.833 641.953 219 643.212 219C644.47 219 644.711 216.833 644.711 205.5C644.711 194.167 644.47 192 643.212 192C641.953 192 641.712 194.167 641.712 205.5ZM176.633 198C178.253 201.221 178.252 209.782 176.631 213C174.949 216.339 171.553 216.738 169.521 213.834C167.697 211.23 167.347 201.649 168.924 197.499C170.244 194.029 174.784 194.324 176.633 198ZM219.044 197.25C219.71 198.488 220.232 202.356 220.203 205.848C220.142 213.128 217.841 216.75 214.044 215.544C210.12 214.298 208.837 202.735 211.972 196.875C213.377 194.248 217.545 194.469 219.044 197.25ZM351.585 196.25C352.129 196.938 352.797 198.738 353.069 200.25C353.553 202.941 353.459 203 348.705 203C343.438 203 343.31 202.836 344.943 198.149C346.112 194.795 349.639 193.786 351.585 196.25ZM450.763 196.934C452.486 200.155 452.058 212.054 450.143 214.171C448.01 216.53 446.545 216.481 444.278 213.975C442.074 211.538 441.65 200.785 443.618 197.25C445.183 194.438 449.33 194.255 450.763 196.934ZM472.753 196.934C473.322 197.998 473.788 201.978 473.788 205.779C473.788 211.334 473.41 213.032 471.86 214.435C467.298 218.565 463.027 212.108 464.134 202.756C464.458 200.024 465.243 197.161 465.879 196.394C467.557 194.371 471.55 194.684 472.753 196.934ZM573.708 196.934C574.277 197.998 574.742 199.798 574.742 200.934C574.742 202.716 574.124 203 570.244 203C565.395 203 564.93 202.28 566.721 197.565C567.92 194.409 572.152 194.027 573.708 196.934ZM278.875 208.845C278.875 213.117 276.022 216.654 273.392 215.644C269.837 214.279 270.373 207.544 274.157 206.02C278.181 204.4 278.875 204.816 278.875 208.845ZM428.612 207.235C429.183 210.174 426.048 216 423.896 216C419.133 216 418.934 207.858 423.655 206.135C426.949 204.933 428.221 205.216 428.612 207.235ZM603.118 209.336C602.982 213.72 601.138 216.201 598.32 215.798C596.603 215.553 596.233 214.794 596.233 211.53C596.233 208.298 596.697 207.324 598.732 206.295C602.268 204.506 603.245 205.184 603.118 209.336ZM333.031 274.155C333.261 275.701 342.918 283.098 367.195 300.32C400.189 323.726 401.101 324.293 403.494 322.84C404.844 322.02 420.313 311.138 437.869 298.656C461.384 281.937 469.789 275.44 469.789 273.981C469.789 272.868 469.118 272 468.258 272C467.416 272 452.176 282.35 434.391 295C416.606 307.65 401.766 318 401.413 318C401.059 318 386.184 307.65 368.357 295C350.529 282.35 335.216 272 334.327 272C333.241 272 332.816 272.705 333.031 274.155ZM126.943 381.5C126.943 397.278 127.164 400 128.442 400C129.721 400 129.942 397.278 129.942 381.5C129.942 365.722 129.721 363 128.442 363C127.164 363 126.943 365.722 126.943 381.5ZM345.845 381.5C345.845 399.333 345.917 400 347.844 400C349.771 400 349.843 399.333 349.843 381.5C349.843 363.667 349.771 363 347.844 363C345.917 363 345.845 363.667 345.845 381.5ZM419.812 381.5C419.812 397.278 420.033 400 421.311 400C422.589 400 422.81 397.278 422.81 381.5C422.81 365.722 422.589 363 421.311 363C420.033 363 419.812 365.722 419.812 381.5ZM520.931 369.502C521.115 373.079 521.041 375.877 520.766 375.72C515.95 372.979 514.669 372.715 512.309 373.979C509.131 375.681 507.772 379.789 507.772 387.699C507.772 399.228 513.361 404.552 519.453 398.826C521.417 396.979 521.766 396.904 521.766 398.326C521.766 399.247 522.441 400 523.265 400C524.544 400 524.765 397.278 524.765 381.5C524.765 363.414 524.718 363 522.681 363C520.746 363 520.621 363.471 520.931 369.502ZM647.71 381.5C647.71 396.473 647.969 400 649.075 400C650.107 400 650.558 397.559 650.92 390.038C651.43 379.444 652.423 377 656.221 377C659.292 377 659.704 378.546 659.704 390.082C659.704 399.47 659.816 400 661.789 400C663.802 400 663.863 399.6 663.538 388.41C663.227 377.639 663.036 376.684 660.843 374.91C657.815 372.459 655.626 372.495 652.896 375.039L650.708 377.078V370.039C650.708 364.449 650.399 363 649.209 363C647.93 363 647.71 365.722 647.71 381.5ZM690.69 381.5C690.69 399.333 690.762 400 692.689 400C694.617 400 694.688 399.333 694.688 381.5C694.688 363.667 694.617 363 692.689 363C690.762 363 690.69 363.667 690.69 381.5ZM18.3558 365.493C18.0099 366.396 18.2058 367.614 18.7916 368.2C20.3149 369.724 23.1996 368.331 22.8018 366.265C22.359 363.963 19.1564 363.407 18.3558 365.493ZM136.939 366.573C136.939 369.856 140.282 369.564 140.757 366.24C140.999 364.539 140.578 364 139.008 364C137.451 364 136.939 364.638 136.939 366.573ZM723.855 366.24C724.33 369.564 727.674 369.856 727.674 366.573C727.674 364.638 727.161 364 725.605 364C724.034 364 723.614 364.539 723.855 366.24ZM0 382.5C0 399.333 0.0759659 400 1.9991 400C3.82029 400 3.99821 399.333 3.99821 392.5V385H8.99597C12.7723 385 13.9937 384.633 13.9937 383.5C13.9937 382.367 12.7723 382 8.99597 382H3.99821V375V368H8.99597C12.7723 368 13.9937 367.633 13.9937 366.5C13.9937 365.31 12.5504 365 6.99686 365H0V382.5ZM61.4904 370.916C61.1386 372.521 60.203 374.081 59.4124 374.385C57.5172 375.113 57.5612 377 59.4733 377C60.7098 377 60.9727 378.825 60.9727 387.429C60.9727 398.791 61.8793 401 66.5412 401C68.2554 401 68.9691 400.444 68.9691 399.111C68.9691 397.926 68.3174 397.274 67.2199 397.361C65.6755 397.484 65.4377 396.3 65.1858 387.25C64.9149 377.515 65.0028 377 66.935 377C68.0765 377 68.9691 376.342 68.9691 375.5C68.9691 374.667 68.0805 374 66.97 374C65.4147 374 64.9709 373.333 64.9709 371C64.9709 367.061 62.351 366.998 61.4904 370.916ZM83.4806 370.916C83.1287 372.521 82.1931 374.081 81.4025 374.385C79.5073 375.113 79.5513 377 81.4635 377C82.6969 377 82.9628 378.785 82.9628 387.066C82.9628 392.602 83.4286 398.002 83.9973 399.066C85.4277 401.739 90.9592 401.775 90.9592 399.111C90.9592 397.926 90.3075 397.274 89.21 397.361C87.6657 397.484 87.4278 396.3 87.1759 387.25C86.905 377.515 86.993 377 88.9251 377C90.0666 377 90.9592 376.342 90.9592 375.5C90.9592 374.667 90.0706 374 88.9601 374C87.4048 374 86.961 373.333 86.961 371C86.961 367.061 84.3412 366.998 83.4806 370.916ZM164.926 370.531C164.926 371.924 164.251 373.322 163.427 373.638C161.76 374.278 161.356 377 162.927 377C163.525 377 163.926 380.926 163.926 386.777C163.926 398.012 165.291 401.332 169.694 400.807C172.998 400.413 173.75 398.255 170.731 397.827C168.515 397.513 168.413 397.097 168.14 387.25C167.869 377.515 167.957 377 169.889 377C171.03 377 171.923 376.342 171.923 375.5C171.923 374.667 171.034 374 169.924 374C168.368 374 167.925 373.333 167.925 371C167.925 369 167.425 368 166.425 368C165.488 368 164.926 368.948 164.926 370.531ZM230.564 368.667C230.197 369.033 229.897 370.335 229.897 371.56C229.897 372.784 229.222 374.045 228.398 374.362C227.573 374.678 226.898 375.401 226.898 375.969C226.898 376.536 227.573 377 228.398 377C229.638 377 229.897 378.875 229.897 387.878C229.897 396.142 230.244 399.043 231.341 399.954C233.396 401.661 237.307 400.851 237.729 398.632C237.958 397.431 237.678 397.015 236.946 397.468C236.319 397.855 235.152 397.628 234.351 396.964C233.266 396.063 232.896 393.368 232.896 386.378C232.896 377.041 232.907 377 235.394 377C236.95 377 237.893 376.433 237.893 375.5C237.893 374.567 236.95 374 235.394 374C233.284 374 232.896 373.533 232.896 371C232.896 368.133 231.996 367.233 230.564 368.667ZM34.0577 375.635C32.0976 378.127 31.9857 378.154 31.9857 376.135C31.9857 374.904 31.3509 374 30.4863 374C29.2309 374 28.987 376.111 28.987 387C28.987 399.333 29.09 400 30.9861 400C32.8413 400 32.9852 399.333 32.9852 390.723C32.9852 380.73 34.3586 377 38.0399 377C39.3154 377 39.9821 376.314 39.9821 375C39.9821 372.093 36.5536 372.46 34.0577 375.635ZM45.6745 374.111C44.682 374.689 43.4245 376.333 42.8798 377.765C41.4974 381.404 43.1936 384.889 48.0155 388.315C50.7492 390.257 51.9767 391.874 51.9767 393.53C51.9767 396.703 48.949 398.32 45.4796 397C42.0911 395.711 41.9812 395.726 41.9812 397.465C41.9812 401.375 49.9476 402.121 53.521 398.545C57.4322 394.633 56.7665 391.353 50.9771 386C48.2284 383.459 45.9794 380.635 45.9794 379.725C45.9794 377.512 48.8941 376.07 52.1196 376.687C55.7 377.372 56.7655 375.251 53.471 373.998C50.1685 372.742 47.9715 372.774 45.6745 374.111ZM99.2765 374.189C93.3891 377.036 92.3566 391.754 97.6052 397.995C103.834 405.401 111.95 399.18 111.95 387C111.95 376.281 106.448 370.72 99.2765 374.189ZM149.433 374.145C146.622 375.81 145.968 377.04 145.95 380.683C145.938 383.242 146.799 384.575 150.344 387.481C155.744 391.908 156.333 393.28 154.046 396.106C152.472 398.051 151.89 398.181 149.098 397.207C146.292 396.229 145.935 396.312 145.935 397.945C145.935 400.051 147.823 401 152.014 401C158.707 401 161.464 392.255 156.284 387.452C154.83 386.104 153.265 385 152.808 385C152.352 385 151.283 383.938 150.433 382.641C147.738 378.525 150.642 375.179 155.354 376.971C157.209 377.677 157.898 377.523 158.367 376.3C158.702 375.427 158.796 374.534 158.576 374.314C157.484 373.221 151.188 373.105 149.433 374.145ZM179.251 375.392C176.759 377.536 176.432 378.558 176.094 385.245C175.505 396.899 179.31 402.087 187.339 400.58C190.017 400.078 190.914 399.41 190.914 397.92C190.914 396.262 190.592 396.103 188.981 396.965C187.918 397.534 186.393 398 185.594 398C183.145 398 180.169 394.675 179.553 391.25L178.97 388H185.569H192.168L191.67 382.809C191.283 378.78 190.571 377.101 188.488 375.309C185.075 372.371 182.736 372.392 179.251 375.392ZM202.909 375C201.354 376.556 200.91 376.667 200.91 375.5C200.91 374.675 200.235 374 199.411 374C198.155 374 197.911 376.111 197.911 387C197.911 397.504 198.181 400 199.317 400C200.409 400 200.799 397.75 201.066 389.91C201.376 380.809 201.635 379.638 203.708 377.96C208.481 374.097 209.872 376.975 209.892 390.75C209.905 399.329 210.051 400 211.905 400C213.752 400 213.904 399.335 213.898 391.25C213.895 386.438 213.426 380.818 212.856 378.762C211.271 373.055 206.613 371.294 202.909 375ZM245.546 374.133C239.329 377.748 239.47 396.563 245.74 399.92C251.127 402.805 256.328 399.424 258.008 391.945C260.678 380.058 253.355 369.591 245.546 374.133ZM279.163 374.511C277.798 375.467 276.778 375.65 276.383 375.011C276.039 374.455 275.111 374 274.318 374C273.138 374 272.878 376.348 272.878 387C272.878 399.333 272.981 400 274.877 400C276.727 400 276.876 399.333 276.876 391.065C276.876 380.188 277.881 377 281.314 377C284.958 377 285.872 379.694 285.872 390.434C285.872 398.27 286.143 400 287.371 400C288.617 400 288.87 398.056 288.87 388.5C288.87 378.333 288.639 376.768 286.871 375C284.484 372.612 282.088 372.46 279.163 374.511ZM299.522 374.133C293.304 377.748 293.445 396.563 299.716 399.92C303.894 402.157 309.861 400.944 309.861 397.858C309.861 396.261 309.528 396.108 307.928 396.965C303.639 399.261 300.159 397.237 298.916 391.723L298.077 388H304.596H311.114L310.617 382.809C309.885 375.189 304.69 371.127 299.522 374.133ZM388.941 375.75C386.957 378.41 386.889 378.426 386.859 376.25C386.84 374.931 386.207 374 385.327 374C384.072 374 383.828 376.111 383.828 387C383.828 399.333 383.931 400 385.827 400C387.672 400 387.827 399.328 387.841 391.25C387.857 381.582 389.179 377.672 392.599 377.18C394.019 376.976 394.823 376.164 394.823 374.93C394.823 372.041 391.345 372.526 388.941 375.75ZM402.476 374.133C396.258 377.748 396.399 396.563 402.669 399.92C406.848 402.157 412.815 400.944 412.815 397.858C412.815 396.261 412.482 396.108 410.882 396.965C409.818 397.534 408.244 398 407.383 398C404.82 398 401.82 394.224 401.82 391V388H407.817H413.814V383.95C413.814 375.588 408.253 370.773 402.476 374.133ZM433.462 374.133C427.244 377.748 427.385 396.563 433.656 399.92C437.834 402.157 443.801 400.944 443.801 397.858C443.801 396.261 443.468 396.108 441.868 396.965C440.804 397.534 439.23 398 438.369 398C435.807 398 432.806 394.224 432.806 391V388H438.803H444.801V383.95C444.801 375.588 439.239 370.773 433.462 374.133ZM453.064 374.025C451.681 374.581 451.045 375.479 451.391 376.383C451.835 377.543 452.555 377.632 454.894 376.816C458.799 375.454 461.003 377.227 460.594 381.403C460.331 384.097 459.837 384.551 456.597 385.073C451.817 385.843 449.995 387.432 449.234 391.495C447.806 399.106 454.265 403.727 459.48 398.826C461.444 396.979 461.793 396.904 461.793 398.326C461.793 399.247 462.507 400 463.378 400C464.754 400 464.92 398.466 464.628 388.41C464.316 377.639 464.125 376.684 461.932 374.91C459.402 372.862 456.638 372.586 453.064 374.025ZM473.288 374.195C470.49 375.782 469.822 377.027 469.804 380.683C469.792 383.242 470.654 384.575 474.198 387.481C479.599 391.908 480.188 393.28 477.901 396.106C476.326 398.051 475.745 398.181 472.953 397.207C470.147 396.229 469.789 396.312 469.789 397.945C469.789 401.479 477.561 402.225 480.784 399C483.596 396.187 483.465 390.418 480.535 387.97C479.297 386.936 476.991 385.032 475.409 383.737C470.768 379.94 473.628 374.848 479.209 376.971C482.261 378.132 483.666 375.543 480.813 374.015C478.372 372.709 475.799 372.77 473.288 374.195ZM491.041 374.529C485.162 378.649 485.58 396.681 491.63 399.92C495.808 402.157 501.775 400.944 501.775 397.858C501.775 396.261 501.442 396.108 499.842 396.965C498.778 397.534 497.204 398 496.343 398C493.781 398 490.78 394.224 490.78 391V388H496.777H502.775V383.95C502.775 377.163 499.596 373.085 494.251 373.014C493.686 373.006 492.241 373.688 491.041 374.529ZM542.452 374.111C541.459 374.689 540.202 376.333 539.657 377.765C538.275 381.404 539.971 384.889 544.793 388.315C547.526 390.257 548.754 391.874 548.754 393.53C548.754 396.703 545.726 398.32 542.257 397C538.868 395.711 538.758 395.726 538.758 397.465C538.758 401.375 546.725 402.121 550.298 398.545C554.209 394.633 553.544 391.353 547.754 386C545.006 383.459 542.757 380.635 542.757 379.725C542.757 377.512 545.671 376.07 548.897 376.687C552.477 377.372 553.543 375.251 550.248 373.998C546.946 372.742 544.749 372.774 542.452 374.111ZM560.067 375.403C557.517 377.597 557.246 378.491 556.961 385.653C556.702 392.15 556.996 394.054 558.668 396.723C562.217 402.389 569.416 401.996 572.464 395.97C574.214 392.51 574.073 381.54 572.233 377.98C569.434 372.565 564.564 371.533 560.067 375.403ZM584.96 375.222C583.052 377.131 582.739 377.202 582.739 375.722C582.739 374.775 582.064 374 581.239 374C579.984 374 579.74 376.111 579.74 387C579.74 397.889 579.984 400 581.239 400C582.418 400 582.751 398.558 582.797 393.25C582.88 383.515 583.9 378.967 586.371 377.327C588.235 376.088 588.707 376.113 590.119 377.527C591.4 378.808 591.735 381.302 591.735 389.571C591.735 399.333 591.863 400 593.734 400C595.612 400 595.733 399.333 595.733 388.955C595.733 378.561 595.588 377.764 593.279 375.455C590.238 372.412 587.836 372.345 584.96 375.222ZM603.302 375.336C600.358 378.282 599.782 384.32 602.139 387.545C603.154 388.933 603.267 389.996 602.544 391.348C601.992 392.38 601.77 394.411 602.051 395.862C602.365 397.484 601.953 399.179 600.981 400.263C598.857 402.628 598.977 407.509 601.218 409.987C602.555 411.464 604.299 412 607.771 412C613.856 412 616.681 409.787 617.362 404.49C618.076 398.937 616.202 396.761 610.1 396.06C606.119 395.602 605.229 395.142 605.229 393.541C605.229 392.121 606.152 391.393 608.588 390.895C613.773 389.834 615.232 387.743 615.171 381.462C615.134 377.614 615.503 376 616.421 376C617.137 376 617.723 375.55 617.723 375C617.723 374.45 616.71 373.995 615.474 373.989C614.238 373.983 611.572 373.704 609.55 373.37C606.476 372.861 605.454 373.183 603.302 375.336ZM622.294 375.336C618.787 378.845 618.966 382.492 622.827 386.099C624.534 387.694 626.317 389 626.79 389C628.248 389 629.862 392.971 629.222 394.987C628.434 397.47 625.653 398.306 622.353 397.05C620.093 396.191 619.722 396.313 619.722 397.918C619.722 401.228 626.565 402.197 630.494 399.443C632.226 398.23 632.716 396.902 632.716 393.423C632.716 389.269 632.404 388.739 628.218 385.787C625.137 383.614 623.72 381.899 623.72 380.343C623.72 377.365 627.001 375.545 629.733 377.008C631.326 377.861 631.874 377.755 632.354 376.5C633.151 374.423 632.657 374.027 628.415 373.338C625.494 372.864 624.413 373.216 622.294 375.336ZM673.726 374.281C667.482 377.441 667.297 394.935 673.459 399.616C676.802 402.156 684.693 400.711 684.693 397.558C684.693 396.444 684.013 396.396 681.071 397.3C677.7 398.334 677.281 398.219 675.073 395.65C673.767 394.131 672.698 391.789 672.698 390.444C672.698 388.122 672.999 388 678.727 388C685.708 388 686.37 387.231 684.707 381.052C682.782 373.899 679.039 371.591 673.726 374.281ZM706.718 374.688C705.01 375.885 704.194 376.03 703.913 375.188C703.696 374.535 702.881 374 702.102 374C700.93 374 700.686 377.275 700.686 393C700.686 411.333 700.756 412 702.685 412C704.495 412 704.684 411.333 704.684 404.943V397.887L706.906 399.443C714.046 404.447 720.04 395.272 718.098 382.313C717.342 377.276 714.061 373 710.949 373C709.947 373 708.043 373.76 706.718 374.688ZM739.668 375C738.113 376.556 737.669 376.667 737.669 375.5C737.669 374.675 736.995 374 736.17 374C734.914 374 734.671 376.111 734.671 387C734.671 397.889 734.914 400 736.17 400C737.383 400 737.669 398.405 737.669 391.649C737.669 382.223 738.94 377.424 741.619 376.723C745.457 375.719 746.151 377.459 746.503 388.962C746.77 397.64 747.144 400 748.252 400C749.386 400 749.664 397.735 749.664 388.5C749.664 378.333 749.432 376.768 747.665 375C746.565 373.9 744.766 373 743.667 373C742.567 373 740.768 373.9 739.668 375ZM758.394 374.994C756.094 376.805 755.661 377.906 755.661 381.95C755.661 385.019 756.208 387.209 757.172 388.01C758.317 388.96 758.411 389.595 757.557 390.624C756.939 391.371 756.64 393.404 756.895 395.142C757.217 397.345 756.799 398.862 755.51 400.151C753.077 402.585 753.152 407.49 755.661 410C758.602 412.942 766.591 412.796 769.332 409.75C772.261 406.495 772.849 404.123 771.638 400.453C770.51 397.034 768.551 396.037 762.908 396.014C760.113 396.002 759.659 395.651 759.659 393.5C759.659 391.538 760.168 391 762.023 391C763.324 391 765.573 390.067 767.021 388.927C769.288 387.143 769.655 386.1 769.655 381.427C769.655 377.27 770.006 376 771.154 376C771.979 376 772.654 375.55 772.654 375C772.654 374.45 771.36 374 769.78 374C768.2 374 765.606 373.74 764.016 373.422C761.942 373.007 760.356 373.45 758.394 374.994ZM18.9915 387C18.9915 397.889 19.2354 400 20.4908 400C21.7462 400 21.9901 397.889 21.9901 387C21.9901 376.111 21.7462 374 20.4908 374C19.2354 374 18.9915 376.111 18.9915 387ZM136.939 387C136.939 399.333 137.042 400 138.938 400C140.834 400 140.937 399.333 140.937 387C140.937 374.667 140.834 374 138.938 374C137.042 374 136.939 374.667 136.939 387ZM314.186 376.25C314.486 377.488 315.736 383.337 316.965 389.25C319.009 399.082 319.393 400 321.456 400C323.403 400 323.872 399.21 324.87 394.25C326.886 384.235 327.665 380.855 328.043 380.477C328.245 380.275 329.221 384.585 330.214 390.055C331.911 399.406 332.163 400 334.434 400C335.762 400 336.849 399.748 336.849 399.44C336.849 399.133 337.973 393.897 339.348 387.806C342.256 374.919 342.326 374 340.414 374C338.737 374 338.512 374.667 336.24 386.399L334.517 395.298L332.427 384.899C330.595 375.789 330.068 374.462 328.178 374.191C326.285 373.921 325.876 374.596 324.85 379.691C322.82 389.775 322.045 393.145 321.666 393.523C321.464 393.725 320.487 389.415 319.495 383.945C317.911 375.221 317.442 374 315.666 374C314.073 374 313.758 374.478 314.186 376.25ZM353.854 374.75C353.861 375.163 355.382 381.161 357.233 388.079C360.352 399.742 360.498 400.944 359.234 404.579C358.483 406.736 357.863 408.613 357.855 408.75C357.847 408.887 356.94 409 355.84 409C354.73 409 353.841 409.667 353.841 410.5C353.841 411.497 354.838 412 356.814 412C359.047 412 360.14 411.315 361.207 409.25C362.403 406.931 370.834 376.639 370.834 374.657C370.834 374.296 370.005 374 368.993 374C367.477 374 366.738 375.81 364.804 384.25L362.456 394.5L359.946 384.25C357.92 375.983 357.088 374 355.639 374C354.65 374 353.847 374.337 353.854 374.75ZM723.675 387C723.675 399.333 723.778 400 725.675 400C727.571 400 727.674 399.333 727.674 387C727.674 374.667 727.571 374 725.675 374C723.778 374 723.675 374.667 723.675 387ZM106.98 379.052C107.515 380.051 107.952 383.823 107.952 387.434C107.952 392.667 107.546 394.406 105.952 396C104.853 397.1 103.616 397.993 103.204 397.985C98.8727 397.896 96.4567 387.6 99.0326 380.208C100.567 375.805 104.905 375.174 106.98 379.052ZM185.604 376.786C187.151 377.769 189.092 382.905 188.364 384.084C188.053 384.588 186.026 385 183.859 385C180.169 385 179.919 384.814 179.919 382.071C179.919 380.461 180.626 378.436 181.49 377.571C183.246 375.814 183.886 375.692 185.604 376.786ZM253.823 380.249C257.307 390.247 251.836 402.36 246.701 396.016C244.049 392.739 244.125 380.766 246.815 378.074C249.404 375.484 252.498 376.445 253.823 380.249ZM305.078 377.25C305.957 377.938 306.978 379.962 307.348 381.75L308.021 385H303.443C299.149 385 298.866 384.835 298.866 382.329C298.866 379.87 301.289 376 302.828 376C303.187 376 304.201 376.563 305.078 377.25ZM408.689 377.345C409.302 378.085 410.088 380.11 410.435 381.845L411.066 385H406.443C402.299 385 401.82 384.764 401.82 382.723C401.82 379.963 404.433 376 406.252 376C406.978 376 408.075 376.605 408.689 377.345ZM439.098 377.25C440.021 377.938 441.062 379.962 441.414 381.75L442.052 385H437.429C433.285 385 432.806 384.764 432.806 382.723C432.806 380.385 435.327 376 436.67 376C437.083 376 438.177 376.563 439.098 377.25ZM497.649 377.345C498.263 378.085 499.048 380.11 499.395 381.845L500.026 385H495.403C491.259 385 490.78 384.764 490.78 382.723C490.78 379.963 493.393 376 495.212 376C495.939 376 497.035 376.605 497.649 377.345ZM569.977 382.11C571.538 388.985 568.854 398 565.247 398C559.644 398 558.175 380.127 563.527 377.091C566.027 375.673 569.05 378.026 569.977 382.11ZM610.668 377.43C611.321 378.217 611.714 380.534 611.541 382.579C610.921 389.899 604.729 389.443 604.729 382.078C604.729 376.711 607.968 374.176 610.668 377.43ZM680.138 378.223C680.994 379.445 681.694 381.47 681.694 382.723C681.694 384.755 681.211 385 677.196 385C673.182 385 672.698 384.755 672.698 382.723C672.698 379.92 675.321 376 677.196 376C677.959 376 679.282 377 680.138 378.223ZM712.066 377.292C713.288 378.187 714.004 380.483 714.392 384.757C715.241 394.138 712.302 399.473 707.654 396.984C703.944 394.998 703.63 379.975 707.243 377.332C709.495 375.685 709.864 375.682 712.066 377.292ZM766.079 379.25C767.501 383.31 765.77 387.5 762.671 387.5C759.582 387.5 757.979 382.912 759.589 378.681C760.998 374.98 764.698 375.305 766.079 379.25ZM519.732 378.934C521.455 382.155 521.027 394.054 519.112 396.171C516.977 398.532 515.514 398.48 513.237 395.964C511.053 393.549 510.663 382.889 512.626 379.25C514.144 376.435 518.296 376.25 519.732 378.934ZM460.793 390.389C460.793 394.973 457.599 398.912 455.109 397.399C452.295 395.69 452.209 390.525 454.962 388.596C458.805 385.903 460.793 386.514 460.793 390.389ZM613.225 403.987C613.225 406.82 612.7 407.725 610.423 408.817C608.009 409.974 607.282 409.938 605.176 408.557C602.526 406.82 601.937 403.193 603.975 401.154C604.674 400.455 606.975 400.039 609.223 400.204C613.071 400.489 613.225 400.634 613.225 403.987ZM768.294 401.502C770.136 406.303 765.15 410.898 760.159 409C758.178 408.247 757.66 407.353 757.66 404.691C757.66 400.372 758.112 400 763.356 400C766.314 400 767.904 400.483 768.294 401.502ZM638.339 431.285C637.33 432.023 636.335 434.472 636.002 437.035C635.683 439.491 634.812 441.86 634.069 442.3C632.26 443.369 632.348 445 634.216 445C635.461 445 635.715 446.944 635.715 456.5C635.715 467.333 635.831 468 637.714 468C639.597 468 639.713 467.333 639.713 456.5C639.713 445.667 639.829 445 641.712 445C642.823 445 643.711 444.333 643.711 443.5C643.711 442.652 642.816 442 641.652 442C639.884 442 639.636 441.47 639.903 438.258C640.136 435.445 640.709 434.424 642.212 434.143C644.743 433.669 645.975 431.788 644.408 430.792C642.621 429.655 640.31 429.843 638.339 431.285ZM254.886 437.453V443.907L251.899 442.203C249.185 440.656 248.659 440.64 246.152 442.034C240.509 445.17 239.365 461.563 244.433 466.634C247.229 469.431 249.56 469.619 252.852 467.312C254.56 466.115 255.375 465.97 255.656 466.812C255.873 467.465 256.689 468 257.468 468C258.639 468 258.884 464.794 258.884 449.5C258.884 431.667 258.812 431 256.885 431C255.093 431 254.886 431.667 254.886 437.453ZM431.806 449.5C431.806 467.333 431.878 468 433.805 468C435.733 468 435.805 467.333 435.805 449.5C435.805 431.667 435.733 431 433.805 431C431.878 431 431.806 431.667 431.806 449.5ZM518.737 438.25C518.715 443.352 518.424 445.015 517.75 443.862C516.309 441.394 511.949 440.653 509.255 442.419C506.092 444.492 504.467 450.076 504.976 457.119C505.683 466.91 511.734 472.037 516.707 467.061C518.29 465.478 518.767 465.348 518.767 466.5C518.767 467.325 519.442 468 520.267 468C521.545 468 521.766 465.278 521.766 449.5C521.766 433.722 521.545 431 520.267 431C519.074 431 518.761 432.486 518.737 438.25ZM591.735 449.5C591.735 467.333 591.807 468 593.734 468C595.661 468 595.733 467.333 595.733 449.5C595.733 431.667 595.661 431 593.734 431C591.807 431 591.735 431.667 591.735 449.5ZM401 434.24C401.475 437.564 404.818 437.856 404.818 434.573C404.818 432.638 404.306 432 402.749 432C401.179 432 400.758 432.539 401 434.24ZM528.943 434.25C529.119 435.488 529.937 436.5 530.762 436.5C531.587 436.5 532.405 435.488 532.581 434.25C532.826 432.518 532.407 432 530.762 432C529.117 432 528.698 432.518 528.943 434.25ZM41.6483 436.667C41.2815 437.033 40.9816 438.335 40.9816 439.56C40.9816 440.784 40.3069 442.045 39.4823 442.362C38.6577 442.678 37.983 443.401 37.983 443.969C37.983 444.536 38.6577 445 39.4823 445C40.7227 445 40.9816 446.875 40.9816 455.878C40.9816 464.142 41.3285 467.043 42.426 467.954C44.4261 469.615 48.3883 468.867 48.7901 466.754C49.02 465.548 48.6602 465.185 47.6276 465.581C45.1508 466.532 43.9803 462.676 43.9803 453.566C43.9803 445.096 44.0083 445 46.4792 445C48.0345 445 48.978 444.433 48.978 443.5C48.978 442.567 48.0345 442 46.4792 442C44.3691 442 43.9803 441.533 43.9803 439C43.9803 436.133 43.0807 435.233 41.6483 436.667ZM101.954 438.64C101.954 440.092 101.168 441.92 100.205 442.703C98.9326 443.738 98.7957 444.267 99.7053 444.646C100.575 445.008 100.959 447.956 100.97 454.333C100.987 465.332 102.217 468.5 106.468 468.5C108.559 468.5 109.529 467.954 109.783 466.632C110.015 465.431 109.736 465.015 109.003 465.468C108.376 465.855 107.209 465.628 106.408 464.964C105.324 464.063 104.953 461.368 104.953 454.378C104.953 445.041 104.964 445 107.452 445C109.007 445 109.951 444.433 109.951 443.5C109.951 442.567 109.007 442 107.452 442C105.342 442 104.953 441.533 104.953 439C104.953 437 104.453 436 103.454 436C102.499 436 101.954 436.96 101.954 438.64ZM150.296 438.936C149.973 440.551 149.084 442.112 148.321 442.405C146.466 443.117 146.547 445 148.433 445C149.674 445 149.933 446.875 149.933 455.878C149.933 464.142 150.28 467.043 151.377 467.954C153.377 469.615 157.339 468.867 157.741 466.754C157.971 465.548 157.611 465.185 156.579 465.581C154.102 466.532 152.931 462.676 152.931 453.566C152.931 445.096 152.959 445 155.43 445C156.986 445 157.929 444.433 157.929 443.5C157.929 442.567 156.986 442 155.43 442C153.32 442 152.931 441.533 152.931 439C152.931 435.146 151.062 435.101 150.296 438.936ZM172.286 438.936C171.963 440.551 171.074 442.112 170.312 442.405C168.456 443.117 168.537 445 170.424 445C171.664 445 171.923 446.875 171.923 455.878C171.923 464.142 172.27 467.043 173.367 467.954C175.367 469.615 179.33 468.867 179.731 466.754C179.961 465.548 179.601 465.185 178.569 465.581C176.092 466.532 174.922 462.676 174.922 453.566C174.922 445.096 174.95 445 177.42 445C178.976 445 179.919 444.433 179.919 443.5C179.919 442.567 178.976 442 177.42 442C175.31 442 174.922 441.533 174.922 439C174.922 435.146 173.052 435.101 172.286 438.936ZM623.72 437.929C623.72 438.989 623.046 440.532 622.221 441.357C620.508 443.071 620.243 445 621.721 445C622.323 445 622.721 449.115 622.721 455.345C622.721 464.272 622.984 465.928 624.638 467.425C626.704 469.296 630.818 469.237 631.446 467.327C631.659 466.682 630.794 466.007 629.526 465.827C627.31 465.513 627.208 465.097 626.934 455.25C626.663 445.515 626.751 445 628.683 445C629.825 445 630.717 444.342 630.717 443.5C630.717 442.667 629.829 442 628.718 442C627.163 442 626.719 441.333 626.719 439C626.719 437 626.219 436 625.22 436C624.395 436 623.72 436.868 623.72 437.929ZM56.9745 442.293C53.557 444.02 51.6768 450.046 52.2975 457.286C52.8673 463.936 54.9264 467.699 58.4868 468.593C65.3007 470.304 69.3349 465.473 69.4179 455.5C69.4788 448.307 67.7206 443.663 64.3561 442.13C61.2225 440.701 60.0731 440.726 56.9745 442.293ZM86.1893 442.183C81.2206 444.682 82.1402 451.761 87.9546 455.778C92.1637 458.686 93.3761 460.748 92.3886 463.321C91.542 465.529 88.7322 466.244 85.5936 465.05C83.3336 464.191 82.9628 464.313 82.9628 465.918C82.9628 468.016 84.833 469 88.8192 469C93.1682 469 95.957 466.413 95.957 462.378C95.957 457.752 94.7165 455.632 90.4724 453.008C87.7856 451.347 86.961 450.167 86.961 447.986C86.961 444.661 89.7298 443.271 92.9353 444.988C94.5736 445.865 95.1094 445.766 95.5951 444.5C95.93 443.628 95.979 442.689 95.7041 442.414C94.5656 441.275 88.2974 441.122 86.1893 442.183ZM116.698 441.689C115.735 441.941 114.948 442.99 114.948 444.021C114.948 445.673 115.307 445.771 117.968 444.843C121.955 443.452 124.158 445.191 123.746 449.403C123.482 452.097 122.988 452.551 119.748 453.073C114.297 453.951 112.949 455.516 112.949 460.967C112.949 468.44 117.794 471.372 122.631 466.826C124.595 464.979 124.944 464.904 124.944 466.326C124.944 467.247 125.619 468 126.443 468C127.681 468 127.943 466.172 127.943 457.547C127.943 451.798 127.438 445.986 126.821 444.632C125.371 441.447 121.703 440.381 116.698 441.689ZM141.352 441.765C140.755 442.169 139.756 443.4 139.133 444.5C138.03 446.445 137.998 446.438 137.968 444.25C137.951 442.93 137.318 442 136.439 442C135.183 442 134.939 444.111 134.939 455C134.939 465.889 135.183 468 136.439 468C137.644 468 137.938 466.461 137.938 460.149C137.938 450.902 139.279 446.339 142.27 445.406C143.461 445.034 144.743 444.25 145.119 443.663C146.508 441.494 143.781 440.12 141.352 441.765ZM189.915 443C187.524 445.392 186.916 445.494 186.916 443.5C186.916 442.675 186.241 442 185.417 442C184.161 442 183.918 444.111 183.918 455C183.918 467.333 184.02 468 185.917 468C187.762 468 187.917 467.328 187.931 459.25C187.947 449.582 189.269 445.672 192.689 445.18C194.109 444.976 194.913 444.164 194.913 442.93C194.913 440.427 192.452 440.462 189.915 443ZM202.909 442.291C196.578 445.487 196.413 462.863 202.67 467.616C206.056 470.188 213.904 468.702 213.904 465.49C213.904 464.337 213.363 464.255 211.194 465.08C205.917 467.087 201.909 464.024 201.909 457.983C201.909 456.366 202.805 456.053 208.157 455.798L214.404 455.5L214.142 452C213.749 446.747 211.878 442.94 209.185 441.916C206.138 440.757 205.924 440.769 202.909 442.291ZM225.534 443.073C223.351 444.791 222.9 444.876 222.9 443.573C222.9 442.708 222.225 442 221.401 442C220.145 442 219.901 444.111 219.901 455C219.901 467.333 220.004 468 221.9 468C223.767 468 223.9 467.333 223.9 458C223.9 449.296 224.161 447.738 225.922 445.977C227.528 444.37 228.351 444.172 229.92 445.012C231.704 445.968 231.896 447.136 231.896 457.035C231.896 467.333 232.018 468 233.895 468C235.768 468 235.894 467.333 235.894 457.434C235.894 447.37 235.049 443.47 232.496 441.765C230.59 440.492 228.256 440.93 225.534 443.073ZM267.38 442.145C264.569 443.81 263.915 445.04 263.897 448.683C263.885 451.242 264.746 452.575 268.291 455.481C273.762 459.966 274.53 461.791 272.009 464.313C270.359 465.964 269.594 466.096 266.972 465.182C264.247 464.231 263.882 464.322 263.882 465.945C263.882 468.051 265.77 469 269.961 469C277.016 469 279.404 460.165 273.771 454.901C272.064 453.306 270.281 452 269.808 452C268.453 452 266.828 448.299 267.461 446.65C268.27 444.541 270.493 443.903 273.301 444.971C275.157 445.677 275.845 445.523 276.314 444.3C276.649 443.427 276.743 442.534 276.523 442.314C275.431 441.221 269.135 441.105 267.38 442.145ZM295.189 442.189C289.352 445.012 288.335 459.832 293.551 466.035C299.747 473.401 307.862 467.144 307.862 455C307.862 444.281 302.36 438.72 295.189 442.189ZM318.857 443C317.302 444.556 316.858 444.667 316.858 443.5C316.858 442.675 316.183 442 315.359 442C314.103 442 313.859 444.111 313.859 455C313.859 465.889 314.103 468 315.359 468C316.572 468 316.858 466.405 316.858 459.649C316.858 450.101 318.13 445.423 320.926 444.692C324.499 443.757 325.854 447.477 325.854 458.223C325.854 466.247 326.123 468 327.353 468C328.599 468 328.853 466.056 328.853 456.5C328.853 446.333 328.621 444.768 326.853 443C325.754 441.9 323.955 441 322.855 441C321.756 441 319.957 441.9 318.857 443ZM347.344 442.195C344.546 443.782 343.879 445.027 343.861 448.683C343.849 451.242 344.71 452.575 348.255 455.481C353.655 459.908 354.244 461.28 351.957 464.106C350.383 466.051 349.801 466.181 347.009 465.207C344.204 464.229 343.846 464.312 343.846 465.945C343.846 469.479 351.617 470.225 354.841 467C357.653 464.187 357.522 458.418 354.591 455.97C353.354 454.936 351.048 453.032 349.465 451.737C344.824 447.94 347.684 442.848 353.266 444.971C356.317 446.132 357.723 443.543 354.87 442.015C352.429 440.709 349.855 440.77 347.344 442.195ZM365.492 442.133C359.275 445.748 359.416 464.563 365.686 467.92C369.223 469.814 372.513 469.169 375.119 466.071C380.428 459.757 379.248 444.878 373.218 442.13C370.16 440.736 367.893 440.737 365.492 442.133ZM387.621 442.508C381.24 446.069 381.28 464.495 387.676 467.92C390.346 469.349 394.131 469.292 395.623 467.8C397.63 465.792 396.972 464.808 394.054 465.449C389.327 466.488 387.497 464.193 387.015 456.623C386.5 448.53 388.253 445 392.788 445C395.429 445 397.66 443.504 396.599 442.444C395.309 441.153 389.981 441.191 387.621 442.508ZM414.081 442.025C410.839 443.33 412.12 446.215 415.39 444.971C418.576 443.759 420.694 444.684 421.427 447.608C422.39 451.444 421.232 453 417.417 453C411.494 453 407.998 459.676 410.966 465.316C413.129 469.427 416.799 470.202 420.129 467.25C421.576 465.967 422.22 465.834 422.54 466.75C422.78 467.438 423.663 468 424.501 468C425.8 468 425.971 466.289 425.657 456.403C425.316 445.663 425.115 444.666 422.939 442.903C420.419 440.862 417.654 440.587 414.081 442.025ZM456.795 443C455.24 444.556 454.796 444.667 454.796 443.5C454.796 442.675 454.121 442 453.297 442C452.041 442 451.797 444.111 451.797 455C451.797 465.324 452.078 468 453.163 468C454.189 468 454.657 465.574 455.045 458.25C455.675 446.334 456.216 444.794 459.632 445.196C462.903 445.581 463.563 447.864 463.692 459.25C463.773 466.317 464.081 468 465.291 468C466.512 468 466.791 466.341 466.791 459.065C466.791 447.727 467.807 444.754 471.539 445.184L474.287 445.5L474.57 456.75C474.832 467.175 474.997 468 476.819 468C478.649 468 478.785 467.275 478.785 457.547C478.785 451.688 478.271 445.964 477.615 444.523C476.022 441.025 472.327 440.236 468.96 442.675C466.389 444.537 466.227 444.541 464.542 442.804C462.251 440.441 459.278 440.516 456.795 443ZM489.102 442.189C485.981 443.698 484.289 448.549 484.364 455.775C484.437 462.824 486.57 466.818 491.132 468.443C494.401 469.608 499.127 468.131 499.575 465.805C499.855 464.354 499.452 464.287 496.294 465.256C493.174 466.214 492.439 466.104 490.763 464.427C489.699 463.363 488.537 461.032 488.18 459.247L487.531 456H494.153C501.584 456 501.889 455.551 499.732 447.779C498.126 441.996 493.993 439.823 489.102 442.189ZM542.007 442.031C538.124 443.593 539.435 446.454 543.35 444.964C546.708 443.687 548.524 444.678 549.3 448.208C550.055 451.652 548.791 452.96 544.68 452.985C541.05 453.006 537.759 456.861 537.759 461.092C537.759 468.071 543.369 471.387 547.754 467C549.31 465.444 549.753 465.333 549.753 466.5C549.753 467.325 550.428 468 551.253 468C552.498 468 552.752 466.056 552.752 456.5C552.752 446.333 552.52 444.768 550.753 443C548.63 440.876 545.689 440.551 542.007 442.031ZM574.777 442.688C573.069 443.885 572.253 444.03 571.973 443.188C571.756 442.535 570.94 442 570.161 442C568.989 442 568.745 445.275 568.745 461C568.745 479.333 568.815 480 570.744 480C572.554 480 572.743 479.333 572.743 472.943V465.887L574.965 467.443C582.105 472.447 588.099 463.272 586.157 450.313C585.401 445.276 582.12 441 579.008 441C578.006 441 576.103 441.76 574.777 442.688ZM604.979 442.031C601.095 443.593 602.407 446.454 606.322 444.964C609.68 443.687 611.496 444.678 612.271 448.208C613.027 451.652 611.763 452.96 607.652 452.985C604.022 453.006 600.731 456.861 600.731 461.092C600.731 468.071 606.341 471.387 610.726 467C612.281 465.444 612.725 465.333 612.725 466.5C612.725 467.325 613.4 468 614.225 468C615.47 468 615.724 466.056 615.724 456.5C615.724 446.333 615.492 444.768 613.725 443C611.602 440.876 608.661 440.551 604.979 442.031ZM651.364 442.133C645.147 445.748 645.288 464.563 651.558 467.92C655.095 469.814 658.385 469.169 660.991 466.071C666.3 459.757 665.12 444.878 659.089 442.13C656.032 440.736 653.765 440.737 651.364 442.133ZM674.812 443.75C672.829 446.41 672.76 446.426 672.73 444.25C672.711 442.931 672.079 442 671.199 442C669.944 442 669.7 444.111 669.7 455C669.7 467.333 669.803 468 671.699 468C673.544 468 673.699 467.328 673.713 459.25C673.729 449.582 675.051 445.672 678.471 445.18C679.891 444.976 680.695 444.164 680.695 442.93C680.695 440.041 677.217 440.526 674.812 443.75ZM689.913 443.222C688.004 445.131 687.692 445.202 687.692 443.722C687.692 442.775 687.017 442 686.192 442C684.937 442 684.693 444.111 684.693 455C684.693 467.333 684.796 468 686.692 468C688.549 468 688.691 467.333 688.691 458.582C688.691 448.153 689.085 446.395 691.738 444.974C693.053 444.27 693.981 444.435 695.119 445.573C696.344 446.799 696.688 449.43 696.688 457.571C696.688 465.677 696.989 468 698.042 468C699.05 468 699.538 465.51 699.953 458.25C700.62 446.587 701.143 445 704.316 445C707.669 445 708.682 448.266 708.682 459.065C708.682 466.341 708.961 468 710.182 468C711.427 468 711.681 466.056 711.681 456.5C711.681 446.333 711.449 444.768 709.682 443C708.582 441.9 706.783 441 705.684 441C704.584 441 702.785 441.9 701.685 443L699.686 445L697.687 443C695.088 440.4 692.665 440.469 689.913 443.222ZM719.133 443.455C714.908 447.68 715.913 451.689 722.296 456.083C725.429 458.239 726.674 459.784 726.674 461.513C726.674 464.771 723.282 466.597 720.003 465.103C716.805 463.645 716.679 463.677 716.679 465.955C716.679 467.405 717.601 468.083 720.254 468.58C724.742 469.423 728.413 467.814 729.695 464.443C731.194 460.496 729.904 457.43 725.077 453.473C722.657 451.489 720.677 449.012 720.677 447.968C720.677 445.506 723.478 444.048 726.935 444.709C730.371 445.367 730.82 442.541 727.424 441.63C723.426 440.558 721.633 440.953 719.133 443.455ZM400.82 455C400.82 467.333 400.923 468 402.819 468C404.716 468 404.818 467.333 404.818 455C404.818 442.667 404.716 442 402.819 442C400.923 442 400.82 442.667 400.82 455ZM528.763 455C528.763 467.333 528.866 468 530.762 468C532.658 468 532.761 467.333 532.761 455C532.761 442.667 532.658 442 530.762 442C528.866 442 528.763 442.667 528.763 455ZM209.349 446.223C210.205 447.445 210.905 449.47 210.905 450.723C210.905 452.755 210.422 453 206.407 453C202.393 453 201.909 452.755 201.909 450.723C201.909 447.92 204.532 444 206.407 444C207.17 444 208.493 445 209.349 446.223ZM302.892 447.052C303.427 448.051 303.864 451.823 303.864 455.434C303.864 460.667 303.458 462.406 301.865 464C300.765 465.1 299.529 465.993 299.116 465.985C294.785 465.896 292.369 455.6 294.945 448.208C296.479 443.805 300.817 443.174 302.892 447.052ZM373.769 448.249C376.331 455.603 373.902 465.896 369.584 465.985C369.171 465.993 367.935 465.1 366.836 464C363.98 461.143 363.929 448.908 366.762 446.074C369.35 443.484 372.444 444.445 373.769 448.249ZM494.949 445.655C495.955 446.565 496.777 448.59 496.777 450.155C496.777 452.872 496.568 453 492.154 453H487.531L488.169 449.75C488.715 446.971 491.026 444 492.641 444C492.905 444 493.943 444.745 494.949 445.655ZM580.125 445.292C581.347 446.187 582.063 448.483 582.451 452.757C583.3 462.138 580.361 467.473 575.713 464.984C572.004 462.998 571.69 447.975 575.302 445.332C577.554 443.685 577.923 443.682 580.125 445.292ZM659.641 448.249C662.203 455.603 659.774 465.896 655.456 465.985C655.043 465.993 653.807 465.1 652.707 464C649.852 461.143 649.801 448.908 652.633 446.074C655.222 443.484 658.316 444.445 659.641 448.249ZM64.9699 447.998C66.793 452.401 65.8385 462.892 63.4565 464.634C61.1396 466.33 60.8047 466.329 58.4698 464.621C57.0544 463.585 56.4877 461.654 56.1938 456.871C55.674 448.411 57.0054 445 60.8267 445C63.1087 445 63.9943 445.641 64.9699 447.998ZM253.911 447.565C254.447 448.976 254.886 452.801 254.886 456.065C254.886 460.667 254.437 462.449 252.887 464C248.799 468.089 246.038 465.831 245.2 457.713C244.877 454.581 245.148 450.748 245.843 448.644C246.863 445.548 247.488 445 249.99 445C252.233 445 253.168 445.612 253.911 447.565ZM516.796 446.533C518.618 448.73 519.202 457.151 517.822 461.336C516.303 465.94 513.1 467.126 510.583 464.016C508.548 461.502 508.065 451.991 509.746 447.565C510.868 444.614 514.734 444.048 516.796 446.533ZM123.944 458.929C123.944 462.931 121.976 466 119.41 466C117.865 466 115.948 462.991 115.948 460.566C115.948 458.357 119.565 455 121.945 455C123.606 455 123.944 455.667 123.944 458.929ZM421.811 458.389C421.811 462.973 418.616 466.912 416.126 465.399C413.313 463.69 413.227 458.525 415.979 456.596C419.823 453.903 421.811 454.514 421.811 458.389ZM549.738 457.75C549.715 462.132 547.537 465.5 544.726 465.5C542.606 465.5 542.214 464.983 541.952 461.845C541.713 458.969 542.133 457.85 543.924 456.595C547.504 454.087 549.755 454.534 549.738 457.75ZM612.71 457.75C612.687 462.132 610.509 465.5 607.697 465.5C605.524 465.5 605.193 465.011 604.93 461.425C604.679 458.003 605 457.172 606.929 456.242C611.007 454.278 612.726 454.726 612.71 457.75ZM333.183 522.578C332.85 523.445 333.202 524.762 333.963 525.504C336.517 527.988 399.301 572.286 400.82 572.675C401.645 572.886 417.388 562.349 435.805 549.259C460.533 531.682 469.374 524.876 469.609 523.229C469.818 521.771 469.408 521 468.427 521C467.601 521 452.614 531.172 435.123 543.604C417.631 556.037 402.767 566.431 402.094 566.702C401.42 566.973 386.233 556.801 368.344 544.098C350.454 531.394 335.361 521 334.803 521C334.244 521 333.515 521.71 333.183 522.578ZM404.486 613.667C404.119 614.033 403.819 622.583 403.819 632.667C403.819 650.333 403.892 651 405.818 651C407.657 651 407.817 650.333 407.817 642.649C407.817 630.854 409.904 625.945 414.215 627.601C416.243 628.379 416.784 631.338 416.799 641.75C416.81 649.299 417.089 651 418.312 651C419.561 651 419.812 649.017 419.812 639.155C419.812 628.95 419.559 627.081 417.984 625.655C415.526 623.43 412.247 623.568 409.816 626L407.817 628V620.5C407.817 614.917 407.476 613 406.485 613C405.751 613 404.851 613.3 404.486 613.667ZM482.784 620.5V628L480.723 625.939C477.981 623.195 474.031 623.765 471.419 627.282C469.927 629.289 469.259 631.936 469.018 636.782C468.621 644.762 470.746 649.943 475.022 651.427C477.295 652.216 478.181 651.977 480.27 650.014C482.347 648.062 482.784 647.942 482.784 649.326C482.784 650.247 483.458 651 484.283 651C485.563 651 485.782 648.222 485.782 632C485.782 615.778 485.563 613 484.283 613C483.083 613 482.784 614.5 482.784 620.5ZM492.959 617.25C493.135 618.487 493.953 619.5 494.778 619.5C495.603 619.5 496.421 618.487 496.597 617.25C496.842 615.518 496.423 615 494.778 615C493.133 615 492.714 615.518 492.959 617.25ZM244.89 633.5V651H250.932C256.016 651 257.366 650.61 259.429 648.545C263.057 644.916 263.102 637.702 259.518 634.46C257.329 632.481 257.318 632.377 259.138 630.96C260.203 630.131 261.255 627.695 261.57 625.326C262.044 621.764 261.748 620.775 259.551 618.576C257.352 616.376 256.093 616 250.932 616H244.89V633.5ZM256.314 620.571C260.169 624.429 256.968 631 251.232 631H247.889V625V619H251.316C253.2 619 255.449 619.707 256.314 620.571ZM322.855 626C321.3 627.556 320.856 627.667 320.856 626.5C320.856 625.675 320.181 625 319.357 625C318.101 625 317.857 627.111 317.857 638C317.857 650.333 317.96 651 319.857 651C321.728 651 321.856 650.333 321.856 640.571C321.856 632.424 322.2 629.799 323.426 628.571C325.532 626.465 326.452 626.588 328.296 629.223C329.447 630.866 329.852 633.992 329.852 641.223C329.852 649.247 330.121 651 331.351 651C332.557 651 332.851 649.458 332.851 643.125C332.851 632.992 333.651 629.177 336.045 627.895C339.886 625.839 340.847 628.287 340.847 640.122C340.847 650.333 340.97 651 342.846 651C344.729 651 344.845 650.333 344.845 639.5C344.845 629.333 344.613 627.768 342.846 626C340.291 623.444 336.662 623.444 334.35 626.001L332.54 628.001L331.14 626.001C329.344 623.437 325.417 623.437 322.855 626ZM354.042 626.028C351.159 628.715 350.539 631.611 351.02 640.135C351.374 646.405 351.747 647.521 354.186 649.621C358.187 653.064 365.836 652.339 365.836 648.517C365.836 647.389 365.245 647.31 362.908 648.125C359.282 649.39 356.148 647.941 354.793 644.374C352.914 639.43 353.358 639 360.338 639H366.836V635.968C366.836 626.644 359.498 620.943 354.042 626.028ZM377.599 626C376.12 628.367 374.832 628.6 374.832 626.5C374.832 625.675 374.157 625 373.333 625C372.077 625 371.833 627.111 371.833 638C371.833 650.333 371.936 651 373.832 651C375.678 651 375.832 650.328 375.846 642.25C375.862 632.582 377.185 628.672 380.604 628.18C382.025 627.976 382.828 627.164 382.828 625.93C382.828 623.334 379.233 623.382 377.599 626ZM390.151 625.484C386.062 628.35 384.674 642.109 387.873 648.088C389.271 650.703 393.439 652.243 396.996 651.462C400.758 650.635 400.924 647.556 397.167 648.274C392.699 649.129 389.825 645.295 389.825 638.48C389.825 630.394 392.205 626.483 396.511 627.494C399.077 628.096 400.702 626.173 398.699 624.904C396.581 623.561 392.5 623.838 390.151 625.484ZM429.557 624.689C428.596 624.941 427.808 625.824 427.808 626.653C427.808 627.811 428.511 628.004 430.848 627.491C434.636 626.658 436.804 628.304 436.804 632.011C436.804 634.417 436.316 634.868 433.056 635.473C427.503 636.504 425.809 638.498 425.809 644C425.809 651.408 429.954 654.032 435.17 649.927C437.353 648.209 437.804 648.124 437.804 649.427C437.804 650.292 438.478 651 439.303 651C440.541 651 440.802 649.159 440.802 640.434C440.802 625.36 438.629 622.317 429.557 624.689ZM452.797 626C451.242 627.556 450.798 627.667 450.798 626.5C450.798 625.675 450.123 625 449.299 625C448.043 625 447.799 627.111 447.799 638C447.799 648.889 448.043 651 449.299 651C450.513 651 450.798 649.396 450.798 642.565C450.798 634.1 451.897 629.193 454.109 627.786C455.828 626.692 456.467 626.814 458.224 628.571C459.45 629.799 459.794 632.424 459.794 640.571C459.794 650.511 459.893 651 461.901 651C463.942 651 463.996 650.642 463.646 639.601C463.345 630.13 462.962 627.846 461.384 626.101C458.988 623.452 455.386 623.41 452.797 626ZM503.89 625.884C500.002 629.774 501.399 635.368 507.147 638.922C511.351 641.522 512.286 644.484 509.715 647.056C508.185 648.587 507.299 648.77 505.226 647.982C501.815 646.684 501.775 646.695 501.775 648.921C501.775 652.707 511.773 652.732 513.796 648.951C515.758 645.283 514.921 640.945 511.665 637.901C509.957 636.306 508.174 635 507.701 635C505.88 635 504.668 631.066 505.824 628.905C506.743 627.188 507.546 626.923 510.279 627.436C512.284 627.812 513.884 627.624 514.291 626.964C515.26 625.397 514.458 624.902 509.97 624.3C506.813 623.876 505.574 624.199 503.89 625.884ZM523.026 625.529C516.889 629.831 517.644 646.252 524.177 650.534C527.629 652.798 533.761 651.803 533.761 648.979C533.761 647.321 533.4 647.187 531.197 648.025C526.974 649.631 522.766 646.158 522.766 641.066C522.766 639.208 523.368 639 528.763 639H534.76V634.95C534.76 626.046 528.949 621.38 523.026 625.529ZM267.88 636.5C267.88 646.667 268.112 648.232 269.879 650C272.433 652.555 274.929 652.534 278.24 649.927C280.423 648.209 280.874 648.124 280.874 649.427C280.874 650.292 281.549 651 282.373 651C283.629 651 283.873 648.889 283.873 638C283.873 625.667 283.77 625 281.874 625C280.023 625 279.874 625.667 279.874 633.935C279.874 645.235 278.853 648.247 275.166 647.816C271.752 647.418 271.109 645.259 270.978 633.75C270.898 626.683 270.59 625 269.379 625C268.134 625 267.88 626.944 267.88 636.5ZM287.868 625.677C287.866 626.13 289.289 632.037 291.029 638.804C294.572 652.574 294.349 657.631 290.12 659.487C288.882 660.03 287.871 661.043 287.871 661.737C287.871 663.671 292.344 663.238 294.261 661.118C295.464 659.788 304.667 628.613 304.849 625.25C304.857 625.112 304.002 625 302.949 625C301.348 625 300.639 626.662 298.61 635.177L296.184 645.354L293.725 635.431C291.919 628.138 290.817 625.421 289.569 625.181C288.635 625.001 287.87 625.224 287.868 625.677ZM492.779 638C492.779 650.333 492.882 651 494.778 651C496.674 651 496.777 650.333 496.777 638C496.777 625.667 496.674 625 494.778 625C492.882 625 492.779 625.667 492.779 638ZM361.267 628.571C362.131 629.436 362.837 631.487 362.837 633.129C362.837 636.024 362.707 636.106 358.589 635.807C354.523 635.513 354.355 635.372 354.666 632.512C355.24 627.241 358.181 625.485 361.267 628.571ZM480.174 628.532C483.498 631.858 483.524 643.419 480.215 647.078C478.027 649.496 477.271 649.485 474.787 647C473.169 645.381 472.788 643.667 472.788 638C472.788 632.333 473.169 630.619 474.787 629C477.188 626.598 478.157 626.514 480.174 628.532ZM530.205 629.223C531.061 630.445 531.762 632.47 531.762 633.723C531.762 635.755 531.278 636 527.264 636C523.249 636 522.766 635.755 522.766 633.723C522.766 630.92 525.388 627 527.264 627C528.026 627 529.35 628 530.205 629.223ZM254.573 634.614C258.844 635.76 259.685 644.966 255.713 647.092C254.654 647.659 252.573 647.983 251.088 647.812C248.574 647.521 248.368 647.132 248.082 642.119C247.62 634.018 248.512 632.988 254.573 634.614ZM436.804 641.671C436.804 645.415 434.545 649 432.186 649C430.712 649 428.808 645.937 428.808 643.566C428.808 641.357 432.425 638 434.805 638C436.441 638 436.804 638.667 436.804 641.671ZM493.779 700C493.779 718.333 493.849 719 495.778 719C497.529 719 497.777 718.333 497.777 713.622C497.777 710.082 498.285 707.823 499.263 707.01C500.516 705.971 501.045 706.466 502.618 710.138C503.644 712.537 504.805 715.513 505.196 716.75C505.611 718.062 506.714 719 507.839 719C508.902 719 509.771 718.837 509.771 718.638C509.771 718.438 508.422 715.001 506.773 711C505.123 706.999 503.774 703.2 503.774 702.558C503.774 701.917 505.134 699.246 506.797 696.623C509.733 691.99 509.756 691.864 507.59 692.177C506.089 692.395 504.205 694.455 501.819 698.488L498.277 704.477L497.995 692.738C497.733 681.825 497.575 681 495.746 681C493.859 681 493.779 681.769 493.779 700ZM466.791 684.427C466.791 686.362 467.303 687 468.86 687C470.43 687 470.851 686.461 470.609 684.76C470.134 681.436 466.791 681.144 466.791 684.427ZM243.891 700.884V719H249.965C255.345 719 256.373 718.666 258.961 716.077C262.818 712.217 263.057 706.084 259.489 702.514C257.149 700.173 257.137 700.082 258.989 698.405C260.335 697.186 260.883 695.333 260.883 692C260.883 685.541 258.694 683.71 250.331 683.177L243.891 682.767V700.884ZM254.553 686.986C256.375 687.008 257.704 692.134 256.669 695.15C255.801 697.676 253.456 698.957 249.638 698.986C248.171 698.998 247.889 698.061 247.889 693.167C247.889 686.663 248.418 685.637 251.362 686.428C252.476 686.728 253.911 686.979 254.553 686.986ZM432.806 688.64C432.806 690.092 432.018 691.92 431.057 692.703C429.784 693.738 429.647 694.267 430.557 694.646C431.431 695.01 431.806 697.981 431.806 704.518C431.806 716.735 432.662 719 437.279 719C441.279 719 442.338 716.357 438.553 715.82C436.41 715.515 436.291 715.018 436.019 705.25C435.749 695.515 435.837 695 437.769 695C438.91 695 439.803 694.342 439.803 693.5C439.803 692.667 438.914 692 437.804 692C436.248 692 435.805 691.333 435.805 689C435.805 687 435.305 686 434.305 686C433.351 686 432.806 686.96 432.806 688.64ZM454.796 688.64C454.796 690.092 454.008 691.92 453.047 692.703C451.774 693.738 451.637 694.267 452.547 694.646C453.429 695.013 453.797 698.107 453.797 705.149C453.797 717.062 454.57 719 459.329 719C463.279 719 464.29 716.352 460.543 715.82C458.4 715.515 458.281 715.018 458.01 705.25C457.739 695.515 457.827 695 459.759 695C460.9 695 461.793 694.342 461.793 693.5C461.793 692.667 460.904 692 459.794 692C458.239 692 457.795 691.333 457.795 689C457.795 687 457.295 686 456.295 686C455.341 686 454.796 686.96 454.796 688.64ZM535.093 689.086C534.753 690.783 533.866 692.406 533.119 692.693C531.292 693.394 531.391 695 533.261 695C534.501 695 534.76 696.867 534.76 705.8C534.76 712.867 535.175 717.015 535.96 717.8C537.718 719.559 542.757 719.337 542.757 717.5C542.757 716.671 541.87 716 540.776 716C538.182 716 537.595 713.396 537.962 703.497C538.238 696.07 538.419 695.477 540.508 695.18C543.625 694.738 543.409 692 540.258 692C538.148 692 537.759 691.533 537.759 689C537.759 685.072 535.884 685.132 535.093 689.086ZM266.936 701.75C266.967 707.112 267.53 713.075 268.186 715C269.189 717.944 269.91 718.551 272.722 718.82C274.853 719.025 276.753 718.516 277.969 717.415C279.714 715.836 279.874 715.83 279.874 717.345C279.874 718.255 280.549 719 281.374 719C282.632 719 282.873 716.833 282.873 705.5C282.873 694.657 282.6 692 281.487 692C280.419 692 280.013 694.381 279.718 702.371C279.319 713.161 278.291 716 274.79 716C271.797 716 270.879 712.729 270.879 702.066C270.879 692.667 270.747 692 268.879 692C267.013 692 266.884 692.648 266.936 701.75ZM287.108 693.25C287.356 693.938 289.037 700.192 290.844 707.149L294.129 719.798L292.25 723.649C291.215 725.767 289.695 727.5 288.87 727.5C286.498 727.5 287.128 730.465 289.575 730.814C293.361 731.352 295.207 727.611 299.964 709.754C303.752 695.538 304.301 692.439 303.083 692.152C301.056 691.674 300.489 692.858 298.474 701.771C297.514 706.022 296.487 710.175 296.193 711C295.899 711.825 294.543 707.888 293.18 702.25C291.049 693.448 290.414 692 288.679 692C287.488 692 286.842 692.514 287.108 693.25ZM319.546 693.791C315.457 698.312 315.387 712.611 319.433 717.084C321.702 719.592 329.151 719.471 329.635 716.917C329.869 715.68 329.268 715.432 326.885 715.782C322.808 716.381 321.087 714.721 320.292 709.425C318.975 700.633 321.693 694.607 326.711 695.195C328.549 695.41 329.416 694.985 329.657 693.75C330.151 691.222 321.84 691.256 319.546 693.791ZM336.283 694.073C334.274 696.294 333.035 707.613 334.263 712.511C335.89 718.997 343.418 721.214 347.837 716.508C351.919 712.16 351.889 698.047 347.788 693.944C345.096 691.251 338.771 691.322 336.283 694.073ZM356.84 705.5C356.84 716.833 357.081 719 358.339 719C359.547 719 359.85 717.392 359.895 710.75C359.96 701.361 361.505 695.684 364.135 695.18C368.02 694.434 368.835 696.678 368.835 708.122C368.835 718.333 368.958 719 370.834 719C372.707 719 372.833 718.333 372.833 708.45C372.833 695.371 371.507 692 366.367 692C363.97 692 362.486 692.663 361.395 694.223L359.839 696.445V694.223C359.839 692.914 359.222 692 358.339 692C357.081 692 356.84 694.167 356.84 705.5ZM380.952 694.57C377.077 699.499 376.921 710.965 380.661 715.977C382.174 718.003 383.406 718.5 386.92 718.5C390.158 718.5 391.378 718.079 391.608 716.882C391.854 715.608 391.125 715.289 388.177 715.382C383.55 715.528 381.858 712.882 381.858 705.5C381.858 698.64 383.584 695.5 387.356 695.5C390.353 695.5 392.107 694.267 391.2 692.798C390.929 692.359 388.967 692 386.841 692C383.878 692 382.5 692.601 380.952 694.57ZM398.028 694.465C393.972 699.623 394.46 712.637 398.874 717.053C401.785 719.965 410.816 719.559 410.816 716.516C410.816 715.611 409.582 715.385 406.529 715.729C401.528 716.293 400.027 715.045 399.142 709.589L398.559 706H405.187C411.613 706 411.815 705.923 411.815 703.468C411.815 700.386 409.193 693.858 407.528 692.8C404.877 691.115 399.989 691.972 398.028 694.465ZM416.813 705.5C416.813 718.333 416.912 719 418.812 719C420.662 719 420.811 718.333 420.811 710.047C420.811 699.722 422.046 696 425.47 696C427.141 696 427.808 695.43 427.808 694C427.808 691.337 425.054 691.422 422.125 694.174L419.812 696.349V694.174C419.812 692.908 419.185 692 418.312 692C417.054 692 416.813 694.167 416.813 705.5ZM466.791 705.5C466.791 718.333 466.89 719 468.79 719C470.69 719 470.789 718.333 470.789 705.5C470.789 692.667 470.69 692 468.79 692C466.89 692 466.791 692.667 466.791 705.5ZM478.884 694.601C474.979 699.568 474.793 710.852 478.533 715.864C480.136 718.011 481.312 718.5 484.877 718.5C488.198 718.5 489.332 718.091 489.579 716.803C489.851 715.391 489.33 715.199 486.478 715.662C481.799 716.422 479.78 713.509 479.8 706.027C479.819 698.649 481.468 695.5 485.312 695.5C488.309 695.5 490.063 694.267 489.156 692.798C488.885 692.359 486.923 692 484.797 692C481.822 692 480.458 692.6 478.884 694.601ZM515.825 693.944C511.698 698.073 511.695 712.161 515.819 716.554C517.804 718.667 518.958 719.042 522.724 718.796C525.994 718.582 527.333 718.04 527.56 716.838C527.823 715.455 527.235 715.261 524.066 715.686C519.591 716.287 517.154 714.265 516.61 709.5L516.268 706.5L522.516 706.202L528.763 705.905L528.759 702.202C528.757 700.166 527.864 697.038 526.775 695.25C525.144 692.576 524.172 692 521.281 692C519.134 692 517.012 692.756 515.825 693.944ZM547.452 693.782C545.46 695.983 545.224 700.964 547.005 703.154C547.692 703.999 549.74 705.708 551.558 706.952C554.292 708.825 554.809 709.757 554.556 712.358C554.264 715.362 554.063 715.496 549.961 715.411C546.552 715.339 545.732 715.648 545.972 716.911C546.185 718.037 547.627 718.588 550.92 718.801C554.812 719.053 555.825 718.733 557.158 716.829C560.183 712.508 559.231 709.131 553.502 703.858C549.061 699.771 548.426 698.757 549.375 697.264C550.131 696.075 551.759 695.5 554.372 695.5C557.152 695.5 558.25 695.076 558.25 694C558.25 691.574 549.607 691.4 547.452 693.782ZM345.916 697.132C347.201 699.536 347.525 709.33 346.431 712.748C345.7 715.031 341.807 716.711 339.932 715.552C336.942 713.703 336.292 701.777 338.915 696.875C340.288 694.307 344.488 694.462 345.916 697.132ZM406.783 696.934C407.351 697.998 407.817 699.798 407.817 700.934C407.817 702.716 407.198 703 403.319 703C398.304 703 397.474 701.37 400.377 697.223C402.294 694.485 405.397 694.346 406.783 696.934ZM523.562 696.256C524.135 696.946 524.914 698.746 525.292 700.256C525.968 702.951 525.898 703 521.374 703C517.386 703 516.768 702.723 516.768 700.934C516.768 696.044 520.98 693.143 523.562 696.256ZM256.314 703.571C260.38 707.64 256.611 716.45 251.076 715.811C248.49 715.512 248.378 715.247 248.093 708.75L247.798 702H251.27C253.18 702 255.449 702.707 256.314 703.571ZM333.548 775.636C333.165 776.019 332.869 777.046 332.892 777.917C332.943 779.915 398.473 826.445 401.281 826.477C402.402 826.49 418.278 815.925 436.561 803C462.372 784.753 469.745 779.07 469.546 777.578C469.405 776.521 468.84 775.51 468.29 775.331C467.74 775.152 452.45 785.537 434.311 798.409L401.332 821.812L396.828 818.562C378.309 805.199 336.57 775.83 335.53 775.431C334.824 775.16 333.932 775.252 333.548 775.636ZM475.01 868.557C473.359 869.714 472.788 871.117 472.788 874.022C472.788 876.906 472.264 878.21 470.789 879C469.689 879.589 468.79 880.505 468.79 881.035C468.79 881.566 469.689 882 470.789 882C472.677 882 472.788 882.667 472.788 894C472.788 904 473.038 906 474.287 906C475.537 906 475.787 904 475.787 894C475.787 882.667 475.898 882 477.786 882C478.896 882 479.785 881.333 479.785 880.5C479.785 879.667 478.896 879 477.786 879C476.337 879 475.787 878.333 475.787 876.582C475.787 872.647 476.85 871 479.392 871C482.089 871 482.673 868.555 480.203 867.607C477.94 866.738 477.487 866.821 475.01 868.557ZM244.806 887.495C242.464 897.117 240.831 905.273 241.177 905.618C242.782 907.224 244.828 904.635 245.963 899.564L247.207 894H251.438H255.669L257.072 899.745C258.021 903.639 259.022 905.595 260.177 905.818C262.57 906.279 262.428 905.14 257.76 886.479C253.932 871.178 253.474 870 251.351 870C249.218 870 248.778 871.176 244.806 887.495ZM351.36 875.916C351.009 877.521 350.073 879.081 349.282 879.385C347.387 880.113 347.431 882 349.343 882C350.577 882 350.843 883.785 350.843 892.066C350.843 903.706 351.671 906 355.875 906C359.278 906 360.001 903.537 356.84 902.71C355.008 902.231 354.841 901.346 354.841 892.094C354.841 882.667 354.973 882 356.84 882C357.95 882 358.839 881.333 358.839 880.5C358.839 879.667 357.95 879 356.84 879C355.285 879 354.841 878.333 354.841 876C354.841 872.061 352.221 871.998 351.36 875.916ZM390.492 873.667C390.125 874.033 389.825 875.335 389.825 876.56C389.825 877.784 389.15 879.045 388.326 879.362C387.501 879.678 386.827 880.401 386.827 880.969C386.827 881.536 387.501 882 388.326 882C389.566 882 389.825 883.867 389.825 892.8C389.825 904.544 390.398 906 395.023 906C397.182 906 397.822 905.529 397.822 903.941C397.822 902.765 397.374 902.159 396.778 902.527C396.204 902.882 395.08 902.628 394.279 901.964C393.195 901.063 392.824 898.368 392.824 891.378C392.824 882.041 392.835 882 395.323 882C396.878 882 397.822 881.433 397.822 880.5C397.822 879.567 396.878 879 395.323 879C393.213 879 392.824 878.533 392.824 876C392.824 873.133 391.924 872.233 390.492 873.667ZM254.299 887.386L254.977 891H251.324C248.049 891 247.726 890.768 248.195 888.75C248.482 887.513 249.295 883.829 250.003 880.564L251.289 874.627L252.455 879.2C253.096 881.715 253.926 885.399 254.299 887.386ZM276.343 880.442C273.503 883.283 272.971 889.378 275.286 892.545C276.3 893.933 276.413 894.996 275.69 896.348C275.139 897.38 274.908 899.38 275.178 900.793C275.491 902.436 274.929 904.363 273.616 906.139C268.898 912.524 275.637 919.285 284.327 916.885C290.1 915.29 292.429 908.407 288.985 903.113C288.49 902.351 285.787 901.506 282.98 901.236C278.799 900.834 277.875 900.401 277.875 898.841C277.875 896.892 278.313 896.62 283.189 895.548C286.602 894.797 289.309 889.273 288.367 884.98C287.905 882.879 288.205 881.913 289.551 881.159C292.032 879.769 291.267 879.379 284.589 878.626C279.326 878.033 278.589 878.195 276.343 880.442ZM300.436 879.571C299.573 880.436 298.837 881.673 298.803 882.321C298.768 882.97 298.332 882.487 297.835 881.25C295.729 876.008 294.868 879.275 294.868 892.5C294.868 903.833 295.109 906 296.367 906C297.581 906 297.866 904.405 297.866 897.649C297.866 887.925 299.166 883.352 302.199 882.406C304.608 881.654 305.99 880.015 305.238 878.798C304.44 877.507 302.128 877.88 300.436 879.571ZM313.181 879.189C307.332 882.018 306.535 897.829 311.949 903.595C315.355 907.221 323.855 906.389 323.855 902.43C323.855 901.257 323.433 901.155 321.922 901.965C317.342 904.417 313.424 902.077 312.247 896.184L311.61 893H318.232H324.854V889.968C324.854 885.253 322.269 880.108 319.34 878.994C316.246 877.817 316.001 877.824 313.181 879.189ZM333.017 879.024C330.302 880.157 330.658 882.679 333.454 882.123C337.517 881.314 338.309 881.595 339.639 884.311C341.543 888.202 340.573 890 336.569 890C331.899 890 328.853 893.086 328.853 897.816C328.853 904.979 334.372 908.478 338.756 904.092C340.631 902.216 340.67 902.216 341.161 904.092C341.435 905.142 342.189 906 342.834 906C344.331 906 343.843 881.59 342.315 880.066C340.749 878.504 335.636 877.931 333.017 879.024ZM373.406 880.336C368.811 884.933 369.724 887.462 378.792 895.25C383.27 899.096 379.572 904.151 373.761 902.125C371.215 901.237 370.834 901.344 370.834 902.945C370.834 906.18 377.681 907.194 381.492 904.523C386.371 901.104 385.157 894.57 378.87 890.408C376.07 888.554 374.832 887.019 374.832 885.402C374.832 882.365 378.083 880.53 380.844 882.008C382.438 882.861 382.985 882.755 383.466 881.5C384.263 879.423 383.769 879.027 379.527 878.338C376.605 877.864 375.525 878.216 373.406 880.336ZM404.984 879.024C402.27 880.157 402.625 882.679 405.422 882.123C409.484 881.314 410.277 881.595 411.606 884.311C413.511 888.202 412.541 890 408.537 890C403.867 890 400.82 893.086 400.82 897.816C400.82 904.979 406.34 908.478 410.724 904.092C412.599 902.216 412.638 902.216 413.129 904.092C413.403 905.142 414.119 906 414.72 906C416.335 906 416.192 882.891 414.564 880.705C413.001 878.606 408.063 877.74 404.984 879.024ZM425.052 879.223C421.613 880.883 420.235 886.683 422.176 891.332C423.39 894.238 423.49 895.609 422.626 897.504C421.794 899.334 421.819 900.305 422.73 901.403C423.707 902.581 423.541 903.269 421.878 904.933C419.326 907.486 419.214 912.04 421.631 915.026C424.029 917.989 430.82 918.125 434.634 915.286C436.73 913.726 437.369 912.32 437.605 908.742C437.856 904.942 437.528 903.92 435.634 902.592C434.383 901.717 431.688 901 429.644 901C427.599 901 425.674 900.591 425.365 900.09C424.281 898.335 426.047 896 428.46 896C429.801 896 432.035 894.862 433.425 893.472C435.506 891.39 435.903 890.142 435.674 886.407C435.484 883.316 435.849 881.591 436.82 880.99C437.604 880.505 438.034 879.92 437.775 879.69C436.55 878.6 427.066 878.252 425.052 879.223ZM446.006 879.048C439.342 881.723 439.071 901.397 445.65 904.92C449.828 907.157 455.796 905.944 455.796 902.858C455.796 901.261 455.463 901.108 453.862 901.965C452.799 902.534 451.225 903 450.364 903C447.801 903 444.801 899.224 444.801 896V893H450.798H456.795V889.047C456.795 883.934 455.186 880.499 452.14 879.11C449.317 877.823 449.062 877.821 446.006 879.048ZM488.102 879.189C485.015 880.682 483.289 885.532 483.366 892.5C483.46 900.993 486.457 905.898 491.596 905.968C497.356 906.047 500.775 900.844 500.775 892C500.775 881.281 495.274 875.72 488.102 879.189ZM512.341 879.571C511.478 880.436 510.742 881.673 510.708 882.321C510.673 882.97 510.237 882.487 509.74 881.25C507.634 876.008 506.773 879.275 506.773 892.5C506.773 903.833 507.014 906 508.272 906C509.486 906 509.771 904.405 509.771 897.649C509.771 887.925 511.071 883.352 514.103 882.406C516.513 881.654 517.895 880.015 517.143 878.798C516.345 877.507 514.032 877.88 512.341 879.571ZM284.295 884.26C285.515 887.73 284.008 892.35 281.497 892.834C278.9 893.334 277.698 891.756 277.584 887.692C277.401 881.235 282.343 878.707 284.295 884.26ZM319.028 882.655C320.033 883.565 320.856 885.59 320.856 887.155C320.856 889.872 320.647 890 316.233 890H311.61L312.248 886.75C312.794 883.971 315.105 881 316.72 881C316.984 881 318.022 881.745 319.028 882.655ZM431.656 884C432.384 886.088 432.384 887.912 431.656 890C429.897 895.048 424.81 893.364 424.81 887.734C424.81 881.1 429.714 878.425 431.656 884ZM452.874 884.701C454.609 889.27 454.116 890 449.299 890C445.167 890 444.801 889.796 444.801 887.5C444.801 884.384 448.182 880.826 450.352 881.659C451.232 881.997 452.366 883.366 452.874 884.701ZM495.743 883.934C497.534 887.283 497.025 898.472 494.966 901.016C492.449 904.126 489.246 902.94 487.727 898.336C486.347 894.151 486.931 885.73 488.753 883.533C490.53 881.391 494.504 881.619 495.743 883.934ZM340.64 894.163C341.228 897.218 338.11 903 335.875 903C331.535 903 331.239 893.831 335.543 892.69C338.509 891.904 340.305 892.423 340.64 894.163ZM412.608 894.163C413.196 897.218 410.078 903 407.843 903C403.503 903 403.207 893.831 407.51 892.69C410.477 891.904 412.273 892.423 412.608 894.163ZM286.372 908.987C286.372 911.837 285.85 912.723 283.51 913.845C279.475 915.78 275.876 914.072 275.876 910.221C275.876 906.269 277.699 904.86 282.369 905.204C286.218 905.489 286.372 905.634 286.372 908.987ZM434.371 907.407C436.103 914.31 425.469 917.805 423.322 911.039C422.141 907.315 424.441 905 429.323 905C433.184 905 433.846 905.316 434.371 907.407ZM256.05 942.502C256.234 946.079 256.16 948.877 255.885 948.72C250.889 945.877 249.946 945.732 247.385 947.41C243.961 949.656 242.891 952.797 242.891 960.615C242.891 972.229 248.458 977.572 254.572 971.826L256.885 969.651V971.826C256.885 973.092 257.512 974 258.384 974C259.665 974 259.883 971.222 259.883 955C259.883 936.408 259.838 936 257.799 936C255.865 936 255.739 936.471 256.05 942.502ZM339.848 955.073C339.848 972.7 339.981 974.121 341.597 973.81C343.177 973.507 343.372 971.661 343.618 954.737C343.883 936.509 343.835 936 341.869 936C339.911 936 339.848 936.597 339.848 955.073ZM434.97 942.502C435.154 946.079 435.08 948.877 434.805 948.72C429.809 945.877 428.866 945.732 426.305 947.41C422.88 949.656 421.811 952.797 421.811 960.615C421.811 972.229 427.377 977.572 433.492 971.826L435.805 969.651V971.826C435.805 973.092 436.431 974 437.304 974C438.584 974 438.803 971.222 438.803 955C438.803 936.408 438.758 936 436.719 936C434.785 936 434.659 936.471 434.97 942.502ZM508.772 955C508.772 973.333 508.842 974 510.771 974C512.7 974 512.77 973.333 512.77 955C512.77 936.667 512.7 936 510.771 936C508.842 936 508.772 936.667 508.772 955ZM266.598 938.292C266.306 939.056 266.429 940.269 266.872 940.986C267.993 942.801 271.102 941.4 270.691 939.265C270.276 937.106 267.323 936.404 266.598 938.292ZM296.047 939.24C296.522 942.564 299.866 942.856 299.866 939.573C299.866 937.638 299.353 937 297.796 937C296.226 937 295.805 937.539 296.047 939.24ZM307.38 943.916C307.028 945.521 306.093 947.081 305.302 947.385C303.407 948.113 303.451 950 305.363 950C306.597 950 306.862 951.785 306.862 960.066C306.862 965.602 307.328 971.002 307.897 972.066C309.174 974.454 314.859 974.808 314.859 972.5C314.859 971.675 314.173 971 313.334 971C311.009 971 309.861 966.685 309.861 957.935C309.861 950.138 309.904 950 312.36 950C315.512 950 315.727 947.262 312.61 946.82C311 946.591 310.271 945.719 310.045 943.75C309.63 940.145 308.189 940.235 307.38 943.916ZM278.502 948.079C276.311 949.803 275.876 950.95 275.876 955.001C275.876 957.995 276.454 960.435 277.384 961.365C278.424 962.406 278.549 963.083 277.787 963.554C277.178 963.931 276.871 965.828 277.101 967.798C277.395 970.321 276.986 971.89 275.696 973.18C273.675 975.202 273.33 979.11 274.912 982.066C275.767 983.664 277.041 984 282.253 984C289.74 984 292.269 982.061 292.269 976.321C292.269 971.712 289.117 969 283.762 969C280.281 969 279.874 968.738 279.874 966.5C279.874 964.389 280.341 964 282.873 964C287.471 964 289.87 960.932 289.87 955.05C289.87 951.384 290.322 949.846 291.611 949.125C294.018 947.777 293.231 947.375 286.748 946.645C281.987 946.109 280.727 946.328 278.502 948.079ZM322.022 947.062C320.739 947.577 319.896 948.561 320.147 949.249C320.628 950.561 321.094 950.604 324.355 949.638C327.327 948.757 329.008 950.313 329.19 954.113C329.342 957.292 329.137 957.52 325.854 957.825C320.986 958.276 317.857 961.456 317.857 965.952C317.857 972.988 323.418 976.437 327.761 972.092C329.636 970.216 329.675 970.216 330.166 972.092C330.44 973.142 331.157 974 331.757 974C332.488 974 332.851 970.018 332.851 962C332.851 951.333 332.629 949.778 330.852 948C328.715 945.862 325.789 945.552 322.022 947.062ZM360.948 947.71C357.881 950.195 356.988 957.051 359.277 960.546C360.609 962.581 360.717 963.441 359.781 964.569C359.108 965.381 358.843 967.269 359.172 968.915C359.556 970.836 359.259 972.237 358.297 973.035C356.539 974.495 356.364 981.124 358.039 982.8C358.716 983.477 361.959 984 365.479 984C370.795 984 371.95 983.671 373.276 981.777C375.159 979.088 375.301 974.023 373.558 971.641C372.814 970.621 370.225 969.604 367.311 969.187C363.293 968.612 362.338 968.101 362.338 966.529C362.338 965.109 363.279 964.389 365.812 963.871C370.843 962.842 373.154 959.543 372.557 954.244C372.19 950.985 372.461 949.748 373.694 949.057C375.978 947.779 375.116 947.345 368.758 946.575C364.19 946.021 362.779 946.226 360.948 947.71ZM381.135 948.413C378.448 950.726 378.33 951.205 378.33 959.833C378.33 967.988 378.559 969.083 380.753 971.419C383.822 974.687 387.834 974.757 391.493 971.608C393.985 969.464 394.312 968.442 394.65 961.755C395.082 953.208 393.365 948.536 389.212 946.957C385.468 945.533 384.221 945.758 381.135 948.413ZM403.137 948.403C400.595 950.591 400.313 951.512 399.999 958.653C399.693 965.58 399.93 966.91 402.018 970C405.091 974.549 409.346 975.169 413.421 971.662C415.985 969.455 416.3 968.486 416.64 961.755C417.072 953.208 415.355 948.536 411.203 946.957C407.46 945.534 406.211 945.758 403.137 948.403ZM446.373 948.336C441.778 952.933 442.691 955.462 451.759 963.25C456.237 967.096 452.539 972.151 446.729 970.125C444.182 969.237 443.801 969.344 443.801 970.945C443.801 974.18 450.648 975.194 454.459 972.523C459.338 969.104 458.125 962.57 451.837 958.408C449.038 956.554 447.799 955.019 447.799 953.402C447.799 950.365 451.051 948.53 453.812 950.008C455.405 950.861 455.953 950.755 456.433 949.5C457.23 947.423 456.736 947.027 452.494 946.338C449.572 945.864 448.492 946.216 446.373 948.336ZM472.361 948.336C468.017 952.682 468.965 956.648 475.407 961.083C478.539 963.239 479.785 964.784 479.785 966.513C479.785 969.771 476.392 971.597 473.114 970.103C469.925 968.649 469.789 968.681 469.789 970.893C469.789 974.175 476.603 975.218 480.448 972.523C485.305 969.12 484.159 962.813 477.875 958.364C475.253 956.507 473.823 954.721 473.809 953.285C473.781 950.362 477.085 948.554 479.8 950.008C481.393 950.861 481.941 950.755 482.422 949.5C483.218 947.423 482.725 947.027 478.482 946.338C475.561 945.864 474.48 946.216 472.361 948.336ZM491.047 947.025C487.804 948.33 489.086 951.215 492.355 949.971C495.542 948.759 497.66 949.684 498.393 952.608C499.355 956.444 498.198 958 494.382 958C489.547 958 486.394 962.02 487.097 967.289C487.374 969.373 488.147 971.736 488.814 972.539C490.423 974.479 495.199 974.402 496.852 972.41C498.055 970.96 498.281 970.969 499.407 972.51C501.715 975.668 502.775 973.046 502.769 964.191C502.759 948.324 499.538 943.608 491.047 947.025ZM523.086 947.167C520.818 948.287 519.345 951.211 518.246 956.772C516.624 964.98 521.164 974 526.919 974C530.663 974 533.761 972.383 533.761 970.43C533.761 969.257 533.339 969.155 531.827 969.965C530.764 970.534 528.998 971 527.901 971C525.392 971 521.766 966.487 521.766 963.365C521.766 961.121 522.098 961 528.263 961C534.336 961 534.76 960.853 534.754 958.75C534.746 955.359 532.888 949.351 531.489 948.189C529.466 946.508 525.417 946.016 523.086 947.167ZM541.757 947.288C539.797 948.275 539.193 949.438 538.955 952.679C538.674 956.508 538.987 957.092 543.203 960.618C548.009 964.637 548.984 967.734 546.175 970.067C544.96 971.076 543.923 971.124 541.677 970.276C539.122 969.311 538.758 969.399 538.758 970.98C538.758 974.67 546.314 975.163 549.58 971.686C553.228 967.8 552.438 964.255 546.755 959C544.006 956.459 541.757 953.635 541.757 952.725C541.757 950.289 545.129 948.811 548.103 949.943C549.998 950.664 550.716 950.538 551.149 949.411C551.516 948.455 550.819 947.595 549.17 946.968C545.876 945.715 544.786 945.763 541.757 947.288ZM266.88 960.5C266.88 971.833 267.121 974 268.38 974C269.638 974 269.879 971.833 269.879 960.5C269.879 949.167 269.638 947 268.38 947C267.121 947 266.88 949.167 266.88 960.5ZM296.088 960.238C296.334 971.92 296.573 973.515 298.116 973.811C299.713 974.117 299.866 972.962 299.866 960.573C299.866 947.602 299.776 947 297.837 947C295.887 947 295.82 947.512 296.088 960.238ZM286.295 952.25C287.716 956.31 285.985 960.5 282.886 960.5C279.798 960.5 278.194 955.912 279.805 951.681C281.213 947.98 284.913 948.305 286.295 952.25ZM367.777 950.43C368.43 951.217 368.823 953.534 368.65 955.579C368.03 962.899 361.838 962.443 361.838 955.078C361.838 949.711 365.077 947.176 367.777 950.43ZM529.206 951.223C530.061 952.445 530.762 954.47 530.762 955.723C530.762 957.764 530.283 958 526.139 958H521.516L522.154 954.75C522.738 951.78 525.032 949 526.898 949C527.312 949 528.35 950 529.206 951.223ZM254.851 951.934C256.574 955.155 256.146 967.054 254.231 969.171C252.096 971.532 250.633 971.48 248.356 968.964C246.172 966.549 245.782 955.889 247.745 952.25C249.263 949.435 253.414 949.25 254.851 951.934ZM389.908 951.601C392.045 954.176 391.669 966.409 389.376 968.944C387.037 971.529 385.622 971.536 383.305 968.975C381.101 966.538 380.677 955.785 382.645 952.25C384.119 949.604 387.967 949.26 389.908 951.601ZM411.898 951.601C414.035 954.176 413.659 966.409 411.367 968.944C409.028 971.529 407.612 971.536 405.295 968.975C403.091 966.538 402.667 955.785 404.636 952.25C406.109 949.604 409.957 949.26 411.898 951.601ZM433.77 951.934C435.494 955.155 435.066 967.054 433.151 969.171C431.016 971.532 429.552 971.48 427.275 968.964C425.091 966.549 424.702 955.889 426.665 952.25C428.183 949.435 432.334 949.25 433.77 951.934ZM329.837 962.75C329.814 967.132 327.636 970.5 324.824 970.5C322.651 970.5 322.319 970.011 322.057 966.425C321.806 963.003 322.127 962.172 324.056 961.242C328.134 959.278 329.853 959.726 329.837 962.75ZM498.776 963.389C498.776 967.973 495.582 971.912 493.092 970.399C490.278 968.69 490.192 963.525 492.945 961.596C496.788 958.903 498.776 959.514 498.776 963.389ZM288.371 976.987C288.371 979.837 287.849 980.723 285.509 981.845C281.213 983.905 277.875 982.088 277.875 977.688C277.875 973.287 278.453 972.853 283.836 973.204C288.293 973.495 288.371 973.56 288.371 976.987ZM370.681 974.75C371.965 977.203 370.375 980.796 367.405 982.15C362.526 984.374 357.341 977.899 361.038 974.2C362.928 972.309 369.601 972.69 370.681 974.75Z" fill="black"/>
</svg>
