<svg width="1758" height="466" viewBox="0 0 1758 466" fill="none" xmlns="http://www.w3.org/2000/svg">
<path fill-rule="evenodd" clip-rule="evenodd" d="M542.121 0.705173C539.809 1.17617 536.956 2.07617 535.782 2.70417C531.825 4.82217 525.694 11.0172 523.502 15.1142C521.359 19.1162 521.324 19.8982 521.324 63.1822C521.324 106.466 521.359 107.248 523.502 111.25C524.699 113.488 527.561 117.019 529.862 119.097C537.921 126.379 536.424 126.182 583.824 126.182C631.224 126.182 629.727 126.379 637.786 119.097C640.087 117.019 642.949 113.488 644.146 111.25C646.271 107.28 646.331 106.148 646.614 64.4612C646.899 22.6122 646.861 21.6382 644.751 16.7342C643.558 13.9612 640.614 9.90017 638.15 7.62917C629.891 0.016171 631.159 0.202172 586.324 0.0161721C564.324 -0.0758279 544.432 0.234173 542.121 0.705173ZM74.8235 8.68917C52.5425 9.73917 48.4345 10.7912 43.4425 16.7232L40.8235 19.8352V57.6242C40.8235 94.4672 40.8755 95.4792 42.9185 98.0752C46.4525 102.569 51.4925 104.405 63.6145 105.617C77.7755 107.033 135.95 107.085 150.689 105.695C162.535 104.578 165.431 103.81 169.955 100.589L172.824 98.5462V57.7882V17.0312L170.444 14.7942C166.477 11.0682 159.619 9.74217 138.923 8.69817C117.623 7.62417 97.4785 7.62117 74.8235 8.68917ZM1076.12 9.64217C1069.74 13.5322 1069.82 12.8312 1069.83 63.3822C1069.83 107.556 1069.9 109.3 1071.85 112.492C1075.59 118.633 1076.02 118.682 1125.84 118.682C1175.6 118.682 1174.98 118.756 1178.86 112.383C1180.73 109.33 1180.82 107.056 1180.81 63.1822C1180.8 28.3882 1180.49 16.5802 1179.54 14.7122C1178.86 13.3542 1176.77 11.2162 1174.91 9.96217L1171.53 7.68217L1125.43 7.68617C1081.46 7.68917 1079.17 7.78017 1076.12 9.64217ZM1607.62 9.08417C1600.99 10.8672 1595.36 15.0982 1591.66 21.0652C1589 25.3692 1588.42 27.4312 1588.02 34.0462L1587.55 41.9102L1581.81 41.2602C1564.49 39.3012 1542.47 27.9832 1533.38 16.3772L1530.91 13.2232L1529.37 16.9202C1528.52 18.9542 1527.82 23.4692 1527.82 26.9542C1527.82 34.5282 1531.05 41.9212 1536.43 46.6372C1539.76 49.5612 1539.8 49.6822 1537.48 49.6822C1536.16 49.6822 1533.2 49.0212 1530.91 48.2122L1526.74 46.7432L1527.4 50.4622C1529.01 59.5182 1536.81 69.0382 1544.78 71.6672C1549.91 73.3612 1549.03 74.6822 1542.76 74.6822C1536.86 74.6822 1536.58 75.6622 1540.78 81.4652C1544.36 86.4002 1551.06 90.5062 1558.1 92.0692L1563.31 93.2252L1557.32 96.9892C1549.65 101.804 1540.25 104.657 1531.08 104.95C1527.1 105.078 1523.84 105.323 1523.83 105.495C1523.83 105.667 1526.64 107.079 1530.07 108.634C1545.28 115.513 1558.77 117.713 1573.82 115.773C1594.38 113.124 1610.69 104.274 1623.4 88.8702C1633.99 76.0322 1640.28 60.2162 1641.5 43.3672L1642.13 34.5522L1648.48 28.4542C1651.97 25.1012 1654.7 22.2252 1654.54 22.0652C1654.38 21.9042 1652.46 22.4072 1650.29 23.1832C1648.11 23.9592 1645.03 24.6142 1643.45 24.6382L1640.58 24.6822L1644.45 20.8642C1646.58 18.7642 1649.13 15.6202 1650.12 13.8792L1651.92 10.7122L1647.39 12.6542C1644.9 13.7212 1641.05 15.0832 1638.83 15.6792C1635.06 16.6952 1634.57 16.5692 1630.96 13.6702C1627.29 10.7242 1618.61 7.64217 1614.32 7.76117C1613.22 7.79217 1610.21 8.38717 1607.62 9.08417ZM599.641 19.2872C602.1 28.4812 609.157 35.3572 617.955 37.1302C621.059 37.7562 621.791 39.8342 621.81 48.0702L621.824 53.9572L616.083 53.2832C612.925 52.9112 608.009 51.5402 605.157 50.2342L599.972 47.8602L599.648 67.5212C599.334 86.5972 599.245 87.3332 596.652 92.2452C591.061 102.838 581.005 109.035 569.324 109.087C557.042 109.141 547.546 102.962 541.809 91.1822C538.373 84.1262 538.37 73.2442 541.802 66.1982C546.744 56.0492 557.89 48.6822 568.3 48.6822H572.701L573.336 52.9322C573.684 55.2702 573.824 59.1422 573.647 61.5382L573.324 65.8952L568.599 66.0782C562.934 66.2972 558.414 69.9822 556.67 75.8022C555.711 79.0022 555.866 80.1372 557.806 84.1462C560.599 89.9152 563.704 92.0152 569.441 92.0152C574.723 92.0152 578.534 89.5902 581.072 84.6112C582.633 81.5502 582.821 77.6112 582.822 47.9322L582.824 14.6822H590.617H598.409L599.641 19.2872ZM1151.04 24.2382C1156.87 26.2262 1162.28 31.6382 1164.27 37.4702C1166.51 44.0602 1166.51 82.3042 1164.27 88.8942C1162.28 94.7262 1156.87 100.138 1151.04 102.126C1144.47 104.363 1106.2 104.371 1099.65 102.137C1094.73 100.462 1089.66 96.0952 1087 91.2432C1084.5 86.6842 1083.95 44.8352 1086.29 37.7742C1088.24 31.9032 1093.63 26.2762 1099.2 24.3032C1105.35 22.1232 1144.68 22.0742 1151.04 24.2382ZM1102.32 31.1482C1093.04 34.5172 1091.57 39.4302 1092 65.5622C1092.36 87.5932 1093.07 90.1572 1099.86 94.1472C1103.06 96.0272 1105 96.1822 1125.32 96.1822C1145.65 96.1822 1147.59 96.0272 1150.79 94.1472C1152.69 93.0272 1155.17 90.5522 1156.29 88.6472C1158.17 85.4462 1158.32 83.5082 1158.32 63.1822C1158.32 42.8562 1158.17 40.9182 1156.29 37.7172C1152.25 30.8482 1149.84 30.2122 1126.82 29.9392C1110.92 29.7512 1105.43 30.0222 1102.32 31.1482ZM110.941 46.2012C131.585 58.1962 130.395 57.4532 129.816 57.9762C128.848 58.8502 93.9745 78.6822 93.4055 78.6822C93.0855 78.6822 92.8235 69.2322 92.8235 57.6822C92.8235 46.1322 93.2135 36.6822 93.6905 36.6822C94.1685 36.6822 101.931 40.9652 110.941 46.2012ZM1150.62 37.8822C1154.05 41.3122 1149.26 48.0562 1145.01 45.7812C1142.19 44.2702 1141.55 41.7432 1143.32 39.0412C1144.99 36.4982 1148.66 35.9152 1150.62 37.8822ZM1135.23 44.9482C1137.38 46.1772 1140.52 48.9032 1142.21 51.0052C1144.91 54.3522 1145.33 55.7232 1145.6 62.0052C1145.95 70.3762 1143.93 74.8932 1137.52 80.0572C1134.28 82.6612 1132.69 83.1812 1126.93 83.5062C1119.05 83.9522 1113.86 81.8962 1109.35 76.5322C1105.73 72.2242 1104.68 69.2062 1104.68 63.0322C1104.68 55.0042 1108.98 48.0762 1116.32 44.2552C1120.9 41.8722 1130.46 42.2232 1135.23 44.9482ZM1118.12 51.6422C1107.1 58.3622 1111.84 76.6642 1124.61 76.6782C1135.38 76.6912 1141.58 67.2242 1137.38 57.1722C1134.53 50.3372 1124.83 47.5522 1118.12 51.6422ZM511.824 230.682C511.824 249.015 511.894 249.682 513.824 249.682C515.754 249.682 515.824 249.015 515.824 230.682C515.824 212.349 515.754 211.682 513.824 211.682C511.894 211.682 511.824 212.349 511.824 230.682ZM731.824 230.682C731.824 249.015 731.894 249.682 733.824 249.682C735.754 249.682 735.824 249.015 735.824 230.682C735.824 212.349 735.754 211.682 733.824 211.682C731.894 211.682 731.824 212.349 731.824 230.682ZM404.218 214.099C403.39 216.256 404.541 218.943 406.075 218.432C406.762 218.203 407.324 216.965 407.324 215.682C407.324 212.941 405.097 211.806 404.218 214.099ZM522.156 214.26C521.823 215.127 522.213 216.5 523.023 217.31C524.295 218.581 524.657 218.588 525.677 217.359C527.105 215.638 526.162 212.682 524.186 212.682C523.402 212.682 522.489 213.392 522.156 214.26ZM385.824 231.682C385.824 249.015 385.898 249.682 387.824 249.682C389.646 249.682 389.824 249.015 389.824 242.182V234.682H394.324C398.157 234.682 398.824 234.386 398.824 232.682C398.824 230.978 398.157 230.682 394.324 230.682H389.824V224.182V217.682H394.824C399.157 217.682 399.824 217.415 399.824 215.682C399.824 213.872 399.157 213.682 392.824 213.682H385.824V231.682ZM447.491 217.349C447.124 217.715 446.824 219.043 446.824 220.299C446.824 221.555 446.036 223.081 445.074 223.69C443.821 224.484 443.679 224.947 444.574 225.323C445.447 225.69 445.824 228.666 445.824 235.2C445.824 247.417 446.68 249.682 451.299 249.682C455.301 249.682 456.36 247.039 452.574 246.502C450.43 246.197 450.311 245.7 450.039 235.932L449.754 225.682H452.289C453.876 225.682 454.824 225.121 454.824 224.182C454.824 223.249 453.88 222.682 452.324 222.682C450.213 222.682 449.824 222.215 449.824 219.682C449.824 216.815 448.924 215.915 447.491 217.349ZM469.491 217.349C469.124 217.715 468.824 219.043 468.824 220.299C468.824 221.555 468.036 223.081 467.074 223.69C465.821 224.484 465.679 224.947 466.574 225.323C467.447 225.69 467.824 228.666 467.824 235.2C467.824 247.417 468.68 249.682 473.299 249.682C477.301 249.682 478.36 247.039 474.574 246.502C472.43 246.197 472.311 245.7 472.039 235.932L471.754 225.682H474.289C475.876 225.682 476.824 225.121 476.824 224.182C476.824 223.249 475.88 222.682 474.324 222.682C472.213 222.682 471.824 222.215 471.824 219.682C471.824 216.815 470.924 215.915 469.491 217.349ZM550.325 219.676C549.964 221.323 548.915 223.123 547.996 223.676C546.443 224.61 546.449 224.757 548.074 225.732C549.559 226.622 549.824 228.336 549.824 237.032C549.824 243.671 550.247 247.705 551.024 248.482C552.783 250.241 557.824 250.019 557.824 248.182C557.824 247.357 556.944 246.682 555.869 246.682C553.408 246.682 552.592 242.821 553.016 233.182C553.297 226.794 553.521 226.154 555.574 225.862C558.693 225.42 558.477 222.682 555.324 222.682C553.213 222.682 552.824 222.215 552.824 219.682C552.824 215.806 551.176 215.802 550.325 219.676ZM615.824 218.459C615.824 219.437 615.064 221.321 614.136 222.647C612.939 224.356 612.794 225.172 613.636 225.453C614.448 225.723 614.824 229.012 614.824 235.831C614.824 247.388 615.658 249.682 619.859 249.682C623.263 249.682 623.986 247.219 620.824 246.392C618.991 245.913 618.824 245.028 618.824 235.776C618.824 226.349 618.956 225.682 620.824 225.682C621.935 225.682 622.824 225.015 622.824 224.182C622.824 223.349 621.935 222.682 620.824 222.682C619.268 222.682 618.824 222.015 618.824 219.682C618.824 217.682 618.324 216.682 617.324 216.682C616.499 216.682 615.824 217.482 615.824 218.459ZM403.824 236.182C403.824 249.015 403.923 249.682 405.824 249.682C407.725 249.682 407.824 249.015 407.824 236.182C407.824 223.349 407.725 222.682 405.824 222.682C403.923 222.682 403.824 223.349 403.824 236.182ZM414.824 236.182C414.824 247.515 415.065 249.682 416.324 249.682C417.542 249.682 417.827 248.037 417.839 240.932C417.855 231.347 419.178 227.354 422.497 226.876C423.665 226.707 424.849 225.695 425.128 224.626C425.84 221.906 421.427 221.982 419.508 224.723L418.079 226.764L417.545 224.723C417.251 223.6 416.519 222.682 415.918 222.682C415.18 222.682 414.824 227.078 414.824 236.182ZM429.416 224.853C427.004 228.298 427.421 232.404 430.47 235.23C431.925 236.578 433.49 237.682 433.947 237.682C434.404 237.682 435.495 238.777 436.372 240.115C437.612 242.007 437.72 243.007 436.86 244.615C435.604 246.962 430.999 247.437 428.939 245.432C427.901 244.422 427.719 244.661 427.989 246.682C428.28 248.855 428.893 249.223 432.676 249.494C438.246 249.894 440.824 247.769 440.824 242.78C440.824 239.741 440.041 238.468 435.744 234.518C431.203 230.342 430.787 229.62 431.817 227.695C432.736 225.979 433.715 225.607 436.647 225.862C439.391 226.101 440.324 225.801 440.324 224.682C440.324 223.606 439.006 223.097 435.666 222.881C431.763 222.629 430.751 222.948 429.416 224.853ZM482.88 224.626C478.777 228.729 478.747 242.842 482.831 247.19C485.129 249.636 488.857 250.374 492.279 249.061C495.101 247.978 496.824 243.096 496.824 236.182C496.824 229.268 495.101 224.386 492.279 223.303C489.133 222.096 484.8 222.706 482.88 224.626ZM522.824 236.182C522.824 247.515 523.065 249.682 524.324 249.682C525.583 249.682 525.824 247.515 525.824 236.182C525.824 224.849 525.583 222.682 524.324 222.682C523.065 222.682 522.824 224.849 522.824 236.182ZM533.587 223.888C532.632 224.6 531.558 226.673 531.2 228.495C530.603 231.533 530.974 232.199 535.686 236.555C538.512 239.166 540.824 242.008 540.824 242.87C540.824 245.588 538.136 246.963 534.25 246.234C531.13 245.649 530.699 245.799 530.998 247.371C531.252 248.714 532.427 249.261 535.544 249.488C540.761 249.867 543.395 248.528 544.267 245.055C545.244 241.16 543.202 237.198 538.672 234.2C535.442 232.063 534.76 231.07 535.013 228.877C535.299 226.401 535.672 226.189 539.616 226.271C543.027 226.343 543.847 226.034 543.608 224.771C543.22 222.723 536.004 222.086 533.587 223.888ZM564.004 225.18C559.983 230.292 560.225 243.153 564.431 247.8C567.06 250.705 576.824 250.23 576.824 247.198C576.824 246.293 575.59 246.067 572.535 246.411C567.532 246.975 566.03 245.727 565.145 240.271L564.562 236.682H571.321H578.08L577.424 232.432C576.495 226.409 573.903 223.249 569.589 222.878C566.765 222.636 565.641 223.099 564.004 225.18ZM582.824 236.182C582.824 249.015 582.923 249.682 584.824 249.682C586.679 249.682 586.825 249.011 586.838 240.432C586.855 228.926 587.396 226.828 590.551 226.036C594.212 225.117 594.792 226.87 594.809 238.932C594.823 249.01 594.949 249.682 596.824 249.682C598.706 249.682 598.824 249.015 598.824 238.405C598.824 229.816 598.453 226.597 597.267 224.905C595.286 222.076 590.542 221.964 587.824 224.682L585.824 226.682V224.682C585.824 223.571 585.157 222.682 584.324 222.682C583.065 222.682 582.824 224.849 582.824 236.182ZM629.487 224.502C625.694 228.693 625.534 241.539 629.205 247.141C631.546 250.714 637.51 250.71 640.87 247.133C645.411 242.3 644.47 226.779 639.434 223.447C637.255 222.006 631.162 222.651 629.487 224.502ZM658.824 236.182C658.824 249.015 658.923 249.682 660.824 249.682C662.696 249.682 662.824 249.015 662.824 239.253C662.824 228.702 663.797 225.682 667.195 225.682C670.127 225.682 670.824 228.219 670.824 238.882C670.824 249.015 670.947 249.682 672.824 249.682C674.701 249.682 674.823 249.02 674.809 238.932C674.791 225.884 673.803 223.31 668.646 222.877C665.794 222.638 664.671 223.062 663.419 224.85L661.824 227.127V224.905C661.824 223.596 661.207 222.682 660.324 222.682C659.065 222.682 658.824 224.849 658.824 236.182ZM683.03 225.147C679.143 230.089 679.457 243.322 683.572 247.932C686.061 250.72 695.824 250.135 695.824 247.198C695.824 246.293 694.59 246.067 691.535 246.411C686.532 246.975 685.03 245.727 684.145 240.271L683.562 236.682H690.193C696.622 236.682 696.824 236.605 696.824 234.15C696.824 231.068 694.2 224.54 692.535 223.482C689.883 221.797 684.992 222.654 683.03 225.147ZM699.824 224.531C699.824 225.547 700.949 231.465 702.324 237.682C703.699 243.899 704.824 249.173 704.824 249.403C704.824 249.633 705.833 249.677 707.066 249.502C709.058 249.218 709.552 248.009 711.494 238.682C712.697 232.907 713.713 228.47 713.752 228.822C713.969 230.756 717.006 246.459 717.46 247.99C717.801 249.142 718.757 249.687 720.093 249.49C721.92 249.222 722.557 247.52 725.033 236.291C726.597 229.202 727.659 223.183 727.393 222.918C727.128 222.652 726.27 222.681 725.488 222.981C724.593 223.324 723.399 227.065 722.27 233.056C721.283 238.297 720.167 242.394 719.789 242.161C719.412 241.927 718.837 239.812 718.512 237.459C718.187 235.107 717.406 230.794 716.777 227.875C715.794 223.314 715.335 222.611 713.508 222.875C711.662 223.142 711.096 224.564 709.209 233.682C708.015 239.457 706.989 243.894 706.931 243.542C706.136 238.775 703.6 225.764 703.207 224.432C702.518 222.104 699.824 222.182 699.824 224.531ZM739.136 224.053C739.425 224.807 741.086 230.806 742.827 237.385C745.589 247.822 745.851 249.869 744.886 253.453C744.187 256.048 743.051 257.793 741.802 258.189C739.459 258.933 739.135 261.682 741.39 261.682C744.09 261.682 746.508 259.864 747.656 256.97C748.265 255.437 750.525 247.095 752.68 238.432C756.323 223.786 756.467 222.682 754.73 222.682C753.615 222.682 752.651 223.589 752.339 224.932C752.051 226.17 750.992 230.748 749.986 235.106C748.98 239.465 747.917 242.615 747.623 242.106C747.328 241.598 746.536 238.707 745.861 235.682C743.116 223.373 742.841 222.682 740.678 222.682C739.337 222.682 738.795 223.164 739.136 224.053ZM491.952 227.336C492.834 228.399 493.324 231.556 493.324 236.182C493.324 244.091 492.069 246.682 488.237 246.682C484.95 246.682 483.824 243.909 483.824 235.819C483.824 230.794 484.266 228.382 485.395 227.253C487.432 225.216 490.222 225.251 491.952 227.336ZM572.789 227.616C573.358 228.68 573.824 230.48 573.824 231.616C573.824 233.398 573.205 233.682 569.324 233.682C564.307 233.682 563.476 232.052 566.381 227.905C568.298 225.167 571.403 225.028 572.789 227.616ZM637.995 227.337C639.431 228.636 639.824 230.478 639.824 235.903C639.824 239.704 639.358 243.684 638.789 244.748C637.575 247.015 633.587 247.306 631.881 245.251C629.837 242.788 629.417 233.593 631.158 229.425C632.871 225.326 635.041 224.663 637.995 227.337ZM691.789 227.616C692.358 228.68 692.824 230.48 692.824 231.616C692.824 233.405 692.206 233.682 688.216 233.682C683.69 233.682 683.62 233.633 684.296 230.938C685.638 225.589 689.732 223.774 691.789 227.616ZM42.8235 262.682C42.8235 281.015 42.8935 281.682 44.8235 281.682C46.7535 281.682 46.8235 281.015 46.8235 262.682C46.8235 244.349 46.7535 243.682 44.8235 243.682C42.8935 243.682 42.8235 244.349 42.8235 262.682ZM52.8235 262.682C52.8235 281.015 52.8935 281.682 54.8235 281.682C56.7535 281.682 56.8235 281.015 56.8235 262.682C56.8235 244.349 56.7535 243.682 54.8235 243.682C52.8935 243.682 52.8235 244.349 52.8235 262.682ZM144.824 262.682C144.824 281.015 144.894 281.682 146.824 281.682C148.754 281.682 148.824 281.015 148.824 262.682C148.824 244.349 148.754 243.682 146.824 243.682C144.894 243.682 144.824 244.349 144.824 262.682ZM155.824 262.682C155.824 278.904 156.043 281.682 157.324 281.682C158.605 281.682 158.824 278.904 158.824 262.682C158.824 246.46 158.605 243.682 157.324 243.682C156.043 243.682 155.824 246.46 155.824 262.682ZM2.82352 263.682C2.82352 281.015 2.89752 281.682 4.82352 281.682C6.64552 281.682 6.82352 281.015 6.82352 274.182V266.682H11.3235C15.1565 266.682 15.8235 266.386 15.8235 264.682C15.8235 262.978 15.1565 262.682 11.3235 262.682H6.82352V256.182V249.682H11.8235C16.1565 249.682 16.8235 249.415 16.8235 247.682C16.8235 245.872 16.1565 245.682 9.82352 245.682H2.82352V263.682ZM22.9635 257.231C19.0175 262.248 18.8105 273.509 22.5715 278.546C24.1625 280.678 25.3595 281.182 28.8235 281.182C35.1765 281.182 37.2675 277.962 37.2675 268.182C37.2675 258.709 35.1945 255.337 29.0865 254.88C25.7155 254.628 24.7065 255.016 22.9635 257.231ZM67.0525 255.351C63.0515 256.961 61.2225 271.685 64.2865 277.61C65.9155 280.76 67.6245 281.682 71.8335 281.682C77.0515 281.682 79.8235 276.998 79.8235 268.182C79.8235 259.14 77.0235 254.624 71.5025 254.761C69.7535 254.804 67.7515 255.07 67.0525 255.351ZM83.3925 258.196C83.7545 260.128 85.0215 266.091 86.2075 271.446C88.0625 279.826 88.6625 281.225 90.5105 281.491C92.3885 281.761 92.8045 281.073 93.8335 275.991C94.4815 272.796 95.4935 267.932 96.0845 265.182L97.1575 260.182L99.1575 270.932C101.022 280.956 101.315 281.682 103.491 281.682C104.774 281.682 105.824 281.43 105.824 281.122C105.824 280.815 106.949 275.579 108.324 269.488C111.211 256.7 111.357 254.682 109.395 254.682C108.457 254.682 107.566 256.658 106.801 260.432C106.161 263.595 105.161 268.432 104.579 271.182L103.521 276.182L101.389 265.682C99.5515 256.635 98.9685 255.14 97.1745 254.88C95.2935 254.607 94.9205 255.48 93.3265 263.88C92.3565 268.996 91.2705 273.51 90.9135 273.911C90.5565 274.312 89.4115 270.15 88.3695 264.661C86.7725 256.255 86.1785 254.682 84.6035 254.682C83.0055 254.682 82.8295 255.195 83.3925 258.196ZM126.13 255.326C125.474 255.593 125.171 256.423 125.458 257.171C125.824 258.123 127.036 258.36 129.502 257.959C133.486 257.313 134.784 258.529 134.809 262.932C134.821 265.217 134.393 265.682 132.274 265.682C127.583 265.682 123.977 268.349 123.222 272.377C122.208 277.777 124.354 281.096 129.113 281.493C131.775 281.715 133.011 281.357 133.439 280.243C134.203 278.253 135.824 278.212 135.824 280.182C135.824 281.007 136.499 281.682 137.324 281.682C139.42 281.682 139.46 263.141 137.375 258.15C136.03 254.932 135.616 254.688 131.625 254.761C129.259 254.804 126.787 255.058 126.13 255.326ZM1680.38 257.905C1679.52 259.127 1678.82 261.616 1678.82 263.436C1678.82 265.455 1678.24 266.969 1677.32 267.32C1676.5 267.637 1675.82 268.298 1675.82 268.789C1675.82 269.28 1676.5 269.682 1677.32 269.682C1678.57 269.682 1678.82 271.682 1678.82 281.682C1678.82 293.015 1678.93 293.682 1680.82 293.682C1682.71 293.682 1682.82 293.015 1682.82 281.682C1682.82 270.349 1682.93 269.682 1684.82 269.682C1685.93 269.682 1686.82 269.015 1686.82 268.182C1686.82 267.334 1685.93 266.682 1684.76 266.682C1682.99 266.682 1682.75 266.152 1683.01 262.932C1683.26 259.92 1683.77 259.119 1685.57 258.862C1688.99 258.378 1688.4 255.682 1684.88 255.682C1682.97 255.682 1681.39 256.464 1680.38 257.905ZM32.5335 260.682C34.1565 263.901 34.1565 272.463 32.5335 275.682C30.8505 279.021 27.4535 279.42 25.4205 276.516C23.2595 273.432 23.2595 262.932 25.4205 259.848C27.4535 256.944 30.8505 257.343 32.5335 260.682ZM74.2525 259.253C76.4945 261.496 76.7825 273.021 74.6935 276.925C73.5215 279.114 69.5085 279.212 67.7515 277.095C66.0415 275.035 65.9565 262.916 67.6315 259.932C69.1015 257.311 72.0115 257.013 74.2525 259.253ZM1455.33 258.862C1455.07 259.588 1453.25 266.932 1451.3 275.182C1449.35 283.432 1447.52 290.97 1447.22 291.932C1446.84 293.199 1447.25 293.682 1448.72 293.682C1450.27 293.682 1451.01 292.675 1451.84 289.432C1453.99 281.139 1453.64 281.55 1458.15 281.879C1461.4 282.116 1462.38 282.619 1462.64 284.182C1463.77 290.922 1464.99 293.682 1466.84 293.682C1469.13 293.682 1469.19 294.079 1463.86 272.802C1460.63 259.859 1459.96 258.145 1458.01 257.862C1456.8 257.686 1455.6 258.136 1455.33 258.862ZM1111.82 279.682C1111.82 295.213 1112.08 298.682 1113.21 298.682C1114.28 298.682 1114.68 296.301 1114.98 288.311C1115.38 277.521 1116.41 274.682 1119.91 274.682C1122.9 274.682 1123.82 277.953 1123.82 288.616C1123.82 298.015 1123.96 298.682 1125.82 298.682C1127.68 298.682 1127.82 298.015 1127.82 289.425C1127.82 279.689 1126.71 273.862 1124.59 272.518C1122.48 271.18 1118.59 271.581 1116.65 273.337C1114.9 274.926 1114.82 274.705 1114.82 267.837C1114.82 262.144 1114.52 260.682 1113.32 260.682C1112.04 260.682 1111.82 263.46 1111.82 279.682ZM1189.82 267.837C1189.82 274.705 1189.75 274.926 1187.99 273.337C1185.72 271.278 1181.45 271.196 1179.48 273.173C1175.48 277.173 1174.75 290.868 1178.25 296.218C1180.15 299.117 1185.78 299.644 1187.88 297.119C1189.05 295.701 1189.25 295.701 1190.05 297.119C1190.53 297.979 1191.58 298.682 1192.37 298.682C1193.59 298.682 1193.82 295.615 1193.82 279.682C1193.82 261.349 1193.75 260.682 1191.82 260.682C1190.01 260.682 1189.82 261.349 1189.82 267.837ZM1558.49 261.349C1558.12 261.715 1557.82 263.043 1557.82 264.299C1557.82 265.555 1557.04 267.081 1556.07 267.69C1554.82 268.484 1554.68 268.947 1555.57 269.323C1556.45 269.69 1556.82 272.666 1556.82 279.2C1556.82 291.417 1557.68 293.682 1562.3 293.682C1566.3 293.682 1567.36 291.039 1563.57 290.502C1561.43 290.197 1561.31 289.7 1561.04 279.932L1560.75 269.682H1563.29C1564.88 269.682 1565.82 269.121 1565.82 268.182C1565.82 267.249 1564.88 266.682 1563.32 266.682C1561.21 266.682 1560.82 266.215 1560.82 263.682C1560.82 260.815 1559.92 259.915 1558.49 261.349ZM1596.82 263.111C1596.82 264.446 1596.04 266.323 1595.08 267.28C1593.83 268.532 1593.69 269.138 1594.58 269.435C1595.46 269.728 1595.82 272.822 1595.82 280.074C1595.82 291.734 1596.77 294.047 1601.3 293.518C1604.83 293.104 1605.79 290.956 1602.63 290.509C1600.41 290.195 1600.31 289.779 1600.04 279.932C1599.77 270.197 1599.86 269.682 1601.79 269.682C1602.93 269.682 1603.82 269.024 1603.82 268.182C1603.82 267.349 1602.93 266.682 1601.82 266.682C1600.27 266.682 1599.82 266.015 1599.82 263.682C1599.82 261.682 1599.32 260.682 1598.32 260.682C1597.4 260.682 1596.82 261.619 1596.82 263.111ZM1200.22 263.099C1199.39 265.256 1200.54 267.943 1202.07 267.432C1202.76 267.203 1203.32 265.965 1203.32 264.682C1203.32 261.941 1201.1 260.806 1200.22 263.099ZM951.824 280.682V298.682H957.601C964.442 298.682 967.208 297.08 968.825 292.179C970.172 288.097 968.758 282.35 965.999 280.69C964.437 279.75 964.439 279.613 966.034 278.655C968.358 277.258 969.339 271.339 967.844 267.73C966.444 264.351 962.587 262.682 956.175 262.682H951.824V280.682ZM1459.62 270.492C1461.27 278.465 1461.22 278.682 1457.82 278.682C1455.99 278.682 1454.82 278.163 1454.82 277.349C1454.82 274.605 1457.13 264.682 1457.76 264.682C1458.13 264.682 1458.96 267.297 1459.62 270.492ZM963.624 267.882C966.974 271.232 963.318 278.682 958.324 278.682C955.935 278.682 955.824 278.415 955.824 272.682V266.682H959.124C960.939 266.682 962.964 267.222 963.624 267.882ZM1482.49 268.498C1479.95 271.307 1479.38 276.088 1481.17 279.666C1482.41 282.158 1482.49 283.311 1481.58 285.314C1480.74 287.165 1480.73 288.3 1481.54 289.607C1482.43 291.017 1482.26 291.72 1480.74 293.023C1478.05 295.326 1478.2 301.019 1481.01 303.643C1484.63 307.015 1492.27 306.029 1495.54 301.769C1497.28 299.499 1497.11 293.11 1495.25 291.253C1494.37 290.375 1492 289.682 1489.87 289.682C1487.78 289.682 1485.56 289.064 1484.93 288.309C1483.12 286.135 1484.7 283.682 1487.89 283.682C1492.52 283.682 1495.09 280.128 1494.56 274.432C1494.23 270.889 1494.46 269.682 1495.47 269.682C1496.21 269.682 1496.82 269.007 1496.82 268.182C1496.82 265.809 1484.68 266.076 1482.49 268.498ZM1500.82 280.182C1500.82 293.015 1500.92 293.682 1502.82 293.682C1504.67 293.682 1504.82 293.015 1504.82 284.747C1504.82 273.833 1505.83 270.682 1509.3 270.682C1511.16 270.682 1511.82 270.154 1511.82 268.682C1511.82 265.224 1507.26 266.231 1505.02 270.182C1503.96 272.046 1503.88 271.995 1503.85 269.432C1503.83 267.668 1503.29 266.682 1502.32 266.682C1501.06 266.682 1500.82 268.849 1500.82 280.182ZM1518.31 268.337C1514.06 272.593 1513.4 284.278 1517.11 289.784C1519.2 292.881 1519.84 293.182 1524.35 293.182C1528.21 293.182 1529.37 292.808 1529.62 291.485C1529.9 290.061 1529.37 289.881 1526.36 290.369C1521.7 291.125 1518.82 288.703 1518.82 284.027V280.682H1524.82H1530.82L1530.82 276.932C1530.82 274.87 1529.92 271.72 1528.83 269.932C1527.22 267.278 1526.22 266.682 1523.41 266.682C1521.52 266.682 1519.22 267.427 1518.31 268.337ZM1537.95 267.586C1535.53 269.113 1537.68 270.579 1541.44 269.969C1545.49 269.312 1546.78 270.508 1546.81 274.932C1546.82 277.217 1546.39 277.682 1544.27 277.682C1539.58 277.682 1535.98 280.349 1535.22 284.377C1534.27 289.427 1536.38 293.084 1540.48 293.486C1542.3 293.665 1544.21 293.151 1545.13 292.236C1547.08 290.284 1547.82 290.27 1547.82 292.182C1547.82 293.007 1548.5 293.682 1549.32 293.682C1550.56 293.682 1550.82 291.911 1550.82 283.747C1550.82 273.913 1549.81 268.929 1547.51 267.468C1545.89 266.437 1539.64 266.514 1537.95 267.586ZM1579.48 268.511C1577.63 270.556 1577.31 274.86 1578.81 277.658C1579.35 278.673 1581.4 280.495 1583.37 281.708C1586.4 283.581 1586.89 284.384 1586.63 287.047C1586.34 290.042 1586.13 290.178 1582.03 290.093C1578.62 290.021 1577.8 290.33 1578.04 291.593C1578.25 292.719 1579.7 293.27 1582.99 293.483C1586.88 293.735 1587.9 293.415 1589.23 291.511C1592.63 286.661 1591.04 282.813 1583.02 276.442C1578.92 273.193 1581.42 268.951 1586.79 270.025C1588.47 270.361 1590.03 270.151 1590.41 269.537C1592.29 266.5 1582.16 265.549 1579.48 268.511ZM1609.95 267.586C1607.53 269.113 1609.68 270.579 1613.44 269.969C1617.49 269.312 1618.78 270.508 1618.81 274.932C1618.82 277.217 1618.39 277.682 1616.27 277.682C1611.58 277.682 1607.98 280.349 1607.22 284.377C1606.21 289.777 1608.35 293.096 1613.11 293.493C1615.77 293.715 1617.01 293.357 1617.44 292.243C1618.2 290.253 1619.82 290.212 1619.82 292.182C1619.82 293.007 1620.5 293.682 1621.32 293.682C1622.56 293.682 1622.82 291.911 1622.82 283.747C1622.82 273.913 1621.81 268.929 1619.51 267.468C1617.89 266.437 1611.64 266.514 1609.95 267.586ZM1629.82 268.682C1627.38 271.126 1627.11 278.214 1629.33 281.394C1630.29 282.759 1630.47 283.78 1629.83 284.175C1628.52 284.989 1628.53 289.38 1629.84 290.195C1630.45 290.571 1630.05 291.505 1628.85 292.504C1627.74 293.427 1626.55 295.615 1626.21 297.366C1624.88 304.296 1634.94 308.523 1641.15 303.639C1644.53 300.984 1645.62 295.548 1643.45 292.233C1642.19 290.31 1640.84 289.728 1637.09 289.487C1632.75 289.21 1632.32 288.956 1632.32 286.682C1632.32 284.61 1632.86 284.13 1635.47 283.876C1640.14 283.422 1642.34 280.414 1642.25 274.576C1642.2 271.146 1642.57 269.682 1643.5 269.682C1644.23 269.682 1644.82 269.007 1644.82 268.182C1644.82 265.681 1632.41 266.095 1629.82 268.682ZM1650.49 268.502C1648.7 270.473 1646.69 279.207 1647.32 282.282C1647.53 283.327 1647.97 285.431 1648.29 286.957C1649.15 291.046 1652.27 293.682 1656.24 293.682C1660.55 293.682 1662.82 292.826 1662.82 291.198C1662.82 290.293 1661.59 290.067 1658.53 290.411C1653.55 290.973 1652.34 289.967 1651.3 284.432L1650.6 280.682H1657.21H1663.82V277.747C1663.82 274.085 1662.49 270.494 1660.34 268.337C1658.12 266.121 1652.56 266.213 1650.49 268.502ZM1692.88 268.626C1688.78 272.729 1688.75 286.842 1692.83 291.19C1695.13 293.636 1698.86 294.374 1702.28 293.061C1708.63 290.624 1708.63 269.74 1702.28 267.303C1699.13 266.096 1694.8 266.706 1692.88 268.626ZM1712.82 280.182C1712.82 293.015 1712.92 293.682 1714.82 293.682C1716.67 293.682 1716.82 293.015 1716.82 284.729C1716.82 274.404 1718.06 270.682 1721.48 270.682C1723.16 270.682 1723.82 270.112 1723.82 268.682C1723.82 265.224 1719.26 266.231 1717.02 270.182C1715.96 272.046 1715.88 271.995 1715.85 269.432C1715.83 267.668 1715.29 266.682 1714.32 266.682C1713.06 266.682 1712.82 268.849 1712.82 280.182ZM134.824 271.991C134.824 276.402 132.844 278.961 129.768 278.527C127.965 278.272 127.242 277.474 127.012 275.481C126.533 271.331 128.422 268.682 131.859 268.682C134.548 268.682 134.824 268.99 134.824 271.991ZM1490.82 275.182C1490.82 280.431 1488.15 282.861 1485.39 280.109C1481.7 276.418 1484.71 267.482 1488.89 269.719C1490.35 270.501 1490.82 271.829 1490.82 275.182ZM1637.25 270.253C1640.94 273.946 1637.94 282.883 1633.75 280.645C1631.13 279.239 1630.99 271.264 1633.57 269.762C1634.54 269.201 1635.4 268.729 1635.5 268.712C1635.6 268.696 1636.39 269.389 1637.25 270.253ZM1525.62 270.938C1526.19 271.628 1526.97 273.428 1527.35 274.938C1528.03 277.633 1527.96 277.682 1523.43 277.682C1519.44 277.682 1518.82 277.405 1518.82 275.616C1518.82 270.726 1523.04 267.825 1525.62 270.938ZM1658.79 271.616C1659.36 272.68 1659.82 274.48 1659.82 275.616C1659.82 277.405 1659.21 277.682 1655.22 277.682C1650.69 277.682 1650.62 277.633 1651.3 274.938C1652.64 269.589 1656.73 267.774 1658.79 271.616ZM1701.95 271.336C1702.83 272.399 1703.32 275.556 1703.32 280.182C1703.32 287.767 1702.06 290.682 1698.77 290.682C1694.81 290.682 1693.6 287.85 1693.98 279.47C1694.24 273.883 1694.77 271.324 1695.83 270.655C1698.08 269.232 1700.42 269.492 1701.95 271.336ZM974.824 282.959C974.824 296.246 975.845 298.682 981.412 298.682C983.578 298.682 985.104 298.117 985.462 297.182C985.779 296.357 986.44 295.682 986.931 295.682C987.422 295.682 987.824 296.357 987.824 297.182C987.824 298.007 988.499 298.682 989.324 298.682C990.583 298.682 990.824 296.515 990.824 285.182C990.824 272.349 990.725 271.682 988.824 271.682C986.96 271.682 986.824 272.349 986.824 281.459C986.824 292.324 985.405 296.049 981.477 295.489C979.431 295.197 979.31 294.597 979.042 283.432C978.78 272.507 978.622 271.682 976.792 271.682C974.951 271.682 974.824 272.409 974.824 282.959ZM994.83 272.859C994.833 273.587 996.18 279.132 997.824 285.182C999.468 291.232 1000.81 297.532 1000.8 299.182C1000.79 303.201 998.602 307.214 996.516 307.043C995.475 306.958 994.824 307.631 994.824 308.793C994.824 311.316 998.936 311.32 1001.22 308.8C1002.55 307.33 1011.75 275.735 1011.81 272.432C1011.82 272.019 1011 271.682 1009.99 271.682C1008.47 271.682 1007.72 273.558 1005.69 282.432L1003.23 293.182L1000.76 282.694C998.898 274.741 997.882 272.124 996.563 271.87C995.607 271.686 994.827 272.131 994.83 272.859ZM1024.82 285.182C1024.82 298.015 1024.92 298.682 1026.82 298.682C1028.69 298.682 1028.82 298.015 1028.82 288.616C1028.82 277.872 1029.74 274.682 1032.82 274.682C1035.91 274.682 1036.82 277.872 1036.82 288.616C1036.82 296.531 1037.12 298.682 1038.21 298.682C1039.28 298.682 1039.68 296.301 1039.98 288.311C1040.39 277.229 1041.51 274.351 1045.22 274.884C1047.74 275.245 1048.68 279.525 1048.77 290.932C1048.81 297.129 1049.12 298.682 1050.32 298.682C1052.55 298.682 1052.5 277.098 1050.27 273.905C1048.42 271.265 1044.27 270.971 1041.7 273.297C1040.05 274.784 1039.78 274.784 1038.3 273.297C1035.93 270.926 1031.24 271.245 1029.38 273.905L1027.82 276.127V273.905C1027.82 272.596 1027.21 271.682 1026.32 271.682C1025.06 271.682 1024.82 273.849 1024.82 285.182ZM1062.05 272.351C1059.54 273.36 1057.82 278.583 1057.82 285.182C1057.82 295.86 1060.69 299.295 1068.93 298.506C1071.22 298.286 1072.42 297.607 1072.65 296.393C1072.92 294.924 1072.52 294.72 1070.4 295.251C1066.14 296.321 1063.13 295.004 1061.92 291.539C1059.98 285.96 1060.23 285.682 1067.32 285.682C1073.8 285.682 1073.82 285.673 1073.82 282.831C1073.82 278.667 1071.88 273.785 1069.78 272.661C1067.86 271.633 1064.2 271.486 1062.05 272.351ZM1079.49 272.349C1079.12 272.715 1078.82 278.79 1078.82 285.849C1078.82 298.015 1078.93 298.682 1080.82 298.682C1082.67 298.682 1082.82 298.01 1082.84 289.932C1082.85 280.347 1084.18 276.354 1087.5 275.876C1088.66 275.707 1089.85 274.695 1090.13 273.626C1090.87 270.794 1086.39 271.031 1084.36 273.932L1082.77 276.182L1082.18 273.932C1081.58 271.653 1080.7 271.136 1079.49 272.349ZM1096 274.182C1091.87 279.438 1092.3 293.085 1096.72 297.089C1099.1 299.24 1106.16 298.948 1106.59 296.682C1106.8 295.566 1105.92 295.182 1103.14 295.182C1100.16 295.182 1099.15 294.675 1098.13 292.682C1096.41 289.314 1096.49 282.409 1098.3 278.073C1099.63 274.905 1100.13 274.562 1103.05 274.855C1105.44 275.093 1106.32 274.776 1106.32 273.682C1106.32 272.639 1105.06 272.09 1102.19 271.88C1098.73 271.627 1097.72 272.004 1096 274.182ZM1136.07 272.344C1135.39 272.622 1134.82 273.413 1134.82 274.102C1134.82 274.923 1136.29 275.325 1139.07 275.268C1143.28 275.183 1143.33 275.22 1143.63 278.932C1143.93 282.482 1143.79 282.682 1141.02 282.682C1136.27 282.682 1132.82 286.104 1132.82 290.82C1132.82 296.506 1134.26 298.682 1138.03 298.682C1139.75 298.682 1141.99 297.937 1142.99 297.027C1144.7 295.487 1144.82 295.487 1144.82 297.027C1144.82 297.937 1145.5 298.682 1146.32 298.682C1147.57 298.682 1147.82 296.762 1147.82 287.405C1147.82 273.932 1146.82 271.637 1141.02 271.761C1138.99 271.804 1136.76 272.067 1136.07 272.344ZM1154.82 285.182C1154.82 296.515 1155.06 298.682 1156.32 298.682C1157.53 298.682 1157.83 297.074 1157.88 290.432C1157.94 281.043 1159.49 275.366 1162.12 274.862C1166.01 274.116 1166.82 276.36 1166.82 287.804C1166.82 298.015 1166.95 298.682 1168.82 298.682C1170.69 298.682 1170.82 298.015 1170.82 288.65C1170.82 282.152 1170.31 277.396 1169.37 275.15C1168.11 272.131 1167.47 271.682 1164.43 271.682C1161.95 271.682 1160.48 272.329 1159.38 273.905L1157.82 276.127V273.905C1157.82 272.596 1157.21 271.682 1156.32 271.682C1155.06 271.682 1154.82 273.849 1154.82 285.182ZM1199.82 285.182C1199.82 298.015 1199.92 298.682 1201.82 298.682C1203.72 298.682 1203.82 298.015 1203.82 285.182C1203.82 272.349 1203.72 271.682 1201.82 271.682C1199.92 271.682 1199.82 272.349 1199.82 285.182ZM1210.42 273.853C1208 277.298 1208.42 281.404 1211.47 284.23C1212.92 285.578 1214.49 286.682 1214.95 286.682C1215.4 286.682 1216.49 287.777 1217.37 289.115C1218.61 291.007 1218.72 292.007 1217.86 293.615C1216.6 295.962 1212 296.437 1209.94 294.432C1208.9 293.422 1208.72 293.661 1208.99 295.682C1209.28 297.855 1209.89 298.223 1213.68 298.494C1219.25 298.894 1221.82 296.769 1221.82 291.78C1221.82 288.741 1221.04 287.468 1216.74 283.518C1212.2 279.342 1211.79 278.62 1212.82 276.695C1213.74 274.979 1214.71 274.607 1217.65 274.862C1220.39 275.101 1221.32 274.801 1221.32 273.682C1221.32 272.606 1220.01 272.097 1216.67 271.881C1212.76 271.629 1211.75 271.948 1210.42 273.853ZM1228.99 274.199C1225.01 279.26 1225 291.097 1228.98 296.153C1230.49 298.075 1231.89 298.682 1234.81 298.682C1239.53 298.682 1241.82 297.87 1241.82 296.198C1241.82 295.29 1240.58 295.068 1237.46 295.419C1233.72 295.841 1232.86 295.579 1231.46 293.574C1230.56 292.289 1229.82 289.987 1229.82 288.459C1229.82 285.704 1229.88 285.682 1236.41 285.682H1243L1242.34 281.432C1241.39 275.343 1238.88 272.246 1234.59 271.878C1231.76 271.636 1230.64 272.099 1228.99 274.199ZM1068.57 275.932C1069.11 276.62 1069.78 278.42 1070.05 279.932C1070.54 282.624 1070.44 282.682 1065.67 282.682C1060.85 282.682 1060.79 282.646 1061.44 279.932C1062.31 276.317 1063.67 274.682 1065.82 274.682C1066.79 274.682 1068.02 275.245 1068.57 275.932ZM1188.53 277.682C1190.16 280.9 1190.16 289.461 1188.54 292.682C1186.69 296.358 1182.14 296.653 1180.82 293.183C1179.25 289.033 1179.6 279.452 1181.42 276.848C1183.45 273.944 1186.85 274.343 1188.53 277.682ZM1237.85 277.247C1239.65 281.986 1239.18 282.682 1234.2 282.682H1229.57L1230.21 279.482C1231.27 274.193 1236.14 272.767 1237.85 277.247ZM420.824 298.682C420.824 317.015 420.894 317.682 422.824 317.682C424.754 317.682 424.824 317.015 424.824 298.682C424.824 280.349 424.754 279.682 422.824 279.682C420.894 279.682 420.824 280.349 420.824 298.682ZM522.824 286.837C522.824 293.812 522.776 293.948 520.918 292.267C519.701 291.166 517.8 290.657 515.668 290.862C511.198 291.29 508.827 295.906 508.827 304.182C508.827 312.458 511.198 317.074 515.668 317.502C517.8 317.707 519.701 317.198 520.918 316.097C522.663 314.518 522.824 314.512 522.824 316.027C522.824 316.937 523.499 317.682 524.324 317.682C525.605 317.682 525.824 314.904 525.824 298.682C525.824 282.46 525.605 279.682 524.324 279.682C523.13 279.682 522.824 281.144 522.824 286.837ZM648.824 298.682C648.824 317.015 648.894 317.682 650.824 317.682C652.696 317.682 652.824 317.015 652.824 307.253C652.824 296.702 653.797 293.682 657.195 293.682C660.127 293.682 660.824 296.219 660.824 306.882C660.824 317.015 660.947 317.682 662.824 317.682C664.701 317.682 664.823 317.02 664.809 306.932C664.792 294.161 663.764 291.326 658.986 290.864C657.175 290.689 655.048 291.081 654.259 291.736C653.037 292.75 652.824 291.944 652.824 286.304C652.824 280.349 652.623 279.682 650.824 279.682C648.894 279.682 648.824 280.349 648.824 298.682ZM691.824 298.682C691.824 317.015 691.894 317.682 693.824 317.682C695.754 317.682 695.824 317.015 695.824 298.682C695.824 280.349 695.754 279.682 693.824 279.682C691.894 279.682 691.824 280.349 691.824 298.682ZM845.824 281.444C845.824 282.414 854.824 293.242 865.824 305.508C876.824 317.773 885.824 328.215 885.824 328.712C885.824 329.209 876.818 339.643 865.811 351.899C846.646 373.237 843.88 377.222 847.42 378.386C848.642 378.788 893.006 329.728 892.579 328.447C892.43 328.001 882.66 316.847 870.866 303.659C850.529 280.918 845.824 276.745 845.824 281.444ZM1332.33 280.669C1331.5 282.02 1330.31 280.575 1353.57 306.545C1364.16 318.364 1372.82 328.351 1372.82 328.737C1372.82 329.124 1364.22 339.057 1353.69 350.811C1343.17 362.565 1333.87 372.984 1333.01 373.963C1331.6 375.578 1331.61 375.901 1333.14 377.427C1335.17 379.457 1332.1 382.425 1358.25 353.188C1369.57 340.541 1378.82 329.516 1378.81 328.688C1378.79 326.548 1337.11 280.246 1334.87 279.875C1333.85 279.706 1332.71 280.063 1332.33 280.669ZM725.491 281.349C724.316 282.524 724.778 285.45 726.226 286.006C728.078 286.717 728.824 285.857 728.824 283.015C728.824 280.815 726.957 279.882 725.491 281.349ZM1546.82 283.991C1546.82 288.402 1544.84 290.961 1541.77 290.527C1539.96 290.272 1539.24 289.474 1539.01 287.481C1538.53 283.331 1540.42 280.682 1543.86 280.682C1546.55 280.682 1546.82 280.99 1546.82 283.991ZM1618.82 283.991C1618.82 288.402 1616.84 290.961 1613.77 290.527C1611.96 290.272 1611.24 289.474 1611.01 287.481C1610.53 283.331 1612.42 280.682 1615.86 280.682C1618.55 280.682 1618.82 280.99 1618.82 283.991ZM962.775 282.656C966.888 284.857 965.956 293.876 961.492 295.073C956.127 296.512 955.824 296.171 955.824 288.682C955.824 281.834 955.88 281.682 958.39 281.682C959.801 281.682 961.774 282.12 962.775 282.656ZM268.2 285.145C267.86 286.031 268.253 287.527 269.074 288.469C269.895 289.411 279.191 299.818 289.733 311.595L308.9 333.009L306.029 336.095C304.449 337.793 295.177 348.083 285.423 358.961C268.588 377.738 265.601 382.182 269.816 382.182C271.339 382.182 314.682 334.94 314.772 333.181C314.85 331.682 272.106 284.234 270.34 283.858C269.503 283.68 268.54 284.259 268.2 285.145ZM1144.24 289.432C1143.87 291.495 1143.12 293.745 1142.57 294.432C1140.94 296.485 1137.86 295.854 1136.66 293.223C1135.03 289.652 1137.79 285.682 1141.89 285.682C1144.84 285.682 1144.9 285.777 1144.24 289.432ZM384.824 304.182C384.824 317.015 384.923 317.682 386.824 317.682C388.67 317.682 388.825 317.01 388.839 308.932C388.855 299.264 390.178 295.354 393.599 294.862C395.02 294.658 395.824 293.846 395.824 292.612C395.824 289.915 392.333 290.119 390.356 292.932L388.775 295.182L388.183 292.932C387.857 291.694 386.968 290.682 386.207 290.682C385.098 290.682 384.824 293.355 384.824 304.182ZM401.989 293.199C398.008 298.26 398.003 310.097 401.98 315.153C403.492 317.075 404.892 317.682 407.815 317.682C412.534 317.682 414.824 316.87 414.824 315.198C414.824 314.29 413.58 314.068 410.461 314.419C406.718 314.841 405.865 314.579 404.461 312.574C403.561 311.289 402.824 308.987 402.824 307.459C402.824 304.702 402.872 304.682 409.452 304.682H416.08L415.424 300.432C414.495 294.409 411.903 291.249 407.589 290.878C404.76 290.636 403.641 291.099 401.989 293.199ZM432.989 293.199C429.008 298.26 429.003 310.097 432.98 315.153C434.492 317.075 435.892 317.682 438.815 317.682C443.534 317.682 445.824 316.87 445.824 315.198C445.824 314.29 444.58 314.068 441.461 314.419C437.718 314.841 436.865 314.579 435.461 312.574C434.561 311.289 433.824 308.987 433.824 307.459C433.824 304.704 433.876 304.682 440.412 304.682H447L446.337 300.432C445.387 294.343 442.876 291.246 438.589 290.878C435.76 290.636 434.641 291.099 432.989 293.199ZM453.537 291.303C451.672 293.167 453.082 294.349 457.074 294.268C461.281 294.183 461.327 294.22 461.634 297.932C461.928 301.482 461.788 301.682 459.019 301.682C455.411 301.682 451.26 304.808 450.419 308.158C450.069 309.554 450.44 312.22 451.256 314.174C452.502 317.156 453.205 317.682 455.944 317.682C457.716 317.682 459.989 316.937 460.995 316.027C462.697 314.487 462.824 314.487 462.824 316.027C462.824 316.937 463.499 317.682 464.324 317.682C465.565 317.682 465.821 315.827 465.809 306.932C465.791 293.291 464.911 291.289 458.763 290.886C456.281 290.723 453.929 290.911 453.537 291.303ZM472.416 292.853C470.509 295.577 470.351 299.718 472.074 301.836C472.762 302.681 474.76 304.353 476.515 305.553C480.203 308.074 481.512 311.148 479.784 313.23C478.306 315.011 473.685 315.13 471.939 313.432C470.901 312.422 470.719 312.661 470.989 314.682C471.28 316.855 471.893 317.223 475.676 317.494C481.246 317.894 483.824 315.769 483.824 310.78C483.824 307.741 483.041 306.468 478.744 302.518C474.203 298.342 473.787 297.62 474.817 295.695C475.736 293.979 476.715 293.607 479.647 293.862C482.391 294.101 483.324 293.801 483.324 292.682C483.324 291.606 482.006 291.097 478.666 290.881C474.763 290.629 473.751 290.948 472.416 292.853ZM490.989 293.199C487.008 298.26 487.003 310.097 490.98 315.153C492.492 317.075 493.892 317.682 496.815 317.682C501.534 317.682 503.824 316.87 503.824 315.198C503.824 314.29 502.58 314.068 499.461 314.419C495.718 314.841 494.865 314.579 493.461 312.574C492.561 311.289 491.824 308.987 491.824 307.459C491.824 304.702 491.872 304.682 498.452 304.682H505.08L504.424 300.432C503.495 294.409 500.903 291.249 496.589 290.878C493.76 290.636 492.641 291.099 490.989 293.199ZM542.479 292.511C540.628 294.556 540.314 298.86 541.811 301.658C542.354 302.673 544.404 304.495 546.366 305.708C549.397 307.581 549.888 308.384 549.629 311.047C549.338 314.042 549.133 314.178 545.032 314.093C541.621 314.021 540.801 314.33 541.041 315.593C541.254 316.719 542.697 317.27 545.991 317.483C549.885 317.735 550.898 317.415 552.232 315.511C555.628 310.661 554.041 306.813 546.016 300.442C541.948 297.212 544.414 292.95 549.736 294.014C551.708 294.409 552.813 294.154 553.17 293.222C554.313 290.245 545.085 289.631 542.479 292.511ZM560.88 292.626C556.777 296.729 556.747 310.842 560.831 315.19C563.129 317.636 566.857 318.374 570.279 317.061C576.63 314.624 576.63 293.74 570.279 291.303C567.133 290.096 562.8 290.706 560.88 292.626ZM580.824 304.182C580.824 317.015 580.923 317.682 582.824 317.682C584.696 317.682 584.824 317.015 584.824 307.253C584.824 296.257 585.766 293.682 589.788 293.682C592.401 293.682 592.824 295.572 592.824 307.264C592.824 317.015 592.952 317.682 594.824 317.682C596.706 317.682 596.824 317.015 596.824 306.405C596.824 297.816 596.453 294.597 595.267 292.905C593.286 290.076 588.542 289.964 585.824 292.682L583.824 294.682V292.682C583.824 291.571 583.157 290.682 582.324 290.682C581.065 290.682 580.824 292.849 580.824 304.182ZM603.897 293.317C601.459 296.416 601.208 301.357 603.333 304.392C604.566 306.151 604.622 307.032 603.639 309.188C602.749 311.143 602.724 312.292 603.545 313.607C604.426 315.017 604.26 315.72 602.739 317.023C600.149 319.24 600.196 325.054 602.824 327.682C605.78 330.638 611.863 330.361 615.747 327.093C618.199 325.03 618.824 323.724 618.824 320.665C618.824 315.834 616.73 313.686 612.003 313.667C607.153 313.647 605.434 312.486 606.284 309.807C606.765 308.293 607.781 307.682 609.819 307.682C614.166 307.682 617.15 303.356 616.544 297.932C616.19 294.76 616.419 293.682 617.447 293.682C618.204 293.682 618.824 293.007 618.824 292.182C618.824 291.004 617.443 290.682 612.397 290.682C606.644 290.682 605.752 290.959 603.897 293.317ZM623.587 291.888C622.632 292.6 621.558 294.673 621.2 296.495C620.603 299.533 620.974 300.199 625.686 304.555C628.512 307.166 630.824 310.008 630.824 310.87C630.824 313.588 628.136 314.963 624.25 314.234C621.13 313.649 620.699 313.799 620.998 315.371C621.252 316.714 622.427 317.261 625.544 317.488C630.761 317.867 633.395 316.528 634.267 313.055C635.244 309.16 633.202 305.198 628.672 302.2C625.442 300.063 624.76 299.07 625.013 296.877C625.299 294.401 625.672 294.189 629.616 294.271C633.027 294.343 633.847 294.034 633.608 292.771C633.22 290.723 626.004 290.086 623.587 291.888ZM673.536 292.448C668.544 297.964 669.807 314.927 675.369 317.061C679.325 318.579 685.824 317.421 685.824 315.198C685.824 314.293 684.59 314.067 681.535 314.411C676.532 314.975 675.03 313.727 674.145 308.271L673.562 304.682H680.193C686.622 304.682 686.824 304.605 686.824 302.15C686.824 299.068 684.2 292.54 682.535 291.482C680.346 290.091 675.166 290.647 673.536 292.448ZM702.491 291.349C702.124 291.715 701.824 300.49 701.824 310.849C701.824 329.015 701.895 329.682 703.824 329.682C705.65 329.682 705.824 329.015 705.824 322.027C705.824 314.674 705.896 314.437 707.653 316.027C710.396 318.509 715.463 318.162 717.295 315.367C720.74 310.108 720.415 296.767 716.746 292.828C714.394 290.304 709.639 289.995 707.772 292.245C706.595 293.663 706.393 293.663 705.599 292.245C704.667 290.579 703.575 290.264 702.491 291.349ZM725.491 291.349C725.124 291.715 724.824 297.79 724.824 304.849C724.824 317.015 724.928 317.682 726.824 317.682C728.725 317.682 728.824 317.015 728.824 304.182C728.824 293.599 728.536 290.682 727.491 290.682C726.757 290.682 725.857 290.982 725.491 291.349ZM735.824 304.182C735.824 315.515 736.065 317.682 737.324 317.682C738.532 317.682 738.835 316.074 738.88 309.432C738.945 300.043 740.491 294.366 743.122 293.862C747.009 293.116 747.824 295.36 747.824 306.804C747.824 317.015 747.947 317.682 749.824 317.682C751.691 317.682 751.824 317.015 751.824 307.65C751.824 301.152 751.314 296.396 750.375 294.15C749.114 291.131 748.474 290.682 745.432 290.682C742.954 290.682 741.484 291.329 740.381 292.905L738.824 295.127V292.905C738.824 291.596 738.207 290.682 737.324 290.682C736.065 290.682 735.824 292.849 735.824 304.182ZM758.824 292.682C756.423 295.083 756.089 302.294 758.241 305.238C759.238 306.601 759.351 307.547 758.624 308.423C758.054 309.109 757.829 310.911 758.123 312.426C758.442 314.074 758.092 315.812 757.252 316.748C756.48 317.609 755.567 319.716 755.224 321.431C753.852 328.29 763.974 332.498 770.152 327.639C773.527 324.984 774.622 319.548 772.449 316.233C771.189 314.31 769.841 313.728 766.087 313.487C761.755 313.21 761.324 312.956 761.324 310.682C761.324 308.61 761.862 308.13 764.469 307.876C769.145 307.422 771.338 304.414 771.251 298.576C771.2 295.146 771.574 293.682 772.501 293.682C773.229 293.682 773.824 293.007 773.824 292.182C773.824 289.681 761.411 290.095 758.824 292.682ZM612.824 299.167C612.824 304.106 610.75 306.248 607.6 304.562C605.314 303.339 605.177 296.472 607.393 294.255C610.142 291.507 612.824 293.933 612.824 299.167ZM766.253 294.253C769.945 297.946 766.937 306.883 762.755 304.645C760.127 303.239 759.995 295.264 762.574 293.762C763.536 293.201 764.404 292.729 764.503 292.712C764.601 292.696 765.388 293.389 766.253 294.253ZM1492.62 293.882C1494.41 295.664 1494.08 298.425 1491.82 300.682C1489.43 303.079 1485.56 303.275 1483.39 301.111C1479.89 297.602 1482.69 292.682 1488.19 292.682C1489.97 292.682 1491.96 293.222 1492.62 293.882ZM1639.24 293.289C1641.3 294.078 1641.3 299.058 1639.25 301.111C1637.39 302.97 1632.72 303.181 1631.02 301.482C1630.36 300.822 1629.82 299.112 1629.82 297.682C1629.82 296.252 1630.36 294.542 1631.02 293.882C1632.3 292.601 1636.63 292.289 1639.24 293.289ZM410.789 295.616C411.358 296.68 411.824 298.48 411.824 299.616C411.824 301.398 411.205 301.682 407.324 301.682C402.307 301.682 401.476 300.052 404.381 295.905C406.298 293.167 409.403 293.028 410.789 295.616ZM441.663 296.229C443.765 300.84 443.23 301.682 438.199 301.682H433.574L434.214 298.482C435.269 293.206 439.679 291.873 441.663 296.229ZM499.789 295.616C500.358 296.68 500.824 298.48 500.824 299.616C500.824 301.398 500.205 301.682 496.324 301.682C491.307 301.682 490.476 300.052 493.381 295.905C495.298 293.167 498.403 293.028 499.789 295.616ZM520.193 295.194C522.541 297.542 523.347 305.438 521.72 310.146C520.613 313.347 519.769 314.246 517.641 314.492C513.746 314.942 512.541 311.963 512.993 303.005C513.253 297.865 513.822 295.294 514.846 294.647C516.96 293.311 518.463 293.464 520.193 295.194ZM569.952 295.336C570.834 296.399 571.324 299.556 571.324 304.182C571.324 311.767 570.061 314.682 566.773 314.682C562.814 314.682 561.605 311.85 561.985 303.47C562.239 297.883 562.775 295.324 563.833 294.655C566.084 293.232 568.422 293.492 569.952 295.336ZM681.789 295.616C682.358 296.68 682.824 298.48 682.824 299.616C682.824 301.405 682.206 301.682 678.216 301.682C673.69 301.682 673.62 301.633 674.296 298.938C675.638 293.589 679.732 291.774 681.789 295.616ZM714.267 295.905C716.389 298.934 716.364 309.466 714.227 312.516C712.196 315.416 708.817 315.023 707.058 311.682C705.42 308.571 705.878 297.527 707.737 295.287C709.613 293.026 712.439 293.294 714.267 295.905ZM461.824 307.748C461.824 309.434 461.358 311.684 460.789 312.748C459.541 315.08 455.281 315.316 454.431 313.1C452.733 308.675 455.088 304.682 459.395 304.682C461.439 304.682 461.824 305.168 461.824 307.748ZM121.824 330.682C121.824 346.904 122.043 349.682 123.324 349.682C124.149 349.682 124.824 348.937 124.824 348.027C124.824 346.487 124.951 346.487 126.653 348.027C129.22 350.35 134.113 350.125 136.419 347.578C139.362 344.327 139.664 330.366 136.888 325.932C134.73 322.486 131.516 321.706 127.758 323.717C125.938 324.692 125.824 324.368 125.824 318.217C125.824 312.349 125.62 311.682 123.824 311.682C121.894 311.682 121.824 312.349 121.824 330.682ZM190.491 317.349C190.124 317.715 189.824 319.043 189.824 320.299C189.824 321.555 189.037 323.055 188.074 323.632C186.407 324.632 186.407 324.732 188.074 325.732C189.552 326.618 189.824 328.318 189.824 336.65C189.824 348.868 190.112 349.682 194.431 349.682C198.323 349.682 199.277 347.027 195.574 346.502C193.43 346.197 193.311 345.7 193.039 335.932L192.754 325.682H195.289C196.876 325.682 197.824 325.121 197.824 324.182C197.824 323.249 196.88 322.682 195.324 322.682C193.213 322.682 192.824 322.215 192.824 319.682C192.824 316.815 191.924 315.915 190.491 317.349ZM614.789 318.617C616.176 321.208 614.56 325.314 611.809 326.187C606.379 327.91 602.227 323.535 604.774 318.775C606.312 315.901 613.277 315.791 614.789 318.617ZM768.242 317.289C770.298 318.078 770.305 323.058 768.253 325.111C766.393 326.97 761.723 327.181 760.024 325.482C759.364 324.822 758.824 323.112 758.824 321.682C758.824 320.252 759.364 318.542 760.024 317.882C761.305 316.601 765.635 316.289 768.242 317.289ZM1.82352 336.182C1.82352 349.015 1.92252 349.682 3.82352 349.682C5.68752 349.682 5.82352 349.015 5.82352 339.905C5.82352 329.371 7.14152 325.682 10.9045 325.682C13.7925 325.682 14.8235 329.515 14.8235 340.247C14.8235 347.967 15.0965 349.682 16.3235 349.682C17.5725 349.682 17.8235 347.699 17.8235 337.837C17.8235 327.632 17.5705 325.763 15.9945 324.337C13.7155 322.274 9.47352 322.194 7.82352 324.182C7.13852 325.007 6.18352 325.682 5.70152 325.682C5.21852 325.682 4.82352 325.007 4.82352 324.182C4.82352 323.357 4.14852 322.682 3.32352 322.682C2.06452 322.682 1.82352 324.849 1.82352 336.182ZM26.8795 324.626C22.7505 328.755 22.7475 342.843 26.8735 347.236C28.8595 349.349 30.0145 349.724 33.7815 349.478C37.0535 349.264 38.3925 348.722 38.6205 347.52C38.8835 346.137 38.2945 345.943 35.1245 346.368C30.6475 346.969 28.2095 344.947 27.6655 340.182L27.3235 337.182L33.5735 336.884L39.8235 336.587L39.8195 332.884C39.8175 330.848 38.9245 327.72 37.8345 325.932C36.2035 323.258 35.2305 322.682 32.3385 322.682C30.1905 322.682 28.0675 323.438 26.8795 324.626ZM42.8115 323.359C42.8055 323.812 44.0335 329.92 45.5415 336.932C48.0175 348.444 48.4925 349.682 50.4265 349.682C52.3215 349.682 52.7665 348.674 54.2885 340.932C55.2345 336.12 56.3865 331.282 56.8485 330.182L57.6885 328.182L57.7535 330.182C57.7895 331.282 58.5425 336.12 59.4255 340.932C60.8805 348.858 61.2425 349.682 63.2775 349.682C65.3395 349.682 65.7405 348.676 68.1735 337.422C71.2505 323.189 71.2925 322.682 69.3905 322.682C67.7135 322.682 67.4985 323.319 65.1795 335.182L63.4195 344.182L61.3425 333.682C59.5275 324.504 58.9965 323.143 57.1275 322.873C55.2595 322.604 54.8405 323.299 53.8135 328.373C53.1655 331.568 52.1625 336.432 51.5835 339.182L50.5305 344.182L48.4265 333.687C46.7865 325.503 45.9385 323.119 44.5735 322.863C43.6115 322.683 42.8185 322.906 42.8115 323.359ZM75.4785 324.511C72.0975 328.247 73.8065 334.587 78.9045 337.224C82.4375 339.051 84.0105 342.376 82.6065 345.05C81.8175 346.554 80.8535 346.815 77.6685 346.388C74.3555 345.944 73.7615 346.128 74.0255 347.52C74.2505 348.704 75.5895 349.272 78.6845 349.494C84.2055 349.892 86.8235 347.761 86.8235 342.871C86.8235 339.928 85.9875 338.601 81.5735 334.54C77.1305 330.453 76.4955 329.439 77.4445 327.946C78.1715 326.803 79.8145 326.182 82.1095 326.182C86.1985 326.182 87.9265 324.991 85.7945 323.643C83.2515 322.035 77.2635 322.538 75.4785 324.511ZM102.946 323.586C100.619 325.06 102.662 326.664 106.013 325.994C109.505 325.296 111.824 327.39 111.824 331.241C111.824 333.046 111.098 333.516 107.584 333.987C102.375 334.686 99.8235 337.53 99.8235 342.638C99.8235 346.891 102.201 349.682 105.824 349.682C107.112 349.682 108.989 348.937 109.995 348.027C111.697 346.487 111.824 346.487 111.824 348.027C111.824 348.937 112.499 349.682 113.324 349.682C115.553 349.682 115.504 328.098 113.267 324.905C111.627 322.562 105.748 321.811 102.946 323.586ZM148.053 323.351C145.659 324.314 143.824 329.58 143.824 335.483C143.824 345.528 146.267 349.682 152.176 349.682C158.406 349.682 160.824 345.908 160.824 336.182C160.824 329.268 159.101 324.386 156.279 323.303C154.402 322.583 149.897 322.609 148.053 323.351ZM166.824 333.959C166.824 342.548 167.195 345.767 168.381 347.459C170.206 350.066 174.911 350.452 177.181 348.182C178.006 347.357 178.938 346.682 179.253 346.682C179.567 346.682 179.824 347.357 179.824 348.182C179.824 349.007 180.499 349.682 181.324 349.682C182.583 349.682 182.824 347.515 182.824 336.182C182.824 323.349 182.725 322.682 180.824 322.682C178.96 322.682 178.824 323.349 178.824 332.459C178.824 343.285 177.399 347.053 173.518 346.489C170.745 346.086 170.046 343.255 169.924 331.932C169.843 324.421 169.542 322.682 168.324 322.682C167.079 322.682 166.824 324.602 166.824 333.959ZM1462.82 330.837C1462.82 337.705 1462.75 337.926 1460.99 336.337C1458.7 334.257 1454.45 334.202 1452.42 336.227C1448.55 340.097 1447.86 354.039 1451.28 359.259C1453.16 362.119 1458.8 362.624 1460.88 360.119C1462.05 358.701 1462.25 358.701 1463.05 360.119C1463.53 360.979 1464.58 361.682 1465.37 361.682C1466.59 361.682 1466.82 358.615 1466.82 342.682C1466.82 324.349 1466.75 323.682 1464.82 323.682C1463.01 323.682 1462.82 324.349 1462.82 330.837ZM1545.82 342.682C1545.82 361.015 1545.89 361.682 1547.82 361.682C1549.75 361.682 1549.82 361.015 1549.82 342.682C1549.82 324.349 1549.75 323.682 1547.82 323.682C1545.89 323.682 1545.82 324.349 1545.82 342.682ZM1641.82 330.837C1641.82 337.705 1641.75 337.926 1639.99 336.337C1637.7 334.257 1633.45 334.202 1631.42 336.227C1627.55 340.097 1626.86 354.039 1630.28 359.259C1632.16 362.119 1637.8 362.624 1639.88 360.119C1641.05 358.701 1641.25 358.701 1642.05 360.119C1642.53 360.979 1643.58 361.682 1644.37 361.682C1645.59 361.682 1645.82 358.615 1645.82 342.682C1645.82 324.349 1645.75 323.682 1643.82 323.682C1642.01 323.682 1641.82 324.349 1641.82 330.837ZM1715.82 342.682C1715.82 358.904 1716.04 361.682 1717.32 361.682C1718.6 361.682 1718.82 358.904 1718.82 342.682C1718.82 326.46 1718.6 323.682 1717.32 323.682C1716.04 323.682 1715.82 326.46 1715.82 342.682ZM1473.19 326.182C1472.38 328.268 1473.57 330.933 1475.07 330.438C1477.04 329.793 1477.29 324.682 1475.36 324.682C1474.48 324.682 1473.5 325.357 1473.19 326.182ZM1503.22 326.099C1502.3 328.49 1503.51 330.739 1505.34 330.038C1507.16 329.337 1506.97 325.551 1505.07 324.927C1504.39 324.701 1503.55 325.228 1503.22 326.099ZM34.6205 326.938C35.1935 327.628 35.9725 329.428 36.3515 330.938C37.0345 333.658 36.9965 333.682 32.0015 333.682H26.9635L27.8145 330.715C28.2825 329.082 28.9525 327.282 29.3035 326.715C30.1865 325.286 33.3605 325.42 34.6205 326.938ZM134.653 330.182C136.045 334.366 135.64 341.289 133.802 344.722C132.443 347.263 128.214 347.279 126.859 344.748C125.138 341.532 125.556 329.093 127.449 327.2C130.183 324.466 133.162 325.699 134.653 330.182ZM155.802 327.642C157.639 331.074 158.045 337.998 156.654 342.182C155.596 345.365 154.776 346.245 152.641 346.492C150.675 346.719 149.626 346.185 148.712 344.492C147.116 341.535 147.096 330.867 148.68 327.932C150.207 325.103 154.353 324.934 155.802 327.642ZM1201.82 347.682C1201.82 366.015 1201.89 366.682 1203.82 366.682C1205.58 366.682 1205.82 366.015 1205.82 361.304C1205.82 358.02 1206.35 355.492 1207.17 354.811C1208.24 353.919 1209 354.95 1210.96 359.938C1212.78 364.593 1213.94 366.261 1215.54 366.493C1217.61 366.792 1217.56 366.487 1214.22 358.568L1210.74 350.331L1213.78 345.44C1217.35 339.699 1217.36 339.682 1215.02 339.682C1213.87 339.682 1211.98 341.844 1209.77 345.671C1207.88 348.965 1206.1 351.665 1205.82 351.671C1205.54 351.677 1205.47 346.507 1205.67 340.182C1206.03 329.037 1205.97 328.682 1203.93 328.682C1201.86 328.682 1201.82 329.024 1201.82 347.682ZM1513.82 331.632C1513.82 333.353 1513.09 335.044 1512.07 335.69C1510.82 336.484 1510.68 336.947 1511.57 337.323C1512.45 337.69 1512.82 340.666 1512.82 347.2C1512.82 359.417 1513.68 361.682 1518.3 361.682C1522.3 361.682 1523.36 359.039 1519.57 358.502C1517.43 358.197 1517.31 357.7 1517.04 347.932C1516.77 338.197 1516.86 337.682 1518.79 337.682C1519.93 337.682 1520.82 337.024 1520.82 336.182C1520.82 335.349 1519.93 334.682 1518.82 334.682C1517.27 334.682 1516.82 334.015 1516.82 331.682C1516.82 329.682 1516.32 328.682 1515.32 328.682C1514.33 328.682 1513.82 329.676 1513.82 331.632ZM1174.19 331.182C1173.38 333.268 1174.57 335.933 1176.07 335.438C1178.04 334.793 1178.29 329.682 1176.36 329.682C1175.48 329.682 1174.5 330.357 1174.19 331.182ZM951.824 348.682V366.682H957.601C964.442 366.682 967.208 365.08 968.825 360.179C970.172 356.097 968.758 350.35 965.999 348.69C964.437 347.75 964.439 347.613 966.034 346.655C968.358 345.258 969.339 339.339 967.844 335.73C966.444 332.351 962.587 330.682 956.175 330.682H951.824V348.682ZM1140.32 336.676C1139.96 338.323 1138.91 340.123 1138 340.676C1136.44 341.61 1136.45 341.757 1138.07 342.732C1139.56 343.622 1139.82 345.336 1139.82 354.032C1139.82 360.671 1140.25 364.705 1141.02 365.482C1142.78 367.241 1147.82 367.019 1147.82 365.182C1147.82 364.357 1146.94 363.682 1145.87 363.682C1143.41 363.682 1142.59 359.821 1143.02 350.182C1143.3 343.794 1143.52 343.154 1145.57 342.862C1148.69 342.42 1148.48 339.682 1145.32 339.682C1143.21 339.682 1142.82 339.215 1142.82 336.682C1142.82 332.806 1141.18 332.802 1140.32 336.676ZM1162.22 336.432C1161.87 337.944 1160.85 339.77 1159.95 340.49C1158.45 341.693 1158.46 341.877 1160.07 342.789C1161.56 343.633 1161.82 345.314 1161.82 354.032C1161.82 360.671 1162.25 364.705 1163.02 365.482C1164.78 367.241 1169.82 367.019 1169.82 365.182C1169.82 364.353 1168.94 363.682 1167.84 363.682C1165.25 363.682 1164.66 361.078 1165.03 351.179C1165.3 343.752 1165.48 343.159 1167.57 342.862C1170.69 342.42 1170.48 339.682 1167.32 339.682C1165.21 339.682 1164.82 339.215 1164.82 336.682C1164.82 332.923 1163.08 332.755 1162.22 336.432ZM1242.82 336.111C1242.82 337.446 1242.04 339.323 1241.08 340.28C1239.83 341.532 1239.69 342.138 1240.58 342.435C1241.46 342.728 1241.82 345.772 1241.82 352.831C1241.82 364.744 1242.6 366.682 1247.36 366.682C1251.31 366.682 1252.32 364.034 1248.57 363.502C1246.43 363.197 1246.31 362.7 1246.04 352.932C1245.77 343.197 1245.86 342.682 1247.79 342.682C1248.93 342.682 1249.82 342.024 1249.82 341.182C1249.82 340.349 1248.93 339.682 1247.82 339.682C1246.27 339.682 1245.82 339.015 1245.82 336.682C1245.82 334.682 1245.32 333.682 1244.32 333.682C1243.4 333.682 1242.82 334.619 1242.82 336.111ZM963.624 335.882C966.974 339.232 963.318 346.682 958.324 346.682C955.935 346.682 955.824 346.415 955.824 340.682V334.682H959.124C960.939 334.682 962.964 335.222 963.624 335.882ZM1472.82 348.182C1472.82 361.015 1472.92 361.682 1474.82 361.682C1476.72 361.682 1476.82 361.015 1476.82 348.182C1476.82 335.349 1476.72 334.682 1474.82 334.682C1472.92 334.682 1472.82 335.349 1472.82 348.182ZM1483.9 337.317C1481.46 340.416 1481.21 345.357 1483.33 348.392C1484.57 350.151 1484.62 351.032 1483.64 353.188C1482.75 355.143 1482.72 356.292 1483.54 357.607C1484.43 359.017 1484.26 359.72 1482.74 361.023C1480.15 363.24 1480.2 369.054 1482.82 371.682C1488.07 376.924 1498.82 371.982 1498.82 364.33C1498.82 359.834 1496.63 357.686 1492 357.667C1487.15 357.647 1485.43 356.486 1486.28 353.807C1486.76 352.293 1487.78 351.682 1489.82 351.682C1494.17 351.682 1497.15 347.356 1496.54 341.932C1496.19 338.76 1496.42 337.682 1497.45 337.682C1498.2 337.682 1498.82 337.007 1498.82 336.182C1498.82 335.004 1497.44 334.682 1492.4 334.682C1486.64 334.682 1485.75 334.959 1483.9 337.317ZM1502.82 348.182C1502.82 361.015 1502.92 361.682 1504.82 361.682C1506.72 361.682 1506.82 361.015 1506.82 348.182C1506.82 335.349 1506.72 334.682 1504.82 334.682C1502.92 334.682 1502.82 335.349 1502.82 348.182ZM1527.54 335.303C1525.58 337.259 1526.96 338.534 1530.42 337.972C1534.49 337.312 1535.78 338.502 1535.81 342.932C1535.82 345.189 1535.38 345.682 1533.37 345.682C1526.47 345.682 1522.08 352.264 1524.96 358.299C1526.66 361.859 1531.92 362.809 1534.92 360.097C1536.66 358.518 1536.82 358.512 1536.82 360.027C1536.82 360.937 1537.5 361.682 1538.32 361.682C1539.56 361.682 1539.82 359.827 1539.81 350.932C1539.79 337.291 1538.91 335.289 1532.76 334.886C1530.28 334.723 1527.93 334.911 1527.54 335.303ZM1566.38 336.905C1564.45 339.662 1564.35 346.656 1566.21 349.197C1567.4 350.822 1567.39 351.416 1566.14 353.322C1565.11 354.899 1564.97 356.08 1565.66 357.373C1566.38 358.73 1566.15 359.8 1564.73 361.55C1562.1 364.792 1562.34 368.293 1565.4 371.349C1567.64 373.586 1568.59 373.856 1572.61 373.403C1578.45 372.744 1580.82 370.086 1580.82 364.194C1580.82 359.038 1579.65 357.916 1573.8 357.501C1569.8 357.216 1569.32 356.922 1569.32 354.723C1569.32 352.722 1569.97 352.132 1572.77 351.558C1577.48 350.596 1579.02 348.194 1578.64 342.431C1578.37 338.453 1578.61 337.681 1580.07 337.681C1581.04 337.682 1581.82 337.007 1581.82 336.182C1581.82 334.993 1580.39 334.682 1574.88 334.682C1568.84 334.682 1567.73 334.971 1566.38 336.905ZM1586.96 337.231C1583.02 342.248 1582.81 353.509 1586.57 358.546C1588.16 360.678 1589.36 361.182 1592.82 361.182C1599.17 361.182 1601.32 357.895 1601.32 348.182C1601.32 338.777 1599.19 335.337 1593.09 334.88C1589.72 334.628 1588.71 335.016 1586.96 337.231ZM1608.96 337.231C1606.34 340.563 1605.39 345.488 1606.2 351.508C1607.14 358.458 1609.57 361.182 1614.82 361.182C1621.17 361.182 1623.32 357.895 1623.32 348.182C1623.32 338.777 1621.19 335.337 1615.09 334.88C1611.72 334.628 1610.71 335.016 1608.96 337.231ZM1652.48 336.511C1650.63 338.556 1650.31 342.86 1651.81 345.658C1652.35 346.673 1654.4 348.495 1656.37 349.708C1659.4 351.581 1659.89 352.384 1659.63 355.047C1659.34 358.042 1659.13 358.178 1655.03 358.093C1651.62 358.021 1650.8 358.33 1651.04 359.593C1651.25 360.719 1652.7 361.27 1655.99 361.483C1659.88 361.735 1660.9 361.415 1662.23 359.511C1665.63 354.661 1664.04 350.813 1656.02 344.442C1651.92 341.193 1654.42 336.951 1659.79 338.025C1661.47 338.361 1663.03 338.151 1663.41 337.537C1665.29 334.5 1655.16 333.549 1652.48 336.511ZM1678.48 336.511C1676.63 338.549 1676.31 342.858 1677.8 345.634C1678.33 346.635 1680.39 348.407 1682.36 349.571C1685.47 351.404 1685.91 352.125 1685.64 354.936C1685.34 358.061 1685.16 358.179 1681.03 358.093C1677.62 358.021 1676.8 358.33 1677.04 359.593C1677.25 360.693 1678.68 361.278 1681.68 361.494C1687.21 361.892 1689.82 359.761 1689.82 354.871C1689.82 351.928 1688.99 350.601 1684.57 346.54C1680.13 342.453 1679.5 341.439 1680.44 339.946C1681.17 338.803 1682.81 338.182 1685.11 338.182C1689.2 338.182 1690.93 336.991 1688.79 335.643C1686.25 334.035 1680.26 334.538 1678.48 336.511ZM1697.07 335.344C1696.39 335.622 1695.82 336.413 1695.82 337.102C1695.82 337.923 1697.29 338.325 1700.07 338.268C1704.28 338.183 1704.33 338.22 1704.63 341.932C1704.93 345.482 1704.79 345.682 1702.02 345.682C1697.27 345.682 1693.82 349.104 1693.82 353.82C1693.82 359.506 1695.26 361.682 1699.03 361.682C1700.75 361.682 1702.99 360.937 1703.99 360.027C1705.7 358.487 1705.82 358.487 1705.82 360.027C1705.82 360.937 1706.5 361.682 1707.32 361.682C1708.57 361.682 1708.82 359.762 1708.82 350.405C1708.82 336.932 1707.82 334.637 1702.02 334.761C1699.99 334.804 1697.76 335.067 1697.07 335.344ZM1727.88 336.626C1723.75 340.755 1723.75 354.843 1727.87 359.236C1729.86 361.349 1731.01 361.724 1734.78 361.478C1738.05 361.264 1739.39 360.722 1739.62 359.52C1739.88 358.137 1739.29 357.943 1736.12 358.368C1731.65 358.969 1729.21 356.947 1728.67 352.182L1728.32 349.182L1734.57 348.884L1740.82 348.587L1740.82 344.884C1740.82 342.848 1739.92 339.72 1738.83 337.932C1737.2 335.258 1736.23 334.682 1733.34 334.682C1731.19 334.682 1729.07 335.438 1727.88 336.626ZM1746.88 336.627C1743.25 340.256 1744.17 344.013 1749.87 348.816C1755.15 353.267 1755.94 355.963 1752.6 358.059C1751.35 358.84 1750.02 358.817 1747.79 357.975C1744.9 356.883 1744.72 356.947 1745.01 358.996C1745.27 360.802 1746.08 361.236 1749.68 361.494C1755.33 361.9 1757.82 359.783 1757.82 354.577C1757.82 351.297 1757.21 350.265 1753.28 346.984C1749.78 344.062 1748.81 342.611 1749.03 340.685C1749.29 338.48 1749.8 338.182 1753.32 338.182C1756.21 338.182 1757.32 337.765 1757.32 336.682C1757.32 334.154 1749.39 334.112 1746.88 336.627ZM111.503 340.271C110.768 344.803 109.08 346.862 106.412 346.48C104.855 346.258 104.243 345.338 104.006 342.867C103.604 338.677 105.24 336.682 109.077 336.682C111.971 336.682 112.064 336.819 111.503 340.271ZM1492.82 343.167C1492.82 348.106 1490.75 350.248 1487.6 348.562C1485.31 347.339 1485.18 340.472 1487.39 338.255C1490.14 335.507 1492.82 337.933 1492.82 343.167ZM1574.27 338.905C1576.43 341.996 1576.21 345.296 1573.66 347.843L1571.5 350.003L1569.66 347.732C1568.65 346.483 1567.82 344.485 1567.82 343.294C1567.82 340.937 1570.4 336.682 1571.82 336.682C1572.31 336.682 1573.41 337.682 1574.27 338.905ZM1461.53 340.682C1463.33 344.239 1463.17 353.748 1461.27 356.459C1459.21 359.394 1456.26 359.277 1454.23 356.18C1452.25 353.158 1452.62 341.843 1454.78 339.238C1456.67 336.96 1460.02 337.676 1461.53 340.682ZM1596.53 340.682C1598.33 344.239 1598.17 353.748 1596.27 356.459C1592.42 361.95 1587.82 357.443 1587.82 348.182C1587.82 341.198 1589.79 337.391 1593.15 337.875C1594.32 338.044 1595.84 339.307 1596.53 340.682ZM1618.53 340.682C1620.33 344.239 1620.17 353.748 1618.27 356.459C1616.21 359.394 1613.26 359.277 1611.23 356.18C1609.25 353.158 1609.62 341.843 1611.78 339.238C1613.67 336.96 1617.02 337.676 1618.53 340.682ZM1640.53 340.682C1642.33 344.239 1642.17 353.748 1640.27 356.459C1638.21 359.394 1635.26 359.277 1633.23 356.18C1631.25 353.158 1631.62 341.843 1633.78 339.238C1635.67 336.96 1639.02 337.676 1640.53 340.682ZM1735.62 338.938C1736.19 339.628 1736.97 341.428 1737.35 342.938C1738.03 345.633 1737.96 345.682 1733.43 345.682C1729.44 345.682 1728.82 345.405 1728.82 343.616C1728.82 338.726 1733.04 335.825 1735.62 338.938ZM974.824 350.959C974.824 364.246 975.845 366.682 981.412 366.682C983.578 366.682 985.104 366.117 985.462 365.182C985.779 364.357 986.44 363.682 986.931 363.682C987.422 363.682 987.824 364.357 987.824 365.182C987.824 366.007 988.499 366.682 989.324 366.682C990.583 366.682 990.824 364.515 990.824 353.182C990.824 340.349 990.725 339.682 988.824 339.682C986.96 339.682 986.824 340.349 986.824 349.459C986.824 360.324 985.405 364.049 981.477 363.489C979.431 363.197 979.31 362.597 979.042 351.432C978.78 340.507 978.622 339.682 976.792 339.682C974.951 339.682 974.824 340.409 974.824 350.959ZM994.83 340.859C994.833 341.587 996.18 347.132 997.824 353.182C999.468 359.232 1000.81 365.532 1000.8 367.182C1000.79 371.201 998.602 375.214 996.516 375.043C995.475 374.958 994.824 375.631 994.824 376.793C994.824 379.316 998.936 379.32 1001.22 376.8C1002.55 375.33 1011.75 343.735 1011.81 340.432C1011.82 340.019 1011 339.682 1009.99 339.682C1008.47 339.682 1007.72 341.558 1005.69 350.432L1003.23 361.182L1000.76 350.694C998.898 342.741 997.882 340.124 996.563 339.87C995.607 339.686 994.827 340.131 994.83 340.859ZM1026.94 342.06C1022.85 346.415 1022.81 360.669 1026.88 364.738C1029.55 367.409 1036.82 367.495 1036.82 364.855C1036.82 363.412 1036.22 363.117 1033.95 363.451C1029.77 364.064 1027.82 360.806 1027.82 353.182C1027.82 345.532 1029.79 342.226 1033.86 343.039C1035.7 343.407 1036.82 343.135 1037.16 342.237C1037.92 340.259 1036.94 339.682 1032.83 339.682C1030.27 339.682 1028.5 340.396 1026.94 342.06ZM1043.96 342.231C1040.02 347.248 1039.81 358.509 1043.57 363.546C1045.16 365.678 1046.36 366.182 1049.82 366.182C1056.18 366.182 1058.27 362.962 1058.27 353.182C1058.27 343.709 1056.19 340.337 1050.09 339.88C1046.72 339.628 1045.71 340.016 1043.96 342.231ZM1063.82 353.182C1063.82 366.015 1063.92 366.682 1065.82 366.682C1067.69 366.682 1067.82 366.015 1067.82 356.905C1067.82 346.079 1069.25 342.311 1073.13 342.875C1075.9 343.278 1076.6 346.109 1076.72 357.432C1076.8 364.943 1077.11 366.682 1078.32 366.682C1080.55 366.682 1080.5 345.098 1078.27 341.905C1076.22 338.982 1071.57 338.965 1068.86 341.871L1066.82 344.059V341.871C1066.82 340.592 1066.2 339.682 1065.32 339.682C1064.06 339.682 1063.82 341.849 1063.82 353.182ZM1089.56 340.932C1085.4 344.092 1084.34 357.736 1087.81 363.432C1089.58 366.326 1090.29 366.682 1094.31 366.682C1098.01 366.682 1098.82 366.355 1098.82 364.855C1098.82 363.417 1098.22 363.117 1095.98 363.445C1094.29 363.694 1092.53 363.25 1091.62 362.339C1088.23 358.942 1088.68 346.705 1092.32 343.687C1093.16 342.984 1094.87 342.729 1096.31 343.089C1098.37 343.607 1098.82 343.358 1098.82 341.701C1098.82 340.029 1098.17 339.682 1095.01 339.682C1092.92 339.682 1090.47 340.245 1089.56 340.932ZM1105.88 341.626C1101.75 345.755 1101.75 359.843 1105.87 364.236C1107.86 366.349 1109.01 366.724 1112.78 366.478C1116.09 366.261 1117.39 365.727 1117.63 364.485C1117.9 363.061 1117.37 362.881 1114.36 363.369C1109.7 364.125 1106.82 361.703 1106.82 357.027V353.682H1112.82H1118.82L1118.82 349.932C1118.82 347.87 1117.92 344.72 1116.83 342.932C1115.2 340.258 1114.23 339.682 1111.34 339.682C1109.19 339.682 1107.07 340.438 1105.88 341.626ZM1124.82 353.182C1124.82 364.515 1125.06 366.682 1126.32 366.682C1127.53 366.682 1127.82 365.123 1127.82 358.65C1127.82 349.394 1129.67 343.682 1132.67 343.682C1134.28 343.682 1135.82 341.926 1135.82 340.1C1135.82 338.712 1130.69 340.03 1129.51 341.723L1128.08 343.764L1127.54 341.723C1127.25 340.6 1126.52 339.682 1125.92 339.682C1125.18 339.682 1124.82 344.078 1124.82 353.182ZM1174.49 340.349C1174.12 340.715 1173.82 346.79 1173.82 353.849C1173.82 366.015 1173.93 366.682 1175.82 366.682C1177.72 366.682 1177.82 366.015 1177.82 353.182C1177.82 342.599 1177.54 339.682 1176.49 339.682C1175.76 339.682 1174.86 339.982 1174.49 340.349ZM1186.85 341.657C1184.17 344.336 1183.53 347.465 1183.99 355.623C1184.49 364.425 1186.38 366.913 1192.26 366.48C1197.79 366.073 1198.52 363.182 1193.1 363.182C1189.53 363.182 1189.25 362.948 1187.97 358.892C1186.38 353.88 1187.15 346.496 1189.51 344.139C1190.37 343.277 1192.25 342.709 1193.68 342.877C1195.52 343.092 1196.39 342.667 1196.63 341.432C1197.14 338.813 1189.52 338.989 1186.85 341.657ZM1223.43 341.562C1219.32 346.107 1219.06 359.172 1222.99 364.163C1224.49 366.075 1225.9 366.682 1228.81 366.682C1233.53 366.682 1235.82 365.87 1235.82 364.198C1235.82 363.293 1234.59 363.067 1231.53 363.411C1226.53 363.975 1225.03 362.727 1224.14 357.271L1223.56 353.682H1230.32H1237.08L1236.42 349.432C1235.5 343.458 1232.9 340.249 1228.67 339.883C1226.23 339.673 1224.7 340.165 1223.43 341.562ZM1254.88 341.627C1251.39 345.111 1252.22 348.507 1257.82 353.682C1260.57 356.223 1262.82 359.008 1262.82 359.87C1262.82 362.588 1260.14 363.963 1256.25 363.234C1253.13 362.649 1252.7 362.799 1253 364.371C1253.23 365.609 1254.41 366.284 1256.72 366.506C1261.98 367.009 1264.46 365.971 1265.82 362.695C1267.54 358.538 1265.76 354.569 1260.67 351.2C1257.44 349.063 1256.76 348.07 1257.01 345.877C1257.3 343.379 1257.64 343.196 1261.64 343.378C1265.21 343.54 1265.89 343.282 1265.63 341.878C1265.12 339.182 1257.5 339.005 1254.88 341.627ZM1053.53 345.682C1054.23 347.057 1054.79 350.432 1054.79 353.182C1054.79 359.185 1053.04 363.071 1050.15 363.489C1046.79 363.973 1044.82 360.166 1044.82 353.182C1044.82 346.198 1046.79 342.391 1050.15 342.875C1051.32 343.044 1052.84 344.307 1053.53 345.682ZM1113.62 343.938C1114.19 344.628 1114.97 346.428 1115.35 347.938C1116.03 350.633 1115.96 350.682 1111.43 350.682C1107.44 350.682 1106.82 350.405 1106.82 348.616C1106.82 343.726 1111.04 340.825 1113.62 343.938ZM1231.79 344.616C1232.36 345.68 1232.82 347.48 1232.82 348.616C1232.82 350.398 1232.2 350.682 1228.32 350.682C1223.31 350.682 1222.48 349.052 1225.38 344.905C1227.3 342.167 1230.4 342.028 1231.79 344.616ZM599.824 354.837C599.824 361.705 599.751 361.926 597.995 360.337C595.72 358.278 591.453 358.196 589.476 360.173C585.476 364.173 584.75 377.868 588.255 383.218C590.155 386.117 595.781 386.644 597.876 384.119C599.053 382.701 599.255 382.701 600.049 384.119C600.53 384.979 601.576 385.682 602.374 385.682C603.59 385.682 603.824 382.615 603.824 366.682C603.824 348.349 603.754 347.682 601.824 347.682C600.01 347.682 599.824 348.349 599.824 354.837ZM776.824 366.682C776.824 385.015 776.894 385.682 778.824 385.682C780.754 385.682 780.824 385.015 780.824 366.682C780.824 348.349 780.754 347.682 778.824 347.682C776.894 347.682 776.824 348.349 776.824 366.682ZM746.218 350.099C745.39 352.256 746.541 354.943 748.075 354.432C748.762 354.203 749.324 352.965 749.324 351.682C749.324 348.941 747.097 347.806 746.218 350.099ZM1535.82 351.748C1535.82 353.434 1535.36 355.684 1534.79 356.748C1533.54 359.08 1529.28 359.316 1528.43 357.1C1526.73 352.675 1529.09 348.682 1533.39 348.682C1535.44 348.682 1535.82 349.168 1535.82 351.748ZM1704.82 352.482C1704.82 358.63 1699.92 361.19 1697.66 356.223C1696.16 352.923 1698.79 348.682 1702.35 348.682C1704.55 348.682 1704.82 349.105 1704.82 352.482ZM962.775 350.656C966.888 352.857 965.956 361.876 961.492 363.073C956.127 364.512 955.824 364.171 955.824 356.682C955.824 349.834 955.88 349.682 958.39 349.682C959.801 349.682 961.774 350.12 962.775 350.656ZM386.491 353.349C386.124 353.715 385.824 355.043 385.824 356.299C385.824 357.555 385.036 359.081 384.074 359.69C382.821 360.484 382.679 360.947 383.574 361.323C384.434 361.685 384.855 364.709 384.924 371.015C385.062 383.771 385.542 385.11 390.113 385.492C392.874 385.723 393.824 385.421 393.824 384.312C393.824 383.492 392.812 382.677 391.574 382.502C389.43 382.197 389.311 381.7 389.039 371.932L388.754 361.682H391.289C392.876 361.682 393.824 361.121 393.824 360.182C393.824 359.249 392.88 358.682 391.324 358.682C389.213 358.682 388.824 358.215 388.824 355.682C388.824 352.815 387.924 351.915 386.491 353.349ZM446.824 355.111C446.824 356.446 446.041 358.323 445.083 359.28C443.831 360.532 443.691 361.138 444.583 361.435C445.461 361.728 445.824 364.772 445.824 371.831C445.824 383.744 446.598 385.682 451.359 385.682C455.311 385.682 456.322 383.034 452.574 382.502C450.43 382.197 450.311 381.7 450.039 371.932C449.768 362.197 449.856 361.682 451.789 361.682C452.931 361.682 453.824 361.024 453.824 360.182C453.824 359.349 452.935 358.682 451.824 358.682C450.268 358.682 449.824 358.015 449.824 355.682C449.824 353.682 449.324 352.682 448.324 352.682C447.402 352.682 446.824 353.619 446.824 355.111ZM495.491 353.349C495.124 353.715 494.824 355.043 494.824 356.299C494.824 357.555 494.036 359.081 493.074 359.69C491.821 360.484 491.679 360.947 492.574 361.323C493.439 361.687 493.824 364.549 493.824 370.616C493.824 375.438 494.318 380.801 494.922 382.533C495.863 385.233 496.505 385.682 499.422 385.682C503.321 385.682 504.283 383.028 500.574 382.502C498.43 382.197 498.311 381.7 498.039 371.932L497.754 361.682H500.289C501.876 361.682 502.824 361.121 502.824 360.182C502.824 359.249 501.88 358.682 500.324 358.682C498.213 358.682 497.824 358.215 497.824 355.682C497.824 352.815 496.924 351.915 495.491 353.349ZM517.491 353.349C517.124 353.715 516.824 355.043 516.824 356.299C516.824 357.555 516.036 359.081 515.074 359.69C513.821 360.484 513.679 360.947 514.574 361.323C515.434 361.685 515.855 364.709 515.924 371.015C516.062 383.771 516.542 385.11 521.113 385.492C523.874 385.723 524.824 385.421 524.824 384.312C524.824 383.492 523.811 382.677 522.574 382.502C520.43 382.197 520.311 381.7 520.039 371.932L519.754 361.682H522.289C523.876 361.682 524.824 361.121 524.824 360.182C524.824 359.249 523.88 358.682 522.324 358.682C520.213 358.682 519.824 358.215 519.824 355.682C519.824 352.815 518.924 351.915 517.491 353.349ZM399.88 360.626C395.777 364.729 395.747 378.842 399.831 383.19C402.129 385.636 405.857 386.374 409.279 385.061C415.63 382.624 415.63 361.74 409.279 359.303C406.133 358.096 401.8 358.706 399.88 360.626ZM429.479 360.511C426.098 364.247 427.807 370.587 432.905 373.224C436.438 375.051 438.011 378.376 436.607 381.05C435.818 382.554 434.854 382.815 431.669 382.388C428.356 381.944 427.762 382.128 428.026 383.52C428.251 384.704 429.59 385.272 432.685 385.494C438.206 385.892 440.824 383.761 440.824 378.871C440.824 375.928 439.988 374.601 435.574 370.54C431.131 366.453 430.496 365.439 431.445 363.946C432.172 362.803 433.815 362.182 436.11 362.182C440.199 362.182 441.927 360.991 439.795 359.643C437.252 358.035 431.264 358.538 429.479 360.511ZM460.13 359.326C459.474 359.593 459.171 360.423 459.458 361.171C459.824 362.123 461.036 362.36 463.502 361.959C467.486 361.313 468.784 362.529 468.809 366.932C468.821 369.189 468.384 369.682 466.371 369.682C458.493 369.682 454.104 378.494 459.027 384.426C460.512 386.216 465.838 385.979 467.995 384.027C469.697 382.487 469.824 382.487 469.824 384.027C469.824 384.937 470.499 385.682 471.324 385.682C472.563 385.682 472.824 383.843 472.824 375.132C472.824 361.417 471.593 358.648 465.548 358.761C463.225 358.804 460.787 359.058 460.13 359.326ZM479.491 359.349C479.124 359.715 478.824 365.79 478.824 372.849C478.824 385.015 478.928 385.682 480.824 385.682C482.67 385.682 482.825 385.01 482.839 376.932C482.855 367.264 484.178 363.354 487.599 362.862C489.02 362.658 489.824 361.846 489.824 360.612C489.824 357.915 486.333 358.119 484.356 360.932L482.775 363.182L482.183 360.932C481.583 358.653 480.703 358.136 479.491 359.349ZM528.824 372.182C528.824 385.015 528.923 385.682 530.824 385.682C532.675 385.682 532.824 385.015 532.824 376.729C532.824 366.404 534.059 362.682 537.485 362.682C539.157 362.682 539.824 362.112 539.824 360.682C539.824 357.224 535.26 358.231 533.019 362.182C531.962 364.046 531.883 363.995 531.854 361.432C531.835 359.668 531.286 358.682 530.324 358.682C529.065 358.682 528.824 360.849 528.824 372.182ZM546.312 360.337C542.056 364.593 541.403 376.278 545.114 381.784C547.201 384.881 547.841 385.182 552.35 385.182C556.208 385.182 557.369 384.808 557.623 383.485C557.898 382.061 557.372 381.881 554.365 382.369C549.704 383.125 546.824 380.703 546.824 376.027V372.682H552.824H558.824L558.82 368.932C558.818 366.87 557.925 363.72 556.835 361.932C555.217 359.278 554.222 358.682 551.41 358.682C549.516 358.682 547.222 359.427 546.312 360.337ZM564.824 372.182C564.824 383.515 565.065 385.682 566.324 385.682C567.532 385.682 567.835 384.074 567.88 377.432C567.945 368.043 569.491 362.366 572.122 361.862C576.009 361.116 576.824 363.36 576.824 374.804C576.824 385.015 576.947 385.682 578.824 385.682C580.691 385.682 580.824 385.015 580.824 375.65C580.824 369.152 580.314 364.396 579.375 362.15C578.114 359.131 577.474 358.682 574.432 358.682C571.954 358.682 570.484 359.329 569.381 360.905L567.824 363.127V360.905C567.824 359.596 567.207 358.682 566.324 358.682C565.065 358.682 564.824 360.849 564.824 372.182ZM610.479 360.511C608.628 362.556 608.314 366.86 609.811 369.658C610.354 370.673 612.404 372.495 614.366 373.708C617.397 375.581 617.888 376.384 617.629 379.047C617.338 382.042 617.133 382.178 613.032 382.093C609.621 382.021 608.801 382.33 609.041 383.593C609.254 384.719 610.697 385.27 613.991 385.483C617.885 385.735 618.898 385.415 620.232 383.511C623.628 378.661 622.041 374.813 614.016 368.442C609.948 365.212 612.414 360.95 617.736 362.014C619.708 362.409 620.813 362.154 621.17 361.222C622.313 358.245 613.085 357.631 610.479 360.511ZM637.964 361.231C634.018 366.248 633.811 377.509 637.572 382.546C639.163 384.678 640.36 385.182 643.824 385.182C650.175 385.182 652.324 381.895 652.324 372.182C652.324 362.777 650.194 359.337 644.087 358.88C640.716 358.628 639.707 359.016 637.964 361.231ZM657.824 372.182C657.824 385.015 657.923 385.682 659.824 385.682C661.688 385.682 661.824 385.015 661.824 375.905C661.824 365.079 663.249 361.311 667.13 361.875C669.903 362.278 670.602 365.109 670.724 376.432C670.805 383.943 671.106 385.682 672.324 385.682C674.553 385.682 674.504 364.098 672.267 360.905C670.442 358.298 665.737 357.912 663.467 360.182C662.642 361.007 661.71 361.682 661.395 361.682C661.081 361.682 660.824 361.007 660.824 360.182C660.824 359.357 660.149 358.682 659.324 358.682C658.065 358.682 657.824 360.849 657.824 372.182ZM690.479 360.511C689.569 361.517 688.824 363.996 688.824 366.02C688.824 369.189 689.379 370.082 692.816 372.442C696.894 375.24 698.531 378.398 697.414 381.309C696.926 382.581 695.897 382.821 692.749 382.399C689.358 381.944 688.762 382.124 689.027 383.52C689.256 384.73 690.605 385.264 693.991 385.483C697.885 385.735 698.898 385.415 700.232 383.511C703.534 378.795 701.699 373.622 695.325 369.682C689.78 366.255 691.505 360.768 697.736 362.014C699.708 362.409 700.813 362.154 701.17 361.222C702.313 358.245 693.085 357.631 690.479 360.511ZM709.56 359.932C704.371 363.873 704.591 381.881 709.863 384.703C711.94 385.814 715.879 385.982 718.279 385.061C721.101 383.978 722.824 379.096 722.824 372.182C722.824 365.268 721.101 360.386 718.279 359.303C715.626 358.285 711.32 358.596 709.56 359.932ZM730.831 361.174C726.747 365.522 726.777 379.635 730.88 383.738C733.575 386.433 740.824 386.493 740.824 383.821C740.824 382.368 740.268 382.066 738.289 382.444C733.791 383.304 731.824 380.354 731.824 372.75C731.824 364.507 733.685 361.204 737.86 362.039C739.7 362.407 740.82 362.135 741.165 361.237C741.924 359.259 740.945 358.682 736.832 358.682C734.225 358.682 732.499 359.399 730.831 361.174ZM745.824 372.182C745.824 385.015 745.923 385.682 747.824 385.682C749.725 385.682 749.824 385.015 749.824 372.182C749.824 359.349 749.725 358.682 747.824 358.682C745.923 358.682 745.824 359.349 745.824 372.182ZM757.946 359.586C755.619 361.06 757.662 362.664 761.013 361.994C764.505 361.296 766.824 363.39 766.824 367.241C766.824 369.046 766.098 369.516 762.584 369.987C757.561 370.661 754.824 373.512 754.824 378.07C754.824 382.497 757.307 385.682 760.758 385.682C762.31 385.682 764.163 384.979 764.876 384.119C766.053 382.701 766.255 382.701 767.049 384.119C769.102 387.787 769.824 385.111 769.824 373.837C769.824 363.632 769.571 361.763 767.995 360.337C766.046 358.573 760.231 358.138 757.946 359.586ZM1494.29 362.287C1497.22 365.224 1493.92 370.682 1489.2 370.682C1484.87 370.682 1482.7 366.648 1484.86 362.616C1486.16 360.19 1491.99 359.987 1494.29 362.287ZM1576.62 361.882C1579.64 364.902 1576.52 370.682 1571.87 370.682C1568.52 370.682 1566.82 369 1566.82 365.682C1566.82 362.243 1568.54 360.682 1572.32 360.682C1574.03 360.682 1575.96 361.222 1576.62 361.882ZM408.952 363.336C409.834 364.399 410.324 367.556 410.324 372.182C410.324 379.767 409.061 382.682 405.773 382.682C401.814 382.682 400.605 379.85 400.985 371.47C401.239 365.883 401.775 363.324 402.833 362.655C405.084 361.232 407.422 361.492 408.952 363.336ZM553.621 362.938C554.194 363.628 554.973 365.428 555.352 366.938C556.028 369.633 555.958 369.682 551.432 369.682C547.442 369.682 546.824 369.405 546.824 367.616C546.824 362.726 551.038 359.825 553.621 362.938ZM598.534 364.682C599.227 366.057 599.795 369.432 599.795 372.182C599.795 378.185 598.042 382.071 595.146 382.489C591.789 382.973 589.824 379.166 589.824 372.182C589.824 365.198 591.789 361.391 595.146 361.875C596.316 362.044 597.841 363.307 598.534 364.682ZM647.534 364.682C648.227 366.057 648.795 369.432 648.795 372.182C648.795 378.185 647.042 382.071 644.146 382.489C640.789 382.973 638.824 379.166 638.824 372.182C638.824 365.198 640.789 361.391 644.146 361.875C645.316 362.044 646.841 363.307 647.534 364.682ZM717.839 363.711C721.48 370.512 719.28 382.682 714.41 382.682C713.026 382.682 711.471 381.891 710.954 380.925C709.951 379.05 709.362 373.219 709.649 368.003C709.96 362.348 715.544 359.422 717.839 363.711ZM468.824 375.991C468.824 380.402 466.844 382.961 463.768 382.527C461.854 382.257 461.258 381.504 461.02 379.057C460.659 375.349 462.908 372.682 466.395 372.682C468.478 372.682 468.824 373.154 468.824 375.991ZM766.824 375.459C766.824 382.389 759.644 385.518 759.006 378.867C758.608 374.718 760.234 372.682 763.946 372.682C766.426 372.682 766.824 373.066 766.824 375.459ZM14.8235 398.682C14.8235 417.015 14.8935 417.682 16.8235 417.682C18.6875 417.682 18.8235 417.015 18.8235 407.905C18.8235 397.475 20.1435 393.682 23.7735 393.682C26.4015 393.682 26.8235 395.559 26.8235 407.264C26.8235 417.015 26.9515 417.682 28.8235 417.682C30.7055 417.682 30.8235 417.015 30.8235 406.405C30.8235 397.816 30.4525 394.597 29.2665 392.905C27.5905 390.511 23.9575 390.005 20.7575 391.717C18.9375 392.692 18.8235 392.368 18.8235 386.217C18.8235 380.349 18.6195 379.682 16.8235 379.682C14.8935 379.682 14.8235 380.349 14.8235 398.682ZM116.218 382.099C115.3 384.49 116.511 386.739 118.339 386.038C120.165 385.337 119.969 381.551 118.075 380.927C117.387 380.701 116.552 381.228 116.218 382.099ZM3.49052 385.349C3.12352 385.715 2.82352 387.043 2.82352 388.299C2.82352 389.555 2.03552 391.081 1.07352 391.69C-0.17948 392.484 -0.32148 392.947 0.57352 393.323C1.43352 393.685 1.85452 396.709 1.92352 403.015C2.06152 415.771 2.54152 417.11 7.11252 417.492C9.87352 417.723 10.8235 417.421 10.8235 416.312C10.8235 415.492 9.81152 414.677 8.57352 414.502C6.42952 414.197 6.31052 413.7 6.03852 403.932L5.75352 393.682H8.28852C9.87552 393.682 10.8235 393.121 10.8235 392.182C10.8235 391.249 9.87952 390.682 8.32352 390.682C6.21252 390.682 5.82352 390.215 5.82352 387.682C5.82352 384.815 4.92352 383.915 3.49052 385.349ZM103.824 387.111C103.824 388.446 103.041 390.323 102.083 391.28C100.831 392.532 100.691 393.138 101.583 393.435C102.461 393.728 102.824 396.772 102.824 403.831C102.824 415.744 103.598 417.682 108.359 417.682C112.311 417.682 113.322 415.034 109.574 414.502C107.43 414.197 107.311 413.7 107.039 403.932C106.768 394.197 106.856 393.682 108.789 393.682C109.931 393.682 110.824 393.024 110.824 392.182C110.824 391.349 109.935 390.682 108.824 390.682C107.268 390.682 106.824 390.015 106.824 387.682C106.824 385.682 106.324 384.682 105.324 384.682C104.402 384.682 103.824 385.619 103.824 387.111ZM143.824 386.459C143.824 387.437 143.064 389.321 142.136 390.647C140.939 392.356 140.794 393.172 141.636 393.453C142.45 393.724 142.824 397.068 142.824 404.074C142.824 415.734 143.766 418.047 148.296 417.518C151.835 417.104 152.788 414.956 149.632 414.509C147.415 414.195 147.313 413.779 147.039 403.932C146.768 394.197 146.856 393.682 148.789 393.682C149.931 393.682 150.824 393.024 150.824 392.182C150.824 391.349 149.935 390.682 148.824 390.682C147.268 390.682 146.824 390.015 146.824 387.682C146.824 385.682 146.324 384.682 145.324 384.682C144.499 384.682 143.824 385.482 143.824 386.459ZM39.4385 392.555C37.7585 394.411 35.7925 403.452 36.3915 406.565C37.5275 412.462 38.0885 413.947 39.8485 415.707C42.7865 418.645 51.8235 418.26 51.8235 415.198C51.8235 414.293 50.5895 414.067 47.5345 414.411C42.5525 414.973 41.3365 413.967 40.3015 408.432L39.6005 404.682H46.2125H52.8235V401.747C52.8235 398.085 51.4925 394.494 49.3355 392.337C47.0915 390.093 41.5565 390.215 39.4385 392.555ZM68.9455 391.586C66.6185 393.06 68.6615 394.664 72.0125 393.994C75.5045 393.296 77.8235 395.39 77.8235 399.241C77.8235 401.046 77.0975 401.516 73.5835 401.987C68.5605 402.661 65.8235 405.512 65.8235 410.07C65.8235 416.587 71.6105 419.994 75.9735 416.046C77.6475 414.531 77.8285 414.531 78.4095 416.046C78.7545 416.946 79.6645 417.682 80.4305 417.682C81.5165 417.682 81.8185 415.756 81.7995 408.932C81.7725 399.137 80.6245 392.805 78.6455 391.551C76.9125 390.452 70.7005 390.474 68.9455 391.586ZM87.8235 404.182C87.8235 417.015 87.9225 417.682 89.8235 417.682C91.6795 417.682 91.8235 417.015 91.8235 408.405C91.8235 398.412 93.1975 394.682 96.8805 394.682C98.1565 394.682 98.8235 393.996 98.8235 392.682C98.8235 390.019 96.0685 390.104 93.1375 392.856L90.8235 395.031V392.856C90.8235 391.59 90.1965 390.682 89.3235 390.682C88.0645 390.682 87.8235 392.849 87.8235 404.182ZM115.824 404.182C115.824 415.515 116.065 417.682 117.324 417.682C118.583 417.682 118.824 415.515 118.824 404.182C118.824 392.849 118.583 390.682 117.324 390.682C116.065 390.682 115.824 392.849 115.824 404.182ZM126.479 392.511C125.568 393.517 124.824 395.999 124.824 398.031C124.824 401.276 125.375 402.111 129.371 404.928C133.272 407.678 133.875 408.562 133.621 411.157C133.339 414.024 133.1 414.177 129.032 414.093C125.621 414.021 124.801 414.33 125.041 415.593C125.254 416.719 126.697 417.27 129.991 417.483C133.885 417.735 134.898 417.415 136.232 415.511C139.534 410.795 137.699 405.622 131.325 401.682C125.78 398.255 127.505 392.768 133.736 394.014C135.708 394.409 136.813 394.154 137.17 393.222C138.313 390.245 129.085 389.631 126.479 392.511ZM47.7885 395.616C48.3575 396.68 48.8235 398.48 48.8235 399.616C48.8235 401.405 48.2055 401.682 44.2155 401.682C39.6895 401.682 39.6195 401.633 40.2955 398.938C41.6375 393.589 45.7315 391.774 47.7885 395.616ZM77.8235 407.135C77.8235 411.68 75.7215 414.81 72.8905 414.481C70.7895 414.236 70.2655 413.58 70.0055 410.867C69.6075 406.718 71.2335 404.682 74.9455 404.682C77.3335 404.682 77.8235 405.099 77.8235 407.135ZM451.824 422.753C451.824 429.182 451.681 429.682 450.253 428.253C448.028 426.029 443.482 426.298 441.229 428.787C439.643 430.539 439.324 432.45 439.324 440.182C439.324 447.914 439.643 449.825 441.229 451.577C443.535 454.125 448.428 454.351 450.995 452.027C452.697 450.487 452.824 450.487 452.824 452.027C452.824 452.937 453.499 453.682 454.324 453.682C455.605 453.682 455.824 450.904 455.824 434.682C455.824 416.349 455.754 415.682 453.824 415.682C452.013 415.682 451.824 416.349 451.824 422.753ZM525.824 434.682C525.824 450.904 526.043 453.682 527.324 453.682C528.605 453.682 528.824 450.904 528.824 434.682C528.824 418.46 528.605 415.682 527.324 415.682C526.043 415.682 525.824 418.46 525.824 434.682ZM570.859 417.616C570.29 418.68 569.824 421.047 569.824 422.876C569.824 425.228 569.174 426.607 567.603 427.588L565.383 428.975L567.603 429.796C569.722 430.58 569.824 431.149 569.824 442.15C569.824 451.623 570.086 453.682 571.292 453.682C572.484 453.682 572.814 451.469 573.042 441.932C573.314 430.606 573.405 430.17 575.574 429.862C578.693 429.42 578.477 426.682 575.324 426.682C573.464 426.682 572.824 426.153 572.824 424.616C572.824 421.424 574.689 418.682 576.859 418.682C577.94 418.682 578.824 418.007 578.824 417.182C578.824 414.82 572.161 415.184 570.859 417.616ZM462.394 418.36C462.04 419.282 462.368 420.655 463.123 421.41C464.287 422.573 464.676 422.566 465.677 421.359C467.058 419.695 466.187 416.682 464.324 416.682C463.617 416.682 462.748 417.437 462.394 418.36ZM557.223 423.432C556.872 424.944 555.851 426.77 554.954 427.49C553.454 428.693 553.463 428.877 555.074 429.789C556.562 430.633 556.824 432.314 556.824 441.032C556.824 447.671 557.247 451.705 558.024 452.482C559.783 454.241 564.824 454.019 564.824 452.182C564.824 451.353 563.937 450.682 562.843 450.682C560.247 450.682 559.66 448.078 560.027 438.179C560.303 430.752 560.484 430.159 562.574 429.862C565.693 429.42 565.477 426.682 562.324 426.682C560.213 426.682 559.824 426.215 559.824 423.682C559.824 419.923 558.077 419.755 557.223 423.432ZM384.824 440.182C384.824 453.015 384.923 453.682 386.824 453.682C388.689 453.682 388.824 453.015 388.824 443.793C388.824 435.489 389.135 433.525 390.761 431.543C392.338 429.621 393.036 429.388 394.511 430.289C396.056 431.232 396.366 433.04 396.607 442.539C396.869 452.858 397.035 453.682 398.857 453.682C400.683 453.682 400.824 452.959 400.824 443.616C400.824 432.872 401.74 429.682 404.824 429.682C407.908 429.682 408.824 432.872 408.824 443.616C408.824 451.897 409.09 453.682 410.324 453.682C411.571 453.682 411.824 451.73 411.824 442.116C411.824 435.755 411.358 429.68 410.789 428.616C409.321 425.873 403.432 425.976 401.468 428.78L399.999 430.877L398.876 428.78C397.516 426.238 392.707 425.942 390.393 428.256C388.96 429.689 388.764 429.689 388.214 428.256C387.882 427.39 386.983 426.682 386.217 426.682C385.095 426.682 384.824 429.309 384.824 440.182ZM421.312 428.337C417.056 432.593 416.403 444.278 420.114 449.784C422.201 452.881 422.841 453.182 427.35 453.182C431.208 453.182 432.369 452.808 432.623 451.485C432.898 450.061 432.372 449.881 429.365 450.369C424.704 451.125 421.824 448.703 421.824 444.027V440.682H427.824H433.824L433.82 436.932C433.818 434.87 432.925 431.72 431.835 429.932C430.217 427.278 429.222 426.682 426.41 426.682C424.516 426.682 422.222 427.427 421.312 428.337ZM462.824 440.182C462.824 451.515 463.065 453.682 464.324 453.682C465.583 453.682 465.824 451.515 465.824 440.182C465.824 428.849 465.583 426.682 464.324 426.682C463.065 426.682 462.824 428.849 462.824 440.182ZM474.537 427.303C472.672 429.167 474.082 430.349 478.074 430.268C482.281 430.183 482.327 430.22 482.634 433.932C482.928 437.482 482.788 437.682 480.019 437.682C476.411 437.682 472.26 440.808 471.419 444.158C471.069 445.554 471.44 448.22 472.256 450.174C473.502 453.156 474.205 453.682 476.944 453.682C478.716 453.682 480.989 452.937 481.995 452.027C483.697 450.487 483.824 450.487 483.824 452.027C483.824 452.937 484.499 453.682 485.324 453.682C486.565 453.682 486.821 451.827 486.809 442.932C486.791 429.291 485.911 427.289 479.763 426.886C477.281 426.723 474.929 426.911 474.537 427.303ZM502.824 446.182C502.824 462.849 503.042 465.682 504.324 465.682C505.527 465.682 505.824 464.165 505.824 458.027C505.824 450.674 505.896 450.437 507.653 452.027C508.659 452.937 510.915 453.682 512.667 453.682C517.449 453.682 519.817 449.212 519.817 440.182C519.817 430.945 517.473 426.682 512.395 426.682C509.956 426.682 508.479 427.336 507.381 428.905L505.824 431.127V428.905C505.824 427.596 505.207 426.682 504.324 426.682C503.042 426.682 502.824 429.515 502.824 446.182ZM537.537 427.303C535.672 429.167 537.082 430.349 541.074 430.268C545.281 430.183 545.327 430.22 545.634 433.932C545.928 437.482 545.788 437.682 543.019 437.682C539.411 437.682 535.26 440.808 534.419 444.158C534.069 445.554 534.44 448.22 535.256 450.174C536.502 453.156 537.205 453.682 539.944 453.682C541.716 453.682 543.989 452.937 544.995 452.027C546.697 450.487 546.824 450.487 546.824 452.027C546.824 452.937 547.499 453.682 548.324 453.682C549.565 453.682 549.821 451.827 549.809 442.932C549.791 429.291 548.911 427.289 542.763 426.886C540.281 426.723 537.929 426.911 537.537 427.303ZM583.724 428.562C581.78 430.136 581.338 431.597 581.001 437.547C580.781 441.455 580.887 445.796 581.237 447.193C582.224 451.122 585.385 453.682 589.253 453.682C595.062 453.682 597.824 449.331 597.824 440.182C597.824 431.093 595.059 426.682 589.363 426.682C587.539 426.682 585.001 427.528 583.724 428.562ZM603.824 440.182C603.824 451.515 604.065 453.682 605.324 453.682C606.533 453.682 606.824 452.123 606.824 445.65C606.824 436.394 608.672 430.682 611.666 430.682C613.3 430.682 614.824 428.922 614.824 427.034C614.824 426.767 613.597 426.692 612.097 426.866C610.388 427.064 608.901 428.115 608.112 429.682L606.853 432.182L606.839 429.432C606.829 427.661 606.29 426.682 605.324 426.682C604.065 426.682 603.824 428.849 603.824 440.182ZM618.824 440.182C618.824 451.025 619.097 453.682 620.211 453.682C621.279 453.682 621.685 451.301 621.981 443.311C622.392 432.22 623.514 429.352 627.236 429.884C629.199 430.164 629.341 430.886 629.606 441.932C629.868 452.857 630.026 453.682 631.856 453.682C633.681 453.682 633.824 452.962 633.824 443.793C633.824 435.489 634.135 433.525 635.761 431.543C637.338 429.621 638.036 429.388 639.511 430.289C641.056 431.232 641.366 433.04 641.607 442.539C641.869 452.858 642.035 453.682 643.857 453.682C645.692 453.682 645.823 452.961 645.809 442.932C645.791 429.884 644.803 427.31 639.646 426.877C636.926 426.649 635.664 427.073 634.62 428.563C633.244 430.527 633.209 430.528 632.016 428.618C630.523 426.227 626.146 426.08 623.653 428.337C621.951 429.877 621.824 429.877 621.824 428.337C621.824 427.427 621.149 426.682 620.324 426.682C619.065 426.682 618.824 428.849 618.824 440.182ZM652.479 428.511C649.911 431.348 650.375 436.361 653.47 439.23C654.925 440.578 656.49 441.682 656.947 441.682C657.404 441.682 658.495 442.777 659.372 444.115C660.651 446.067 660.735 446.98 659.796 448.733C658.807 450.582 658.016 450.837 654.669 450.388C651.356 449.944 650.762 450.128 651.026 451.52C651.251 452.704 652.59 453.272 655.685 453.494C661.206 453.892 663.824 451.761 663.824 446.871C663.824 443.928 662.988 442.601 658.574 438.54C654.131 434.453 653.496 433.439 654.445 431.946C655.172 430.803 656.815 430.182 659.11 430.182C663.199 430.182 664.927 428.991 662.795 427.643C660.252 426.035 654.264 426.538 652.479 428.511ZM428.621 430.938C429.194 431.628 429.973 433.428 430.352 434.938C431.028 437.633 430.958 437.682 426.432 437.682C422.442 437.682 421.824 437.405 421.824 435.616C421.824 430.726 426.038 427.825 428.621 430.938ZM449.995 431.337C451.431 432.636 451.824 434.478 451.824 439.903C451.824 447.911 450.69 450.682 447.411 450.682C443.715 450.682 442.437 448.173 442.402 440.845C442.353 430.955 445.382 427.162 449.995 431.337ZM514.851 431.733C515.455 432.861 515.949 436.663 515.949 440.182C515.949 447.781 514.671 450.682 511.324 450.682C507.979 450.682 506.465 447.41 506.465 440.182C506.465 436.882 507.012 433.17 507.68 431.932C509.235 429.052 513.355 428.938 514.851 431.733ZM591.995 431.337C593.431 432.636 593.824 434.478 593.824 439.903C593.824 443.704 593.358 447.684 592.789 448.748C591.575 451.015 587.587 451.306 585.881 449.251C583.837 446.788 583.417 437.593 585.158 433.425C586.871 429.326 589.041 428.663 591.995 431.337ZM482.824 443.748C482.824 445.434 482.358 447.684 481.789 448.748C480.541 451.08 476.281 451.316 475.431 449.1C473.733 444.675 476.088 440.682 480.395 440.682C482.439 440.682 482.824 441.168 482.824 443.748ZM545.824 443.748C545.824 445.434 545.358 447.684 544.789 448.748C543.541 451.08 539.281 451.316 538.431 449.1C536.733 444.675 539.088 440.682 543.395 440.682C545.439 440.682 545.824 441.168 545.824 443.748Z" fill="black"/>
</svg>
